<svg enable-background="new 0 0 1000 1000" viewBox="0 0 1000 1000" xmlns="http://www.w3.org/2000/svg"><g fill="#a67d2d"><path d="m855.2 296.7c-.2 10.1-4.1 18.4-11 23.7 2.9 2.5 5.4 5.6 7.2 9.3 3.6 7.2 3.7 14.3 3.7 15.1v3.5 5h-5-2.2c8.2 6.9 13.1 17.1 13.2 28.1h138.9v-84.7z"/><path d="m671.5 318.1c-13.8 0-25 11.2-25 25s11.2 25 25 25 25-11.2 25-25-11.2-25-25-25zm0 47.4c-12.3 0-22.5-10-22.5-22.4s10.1-22.4 22.5-22.4 22.4 10.1 22.4 22.4-10.1 22.4-22.4 22.4z"/><path d="m804.6 295.6h-213.1c-9 0-16.3 11-16.3 24.6 0 5.9 1.4 13.4 3.7 20.1 3.4 9.7 13 15.8 23.2 14.8l23.7-2.4c-1.8-4.5-2.8-9.4-2.8-14.5 0-21.8 17.7-39.5 39.5-39.5 16.9 0 31.3 10.7 37 25.6 5.6-14.9 20.1-25.6 37-25.6 21.8 0 39.5 17.7 39.5 39.5 0 5.2-1 10.1-2.8 14.7l21.1 2.2c10.2 1.1 19.9-5 23.2-14.8 2.3-6.6 3.7-14.2 3.7-20-.2-13.7-7.5-24.7-16.6-24.7z"/><path d="m727.3 318.1c-13.8 0-25 11.2-25 25s11.2 25 25 25 25-11.2 25-25-11.2-25-25-25zm0 47.4c-12.3 0-22.4-10.1-22.4-22.4s10-22.4 22.4-22.4 22.4 10.1 22.4 22.4-10.1 22.4-22.4 22.4z"/><path d="m0 296.7v84.7h535.1c.1-15.6 10-29.5 24.6-34.7 3.5-1.3 5.8-4.5 5.8-8v-34.6c0-2.5.2-5 .4-7.4zm537.4 9.8-4 5.6c-1.6 2.2-3.3 4.6-5.1 7s-3.7 4.8-5.6 7.2-3.9 4.8-5.8 7.1c-1.2 1.4-2.4 2.8-3.6 4.2-.1.1-.2.3-.1.4.7 1.5 1.3 3 2 4.5 1 2.3 2 4.7 3 7.1 1 2.3 1.9 4.8 2.8 7.3.8 2.5 1.8 5.2 2.7 8.1l1.5 4.7c.2.6-.2 1.1-.8 1.1h-4.9-13.7-2.9c-.1 0-.3-.1-.3-.2l-.9-2.8c-.8-2.4-1.5-4.5-2.1-6.2-.6-1.8-1.2-3.5-1.8-5-.1-.5-.3-1-.5-1.5-.1-.3-.4-.3-.6-.1l-11.6 14.1-1.2 1.5c-.1.1-.2.1-.3.1h-1.9-14.6-7.6c-.7 0-1-.9-.6-1.4l3.4-4c.2-.3 0-.6-.3-.6h-1.2-119.3-3.6c-.4 0-.8-.3-.8-.8v-3.4-.2-1.8-1.9-.5-1.7-.3-1.5-.4-.8-4.7c0-.3 0-.7.1-1.1.8-3.3 1.8-6.5 2.7-9.8s1.9-6.5 2.9-9.7c.9-3.1 1.9-6.2 2.9-9.2s2-5.8 2.9-8.5l.8-2.4c.1-.4.4-.6.8-.6h2.5 5.1 2.7c.4 0 .7.2.8.6l.7 2.6c.4 1.6.9 3.5 1.4 5.7s1 4.5 1.5 6.8c.1.6.2 1.1.3 1.7 0 .3.4.4.6.1.7-1.2 1.5-2.3 2.3-3.5 1.6-2.3 3.1-4.6 4.6-6.7s2.9-4 4.1-5.6l1.1-1.4c.2-.2.4-.3.7-.3h1.8 5 3.9c.5 0 .8.4.8.9l-.4 3.9c-.2 2.5.9 1.7.9.9 0-3 1.4-4.9 2.5-5.9 1.5-1.5 3.4-2.2 5.4-2.2 1.9 0 3.6.6 5 1.9 1.3 1.2 1.9 2.6 2.1 3.8.1 0 .2-.1.3-.2 1.6-1.4 3.6-2.4 5.9-3.1 2.1-.7 4.6-1 7.3-1 1.3 0 2.6.1 3.8.3 1.1.2 2.2.5 3.2.8 1 .2 1.8.6 2.6.9.2.1.5.2.7.3s.4 0 .5-.2l.1-.6c.1-.3.4-.6.8-.6h2.8 27.4 4.5c.5 0 .9.5.8 1l-1 4.4-1 4.3-.1.3c2.3-.9 4.7-1.4 7.4-1.4 1.9 0 3.7.3 5.2.8.6.2 1.1.4 1.6.7.3.1.6-.2.5-.5l-1.7-3.8-2.2-5c-.2-.6.2-1.2.8-1.2h5.5 14.1 2.8c.1 0 .2.1.3.2l1 2.6 3.8 9.9c.1.3.4.3.6.1.6-.8 1.3-1.7 1.9-2.5 2.3-3 4.4-5.8 6.3-8.5l1.2-1.7c.1 0 .2-.1.3-.1h2.1 14 6.9c.7-0 1.1.7.8 1.6z"/><path d="m413.9 352v-1.6h-13.1v9.8h2.3v-4.3h10.8v-1.7h-10.8v-2.2z"/><path d="m431.4 351.9c0-.9-.8-1.6-1.6-1.6h-11.4v9.8h2.3v-4.2h9c.9 0 1.7-.8 1.7-1.7zm-2.2 2.3h-8.5v-2.2h8.5z"/><path d="m447.3 354.2h-7.4v1.7h6.8v2.4h-8.5v-6.3h10.8c0-.9-.7-1.7-1.7-1.7h-9.7c-.9 0-1.6.7-1.6 1.6v6.4c0 1 .8 1.8 1.8 1.8h9.3c1 0 1.8-.8 1.8-1.8v-2.4c.2-.9-.6-1.7-1.6-1.7z"/><path d="m465 350.4h-9.7c-.9 0-1.7.7-1.7 1.7v8.1h2.3v-4.2h8.5v4.2h2.3v-8.2c-0-.9-.8-1.6-1.7-1.6zm-9.1 3.8v-2.2h8.5v2.2z"/><path d="m380.8 355.4v-.3l1.6-.9h-41.4v1.7h40.7z"/><path d="m389 350.4h-48v1.7h45.1z"/><path d="m385.8 358.3h-44.8v1.8h48z"/><path d="m395.6 354.5-5.5-3.2c-.4-.2-1-.2-1.4 0l-5.6 3.2c-.3.2-.3.7 0 .9l5.5 3.2c.5.3 1 .3 1.5 0l1.7-1c.1-.1.1-.3 0-.4-.2-.1-.2-.3 0-.4l.7-.4c.2-.1.5-.1.7 0s.5.1.7 0l1.6-.9c.4-.3.4-.8.1-1zm-1 .5-.4.2-4.2 2.4c-.4.2-.9.2-1.2 0l-4.6-2.7c-.3-.1-.3-.5 0-.6l4.6-2.7c.4-.2.8-.2 1.2 0l4.6 2.6c.3.2.3.6-0 .8z"/></g></svg>