<svg enable-background="new 0 0 1000 1000" viewBox="0 0 1000 1000" xmlns="http://www.w3.org/2000/svg"><g fill="#006838"><path d="m833.8 295.3c-.8.4-1.6.9-2.4 1.4h18.8c0-.4 0-.7 0-1.1v-3.5h-3.5c-.2 0-6.5 0-12.9 3.2z"/><path d="m540 381.5c0 13.9 8.9 25.8 21.3 30.2 5.4 1.9 9.1 6.9 9.1 12.7v16.9c0 5.2-3.3 9.9-8.2 11.6-9.9 3.4-17 12.9-16.8 24 .2 13.8 11.7 24.7 25.4 24.7h89.1c6.6 0 12.6-3.9 15.2-9.9 3.8-8.9 12.7-15.1 23-15.1s19.2 6.2 23 15.1c2.6 6.1 8.6 9.9 15.2 9.9h89.1c13.8 0 25.2-11 25.4-24.7.1-11.1-6.9-20.6-16.8-24-4.9-1.7-8.2-6.4-8.2-11.6v-16.9c0-5.7 3.7-10.7 9.1-12.7 12.4-4.4 21.3-16.2 21.3-30.2v-.1h-316.2z"/><path d="m861.2 381.5c0 15.6-9.9 29.7-24.6 34.9-3.5 1.2-5.8 4.4-5.8 8v16.9c0 3.1 2 5.8 4.9 6.9 12.2 4.2 20.3 15.8 20.2 28.8-.2 16.3-13.9 29.6-30.4 29.6h-89.1c-8.6 0-16.4-5.1-19.8-12.9-3.2-7.4-10.4-12.1-18.4-12.1s-15.3 4.8-18.4 12.1c-3.4 7.9-11.2 12.9-19.8 12.9h-89.1c-16.6 0-30.2-13.3-30.4-29.6-.2-13 7.9-24.5 20.2-28.8 2.9-1 4.9-3.8 4.9-6.9v-16.9c0-3.5-2.3-6.7-5.8-8-14.7-5.2-24.6-19.2-24.6-34.9v-.1h-535.2v618.6h1000v-618.6h-138.8z"/><path d="m0 0v296.7h565.9c3.7-31.2 30.3-55.5 62.5-55.5h139.4c16.4 0 31.9 6.3 43.7 17.6 9.4 9.1 15.6 20.6 18.1 33.2.7-.4 1.3-.8 2-1.1 7.2-3.6 14.3-3.7 15.1-3.7h3.5 5v5 3.5 1.1h144.8v-296.8z"/><path d="m767.8 246.2h-139.4c-29.5 0-53.8 22-57.5 50.6h254.4c-3.7-28.6-28-50.6-57.5-50.6z"/><path d="m671.5 320.7c-12.4 0-22.4 10.1-22.4 22.4s10.1 22.4 22.4 22.4 22.4-10.1 22.4-22.4-10.1-22.4-22.4-22.4zm-3 23.7c-4.3 0-7.7-3.4-7.7-7.7s3.4-7.7 7.7-7.7 7.7 3.4 7.7 7.7-3.4 7.7-7.7 7.7z"/><path d="m834 452.8c-4.9-1.7-8.2-6.4-8.2-11.6v-16.9c0-5.7 3.7-10.7 9.1-12.7 12.4-4.4 21.3-16.2 21.3-30.2 0-13.9-8.9-25.8-21.3-30.2-5.3-1.9-8.9-6.7-9.1-12.3.5.7 1 1.3 1.6 1.9 4.6 4.8 11.1 7.3 19.3 7.3h3.5v-3.5c0-.3 0-6.6-3.2-12.9-2.2-4.3-6.1-9.2-13-11.7 1.5-.5 3.1-1.2 4.7-2.1 9.5-5.5 11.5-15.3 11.5-22.5v-3.5h-3.5c-.3 0-6.6 0-12.9 3.2-2.7 1.4-5.7 3.4-8.1 6.5-1.2-31-26.7-55.7-57.9-55.7h-139.4c-32 0-58 26-58 58v34.6c0 5.7-3.7 10.7-9.1 12.7-12.4 4.4-21.3 16.2-21.3 30.2 0 13.9 8.9 25.8 21.3 30.2 5.4 1.9 9.1 6.9 9.1 12.7v16.9c0 5.2-3.3 9.9-8.2 11.6-9.9 3.4-17 12.9-16.8 24 .2 13.8 11.7 24.7 25.4 24.7h89.1c6.6 0 12.6-3.9 15.2-9.9 3.8-8.9 12.7-15.1 23-15.1s19.2 6.2 23 15.1c2.6 6.1 8.6 9.9 15.2 9.9h89.1c13.8 0 25.2-11 25.4-24.7.2-11.1-6.9-20.6-16.8-24zm-151.1-87.4c-5.7 4.3-12.8 6.9-20.5 6.9-18.8 0-34.1-15.3-34.1-34.1s15.3-34.1 34.1-34.1 34.1 15.3 34.1 34.1c0 .9 0 1.8-.1 2.6.1.8.1 1.5.1 2.3 0 9.7-5.5 18.1-13.6 22.3zm53.4 6.8c-7.7 0-14.8-2.6-20.5-6.9-8.1-4.2-13.6-12.5-13.6-22.2 0-.8 0-1.6.1-2.3-.1-.9-.1-1.8-.1-2.6 0-18.8 15.3-34.1 34.1-34.1s34.1 15.3 34.1 34.1-15.2 34-34.1 34zm81-32c-3.4 9.7-13 15.8-23.2 14.8l-21.1-2.2c1.8-4.5 2.8-9.5 2.8-14.7 0-21.8-17.7-39.5-39.5-39.5-16.9 0-31.3 10.7-37 25.6-5.6-14.9-20.1-25.6-37-25.6-21.8 0-39.5 17.7-39.5 39.5 0 5.1 1 10 2.8 14.5l-23.6 2.4c-10.2 1-19.8-5.1-23.2-14.8-2.3-6.6-3.7-14.2-3.7-20.1 0-13.6 7.3-24.6 16.3-24.6h213.1c9 0 16.3 11 16.3 24.6.2 6-1.2 13.5-3.5 20.1z"/><path d="m727.3 320.7c-12.4 0-22.4 10.1-22.4 22.4s10.1 22.4 22.4 22.4 22.4-10.1 22.4-22.4-10.1-22.4-22.4-22.4zm2.9 23.7c-4.3 0-7.7-3.4-7.7-7.7s3.4-7.7 7.7-7.7 7.7 3.4 7.7 7.7-3.5 7.7-7.7 7.7z"/><path d="m420.7 352h8.5v2.2h-8.5z"/><path d="m455.9 352h8.5v2.2h-8.5z"/><path d="m470.7 330.5c1.2-.5 2.2-1.1 2.9-1.9s1-1.9 1-3.2c0-.3-.1-.7-.2-1-.1-.4-.3-.7-.6-1s-.7-.6-1.3-.7c-.5-.2-1.2-.3-2-.3-1.2 0-2.4.3-3.5.8s-2.1 1.2-2.9 2.1c-.9.9-1.6 1.9-2.2 3-.6 1.2-1.1 2.4-1.4 3.6 2.1-.1 3.9-.2 5.6-.4 1.9-.2 3.4-.5 4.6-1z"/><path d="m388.6 359.3c-.1 0-.1 0 0 0-.1-.1-.1-.1 0 0 0-.1 0-.1 0-.1s0 0-.1 0 0 0-.1 0 0 0-.1 0v.3h.1.1.1.1.1.1.1.1v.2z"/><path d="m388.4 359.5v.3l1 .5v-.3z"/><path d="m536.6 304.9h-6.9-14-2.1c-.1 0-.2.1-.3.1l-1.2 1.7c-1.9 2.7-4 5.5-6.3 8.5-.6.8-1.3 1.7-1.9 2.5-.2.2-.5.2-.6-.1l-3.8-9.9-1-2.6c-.1-.1-.2-.2-.3-.2h-2.8-14.1-5.5c-.6 0-1 .6-.8 1.2l2.2 5 1.7 3.8c.1.3-.2.6-.5.5-.5-.3-1-.5-1.6-.7-1.5-.5-3.3-.8-5.2-.8-2.7 0-5.1.5-7.4 1.4l.1-.3 1-4.3 1-4.4c.1-.5-.3-1-.8-1h-4.5-27.4-2.8c-.4 0-.7.3-.8.6l-.1.6c-.1.2-.3.3-.5.2s-.5-.2-.7-.3c-.8-.3-1.6-.7-2.6-.9-1-.3-2.1-.6-3.2-.8-1.2-.2-2.5-.3-3.8-.3-2.7 0-5.2.3-7.3 1-2.3.7-4.3 1.7-5.9 3.1-.1.1-.2.2-.3.2-.2-1.2-.8-2.6-2.1-3.8-1.4-1.3-3.1-1.9-5-1.9-2 0-3.9.7-5.4 2.2-1.1 1-2.5 2.9-2.5 5.9 0 .8-1.1 1.6-.9-.9l.4-3.9c0-.5-.3-.9-.8-.9h-3.9-5-1.8c-.3 0-.5.1-.7.3l-1.1 1.4c-1.2 1.6-2.6 3.5-4.1 5.6s-3 4.4-4.6 6.7c-.8 1.2-1.6 2.3-2.3 3.5-.2.3-.6.2-.6-.1-.1-.6-.2-1.1-.3-1.7-.5-2.3-1-4.6-1.5-6.8s-1-4.1-1.4-5.7l-.7-2.6c-.1-.4-.4-.6-.8-.6h-2.7-5.1-2.5c-.4 0-.7.2-.8.6l-.8 2.4c-.9 2.7-1.9 5.5-2.9 8.5s-2 6.1-2.9 9.2c-1 3.2-2 6.4-2.9 9.7s-1.9 6.5-2.7 9.8c-.1.4-.1.8-.1 1.1v4.7.8.4 1.5.3 1.7.5 1.9 1.8.2 3.4c0 .5.4.8.8.8h3.6 119.3 1.2c.3 0 .5.3.3.6l-3.4 4c-.4.5-.1 1.4.6 1.4h7.6 14.6 1.9c.1 0 .2 0 .3-.1l1.2-1.5 11.6-14.1c.2-.2.5-.2.6.1.2.5.4 1 .5 1.5.6 1.5 1.2 3.2 1.8 5 .6 1.7 1.3 3.8 2.1 6.2l.9 2.8c0 .1.2.2.3.2h2.9 13.7 4.9c.6 0 1-.5.8-1.1l-1.5-4.7c-.9-2.9-1.9-5.6-2.7-8.1-.9-2.5-1.8-5-2.8-7.3-1-2.4-2-4.8-3-7.1-.7-1.5-1.3-3-2-4.5-.1-.1 0-.3.1-.4 1.2-1.4 2.4-2.8 3.6-4.2 1.9-2.3 3.9-4.7 5.8-7.1s3.8-4.8 5.6-7.2 3.5-4.8 5.1-7l4-5.6c.3-.9-.1-1.6-.8-1.6zm-72.1 14.8c2-1 4.2-1.6 6.8-1.6 1.5 0 2.7.2 3.8.6 1 .4 1.9.9 2.6 1.5s1.1 1.4 1.5 2.2c.3.8.5 1.7.5 2.6 0 1.7-.3 3.1-.9 4.2-.6 1.2-1.4 2.1-2.4 2.9s-2.2 1.4-3.5 1.8-2.7.8-4.2 1c-1.4.2-2.9.4-4.4.5s-2.9.2-4.2.2c0 .3-.1.5-.1.7v.4c0 .8.1 1.6.3 2.3s.6 1.4 1.1 1.9c.5.6 1.3 1 2.2 1.3s2.2.5 3.7.5c.7 0 1.4-.1 2.1-.2s1.4-.3 2.1-.5 1.2-.4 1.8-.6c.5-.2.9-.4 1.1-.6l.4 4.2c-.7.4-1.9.8-3.4 1.3-1.6.4-3.4.7-5.6.7-1.8 0-3.4-.3-4.7-.8s-2.4-1.2-3.3-2.1-1.5-2-2-3.2c-.4-1.2-.6-2.5-.6-3.8 0-2.5.4-4.9 1.1-7.2s1.8-4.3 3.2-6.1c1.3-1.7 3-3.1 5-4.1zm-68.9-11.5c.7-.7 1.5-1 2.4-1 .8 0 1.5.3 2.1.8s.9 1.2.9 2.2c0 1.1-.4 1.9-1.1 2.6s-1.5 1-2.4 1c-.8 0-1.5-.2-2.1-.7s-.8-1.2-.8-2.1c-.1-1.2.3-2.1 1-2.8zm-2.2 10.5h5l-6.7 27.7h-5zm-49.7 18.1c.9-3.2 1.9-6.4 2.9-9.6 1-3.1 2-6.2 2.9-9.2 1-3 1.9-5.8 2.8-8.5h5.1c.4 1.6.9 3.4 1.4 5.5s1 4.4 1.4 6.7c.5 2.3.9 4.6 1.3 6.9s.8 4.4 1 6.3c1.3-1.9 2.7-4 4.2-6.3s3.1-4.6 4.7-6.9 3.1-4.5 4.6-6.7c1.5-2.1 2.8-3.9 4-5.5h5c-.6 6-1.4 12.1-2.4 18.3s-2.1 12.4-3.3 18.6h-5.3c1.1-5.1 2-10.1 2.9-14.9s1.7-9.5 2.3-14.1c-.6.8-1.3 1.8-2.1 3-.9 1.2-1.8 2.6-2.8 4.1s-2 3-3.1 4.7c-1.1 1.6-2.1 3.2-3.1 4.7s-1.9 2.9-2.8 4.2-1.5 2.4-2.1 3.2h-4.2c-.1-.9-.3-1.9-.6-3.2-.2-1.3-.5-2.7-.8-4.2s-.6-3.1-.9-4.7-.6-3.2-.9-4.7-.6-2.8-.8-4.1c-.2-1.2-.5-2.2-.6-3-1.5 4.6-2.9 9.3-4.4 14.2-1.4 4.9-2.8 9.8-4.2 14.8h-4.8c.8-3.2 1.7-6.4 2.7-9.6zm45.7 23.3v.1h-48.4v-1.8h44.8l1.9 1.1v-.3l-6.9-4v.3l.9.5h-40.7v-1.7h41.4l3.8-2.2h-45.2v-1.7h48l.3-.2 6.9 4c-.2.1-.2.3 0 .4s.5.1.7 0l.9.5zm24.5-8.1h-10.8v2.2h10.8v1.7h-10.8v4.2h-2.3v-9.8h13v1.7zm-5.5-4.8c-1.4 0-2.7-.1-3.9-.3s-2.2-.4-3-.7c-.9-.3-1.6-.6-2.2-.9s-1.1-.6-1.4-.8l2.4-4.2c.7.5 1.7 1 3.2 1.6s3.3.9 5.5.9c1.1 0 2.2-.1 3.3-.3s2.1-.6 2.9-1.1c.9-.5 1.5-1.2 2.1-2.1.5-.9.8-1.9.8-3.2 0-.9-.2-1.7-.5-2.3-.3-.7-.8-1.2-1.4-1.8-.6-.5-1.3-1-2.1-1.4s-1.7-.9-2.6-1.4c-.8-.4-1.6-.9-2.5-1.4-.8-.5-1.6-1.1-2.2-1.8-.7-.7-1.2-1.6-1.6-2.6s-.6-2.2-.6-3.6c0-1.6.3-3.1.9-4.4s1.5-2.5 2.7-3.5 2.7-1.7 4.4-2.3c1.8-.5 3.8-.8 6-.8 1.1 0 2.1.1 3 .2 1 .2 1.8.4 2.6.6s1.5.5 2.1.8 1 .5 1.3.7l-2.4 4c-.6-.5-1.6-.9-2.9-1.4-1.3-.4-2.9-.6-4.7-.6-1.1 0-2.2.1-3.2.3s-1.8.6-2.5 1.1-1.3 1.1-1.7 1.9-.6 1.7-.6 2.7c0 .9.1 1.7.4 2.3s.7 1.2 1.2 1.7 1.1.9 1.8 1.3 1.5.8 2.4 1.2c1.1.5 2.1 1.1 3 1.6.9.6 1.8 1.2 2.5 1.9s1.3 1.6 1.7 2.6.6 2.2.6 3.6c0 2-.4 3.7-1.1 5.1-.8 1.5-1.8 2.7-3.1 3.7s-2.9 1.7-4.7 2.2c-1.8.7-3.8.9-5.9.9zm23.1 7c0 .9-.8 1.7-1.7 1.7h-9v4.2h-2.3v-9.8h11.4c.9 0 1.6.7 1.6 1.6zm.7-40.4 1-4.3h27.4l-1 4.3h-11.1l-7.8 32.6h-5.2l7.8-32.6zm14.6 44.5v-2.4h-6.8v-1.7h7.4c.9 0 1.7.8 1.7 1.7v2.4c0 1-.8 1.8-1.8 1.8h-9.3c-1 0-1.8-.8-1.8-1.8v-6.4c0-.9.8-1.6 1.6-1.6h9.7c.9 0 1.7.7 1.7 1.7h-10.8v6.3zm9.1-2.4v4.2h-2.3v-8.1c0-.9.7-1.7 1.7-1.7h9.7c.9 0 1.7.7 1.7 1.7v8.1h-2.3v-4.2zm68.4-39.7c-1.8 2.4-3.6 4.8-5.5 7.1-1.9 2.4-3.8 4.7-5.7 7s-3.8 4.4-5.6 6.4c1.1 2.6 2.2 5 3.2 7.3s2 4.6 2.9 6.9 1.8 4.7 2.7 7.2 1.8 5.1 2.7 8h-13.7c-.8-2.4-1.5-4.4-2.1-6.2s-1.2-3.5-1.8-5c-.6-1.6-1.2-3-1.8-4.4s-1.3-2.9-2-4.4l-16.5 20.1h-14.6l25.9-31-11.6-25.9h14.1l6.8 17.6c2.5-3 4.8-6 7.1-9s4.4-5.9 6.3-8.6h14c-1.3 2.2-3 4.5-4.8 6.9z"/><path d="m389.4 350.6-7.8 4.5 7.3 4.2h1l7.3-4.2zm4.6 5.8c-.2.1-.5.1-.7 0s-.5-.1-.7 0l-.7.4c-.2.1-.2.3 0 .4.1.1.1.3 0 .4l-1.7 1c-.5.3-1 .3-1.5 0l-5.5-3.2c-.3-.2-.3-.7 0-.9l5.6-3.2c.4-.2 1-.2 1.4 0l5.5 3.2c.4.2.4.8 0 1z"/></g></svg>