<?xml version="1.0" encoding="utf-8"?>
<!-- Generator: Adobe Illustrator 28.3.0, SVG Export Plug-In . SVG Version: 6.00 Build 0)  -->
<svg version="1.1" id="Layer_1" xmlns="http://www.w3.org/2000/svg" xmlns:xlink="http://www.w3.org/1999/xlink" x="0px" y="0px"
	 viewBox="0 0 1000 1000" style="enable-background:new 0 0 1000 1000;" xml:space="preserve">
<style type="text/css">
	.st0{fill:#A67D2D;}
</style>
<path class="st0" d="M855.2,296.7c-0.2,10.1-4.1,18.4-11,23.7c2.9,2.5,5.4,5.6,7.2,9.3c3.6,7.2,3.7,14.3,3.7,15.1v3.5v5h-5h-2.2
	c8.2,6.9,13.1,17.1,13.2,28.1H1000v-84.7H855.2z"/>
<path class="st0" d="M671.5,318.1c-13.8,0-25,11.2-25,25s11.2,25,25,25s25-11.2,25-25S685.3,318.1,671.5,318.1z M671.5,365.5
	c-12.3,0-22.5-10-22.5-22.4c0-12.4,10.1-22.4,22.5-22.4s22.4,10.1,22.4,22.4S683.8,365.5,671.5,365.5z"/>
<g>
	<path class="st0" d="M804.6,295.6H591.5c-9,0-16.3,11-16.3,24.6l0,0c0,5.9,1.4,13.4,3.7,20.1c3.4,9.7,13,15.8,23.2,14.8l23.7-2.4
		c-1.8-4.5-2.8-9.4-2.8-14.5c0-21.8,17.7-39.5,39.5-39.5c16.9,0,31.3,10.7,37,25.6c5.6-14.9,20.1-25.6,37-25.6
		c21.8,0,39.5,17.7,39.5,39.5c0,5.2-1,10.1-2.8,14.7l21.1,2.2c10.2,1.1,19.9-5,23.2-14.8c2.3-6.6,3.7-14.2,3.7-20l0,0
		C821,306.6,813.7,295.6,804.6,295.6z"/>
</g>
<path class="st0" d="M727.3,318.1c-13.8,0-25,11.2-25,25s11.2,25,25,25s25-11.2,25-25S741.1,318.1,727.3,318.1z M727.3,365.5
	c-12.3,0-22.4-10.1-22.4-22.4s10-22.4,22.4-22.4c12.4,0,22.4,10.1,22.4,22.4S739.6,365.5,727.3,365.5z"/>
<path class="st0" d="M0,296.7v84.7h535.1c0.1-15.6,10-29.5,24.6-34.7c3.5-1.3,5.8-4.5,5.8-8v-34.6c0-2.5,0.2-5,0.4-7.4H0z
	 M537.4,306.5l-4,5.6c-1.6,2.2-3.3,4.6-5.1,7c-1.8,2.4-3.7,4.8-5.6,7.2c-1.9,2.4-3.9,4.8-5.8,7.1c-1.2,1.4-2.4,2.8-3.6,4.2
	c-0.1,0.1-0.2,0.3-0.1,0.4c0.7,1.5,1.3,3,2,4.5c1,2.3,2,4.7,3,7.1c1,2.3,1.9,4.8,2.8,7.3c0.8,2.5,1.8,5.2,2.7,8.1l1.5,4.7
	c0.2,0.6-0.2,1.1-0.8,1.1h-4.9h-13.7h-2.9c-0.1,0-0.3-0.1-0.3-0.2l-0.9-2.8c-0.8-2.4-1.5-4.5-2.1-6.2c-0.6-1.8-1.2-3.5-1.8-5
	c-0.1-0.5-0.3-1-0.5-1.5c-0.1-0.3-0.4-0.3-0.6-0.1l-11.6,14.1l-1.2,1.5c-0.1,0.1-0.2,0.1-0.3,0.1h-1.9h-14.6h-7.6
	c-0.7,0-1-0.9-0.6-1.4l3.4-4c0.2-0.3,0-0.6-0.3-0.6h-1.2H341.5h-3.6c-0.4,0-0.8-0.3-0.8-0.8v-3.4v-0.2v-1.8v-1.9v-0.5v-1.7v-0.3
	v-1.5v-0.4v-0.8v-4.7c0-0.3,0-0.7,0.1-1.1c0.8-3.3,1.8-6.5,2.7-9.8c0.9-3.3,1.9-6.5,2.9-9.7c0.9-3.1,1.9-6.2,2.9-9.2s2-5.8,2.9-8.5
	l0.8-2.4c0.1-0.4,0.4-0.6,0.8-0.6h2.5h5.1h2.7c0.4,0,0.7,0.2,0.8,0.6l0.7,2.6c0.4,1.6,0.9,3.5,1.4,5.7s1,4.5,1.5,6.8
	c0.1,0.6,0.2,1.1,0.3,1.7c0,0.3,0.4,0.4,0.6,0.1c0.7-1.2,1.5-2.3,2.3-3.5c1.6-2.3,3.1-4.6,4.6-6.7c1.5-2.1,2.9-4,4.1-5.6l1.1-1.4
	c0.2-0.2,0.4-0.3,0.7-0.3h1.8h5h3.9c0.5,0,0.8,0.4,0.8,0.9l-0.4,3.9c-0.2,2.5,0.9,1.7,0.9,0.9c0-3,1.4-4.9,2.5-5.9
	c1.5-1.5,3.4-2.2,5.4-2.2c1.9,0,3.6,0.6,5,1.9c1.3,1.2,1.9,2.6,2.1,3.8c0.1,0,0.2-0.1,0.3-0.2c1.6-1.4,3.6-2.4,5.9-3.1
	c2.1-0.7,4.6-1,7.3-1c1.3,0,2.6,0.1,3.8,0.3c1.1,0.2,2.2,0.5,3.2,0.8c1,0.2,1.8,0.6,2.6,0.9c0.2,0.1,0.5,0.2,0.7,0.3s0.4,0,0.5-0.2
	l0.1-0.6c0.1-0.3,0.4-0.6,0.8-0.6h2.8H461h4.5c0.5,0,0.9,0.5,0.8,1l-1,4.4l-1,4.3l-0.1,0.3c2.3-0.9,4.7-1.4,7.4-1.4
	c1.9,0,3.7,0.3,5.2,0.8c0.6,0.2,1.1,0.4,1.6,0.7c0.3,0.1,0.6-0.2,0.5-0.5l-1.7-3.8l-2.2-5c-0.2-0.6,0.2-1.2,0.8-1.2h5.5h14.1h2.8
	c0.1,0,0.2,0.1,0.3,0.2l1,2.6l3.8,9.9c0.1,0.3,0.4,0.3,0.6,0.1c0.6-0.8,1.3-1.7,1.9-2.5c2.3-3,4.4-5.8,6.3-8.5l1.2-1.7
	c0.1,0,0.2-0.1,0.3-0.1h2.1h14h6.9C537.3,304.9,537.7,305.6,537.4,306.5z"/>
<polygon class="st0" points="413.9,352 413.9,350.4 400.8,350.4 400.8,360.2 403.1,360.2 403.1,355.9 413.9,355.9 413.9,354.2 
	403.1,354.2 403.1,352 "/>
<path class="st0" d="M431.4,351.9c0-0.9-0.8-1.6-1.6-1.6h-11.4v9.8h2.3v-4.2h9c0.9,0,1.7-0.8,1.7-1.7V351.9L431.4,351.9z
	 M429.2,354.2h-8.5V352h8.5V354.2z"/>
<path class="st0" d="M447.3,354.2h-7.4v1.7h6.8v2.4h-8.5V352H449c0-0.9-0.7-1.7-1.7-1.7h-9.7c-0.9,0-1.6,0.7-1.6,1.6l0,0v6.4
	c0,1,0.8,1.8,1.8,1.8h9.3c1,0,1.8-0.8,1.8-1.8v-2.4l0,0C449.1,355,448.3,354.2,447.3,354.2z"/>
<path class="st0" d="M465,350.4h-9.7c-0.9,0-1.7,0.7-1.7,1.7v8.1h2.3V356h8.5v4.2h2.3V352C466.7,351.1,465.9,350.4,465,350.4z
	 M455.9,354.2V352h8.5v2.2H455.9z"/>
<g>
	<polygon class="st0" points="380.8,355.4 380.8,355.1 382.4,354.2 341,354.2 341,355.9 381.7,355.9 	"/>
	<polygon class="st0" points="389,350.4 341,350.4 341,352.1 386.1,352.1 	"/>
	<polygon class="st0" points="385.8,358.3 341,358.3 341,360.1 389,360.1 	"/>
</g>
<path class="st0" d="M395.6,354.5l-5.5-3.2c-0.4-0.2-1-0.2-1.4,0l-5.6,3.2c-0.3,0.2-0.3,0.7,0,0.9l5.5,3.2c0.5,0.3,1,0.3,1.5,0
	l1.7-1c0.1-0.1,0.1-0.3,0-0.4c-0.2-0.1-0.2-0.3,0-0.4l0.7-0.4c0.2-0.1,0.5-0.1,0.7,0c0.2,0.1,0.5,0.1,0.7,0l1.6-0.9
	C395.9,355.2,395.9,354.7,395.6,354.5z M394.6,355l-0.4,0.2l-4.2,2.4c-0.4,0.2-0.9,0.2-1.2,0l-4.6-2.7c-0.3-0.1-0.3-0.5,0-0.6
	l4.6-2.7c0.4-0.2,0.8-0.2,1.2,0l4.6,2.6C394.9,354.4,394.9,354.8,394.6,355z"/>
</svg>
