<?xml version="1.0" encoding="utf-8"?>
<!-- Generator: Adobe Illustrator 28.3.0, SVG Export Plug-In . SVG Version: 6.00 Build 0)  -->
<svg version="1.1" id="Layer_1" xmlns="http://www.w3.org/2000/svg" xmlns:xlink="http://www.w3.org/1999/xlink" x="0px" y="0px"
	 viewBox="0 0 1000 1000" style="enable-background:new 0 0 1000 1000;" xml:space="preserve">
<style type="text/css">
	.st0{fill:#006838;}
	.st1{fill:#A67D2D;}
	.st2{fill:#FFFFFF;}
	.st3{fill:#F0EFEF;}
</style>
<rect class="st0" width="1000" height="1000"/>
<rect y="296.7" class="st1" width="1000" height="84.7"/>
<path class="st0" d="M834,452.8c-4.9-1.7-8.2-6.4-8.2-11.6v-16.9c0-5.7,3.7-10.7,9.1-12.7c12.4-4.4,21.3-16.2,21.3-30.2
	c0-13.9-8.9-25.8-21.3-30.2c-5.3-1.9-8.9-6.7-9.1-12.3c0.5,0.7,1,1.3,1.6,1.9c4.6,4.8,11.1,7.3,19.3,7.3h3.5v-3.5
	c0-0.3,0-6.6-3.2-12.9c-2.2-4.3-6.1-9.2-13-11.7c1.5-0.5,3.1-1.2,4.7-2.1c9.5-5.5,11.5-15.3,11.5-22.5v-3.5h-3.5
	c-0.3,0-6.6,0-12.9,3.2c-2.7,1.4-5.7,3.4-8.1,6.5c-1.2-31-26.7-55.7-57.9-55.7H628.4c-32,0-58,26-58,58v34.6
	c0,5.7-3.7,10.7-9.1,12.7c-12.4,4.4-21.3,16.2-21.3,30.2c0,13.9,8.9,25.8,21.3,30.2c5.4,1.9,9.1,6.9,9.1,12.7v16.9
	c0,5.2-3.3,9.9-8.2,11.6c-9.9,3.4-17,12.9-16.8,24c0.2,13.8,11.7,24.7,25.4,24.7h89.1c6.6,0,12.6-3.9,15.2-9.9
	c3.8-8.9,12.7-15.1,23-15.1s19.2,6.2,23,15.1c2.6,6.1,8.6,9.9,15.2,9.9h89.1c13.8,0,25.2-11,25.4-24.7
	C851,465.7,843.9,456.2,834,452.8z"/>
<path class="st2" d="M767.8,246.2c31.2,0,56.7,24.7,57.9,55.7c2.4-3.1,5.4-5.2,8.1-6.5c6.3-3.2,12.6-3.2,12.9-3.2h3.5v3.5
	c0,7.2-2,17-11.5,22.5c-1.6,0.9-3.2,1.6-4.7,2.1c7,2.5,10.9,7.4,13,11.7c3.2,6.3,3.2,12.6,3.2,12.9v3.5h-3.5
	c-8.2,0-14.7-2.5-19.3-7.3c-0.6-0.6-1.1-1.3-1.6-1.9c0.1,5.6,3.8,10.5,9.1,12.3c12.4,4.4,21.3,16.2,21.3,30.2s-8.9,25.8-21.3,30.2
	c-5.4,1.9-9.1,6.9-9.1,12.7v16.9c0,5.2,3.3,9.9,8.2,11.6c9.9,3.4,17,12.9,16.8,24c-0.2,13.8-11.7,24.7-25.4,24.7h-89.1
	c-6.6,0-12.6-3.9-15.2-9.9c-3.8-8.9-12.7-15.1-23-15.1s-19.2,6.2-23,15.1c-2.6,6.1-8.6,9.9-15.2,9.9h-89.1
	c-13.8,0-25.2-11-25.4-24.7c-0.1-11.1,6.9-20.6,16.8-24c4.9-1.7,8.2-6.4,8.2-11.6v-16.9c0-5.7-3.7-10.7-9.1-12.7
	c-12.4-4.4-21.3-16.2-21.3-30.2c0-13.9,8.9-25.8,21.3-30.2c5.4-1.9,9.1-6.9,9.1-12.7v-34.6c0-32,26-58,58-58L767.8,246.2
	 M767.8,241.2H628.4c-34.7,0-62.9,28.2-62.9,62.9v34.6c0,3.5-2.3,6.7-5.8,8c-14.7,5.2-24.6,19.2-24.6,34.9
	c0,15.6,9.9,29.7,24.6,34.9c3.5,1.2,5.8,4.4,5.8,8v16.9c0,3.1-2,5.8-4.9,6.9c-12.2,4.2-20.3,15.8-20.2,28.8
	c0.2,16.3,13.9,29.6,30.4,29.6h89.1c8.6,0,16.4-5.1,19.8-12.9c3.2-7.4,10.4-12.1,18.4-12.1s15.3,4.8,18.4,12.1
	c3.4,7.9,11.2,12.9,19.8,12.9h89.1c16.6,0,30.2-13.3,30.4-29.6c0.2-13-7.9-24.5-20.2-28.8c-2.9-1-4.9-3.8-4.9-6.9v-16.9
	c0-3.5,2.3-6.7,5.8-8c14.7-5.2,24.6-19.2,24.6-34.9c0-11.1-5-21.4-13.2-28.3h2.2h5v-5v-3.5c0-0.8-0.1-7.9-3.7-15.1
	c-1.8-3.7-4.3-6.8-7.2-9.3c7.1-5.5,11-14.1,11-24.7v-3.5v-5h-5h-3.5c-0.8,0-7.9,0.1-15.1,3.7c-0.7,0.4-1.4,0.7-2,1.1
	c-2.5-12.6-8.7-24.1-18.1-33.2C799.7,247.4,784.2,241.2,767.8,241.2L767.8,241.2z"/>
<circle class="st2" cx="662.4" cy="338.1" r="34.1"/>
<path class="st1" d="M671.5,318.1c-13.8,0-25,11.2-25,25s11.2,25,25,25s25-11.2,25-25S685.3,318.1,671.5,318.1L671.5,318.1z"/>
<path class="st0" d="M671.5,320.7c12.4,0,22.4,10.1,22.4,22.4s-10.1,22.4-22.4,22.4s-22.5-10-22.5-22.4S659.1,320.7,671.5,320.7"/>
<circle class="st3" cx="668.5" cy="336.7" r="7.7"/>
<circle class="st2" cx="736.3" cy="338.1" r="34.1"/>
<g>
	<path class="st1" d="M804.6,295.6H591.5c-9,0-16.3,11-16.3,24.6l0,0c0,5.9,1.4,13.4,3.7,20.1c3.4,9.7,13,15.8,23.2,14.8l23.7-2.4
		c-1.8-4.5-2.8-9.4-2.8-14.5c0-21.8,17.7-39.5,39.5-39.5c16.9,0,31.3,10.7,37,25.6c5.6-14.9,20.1-25.6,37-25.6
		c21.8,0,39.5,17.7,39.5,39.5c0,5.2-1,10.1-2.8,14.7l21.1,2.2c10.2,1.1,19.9-5,23.2-14.8c2.3-6.6,3.7-14.2,3.7-20l0,0
		C821,306.6,813.7,295.6,804.6,295.6z"/>
</g>
<path class="st1" d="M727.3,318.1c-13.8,0-25,11.2-25,25s11.2,25,25,25s25-11.2,25-25S741.1,318.1,727.3,318.1L727.3,318.1z"/>
<path class="st0" d="M727.3,320.7c12.4,0,22.4,10.1,22.4,22.4s-10.1,22.4-22.4,22.4s-22.4-10.1-22.4-22.4S714.9,320.7,727.3,320.7"
	/>
<circle class="st3" cx="730.2" cy="336.7" r="7.7"/>
<path class="st0" d="M536.6,304.9h-6.9h-14h-2.1c-0.1,0-0.2,0.1-0.3,0.1l-1.2,1.7c-1.9,2.7-4,5.5-6.3,8.5c-0.6,0.8-1.3,1.7-1.9,2.5
	c-0.2,0.2-0.5,0.2-0.6-0.1l-3.8-9.9l-1-2.6c-0.1-0.1-0.2-0.2-0.3-0.2h-2.8h-14.1h-5.5c-0.6,0-1,0.6-0.8,1.2l2.2,5l1.7,3.8
	c0.1,0.3-0.2,0.6-0.5,0.5c-0.5-0.3-1-0.5-1.6-0.7c-1.5-0.5-3.3-0.8-5.2-0.8c-2.7,0-5.1,0.5-7.4,1.4l0.1-0.3l1-4.3l1-4.4
	c0.1-0.5-0.3-1-0.8-1H461h-27.4h-2.8c-0.4,0-0.7,0.3-0.8,0.6l-0.1,0.6c-0.1,0.2-0.3,0.3-0.5,0.2c-0.2-0.1-0.5-0.2-0.7-0.3
	c-0.8-0.3-1.6-0.7-2.6-0.9c-1-0.3-2.1-0.6-3.2-0.8c-1.2-0.2-2.5-0.3-3.8-0.3c-2.7,0-5.2,0.3-7.3,1c-2.3,0.7-4.3,1.7-5.9,3.1
	c-0.1,0.1-0.2,0.2-0.3,0.2c-0.2-1.2-0.8-2.6-2.1-3.8c-1.4-1.3-3.1-1.9-5-1.9c-2,0-3.9,0.7-5.4,2.2c-1.1,1-2.5,2.9-2.5,5.9
	c0,0.8-1.1,1.6-0.9-0.9l0.4-3.9c0-0.5-0.3-0.9-0.8-0.9h-3.9h-5h-1.8c-0.3,0-0.5,0.1-0.7,0.3l-1.1,1.4c-1.2,1.6-2.6,3.5-4.1,5.6
	s-3,4.4-4.6,6.7c-0.8,1.2-1.6,2.3-2.3,3.5c-0.2,0.3-0.6,0.2-0.6-0.1c-0.1-0.6-0.2-1.1-0.3-1.7c-0.5-2.3-1-4.6-1.5-6.8
	c-0.5-2.2-1-4.1-1.4-5.7l-0.7-2.6c-0.1-0.4-0.4-0.6-0.8-0.6h-2.7h-5.1h-2.5c-0.4,0-0.7,0.2-0.8,0.6l-0.8,2.4
	c-0.9,2.7-1.9,5.5-2.9,8.5s-2,6.1-2.9,9.2c-1,3.2-2,6.4-2.9,9.7c-0.9,3.3-1.9,6.5-2.7,9.8l0,0c-0.1,0.4-0.1,0.8-0.1,1.1v4.7v0.8v0.4
	v1.5v0.3v1.7v0.5v1.9v1.8v0.2v3.4c0,0.5,0.4,0.8,0.8,0.8h3.6h119.3h1.2c0.3,0,0.5,0.3,0.3,0.6l-3.4,4c-0.4,0.5-0.1,1.4,0.6,1.4h7.6
	h14.6h1.9c0.1,0,0.2,0,0.3-0.1l1.2-1.5l11.6-14.1c0.2-0.2,0.5-0.2,0.6,0.1c0.2,0.5,0.4,1,0.5,1.5c0.6,1.5,1.2,3.2,1.8,5
	c0.6,1.7,1.3,3.8,2.1,6.2l0.9,2.8c0,0.1,0.2,0.2,0.3,0.2h2.9h13.7h4.9c0.6,0,1-0.5,0.8-1.1l-1.5-4.7c-0.9-2.9-1.9-5.6-2.7-8.1
	c-0.9-2.5-1.8-5-2.8-7.3c-1-2.4-2-4.8-3-7.1c-0.7-1.5-1.3-3-2-4.5c-0.1-0.1,0-0.3,0.1-0.4c1.2-1.4,2.4-2.8,3.6-4.2
	c1.9-2.3,3.9-4.7,5.8-7.1c1.9-2.4,3.8-4.8,5.6-7.2c1.8-2.4,3.5-4.8,5.1-7l4-5.6C537.7,305.6,537.3,304.9,536.6,304.9z"/>
<polygon class="st1" points="413.9,352 413.9,350.4 400.8,350.4 400.8,360.2 403.1,360.2 403.1,355.9 413.9,355.9 413.9,354.2 
	403.1,354.2 403.1,352 "/>
<path class="st1" d="M431.4,351.9c0-0.9-0.8-1.6-1.6-1.6h-11.4v9.8h2.3v-4.2h9c0.9,0,1.7-0.8,1.7-1.7V351.9L431.4,351.9z
	 M429.2,354.2h-8.5V352h8.5V354.2z"/>
<path class="st1" d="M447.3,354.2h-7.4v1.7h6.8v2.4h-8.5V352H449c0-0.9-0.7-1.7-1.7-1.7h-9.7c-0.9,0-1.6,0.7-1.6,1.6l0,0v6.4
	c0,1,0.8,1.8,1.8,1.8h9.3c1,0,1.8-0.8,1.8-1.8v-2.4l0,0C449.1,355,448.3,354.2,447.3,354.2z"/>
<path class="st1" d="M465,350.4h-9.7c-0.9,0-1.7,0.7-1.7,1.7v8.1h2.3V356h8.5v4.2h2.3V352C466.7,351.1,465.9,350.4,465,350.4z
	 M455.9,354.2V352h8.5v2.2H455.9z"/>
<path class="st2" d="M379.3,317.5c-0.6,0.8-1.3,1.8-2.1,3c-0.9,1.2-1.8,2.6-2.8,4.1s-2,3-3.1,4.7c-1.1,1.6-2.1,3.2-3.1,4.7
	s-1.9,2.9-2.8,4.2c-0.9,1.3-1.5,2.4-2.1,3.2h-4.2c-0.1-0.9-0.3-1.9-0.6-3.2c-0.2-1.3-0.5-2.7-0.8-4.2s-0.6-3.1-0.9-4.7
	s-0.6-3.2-0.9-4.7s-0.6-2.8-0.8-4.1c-0.2-1.2-0.5-2.2-0.6-3c-1.5,4.6-2.9,9.3-4.4,14.2c-1.4,4.9-2.8,9.8-4.2,14.8H341
	c0.9-3.2,1.7-6.4,2.7-9.7c0.9-3.2,1.9-6.4,2.9-9.6c1-3.1,2-6.2,2.9-9.2c1-3,1.9-5.8,2.8-8.5h5.1c0.4,1.6,0.9,3.4,1.4,5.5
	s1,4.4,1.4,6.7c0.5,2.3,0.9,4.6,1.3,6.9s0.8,4.4,1,6.3c1.3-1.9,2.7-4,4.2-6.3s3.1-4.6,4.7-6.9s3.1-4.5,4.6-6.7
	c1.5-2.1,2.8-3.9,4-5.5h5c-0.6,6-1.4,12.1-2.4,18.3c-1,6.2-2.1,12.4-3.3,18.6H374c1.1-5.1,2-10.1,2.9-14.9
	C377.8,326.7,378.6,322,379.3,317.5z"/>
<path class="st2" d="M391.7,346.4h-5l6.7-27.7h5L391.7,346.4z M397.4,313.7c-0.8,0-1.5-0.2-2.1-0.7s-0.8-1.2-0.8-2.1
	c0-1.1,0.4-2,1.1-2.7s1.5-1,2.4-1c0.8,0,1.5,0.3,2.1,0.8s0.9,1.2,0.9,2.2c0,1.1-0.4,1.9-1.1,2.6
	C399.1,313.4,398.3,313.7,397.4,313.7z"/>
<path class="st2" d="M409,342.8c1.1,0,2.2-0.1,3.3-0.3c1.1-0.2,2.1-0.6,2.9-1.1c0.9-0.5,1.5-1.2,2.1-2.1c0.5-0.9,0.8-1.9,0.8-3.2
	c0-0.9-0.2-1.7-0.5-2.3c-0.3-0.7-0.8-1.2-1.4-1.8c-0.6-0.5-1.3-1-2.1-1.4c-0.8-0.4-1.7-0.9-2.6-1.4c-0.8-0.4-1.6-0.9-2.5-1.4
	c-0.8-0.5-1.6-1.1-2.2-1.8c-0.7-0.7-1.2-1.6-1.6-2.6s-0.6-2.2-0.6-3.6c0-1.6,0.3-3.1,0.9-4.4s1.5-2.5,2.7-3.5s2.7-1.7,4.4-2.3
	c1.8-0.5,3.8-0.8,6-0.8c1.1,0,2.1,0.1,3,0.2s1.8,0.4,2.6,0.6c0.8,0.2,1.5,0.5,2.1,0.8s1,0.5,1.3,0.7l-2.4,4
	c-0.6-0.5-1.6-0.9-2.9-1.4c-1.3-0.4-2.9-0.6-4.7-0.6c-1.1,0-2.2,0.1-3.2,0.3c-1,0.2-1.8,0.6-2.5,1.1s-1.3,1.1-1.7,1.9
	c-0.4,0.8-0.6,1.7-0.6,2.7c0,0.9,0.1,1.7,0.4,2.3c0.3,0.6,0.7,1.2,1.2,1.7s1.1,0.9,1.8,1.3c0.7,0.4,1.5,0.8,2.4,1.2
	c1.1,0.5,2.1,1.1,3,1.6c0.9,0.6,1.8,1.2,2.5,1.9c0.7,0.7,1.3,1.6,1.7,2.6c0.4,1,0.6,2.2,0.6,3.6c0,2-0.4,3.7-1.1,5.1
	c-0.8,1.5-1.8,2.7-3.1,3.7c-1.3,1-2.9,1.7-4.7,2.2c-1.8,0.5-3.8,0.7-5.9,0.7c-1.4,0-2.7-0.1-3.9-0.3c-1.2-0.2-2.2-0.4-3-0.7
	c-0.9-0.3-1.6-0.6-2.2-0.9s-1.1-0.6-1.4-0.8l2.4-4.2c0.7,0.5,1.7,1,3.2,1.6C404.9,342.5,406.8,342.8,409,342.8z"/>
<path class="st2" d="M460.7,309.5l-1,4.3h-11.1l-7.8,32.6h-5.2l7.8-32.6h-11.1l1-4.3H460.7z"/>
<path class="st2" d="M465.7,347.1c-1.8,0-3.4-0.3-4.7-0.8c-1.3-0.5-2.4-1.2-3.3-2.1s-1.5-2-2-3.2c-0.4-1.2-0.6-2.5-0.6-3.8
	c0-2.5,0.4-4.9,1.1-7.2c0.7-2.3,1.8-4.3,3.2-6.1c1.4-1.8,3.1-3.2,5.1-4.2s4.2-1.6,6.8-1.6c1.5,0,2.7,0.2,3.8,0.6
	c1,0.4,1.9,0.9,2.6,1.5s1.1,1.4,1.5,2.2c0.3,0.8,0.5,1.7,0.5,2.6c0,1.7-0.3,3.1-0.9,4.2c-0.6,1.2-1.4,2.1-2.4,2.9s-2.2,1.4-3.5,1.8
	s-2.7,0.8-4.2,1c-1.4,0.2-2.9,0.4-4.4,0.5s-2.9,0.2-4.2,0.2c0,0.3-0.1,0.5-0.1,0.7s0,0.3,0,0.4c0,0.8,0.1,1.6,0.3,2.3
	c0.2,0.7,0.6,1.4,1.1,1.9c0.5,0.6,1.3,1,2.2,1.3c0.9,0.3,2.2,0.5,3.7,0.5c0.7,0,1.4-0.1,2.1-0.2s1.4-0.3,2.1-0.5s1.2-0.4,1.8-0.6
	c0.5-0.2,0.9-0.4,1.1-0.6l0.4,4.2c-0.7,0.4-1.9,0.8-3.4,1.3C469.7,346.9,467.9,347.1,465.7,347.1z M460.7,331.9
	c2.1-0.1,3.9-0.2,5.6-0.4c1.7-0.2,3.2-0.5,4.4-1c1.2-0.5,2.2-1.1,2.9-1.9c0.7-0.8,1-1.9,1-3.2c0-0.3-0.1-0.7-0.2-1
	c-0.1-0.4-0.3-0.7-0.6-1c-0.3-0.3-0.7-0.6-1.3-0.7c-0.5-0.2-1.2-0.3-2-0.3c-1.2,0-2.4,0.3-3.5,0.8s-2.1,1.2-2.9,2.1
	c-0.9,0.9-1.6,1.9-2.2,3C461.5,329.4,461,330.6,460.7,331.9z"/>
<path class="st2" d="M505.4,366.1c-0.8-2.4-1.5-4.4-2.1-6.2c-0.6-1.8-1.2-3.5-1.8-5c-0.6-1.6-1.2-3-1.8-4.4c-0.6-1.4-1.3-2.9-2-4.4
	l-16.5,20.1h-14.6l25.9-31l-11.6-25.9H495l6.8,17.6c2.5-3,4.8-6,7.1-9c2.3-3,4.4-5.9,6.3-8.6h14c-1.6,2.2-3.3,4.6-5,6.9
	c-1.8,2.4-3.6,4.8-5.5,7.1c-1.9,2.4-3.8,4.7-5.7,7c-1.9,2.3-3.8,4.4-5.6,6.4c1.1,2.6,2.2,5,3.2,7.3s2,4.6,2.9,6.9s1.8,4.7,2.7,7.2
	s1.8,5.1,2.7,8H505.4z"/>
<path id="path7125-3" class="st0" d="M389.4,360.1v0.3l8.6-4.9v-0.3L389.4,360.1"/>
<path class="st1" d="M389,360.1h-48v-1.8h44.8L389,360.1z M380.8,355.4v-0.3l1.4,0.8h1.2v-1.7H341v1.7h40.7L380.8,355.4z M341,350.4
	v1.7h48.4v-1.7H341z"/>
<path id="path7129-1" class="st2" d="M380.8,355.1l6.9,4c0.2-0.1,0.5-0.1,0.7,0s0.2,0.3,0,0.4l0.9,0.5l8.6-4.9l-0.9-0.5
	c-0.2,0.1-0.5,0.1-0.7,0s-0.2-0.3,0-0.4l-6.9-4L380.8,355.1"/>
<path id="path7131-2" class="st0" d="M389.9,359.3l7.3-4.2l-7.8-4.5l-7.8,4.5l7.3,4.2H389.9"/>
<path id="path7143-7" class="st1" d="M395.6,354.5l-5.5-3.2c-0.4-0.2-1-0.2-1.4,0l-5.6,3.2c-0.3,0.2-0.3,0.7,0,0.9l5.5,3.2
	c0.5,0.3,1,0.3,1.5,0l1.7-1c0.1-0.1,0.1-0.3,0-0.4l0,0c-0.2-0.1-0.2-0.3,0-0.4l0.7-0.4c0.2-0.1,0.5-0.1,0.7,0l0,0
	c0.2,0.1,0.5,0.1,0.7,0l1.6-0.9C395.9,355.2,395.9,354.7,395.6,354.5"/>
<path id="path7147-4" class="st2" d="M384.2,354.3l4.6-2.7c0.4-0.2,0.8-0.2,1.2,0l4.6,2.6c0.3,0.2,0.3,0.6,0,0.8l-0.4,0.2l-4.2,2.4
	c-0.4,0.2-0.9,0.2-1.2,0l-4.6-2.7C383.9,354.8,383.9,354.4,384.2,354.3"/>
</svg>
