<?xml version="1.0" encoding="utf-8"?>
<!-- Generator: Adobe Illustrator 28.3.0, SVG Export Plug-In . SVG Version: 6.00 Build 0)  -->
<svg version="1.1" id="Layer_1" xmlns="http://www.w3.org/2000/svg" xmlns:xlink="http://www.w3.org/1999/xlink" x="0px" y="0px"
	 viewBox="0 0 1000 1000" style="enable-background:new 0 0 1000 1000;" xml:space="preserve">
<style type="text/css">
	.st0{fill:#E6E6E6;}
</style>
<path class="st0" d="M767.8,246.2c31.2,0,56.7,24.7,57.9,55.7c2.4-3.1,5.4-5.2,8.1-6.5c6.3-3.2,12.6-3.2,12.9-3.2h3.5v3.5
	c0,7.2-2,17-11.5,22.5c-1.6,0.9-3.2,1.6-4.7,2.1c7,2.5,10.9,7.4,13,11.7c3.2,6.3,3.2,12.6,3.2,12.9v3.5h-3.5
	c-8.2,0-14.7-2.5-19.3-7.3c-0.6-0.6-1.1-1.3-1.6-1.9c0.1,5.6,3.8,10.5,9.1,12.3c12.4,4.4,21.3,16.2,21.3,30.2s-8.9,25.8-21.3,30.2
	c-5.4,1.9-9.1,6.9-9.1,12.7v16.9c0,5.2,3.3,9.9,8.2,11.6c9.9,3.4,17,12.9,16.8,24c-0.2,13.8-11.7,24.7-25.4,24.7h-89.1
	c-6.6,0-12.6-3.9-15.2-9.9c-3.8-8.9-12.7-15.1-23-15.1s-19.2,6.2-23,15.1c-2.6,6.1-8.6,9.9-15.2,9.9h-89.1
	c-13.8,0-25.2-11-25.4-24.7c-0.1-11.1,6.9-20.6,16.8-24c4.9-1.7,8.2-6.4,8.2-11.6v-16.9c0-5.7-3.7-10.7-9.1-12.7
	c-12.4-4.4-21.3-16.2-21.3-30.2c0-13.9,8.9-25.8,21.3-30.2c5.4-1.9,9.1-6.9,9.1-12.7v-34.6c0-32,26-58,58-58L767.8,246.2
	 M767.8,241.2H628.4c-34.7,0-62.9,28.2-62.9,62.9v34.6c0,3.5-2.3,6.7-5.8,8c-14.7,5.2-24.6,19.2-24.6,34.9
	c0,15.6,9.9,29.7,24.6,34.9c3.5,1.2,5.8,4.4,5.8,8v16.9c0,3.1-2,5.8-4.9,6.9c-12.2,4.2-20.3,15.8-20.2,28.8
	c0.2,16.3,13.9,29.6,30.4,29.6h89.1c8.6,0,16.4-5.1,19.8-12.9c3.2-7.4,10.4-12.1,18.4-12.1s15.3,4.8,18.4,12.1
	c3.4,7.9,11.2,12.9,19.8,12.9h89.1c16.6,0,30.2-13.3,30.4-29.6c0.2-13-7.9-24.5-20.2-28.8c-2.9-1-4.9-3.8-4.9-6.9v-16.9
	c0-3.5,2.3-6.7,5.8-8c14.7-5.2,24.6-19.2,24.6-34.9c0-11.1-5-21.4-13.2-28.3h2.2h5v-5v-3.5c0-0.8-0.1-7.9-3.7-15.1
	c-1.8-3.7-4.3-6.8-7.2-9.3c7.1-5.5,11-14.1,11-24.7v-3.5v-5h-5h-3.5c-0.8,0-7.9,0.1-15.1,3.7c-0.7,0.4-1.4,0.7-2,1.1
	c-2.5-12.6-8.7-24.1-18.1-33.2C799.7,247.4,784.2,241.2,767.8,241.2L767.8,241.2z"/>
<path class="st0" d="M671.5,368.1c-13.8,0-25-11.2-25-25s11.2-25,25-25c13,0,23.7,10,24.9,22.7c0.1-0.9,0.1-1.8,0.1-2.7
	c0-18.8-15.3-34.1-34.1-34.1s-34.1,15.3-34.1,34.1c0,18.8,15.3,34.1,34.1,34.1c7.7,0,14.8-2.6,20.5-6.9
	C679.5,367.1,675.6,368.1,671.5,368.1z"/>
<circle class="st0" cx="668.5" cy="336.7" r="7.7"/>
<path class="st0" d="M736.3,304c-18.8,0-34.1,15.3-34.1,34.1c0,1.1,0.1,2.2,0.2,3.3c0.9-13,11.7-23.3,24.9-23.3
	c13.8,0,25,11.2,25,25s-11.2,25-25,25c-4.2,0-8.2-1.1-11.7-2.9c5.7,4.4,12.9,7,20.7,7c18.8,0,34.1-15.3,34.1-34.1
	C770.4,319.3,755.1,304,736.3,304z"/>
<circle class="st0" cx="730.2" cy="336.7" r="7.7"/>
<path class="st0" d="M379.3,317.5c-0.6,0.8-1.3,1.8-2.1,3c-0.9,1.2-1.8,2.6-2.8,4.1s-2,3-3.1,4.7c-1.1,1.6-2.1,3.2-3.1,4.7
	s-1.9,2.9-2.8,4.2c-0.9,1.3-1.5,2.4-2.1,3.2h-4.2c-0.1-0.9-0.3-1.9-0.6-3.2c-0.2-1.3-0.5-2.7-0.8-4.2s-0.6-3.1-0.9-4.7
	s-0.6-3.2-0.9-4.7s-0.6-2.8-0.8-4.1c-0.2-1.2-0.5-2.2-0.6-3c-1.5,4.6-2.9,9.3-4.4,14.2c-1.4,4.9-2.8,9.8-4.2,14.8H341
	c0.9-3.2,1.7-6.4,2.7-9.7c0.9-3.2,1.9-6.4,2.9-9.6c1-3.1,2-6.2,2.9-9.2c1-3,1.9-5.8,2.8-8.5h5.1c0.4,1.6,0.9,3.4,1.4,5.5
	s1,4.4,1.4,6.7c0.5,2.3,0.9,4.6,1.3,6.9s0.8,4.4,1,6.3c1.3-1.9,2.7-4,4.2-6.3s3.1-4.6,4.7-6.9s3.1-4.5,4.6-6.7
	c1.5-2.1,2.8-3.9,4-5.5h5c-0.6,6-1.4,12.1-2.4,18.3c-1,6.2-2.1,12.4-3.3,18.6H374c1.1-5.1,2-10.1,2.9-14.9
	C377.8,326.7,378.6,322,379.3,317.5z"/>
<path class="st0" d="M391.7,346.4h-5l6.7-27.7h5L391.7,346.4z M397.4,313.7c-0.8,0-1.5-0.2-2.1-0.7s-0.8-1.2-0.8-2.1
	c0-1.1,0.4-2,1.1-2.7s1.5-1,2.4-1c0.8,0,1.5,0.3,2.1,0.8s0.9,1.2,0.9,2.2c0,1.1-0.4,1.9-1.1,2.6
	C399.1,313.4,398.3,313.7,397.4,313.7z"/>
<path class="st0" d="M409,342.8c1.1,0,2.2-0.1,3.3-0.3c1.1-0.2,2.1-0.6,2.9-1.1c0.9-0.5,1.5-1.2,2.1-2.1c0.5-0.9,0.8-1.9,0.8-3.2
	c0-0.9-0.2-1.7-0.5-2.3c-0.3-0.7-0.8-1.2-1.4-1.8c-0.6-0.5-1.3-1-2.1-1.4c-0.8-0.4-1.7-0.9-2.6-1.4c-0.8-0.4-1.6-0.9-2.5-1.4
	c-0.8-0.5-1.6-1.1-2.2-1.8c-0.7-0.7-1.2-1.6-1.6-2.6s-0.6-2.2-0.6-3.6c0-1.6,0.3-3.1,0.9-4.4s1.5-2.5,2.7-3.5s2.7-1.7,4.4-2.3
	c1.8-0.5,3.8-0.8,6-0.8c1.1,0,2.1,0.1,3,0.2s1.8,0.4,2.6,0.6c0.8,0.2,1.5,0.5,2.1,0.8s1,0.5,1.3,0.7l-2.4,4
	c-0.6-0.5-1.6-0.9-2.9-1.4c-1.3-0.4-2.9-0.6-4.7-0.6c-1.1,0-2.2,0.1-3.2,0.3c-1,0.2-1.8,0.6-2.5,1.1s-1.3,1.1-1.7,1.9
	c-0.4,0.8-0.6,1.7-0.6,2.7c0,0.9,0.1,1.7,0.4,2.3c0.3,0.6,0.7,1.2,1.2,1.7s1.1,0.9,1.8,1.3c0.7,0.4,1.5,0.8,2.4,1.2
	c1.1,0.5,2.1,1.1,3,1.6c0.9,0.6,1.8,1.2,2.5,1.9c0.7,0.7,1.3,1.6,1.7,2.6c0.4,1,0.6,2.2,0.6,3.6c0,2-0.4,3.7-1.1,5.1
	c-0.8,1.5-1.8,2.7-3.1,3.7c-1.3,1-2.9,1.7-4.7,2.2c-1.8,0.5-3.8,0.7-5.9,0.7c-1.4,0-2.7-0.1-3.9-0.3c-1.2-0.2-2.2-0.4-3-0.7
	c-0.9-0.3-1.6-0.6-2.2-0.9s-1.1-0.6-1.4-0.8l2.4-4.2c0.7,0.5,1.7,1,3.2,1.6C404.9,342.5,406.8,342.8,409,342.8z"/>
<path class="st0" d="M460.7,309.5l-1,4.3h-11.1l-7.8,32.6h-5.2l7.8-32.6h-11.1l1-4.3H460.7z"/>
<path class="st0" d="M465.7,347.1c-1.8,0-3.4-0.3-4.7-0.8c-1.3-0.5-2.4-1.2-3.3-2.1s-1.5-2-2-3.2c-0.4-1.2-0.6-2.5-0.6-3.8
	c0-2.5,0.4-4.9,1.1-7.2c0.7-2.3,1.8-4.3,3.2-6.1c1.4-1.8,3.1-3.2,5.1-4.2s4.2-1.6,6.8-1.6c1.5,0,2.7,0.2,3.8,0.6
	c1,0.4,1.9,0.9,2.6,1.5s1.1,1.4,1.5,2.2c0.3,0.8,0.5,1.7,0.5,2.6c0,1.7-0.3,3.1-0.9,4.2c-0.6,1.2-1.4,2.1-2.4,2.9s-2.2,1.4-3.5,1.8
	s-2.7,0.8-4.2,1c-1.4,0.2-2.9,0.4-4.4,0.5s-2.9,0.2-4.2,0.2c0,0.3-0.1,0.5-0.1,0.7s0,0.3,0,0.4c0,0.8,0.1,1.6,0.3,2.3
	c0.2,0.7,0.6,1.4,1.1,1.9c0.5,0.6,1.3,1,2.2,1.3c0.9,0.3,2.2,0.5,3.7,0.5c0.7,0,1.4-0.1,2.1-0.2s1.4-0.3,2.1-0.5s1.2-0.4,1.8-0.6
	c0.5-0.2,0.9-0.4,1.1-0.6l0.4,4.2c-0.7,0.4-1.9,0.8-3.4,1.3C469.7,346.9,467.9,347.1,465.7,347.1z M460.7,331.9
	c2.1-0.1,3.9-0.2,5.6-0.4c1.7-0.2,3.2-0.5,4.4-1c1.2-0.5,2.2-1.1,2.9-1.9c0.7-0.8,1-1.9,1-3.2c0-0.3-0.1-0.7-0.2-1
	c-0.1-0.4-0.3-0.7-0.6-1c-0.3-0.3-0.7-0.6-1.3-0.7c-0.5-0.2-1.2-0.3-2-0.3c-1.2,0-2.4,0.3-3.5,0.8s-2.1,1.2-2.9,2.1
	c-0.9,0.9-1.6,1.9-2.2,3C461.5,329.4,461,330.6,460.7,331.9z"/>
<path class="st0" d="M505.4,366.1c-0.8-2.4-1.5-4.4-2.1-6.2c-0.6-1.8-1.2-3.5-1.8-5c-0.6-1.6-1.2-3-1.8-4.4c-0.6-1.4-1.3-2.9-2-4.4
	l-16.5,20.1h-14.6l25.9-31l-11.6-25.9H495l6.8,17.6c2.5-3,4.8-6,7.1-9c2.3-3,4.4-5.9,6.3-8.6h14c-1.6,2.2-3.3,4.6-5,6.9
	c-1.8,2.4-3.6,4.8-5.5,7.1c-1.9,2.4-3.8,4.7-5.7,7c-1.9,2.3-3.8,4.4-5.6,6.4c1.1,2.6,2.2,5,3.2,7.3s2,4.6,2.9,6.9s1.8,4.7,2.7,7.2
	s1.8,5.1,2.7,8H505.4z"/>
<path class="st0" d="M397,354.6c-0.2,0.1-0.4,0.1-0.6,0l0.8,0.5l-7.3,4.2h-1l-7.3-4.2l7.8-4.5l6.8,3.9c-0.1-0.1-0.1-0.3,0.1-0.3
	l-6.9-4l-8.6,4.9l6.9,4c0.2-0.1,0.5-0.1,0.7,0c0.2,0.1,0.2,0.3,0,0.4l0.9,0.5l8.6-4.9L397,354.6z"/>
<path id="path7147-4" class="st0" d="M384.2,354.3l4.6-2.7c0.4-0.2,0.8-0.2,1.2,0l4.6,2.6c0.3,0.2,0.3,0.6,0,0.8l-0.4,0.2l-4.2,2.4
	c-0.4,0.2-0.9,0.2-1.2,0l-4.6-2.7C383.9,354.8,383.9,354.4,384.2,354.3"/>
</svg>
