<?xml version="1.0" encoding="utf-8"?>
<!-- Generator: Adobe Illustrator 28.3.0, SVG Export Plug-In . SVG Version: 6.00 Build 0)  -->
<svg version="1.1" id="Layer_1" xmlns="http://www.w3.org/2000/svg" xmlns:xlink="http://www.w3.org/1999/xlink" x="0px" y="0px"
	 viewBox="0 0 1000 1000" style="enable-background:new 0 0 1000 1000;" xml:space="preserve">
<style type="text/css">
	.st0{fill:#006838;}
</style>
<g>
	<path class="st0" d="M833.8,295.3c-0.8,0.4-1.6,0.9-2.4,1.4h18.8c0-0.4,0-0.7,0-1.1v-3.5h-3.5C846.5,292.1,840.2,292.1,833.8,295.3
		z"/>
	<path class="st0" d="M540,381.5c0,13.9,8.9,25.8,21.3,30.2c5.4,1.9,9.1,6.9,9.1,12.7v16.9c0,5.2-3.3,9.9-8.2,11.6
		c-9.9,3.4-17,12.9-16.8,24c0.2,13.8,11.7,24.7,25.4,24.7h89.1c6.6,0,12.6-3.9,15.2-9.9c3.8-8.9,12.7-15.1,23-15.1
		c10.3,0,19.2,6.2,23,15.1c2.6,6.1,8.6,9.9,15.2,9.9h89.1c13.8,0,25.2-11,25.4-24.7c0.1-11.1-6.9-20.6-16.8-24
		c-4.9-1.7-8.2-6.4-8.2-11.6v-16.9c0-5.7,3.7-10.7,9.1-12.7c12.4-4.4,21.3-16.2,21.3-30.2c0,0,0-0.1,0-0.1H540
		C540,381.4,540,381.5,540,381.5z"/>
	<path class="st0" d="M861.2,381.5c0,15.6-9.9,29.7-24.6,34.9c-3.5,1.2-5.8,4.4-5.8,8v16.9c0,3.1,2,5.8,4.9,6.9
		c12.2,4.2,20.3,15.8,20.2,28.8c-0.2,16.3-13.9,29.6-30.4,29.6h-89.1c-8.6,0-16.4-5.1-19.8-12.9c-3.2-7.4-10.4-12.1-18.4-12.1
		c-8,0-15.3,4.8-18.4,12.1c-3.4,7.9-11.2,12.9-19.8,12.9h-89.1c-16.6,0-30.2-13.3-30.4-29.6c-0.2-13,7.9-24.5,20.2-28.8
		c2.9-1,4.9-3.8,4.9-6.9v-16.9c0-3.5-2.3-6.7-5.8-8c-14.7-5.2-24.6-19.2-24.6-34.9c0,0,0-0.1,0-0.1H0V1000h1000V381.4H861.2
		C861.2,381.4,861.2,381.5,861.2,381.5z"/>
	<path class="st0" d="M0,0v296.7h565.9c3.7-31.2,30.3-55.5,62.5-55.5h139.4c16.4,0,31.9,6.3,43.7,17.6c9.4,9.1,15.6,20.6,18.1,33.2
		c0.7-0.4,1.3-0.8,2-1.1c7.2-3.6,14.3-3.7,15.1-3.7h3.5h5v5v3.5c0,0.4,0,0.7,0,1.1H1000V0H0z"/>
	<path class="st0" d="M767.8,246.2H628.4c-29.5,0-53.8,22-57.5,50.6h254.4C821.6,268.2,797.3,246.2,767.8,246.2z"/>
</g>
<path class="st0" d="M671.5,320.7c-12.4,0-22.4,10.1-22.4,22.4s10.1,22.4,22.4,22.4s22.4-10.1,22.4-22.4S683.8,320.7,671.5,320.7z
	 M668.5,344.4c-4.3,0-7.7-3.4-7.7-7.7s3.4-7.7,7.7-7.7s7.7,3.4,7.7,7.7S672.8,344.4,668.5,344.4z"/>
<path class="st0" d="M834,452.8c-4.9-1.7-8.2-6.4-8.2-11.6v-16.9c0-5.7,3.7-10.7,9.1-12.7c12.4-4.4,21.3-16.2,21.3-30.2
	c0-13.9-8.9-25.8-21.3-30.2c-5.3-1.9-8.9-6.7-9.1-12.3c0.5,0.7,1,1.3,1.6,1.9c4.6,4.8,11.1,7.3,19.3,7.3h3.5v-3.5
	c0-0.3,0-6.6-3.2-12.9c-2.2-4.3-6.1-9.2-13-11.7c1.5-0.5,3.1-1.2,4.7-2.1c9.5-5.5,11.5-15.3,11.5-22.5v-3.5h-3.5
	c-0.3,0-6.6,0-12.9,3.2c-2.7,1.4-5.7,3.4-8.1,6.5c-1.2-31-26.7-55.7-57.9-55.7H628.4c-32,0-58,26-58,58v34.6
	c0,5.7-3.7,10.7-9.1,12.7c-12.4,4.4-21.3,16.2-21.3,30.2c0,13.9,8.9,25.8,21.3,30.2c5.4,1.9,9.1,6.9,9.1,12.7v16.9
	c0,5.2-3.3,9.9-8.2,11.6c-9.9,3.4-17,12.9-16.8,24c0.2,13.8,11.7,24.7,25.4,24.7h89.1c6.6,0,12.6-3.9,15.2-9.9
	c3.8-8.9,12.7-15.1,23-15.1s19.2,6.2,23,15.1c2.6,6.1,8.6,9.9,15.2,9.9h89.1c13.8,0,25.2-11,25.4-24.7
	C851,465.7,843.9,456.2,834,452.8z M682.9,365.4c-5.7,4.3-12.8,6.9-20.5,6.9c-18.8,0-34.1-15.3-34.1-34.1s15.3-34.1,34.1-34.1
	s34.1,15.3,34.1,34.1c0,0.9,0,1.8-0.1,2.6c0.1,0.8,0.1,1.5,0.1,2.3C696.5,352.8,691,361.2,682.9,365.4z M736.3,372.2
	c-7.7,0-14.8-2.6-20.5-6.9c-8.1-4.2-13.6-12.5-13.6-22.2c0-0.8,0-1.6,0.1-2.3c-0.1-0.9-0.1-1.8-0.1-2.6c0-18.8,15.3-34.1,34.1-34.1
	c18.8,0,34.1,15.3,34.1,34.1S755.2,372.2,736.3,372.2z M817.3,340.2c-3.4,9.7-13,15.8-23.2,14.8l-21.1-2.2c1.8-4.5,2.8-9.5,2.8-14.7
	c0-21.8-17.7-39.5-39.5-39.5c-16.9,0-31.3,10.7-37,25.6c-5.6-14.9-20.1-25.6-37-25.6c-21.8,0-39.5,17.7-39.5,39.5
	c0,5.1,1,10,2.8,14.5L602,355c-10.2,1-19.8-5.1-23.2-14.8c-2.3-6.6-3.7-14.2-3.7-20.1c0-13.6,7.3-24.6,16.3-24.6h213.1
	c9,0,16.3,11,16.3,24.6C821,326.1,819.6,333.6,817.3,340.2z"/>
<path class="st0" d="M727.3,320.7c-12.4,0-22.4,10.1-22.4,22.4s10.1,22.4,22.4,22.4s22.4-10.1,22.4-22.4S739.6,320.7,727.3,320.7z
	 M730.2,344.4c-4.3,0-7.7-3.4-7.7-7.7s3.4-7.7,7.7-7.7c4.3,0,7.7,3.4,7.7,7.7S734.4,344.4,730.2,344.4z"/>
<rect x="420.7" y="352" class="st0" width="8.5" height="2.2"/>
<rect x="455.9" y="352" class="st0" width="8.5" height="2.2"/>
<path class="st0" d="M470.7,330.5c1.2-0.5,2.2-1.1,2.9-1.9c0.7-0.8,1-1.9,1-3.2c0-0.3-0.1-0.7-0.2-1c-0.1-0.4-0.3-0.7-0.6-1
	c-0.3-0.3-0.7-0.6-1.3-0.7c-0.5-0.2-1.2-0.3-2-0.3c-1.2,0-2.4,0.3-3.5,0.8c-1.1,0.5-2.1,1.2-2.9,2.1c-0.9,0.9-1.6,1.9-2.2,3
	c-0.6,1.2-1.1,2.4-1.4,3.6c2.1-0.1,3.9-0.2,5.6-0.4C468,331.3,469.5,331,470.7,330.5z"/>
<path id="path7123-7" class="st0" d="M388.6,359.3C388.6,359.3,388.6,359.3,388.6,359.3C388.6,359.3,388.6,359.3,388.6,359.3
	C388.6,359.3,388.6,359.3,388.6,359.3C388.6,359.3,388.6,359.3,388.6,359.3C388.6,359.3,388.6,359.3,388.6,359.3
	C388.6,359.3,388.6,359.3,388.6,359.3C388.6,359.3,388.5,359.3,388.6,359.3C388.5,359.3,388.5,359.3,388.6,359.3
	C388.5,359.2,388.5,359.2,388.6,359.3C388.5,359.2,388.5,359.2,388.6,359.3c0-0.1,0-0.1,0-0.1c0,0,0,0,0,0c0,0,0,0,0,0c0,0,0,0,0,0
	c0,0,0,0,0,0c0,0,0,0,0,0c0,0,0,0,0,0c0,0,0,0,0,0c0,0,0,0,0,0c0,0,0,0,0,0c0,0,0,0-0.1,0c0,0,0,0,0,0c0,0,0,0,0,0l0,0v0l0,0v0
	c0,0,0,0,0,0c0,0,0,0,0,0c0,0,0,0,0,0c0,0,0,0,0,0c0,0,0,0,0,0c0,0,0,0,0,0l0,0v0l0,0v0c0,0,0,0-0.1,0c0,0,0,0,0,0c0,0,0,0,0,0
	c0,0,0,0,0,0c0,0,0,0,0,0c0,0,0,0,0,0c0,0,0,0,0,0c0,0,0,0,0,0c0,0,0,0,0,0c0,0,0,0,0,0c0,0,0,0,0,0c0,0,0,0,0,0c0,0,0,0,0,0
	c0,0,0,0,0,0c0,0,0,0,0,0c0,0,0,0-0.1,0l0,0.3c0,0,0,0,0.1,0c0,0,0,0,0,0c0,0,0,0,0.1,0c0,0,0,0,0,0c0,0,0.1,0,0.1,0c0,0,0,0,0,0
	c0,0,0.1,0,0.1,0c0,0,0,0,0,0c0,0,0.1,0,0.1,0c0,0,0,0,0,0c0,0,0,0,0.1,0c0,0,0,0,0,0c0,0,0,0,0.1,0c0,0,0,0,0,0c0,0,0,0,0.1,0
	c0,0,0,0,0,0c0,0,0,0,0,0c0,0,0,0.2,0,0.2c0,0,0,0,0,0c0,0,0,0,0,0c0,0,0,0,0,0c0,0,0,0,0,0c0,0,0,0,0,0c0,0,0,0,0,0c0,0,0,0,0,0
	c0,0,0,0,0,0c0,0,0,0,0,0c0,0,0,0,0,0c0,0,0,0,0,0L388.6,359.3L388.6,359.3C388.6,359.3,388.6,359.3,388.6,359.3"/>
<path id="path7127-6" class="st0" d="M388.4,359.5l0,0.3l1,0.5v-0.3L388.4,359.5"/>
<path class="st0" d="M536.6,304.9h-6.9h-14h-2.1c-0.1,0-0.2,0.1-0.3,0.1l-1.2,1.7c-1.9,2.7-4,5.5-6.3,8.5c-0.6,0.8-1.3,1.7-1.9,2.5
	c-0.2,0.2-0.5,0.2-0.6-0.1l-3.8-9.9l-1-2.6c-0.1-0.1-0.2-0.2-0.3-0.2h-2.8h-14.1h-5.5c-0.6,0-1,0.6-0.8,1.2l2.2,5l1.7,3.8
	c0.1,0.3-0.2,0.6-0.5,0.5c-0.5-0.3-1-0.5-1.6-0.7c-1.5-0.5-3.3-0.8-5.2-0.8c-2.7,0-5.1,0.5-7.4,1.4l0.1-0.3l1-4.3l1-4.4
	c0.1-0.5-0.3-1-0.8-1H461h-27.4h-2.8c-0.4,0-0.7,0.3-0.8,0.6l-0.1,0.6c-0.1,0.2-0.3,0.3-0.5,0.2c-0.2-0.1-0.5-0.2-0.7-0.3
	c-0.8-0.3-1.6-0.7-2.6-0.9c-1-0.3-2.1-0.6-3.2-0.8c-1.2-0.2-2.5-0.3-3.8-0.3c-2.7,0-5.2,0.3-7.3,1c-2.3,0.7-4.3,1.7-5.9,3.1
	c-0.1,0.1-0.2,0.2-0.3,0.2c-0.2-1.2-0.8-2.6-2.1-3.8c-1.4-1.3-3.1-1.9-5-1.9c-2,0-3.9,0.7-5.4,2.2c-1.1,1-2.5,2.9-2.5,5.9
	c0,0.8-1.1,1.6-0.9-0.9l0.4-3.9c0-0.5-0.3-0.9-0.8-0.9h-3.9h-5h-1.8c-0.3,0-0.5,0.1-0.7,0.3l-1.1,1.4c-1.2,1.6-2.6,3.5-4.1,5.6
	c-1.5,2.1-3,4.4-4.6,6.7c-0.8,1.2-1.6,2.3-2.3,3.5c-0.2,0.3-0.6,0.2-0.6-0.1c-0.1-0.6-0.2-1.1-0.3-1.7c-0.5-2.3-1-4.6-1.5-6.8
	c-0.5-2.2-1-4.1-1.4-5.7l-0.7-2.6c-0.1-0.4-0.4-0.6-0.8-0.6h-2.7h-5.1h-2.5c-0.4,0-0.7,0.2-0.8,0.6l-0.8,2.4
	c-0.9,2.7-1.9,5.5-2.9,8.5c-1,3-2,6.1-2.9,9.2c-1,3.2-2,6.4-2.9,9.7c-0.9,3.3-1.9,6.5-2.7,9.8c-0.1,0.4-0.1,0.8-0.1,1.1v4.7v0.8v0.4
	v1.5v0.3v1.7v0.5v1.9v1.8v0.2v3.4c0,0.5,0.4,0.8,0.8,0.8h3.6h119.3h1.2c0.3,0,0.5,0.3,0.3,0.6l-3.4,4c-0.4,0.5-0.1,1.4,0.6,1.4h7.6
	h14.6h1.9c0.1,0,0.2,0,0.3-0.1l1.2-1.5l11.6-14.1c0.2-0.2,0.5-0.2,0.6,0.1c0.2,0.5,0.4,1,0.5,1.5c0.6,1.5,1.2,3.2,1.8,5
	c0.6,1.7,1.3,3.8,2.1,6.2l0.9,2.8c0,0.1,0.2,0.2,0.3,0.2h2.9h13.7h4.9c0.6,0,1-0.5,0.8-1.1l-1.5-4.7c-0.9-2.9-1.9-5.6-2.7-8.1
	c-0.9-2.5-1.8-5-2.8-7.3c-1-2.4-2-4.8-3-7.1c-0.7-1.5-1.3-3-2-4.5c-0.1-0.1,0-0.3,0.1-0.4c1.2-1.4,2.4-2.8,3.6-4.2
	c1.9-2.3,3.9-4.7,5.8-7.1c1.9-2.4,3.8-4.8,5.6-7.2c1.8-2.4,3.5-4.8,5.1-7l4-5.6C537.7,305.6,537.3,304.9,536.6,304.9z M464.5,319.7
	c2-1,4.2-1.6,6.8-1.6c1.5,0,2.7,0.2,3.8,0.6c1,0.4,1.9,0.9,2.6,1.5c0.7,0.6,1.1,1.4,1.5,2.2c0.3,0.8,0.5,1.7,0.5,2.6
	c0,1.7-0.3,3.1-0.9,4.2c-0.6,1.2-1.4,2.1-2.4,2.9c-1,0.8-2.2,1.4-3.5,1.8c-1.3,0.4-2.7,0.8-4.2,1c-1.4,0.2-2.9,0.4-4.4,0.5
	c-1.5,0.1-2.9,0.2-4.2,0.2c0,0.3-0.1,0.5-0.1,0.7c0,0.2,0,0.3,0,0.4c0,0.8,0.1,1.6,0.3,2.3c0.2,0.7,0.6,1.4,1.1,1.9
	c0.5,0.6,1.3,1,2.2,1.3c0.9,0.3,2.2,0.5,3.7,0.5c0.7,0,1.4-0.1,2.1-0.2c0.7-0.1,1.4-0.3,2.1-0.5c0.7-0.2,1.2-0.4,1.8-0.6
	c0.5-0.2,0.9-0.4,1.1-0.6l0.4,4.2c-0.7,0.4-1.9,0.8-3.4,1.3c-1.6,0.4-3.4,0.7-5.6,0.7c-1.8,0-3.4-0.3-4.7-0.8
	c-1.3-0.5-2.4-1.2-3.3-2.1c-0.9-0.9-1.5-2-2-3.2c-0.4-1.2-0.6-2.5-0.6-3.8c0-2.5,0.4-4.9,1.1-7.2c0.7-2.3,1.8-4.3,3.2-6.1
	C460.8,322.1,462.5,320.7,464.5,319.7z M395.6,308.2c0.7-0.7,1.5-1,2.4-1c0.8,0,1.5,0.3,2.1,0.8c0.6,0.5,0.9,1.2,0.9,2.2
	c0,1.1-0.4,1.9-1.1,2.6c-0.7,0.7-1.5,1-2.4,1c-0.8,0-1.5-0.2-2.1-0.7c-0.6-0.5-0.8-1.2-0.8-2.1C394.5,309.8,394.9,308.9,395.6,308.2
	z M393.4,318.7h5l-6.7,27.7h-5L393.4,318.7z M343.7,336.8c0.9-3.2,1.9-6.4,2.9-9.6c1-3.1,2-6.2,2.9-9.2c1-3,1.9-5.8,2.8-8.5h5.1
	c0.4,1.6,0.9,3.4,1.4,5.5c0.5,2.1,1,4.4,1.4,6.7c0.5,2.3,0.9,4.6,1.3,6.9c0.4,2.3,0.8,4.4,1,6.3c1.3-1.9,2.7-4,4.2-6.3
	c1.5-2.3,3.1-4.6,4.7-6.9c1.6-2.3,3.1-4.5,4.6-6.7c1.5-2.1,2.8-3.9,4-5.5h5c-0.6,6-1.4,12.1-2.4,18.3c-1,6.2-2.1,12.4-3.3,18.6H374
	c1.1-5.1,2-10.1,2.9-14.9c0.9-4.8,1.7-9.5,2.3-14.1c-0.6,0.8-1.3,1.8-2.1,3c-0.9,1.2-1.8,2.6-2.8,4.1c-1,1.5-2,3-3.1,4.7
	c-1.1,1.6-2.1,3.2-3.1,4.7c-1,1.5-1.9,2.9-2.8,4.2c-0.9,1.3-1.5,2.4-2.1,3.2h-4.2c-0.1-0.9-0.3-1.9-0.6-3.2
	c-0.2-1.3-0.5-2.7-0.8-4.2c-0.3-1.5-0.6-3.1-0.9-4.7c-0.3-1.6-0.6-3.2-0.9-4.7c-0.3-1.5-0.6-2.8-0.8-4.1c-0.2-1.2-0.5-2.2-0.6-3
	c-1.5,4.6-2.9,9.3-4.4,14.2c-1.4,4.9-2.8,9.8-4.2,14.8H341C341.8,343.2,342.7,340,343.7,336.8z M389.4,360.1L389.4,360.1l0,0.1H341
	v-1.8h44.8l1.9,1.1l0-0.3h0h0l-6.9-4v0.3l0.9,0.5H341v-1.7h41.4l3.8-2.2H341v-1.7H389l0.3-0.2l6.9,4c-0.2,0.1-0.2,0.3,0,0.4
	c0.2,0.1,0.5,0.1,0.7,0l0.9,0.5L389.4,360.1z M413.9,352h-10.8v2.2h10.8v1.7h-10.8v4.2h-2.3v-9.8h13V352z M408.4,347.2
	c-1.4,0-2.7-0.1-3.9-0.3c-1.2-0.2-2.2-0.4-3-0.7c-0.9-0.3-1.6-0.6-2.2-0.9c-0.6-0.3-1.1-0.6-1.4-0.8l2.4-4.2c0.7,0.5,1.7,1,3.2,1.6
	c1.5,0.6,3.3,0.9,5.5,0.9c1.1,0,2.2-0.1,3.3-0.3c1.1-0.2,2.1-0.6,2.9-1.1c0.9-0.5,1.5-1.2,2.1-2.1c0.5-0.9,0.8-1.9,0.8-3.2
	c0-0.9-0.2-1.7-0.5-2.3c-0.3-0.7-0.8-1.2-1.4-1.8c-0.6-0.5-1.3-1-2.1-1.4c-0.8-0.4-1.7-0.9-2.6-1.4c-0.8-0.4-1.6-0.9-2.5-1.4
	c-0.8-0.5-1.6-1.1-2.2-1.8c-0.7-0.7-1.2-1.6-1.6-2.6c-0.4-1-0.6-2.2-0.6-3.6c0-1.6,0.3-3.1,0.9-4.4c0.6-1.3,1.5-2.5,2.7-3.5
	c1.2-1,2.7-1.7,4.4-2.3c1.8-0.5,3.8-0.8,6-0.8c1.1,0,2.1,0.1,3,0.2c1,0.2,1.8,0.4,2.6,0.6c0.8,0.2,1.5,0.5,2.1,0.8
	c0.6,0.3,1,0.5,1.3,0.7l-2.4,4c-0.6-0.5-1.6-0.9-2.9-1.4c-1.3-0.4-2.9-0.6-4.7-0.6c-1.1,0-2.2,0.1-3.2,0.3c-1,0.2-1.8,0.6-2.5,1.1
	c-0.7,0.5-1.3,1.1-1.7,1.9c-0.4,0.8-0.6,1.7-0.6,2.7c0,0.9,0.1,1.7,0.4,2.3c0.3,0.6,0.7,1.2,1.2,1.7c0.5,0.5,1.1,0.9,1.8,1.3
	c0.7,0.4,1.5,0.8,2.4,1.2c1.1,0.5,2.1,1.1,3,1.6c0.9,0.6,1.8,1.2,2.5,1.9c0.7,0.7,1.3,1.6,1.7,2.6c0.4,1,0.6,2.2,0.6,3.6
	c0,2-0.4,3.7-1.1,5.1c-0.8,1.5-1.8,2.7-3.1,3.7c-1.3,1-2.9,1.7-4.7,2.2C412.5,347,410.5,347.2,408.4,347.2z M431.5,354.2
	c0,0.9-0.8,1.7-1.7,1.7h-9v4.2h-2.3v-9.8h11.4c0.9,0,1.6,0.7,1.6,1.6h0V354.2z M432.2,313.8l1-4.3h27.4l-1,4.3h-11.1l-7.8,32.6h-5.2
	l7.8-32.6H432.2z M446.8,358.3v-2.4h-6.8v-1.7h7.4c0.9,0,1.7,0.8,1.7,1.7v2.4c0,1-0.8,1.8-1.8,1.8h-9.3c-1,0-1.8-0.8-1.8-1.8v-6.4h0
	c0-0.9,0.8-1.6,1.6-1.6h9.7c0.9,0,1.7,0.7,1.7,1.7h-10.8v6.3H446.8z M455.9,355.9v4.2h-2.3V352c0-0.9,0.7-1.7,1.7-1.7h9.7
	c0.9,0,1.7,0.7,1.7,1.7v8.1h-2.3v-4.2H455.9z M524.3,316.2c-1.8,2.4-3.6,4.8-5.5,7.1c-1.9,2.4-3.8,4.7-5.7,7
	c-1.9,2.3-3.8,4.4-5.6,6.4c1.1,2.6,2.2,5,3.2,7.3c1,2.3,2,4.6,2.9,6.9c0.9,2.3,1.8,4.7,2.7,7.2c0.9,2.5,1.8,5.1,2.7,8h-13.7
	c-0.8-2.4-1.5-4.4-2.1-6.2c-0.6-1.8-1.2-3.5-1.8-5c-0.6-1.6-1.2-3-1.8-4.4c-0.6-1.4-1.3-2.9-2-4.4l-16.5,20.1h-14.6l25.9-31
	l-11.6-25.9h14.1l6.8,17.6c2.5-3,4.8-6,7.1-9c2.3-3,4.4-5.9,6.3-8.6h14C527.8,311.5,526.1,313.8,524.3,316.2z"/>
<path class="st0" d="M389.4,350.6l-7.8,4.5l7.3,4.2h1l7.3-4.2L389.4,350.6z M394,356.4c-0.2,0.1-0.5,0.1-0.7,0
	c-0.2-0.1-0.5-0.1-0.7,0l-0.7,0.4c-0.2,0.1-0.2,0.3,0,0.4c0.1,0.1,0.1,0.3,0,0.4l-1.7,1c-0.5,0.3-1,0.3-1.5,0l-5.5-3.2
	c-0.3-0.2-0.3-0.7,0-0.9l5.6-3.2c0.4-0.2,1-0.2,1.4,0l5.5,3.2c0.4,0.2,0.4,0.8,0,1L394,356.4z"/>
</svg>
