<svg enable-background="new 0 0 772.2 1000" viewBox="0 0 772.2 1000" xmlns="http://www.w3.org/2000/svg"><path d="m683.2 533.8c-10.7-3.7-18-14-18-25.5v-37.3c0-12.7 8.1-23.7 20.1-27.9 27.4-9.7 47.1-35.9 47.1-66.6s-19.6-56.9-47.1-66.6c-11.7-4.1-19.9-15-20.1-27.4 1.1 1.5 2.3 3 3.7 4.4 10.2 10.7 24.5 16.1 42.7 16.1h7.7v-7.7c0-.6-.1-14.5-7.1-28.5-4.8-9.5-13.4-20.4-28.7-25.8 3.4-1.1 6.9-2.6 10.3-4.6 21-12.2 25.5-33.7 25.5-49.6v-7.8h-7.7c-.6 0-14.5.1-28.5 7.1-6.1 3-12.6 7.6-18 14.4-2.7-68.4-58.9-122.9-127.9-122.9h-308c-70.7 0-128 57.3-128 128v76.4c0 12.7-8.1 23.7-20.1 27.9-27.4 9.7-47.1 35.9-47.1 66.6s19.6 56.9 47.1 66.6c11.9 4.2 20.1 15.3 20.1 27.9v37.3c0 11.5-7.3 21.8-18.2 25.5-21.8 7.6-37.5 28.5-37.2 53 .4 30.4 25.7 54.6 56.1 54.6h196.7c14.6 0 27.9-8.5 33.7-21.9 8.5-19.6 28-33.4 50.8-33.4s42.3 13.8 50.8 33.4c5.8 13.4 19.1 21.9 33.7 21.9h196.7c30.4 0 55.7-24.2 56.1-54.6.3-24.5-15.3-45.4-37.2-53zm-303.4-253.1c0 1.2 0 2.4-.1 3.6v.3c0 .8-.1 1.7-.2 2.5-2.3-28.3-26-50.7-55-50.7-30.5 0-55.2 24.7-55.2 55.2s24.7 55.2 55.2 55.2c9.2 0 17.9-2.3 25.6-6.3-12.6 9.6-28.4 15.4-45.6 15.4-30.6 0-56.9-18.3-68.7-44.5-.2-.5-.4-.9-.6-1.4 0-.1-.1-.2-.1-.2-.4-1-.8-2.1-1.2-3.1-.1-.2-.1-.3-.2-.5-.4-1-.7-2-1-3-.1-.2-.1-.4-.2-.6-.3-1-.6-1.9-.8-2.9-.1-.2-.1-.5-.2-.7-.2-1-.5-1.9-.7-2.9-.1-.3-.1-.5-.1-.8-.2-1-.4-2-.5-3 0-.3-.1-.6-.1-.8-.1-1-.3-2-.4-3 0-.3-.1-.7-.1-1-.1-.9-.2-1.9-.2-2.9 0-.7 0-1.4-.1-2.2 0-.6 0-1.1 0-1.7 0 0 0 0 0-.1s0 0 0 0c0-41.6 33.7-75.3 75.3-75.3s75.3 33.7 75.3 75.3c-.1 0-.1 0-.1.1zm-44.8-3.2c0 9.4-7.6 17-17 17s-17-7.6-17-17 7.6-17 17-17 17 7.6 17 17zm208 3.2v1.4c0 .8 0 1.6-.1 2.4 0 .9-.1 1.8-.2 2.6 0 .4-.1.8-.1 1.2-.1.9-.2 1.9-.4 2.8 0 .3-.1.7-.1 1-.1.9-.3 1.9-.5 2.8-.1.3-.1.6-.2 1-.2.9-.4 1.9-.6 2.8-.1.3-.1.6-.2.9-.2.9-.5 1.9-.8 2.8-.1.3-.2.5-.2.8-.3 1-.6 1.9-1 2.9-.1.2-.1.4-.2.6-.4 1-.8 2-1.2 3 0 .1-.1.2-.1.3-.2.5-.4 1.1-.7 1.6-11.8 26.1-38.1 44.2-68.6 44.2-17.1 0-32.9-5.7-45.6-15.4 7.6 4 16.3 6.3 25.6 6.3 30.5 0 55.2-24.7 55.2-55.2 0-30.4-24.7-55.2-55.2-55.2-29 0-52.7 22.3-55 50.7-.1-.8-.1-1.7-.2-2.5 0-.1 0-.2 0-.3-.1-1.2-.1-2.4-.1-3.6s0 0 0-.1c0-41.6 33.7-75.3 75.3-75.3s75.2 33.8 75.2 75.4zm-105.8-3.2c0-9.4 7.6-17 17-17s17 7.6 17 17-7.6 17-17 17-17-7.6-17-17zm209.3 7.7c-7.4 21.5-28.7 34.9-51.3 32.6l-46.5-4.8c4-10 6.2-20.9 6.2-32.4 0-48-39.1-87.2-87.2-87.2-37.3 0-69.2 23.5-81.6 56.5-12.5-32.9-44.3-56.5-81.6-56.5-48.1 0-87.2 39.1-87.2 87.2 0 11.3 2.2 22.1 6.1 32l-52.3 5.3c-22.6 2.3-43.8-11.2-51.2-32.6-5.1-14.6-8.1-31.3-8.1-44.3 0-30 16.2-54.3 36.1-54.3h470.7c19.9 0 36.1 24.3 36 54.2-0 13-3 29.6-8.1 44.3z"/><path d="m487.2 863h-30.9v-8h30.9zm-159 0h30.8v-8h-30.9v8zm182.1-86.3c4.5-1.8 8-4.1 10.6-7.1s3.8-6.9 3.8-11.6c0-1.2-.2-2.4-.7-3.6-.4-1.3-1.2-2.5-2.3-3.6s-2.6-2-4.5-2.7c-2-.7-4.3-1.1-7.2-1.1-4.5 0-8.8.9-12.7 2.9s-7.4 4.5-10.6 7.7c-3.1 3.1-5.8 6.9-8 11-2.3 4.1-3.9 8.5-5 13.2 7.5-.3 14.3-.7 20.5-1.5 6.3-.7 11.6-2 16.1-3.6zm242.1-88.7-14.5 20.5c-5.8 8.2-12 16.8-18.6 25.6s-13.4 17.7-20.3 26.3c-7 8.8-14.1 17.5-21.1 25.8-4.5 5.3-8.9 10.5-13.2 15.4-.4.4-.4.9-.2 1.4 2.5 5.6 4.9 11.1 7.3 16.5 3.7 8.5 7.4 17.2 10.8 25.8 3.4 8.7 6.9 17.7 10.1 26.7 3.2 9.1 6.6 18.9 10 29.3l5.5 17c.7 2-.8 3.9-2.8 3.9h-18-49.9-10.7c-.6 0-1.1-.4-1.2-.9l-3.3-10.1c-2.8-8.5-5.3-16.1-7.5-22.4-2.3-6.5-4.5-12.6-6.5-18.1-.7-1.8-1.3-3.5-2-5.3-.4-.9-1.6-1.1-2.2-.4l-42.1 51.4-4.5 5.4c-.3.3-.7.4-1 .4h-6.9-53.2-27.8c-2.6 0-3.9-2.9-2.3-4.9l12.3-14.7c.7-.9.1-2.1-.9-2.1h-4.3-434.4-13c-1.7 0-3-1.3-3-3v-12.4-.6-6.7-6.8-1.8-6.2-1.1-5.6-1.3-3.1-17.3c0-1.4.1-2.8.5-4.1 3.1-11.7 6.5-23.6 9.9-35.5 3.4-11.8 7-23.7 10.6-35.2s7.2-22.8 10.7-33.6c3.6-10.9 7.1-21.4 10.4-31.1l3.1-8.8c.4-1.2 1.5-2 2.8-2h9.3 18.4 9.9c1.4 0 2.6.9 2.9 2.2l2.6 9.6c1.6 5.9 3.3 12.9 5.1 20.9 1.8 7.8 3.6 16.1 5.3 24.6.4 2.1.8 4.2 1.2 6.3.2 1.1 1.7 1.4 2.3.4 2.8-4.2 5.6-8.4 8.5-12.6 5.7-8.5 11.3-16.8 16.7-24.5 5.4-7.8 10.4-14.7 14.7-20.5l3.9-5.2c.6-.7 1.5-1.2 2.4-1.2h6.5 18 14.5c1.8 0 3.1 1.5 3 3.3l-1.5 14.3c-.9 9.1 3.1 6.3 3.1 3.4 0-10.9 4.9-17.7 9-21.5 5.5-5.1 12.3-7.8 19.6-7.8 6.9 0 13.3 2.4 18.3 6.9 4.7 4.3 6.9 9.3 7.8 13.9.3-.3.7-.6 1-.9 6-4.8 13.3-8.5 21.6-11.1 7.9-2.3 16.9-3.6 26.6-3.6 4.7 0 9.3.4 13.6 1.1 4.2.7 8.2 1.6 11.8 2.7 3.4 1 6.6 2.2 9.3 3.4.9.4 1.8.8 2.6 1.2.7.4 1.6-.1 1.8-.9l.5-2.2c.3-1.4 1.5-2.3 2.9-2.3h10.3 99.8 16.4c1.9 0 3.4 1.8 2.9 3.6l-3.7 16-3.6 15.7-.2 1c8.2-3.4 17.2-5.1 26.9-5.1 7.2 0 13.5 1 19 3 2.1.7 4.1 1.6 5.9 2.6 1.1.5 2.3-.6 1.8-1.7l-6.1-13.6-8.2-18.3c-.9-2 .6-4.2 2.8-4.2h20 51.4 10.4c.5 0 .9.3 1.2.8l3.6 9.4 14 36.1c.4.9 1.6 1.1 2.2.3 2.3-3 4.7-6.1 6.9-9.1 8.2-10.9 15.9-21.2 22.8-30.9l4.4-6.1c.2-.3.6-.5 1-.5h7.6 51.1 25.1c2.4 0 3.9 2.7 2.5 4.8zm-283.2 64.8c-5 6.4-8.9 13.9-11.6 22.3s-4.1 17.1-4.1 26.1c0 4.9.8 9.6 2.3 13.9 1.5 4.4 3.9 8.2 7.2 11.5s7.2 5.8 12 7.7c4.8 1.8 10.5 2.8 17.1 2.8 7.7 0 14.5-.8 20.2-2.3 5.7-1.6 9.9-3.1 12.5-4.5l-1.5-15.3c-.7.7-2 1.3-3.9 2s-4 1.4-6.4 2.1-5 1.3-7.6 1.8c-2.6.4-5.2.7-7.7.7-5.6 0-10.1-.6-13.5-1.8s-6.1-2.8-8-4.7c-1.9-2-3.2-4.4-3.9-7s-1.1-5.4-1.1-8.4c0-.4 0-.9 0-1.5 0-.7.1-1.5.2-2.6 4.7-.3 9.9-.6 15.2-.9 5.4-.3 10.7-.9 15.9-1.8 5.3-.9 10.3-2.1 15.1-3.6s9.1-3.7 12.7-6.6c3.6-2.8 6.5-6.3 8.7-10.6 2.2-4.2 3.3-9.3 3.3-15.4 0-3.2-.6-6.3-1.8-9.4-1.2-3-2.9-5.7-5.3-8-2.3-2.3-5.5-4.2-9.3-5.5-3.8-1.4-8.3-2-13.6-2-9.1 0-17.4 1.9-24.6 5.7-7.3 3.7-13.4 8.9-18.5 15.3zm-236.1-47.5c0 3.3 1 5.8 3 7.6s4.5 2.7 7.4 2.7c3.1 0 6-1.2 8.8-3.6 2.7-2.4 4.1-5.5 4.1-9.4 0-3.4-1.1-6-3.1-7.9-2.1-1.8-4.6-2.8-7.6-2.8-3.2 0-6.1 1.2-8.7 3.6-2.6 2.5-3.9 5.7-3.9 9.8zm-28.6 129.4h18l24.2-100.8h-18zm-166.5-.2h18.6c4.9-18.2 9.9-36.1 15.1-53.9 5.2-17.7 10.5-34.9 15.9-51.5.7 2.8 1.5 6.5 2.3 10.9.9 4.5 1.9 9.4 3 14.8s2.2 11 3.3 16.9 2.2 11.6 3.2 17.1 1.9 10.6 2.8 15.3 1.5 8.6 2 11.8h15.1c2-3 4.5-6.8 7.6-11.5s6.4-9.9 10.1-15.3c3.6-5.5 7.4-11.2 11.2-17.1 3.9-5.8 7.6-11.5 11.2-16.9s6.9-10.4 10.1-14.9c3.1-4.5 5.7-8.2 7.7-11-2.4 16.6-5.3 33.8-8.6 51.1-3.2 17.5-6.8 35.5-10.7 54.2h18.8c4.4-22.6 8.5-45.2 12.1-67.7 3.7-22.6 6.6-44.7 8.8-66.6h-18c-4.3 5.7-9.1 12.4-14.5 20.1-5.3 7.7-10.9 15.8-16.6 24.2-5.7 8.5-11.3 16.9-16.9 25.3s-10.7 16.1-15.4 23.1c-1-6.8-2.3-14.5-3.8-22.8-1.5-8.5-3.1-16.9-4.8-25.3-1.8-8.5-3.5-16.6-5.3-24.3s-3.4-14.5-5-20.1h-18c-3.4 9.7-6.8 19.9-10.4 30.8s-7.1 22-10.7 33.4c-3.5 11.5-7 23.1-10.4 34.9-3.4 11.7-6.7 23.4-9.8 35zm207.3 31.8-3.4-2c-.7.4-1.8.4-2.5 0s-.7-1 0-1.4l-25.3-14.6-1.1.7h-175v6.1h164.5l-13.8 8h-150.7v6.2h148l-3-1.8v-1.2l5 2.9 15.2 8.8h-.1l5.1 2.9v-.1h.1c.7-.4 1.8-.4 2.5 0 .2.1.4.3.4.5v.1.1s0 0 0 .1v.3c-.1.1-.1.2-.3.3 0-.1 0-.3-.1-.3s-.1-.1-.1-.1c-.1-.1-.1-.1-.2-.1h-.1c-.1-.1-.1-.1-.2-.1s-.1 0-.1 0c-.1 0-.1 0-.2 0h-.1c-.1 0-.2 0-.3 0s-.1 0-.1 0c-.1 0-.2 0-.3 0s-.1 0-.1 0c-.1.1-.2.1-.3.1s-.1 0-.1 0c-.1 0-.1.1-.2.1s-.2.1-.2.1v.2l-7.1-4.1h-163.1v6.7h175l-2.3-1.3.1-1.1.2.1.2.1 3 1.7h.1zm58-17.3h-47.4v35.7h8.2v-15.4h39.2v-6.3h-39.2v-8h39.2zm1.6-14.3c6.6-1.8 12.4-4.5 17.2-8 4.9-3.5 8.7-8 11.5-13.4 2.8-5.3 4.2-11.6 4.2-18.7 0-5.2-.8-9.6-2.3-13.2s-3.6-6.8-6.1-9.5c-2.6-2.7-5.5-5.1-9-7.1-3.4-2-7.1-3.9-10.9-5.9-3.1-1.5-6-3-8.6-4.5-2.7-1.4-4.9-3-6.7-4.7-1.8-1.8-3.2-3.7-4.2-6s-1.5-5.1-1.5-8.5c0-3.9.8-7.2 2.3-10s3.6-5 6.2-6.9c2.6-1.8 5.6-3.1 9.2-3.9s7.4-1.2 11.5-1.2c6.6 0 12.3.8 17.2 2.3s8.4 3.1 10.6 5l8.8-14.7c-1-.8-2.6-1.7-4.8-2.6s-4.7-1.9-7.7-2.8c-2.8-.9-6.1-1.7-9.6-2.3-3.4-.6-7.2-.9-11-.9-8.2 0-15.5.9-22 2.9s-11.8 4.7-16.2 8.2c-4.4 3.6-7.7 7.8-10 12.7s-3.4 10.2-3.4 16.1c0 5 .8 9.3 2.3 13 1.5 3.6 3.4 6.8 5.8 9.4 2.4 2.7 5.1 4.9 8.2 6.7 3 1.8 6 3.5 9 5 3.4 1.8 6.6 3.5 9.6 5.1 2.9 1.6 5.5 3.4 7.6 5.3s3.8 4 5 6.4c1.2 2.3 1.8 5.2 1.8 8.4 0 4.7-.9 8.6-2.9 11.8s-4.5 5.7-7.6 7.7c-3.1 1.9-6.6 3.4-10.6 4.2-3.9.8-7.9 1.2-11.9 1.2-8.2 0-14.9-1-20.4-3.4-5.3-2.1-9.1-4-11.6-5.7l-8.7 15.3c1.2.9 2.8 1.9 5 3s4.9 2.2 8 3.2 6.8 1.9 11 2.6 8.9 1.1 14.1 1.1c7.7-0 14.9-.9 21.6-2.7zm62.5 28.4-.1-8.3c-.1-3.2-2.8-5.8-6-5.8h-41.3v35.7h8.3v-15.4h32.9c3.5-0 6.2-2.8 6.2-6.2zm43.3-147.1-28.5 118.6h18.8l28.5-118.6h40.6l3.6-15.7h-99.9l-3.6 15.7zm-18.5 161.9v-22.9h39.1c0-3.4-2.7-6.1-6.1-6.1h-35.4c-3.2 0-5.8 2.6-6 5.8v23.2c0 3.7 3 6.7 6.7 6.7h34c3.7 0 6.7-3 6.7-6.7v-8.7c.1-3.4-2.6-6.2-6.1-6.2h-26.9v6.2h24.8v8.7zm95-8.6v15.4h8.3v-29.7c-.1-3.4-2.8-6.1-6.1-6.1h-35.4c-3.4 0-6.1 2.7-6.1 6.1v29.6h8.3v-15.4h31zm236.6-170.1h-51.1c-6.9 9.8-14.6 20.1-23 31.2-8.3 11-17 22-26 32.7l-24.8-63.9h-51.4l42.2 94.4-94.2 112.7h53.2l60.1-73.2c2.6 5.5 5 10.9 7.2 16 2.2 5 4.3 10.4 6.4 16.1s4.3 11.8 6.6 18.4 4.8 14.2 7.6 22.7v-.1h49.9c-3.4-10.4-6.6-20-9.9-29s-6.5-17.7-9.9-26.1c-3.4-8.5-6.9-16.9-10.6-25.3-3.7-8.3-7.7-17.2-11.8-26.6 6.6-7.4 13.3-15.2 20.3-23.4s13.9-16.7 20.8-25.4 13.5-17.3 20-26c6.5-8.6 12.6-17 18.4-25.2zm-481.3 167-26.5 15.3h-3.6l-26.5-15.3 28.3-16.3zm-5.7-2.3-20-11.5c-1.5-.9-3.5-.9-5 0l-20.2 11.7c-1.2.7-1.2 2.6 0 3.3l20.1 11.6c1.7.9 3.7.9 5.4 0l6.3-3.6c.5-.3.5-1.1 0-1.4-.6-.4-.6-1.2 0-1.5l2.6-1.5c.7-.4 1.7-.4 2.4 0 .8.5 1.9.5 2.7 0l5.8-3.4c1.3-.9 1.3-2.9-.1-3.7zm-22.4-9.6c-.5 0-1 .1-1.4.4l-16.9 9.8h.1l16.8 9.7c.5.3 1 .4 1.5.4s1.1-.1 1.5-.4l15.1-8.7 1.5-.8c.1 0 .1-.1.1-.2s0-.2-.1-.2l-16.7-9.6c-.5-.3-1-.4-1.5-.4m0-1.5c.7 0 1.5.2 2.1.5l16.7 9.6c1.2.7 1.2 2.3 0 3l-1.5.8-15.1 8.7c-.7.4-1.5.6-2.3.6s-1.6-.2-2.3-.6l-16.8-9.7c-1.1-.5-1.1-2 0-2.6l16.9-9.8c.8-.3 1.5-.5 2.3-.5z"/></svg>