<?xml version="1.0" encoding="utf-8"?>
<!-- Generator: Adobe Illustrator 27.4.1, SVG Export Plug-In . SVG Version: 6.00 Build 0)  -->
<svg version="1.1" id="Layer_1" xmlns="http://www.w3.org/2000/svg" xmlns:xlink="http://www.w3.org/1999/xlink" x="0px" y="0px"
	 viewBox="0 0 1008 246.2" style="enable-background:new 0 0 1008 246.2;" xml:space="preserve">
<style type="text/css">
	.st0{fill:#001C2F;}
	.st1{fill:#296483;}
	.st2{fill:#00AEEF;}
	.st3{fill:#E9EAE9;}
	.st4{fill:#3689AF;}
	.st5{fill:#BBBAB8;}
	.st6{fill:#989E9E;}
	.st7{fill:#F0EFEF;}
</style>
<path class="st0" d="M1000.7,12.1h-24.1h-49h-7.3c-0.4,0-0.8,0.2-1,0.5l-4.2,5.9c-6.6,9.2-13.9,19.2-21.9,29.6
	c-2.2,2.9-4.4,5.8-6.6,8.6c-0.6,0.8-1.8,0.6-2.1-0.3l-13.4-34.6l-3.5-9c-0.2-0.5-0.7-0.8-1.2-0.8h-9.7h-49.3h-19.2
	c-2.1,0-3.5,2.1-2.6,4l7.9,17.6l5.9,13.1c0.5,1.1-0.7,2.1-1.6,1.6c-1.8-1-3.6-1.7-5.7-2.5c-5.3-1.9-11.4-2.9-18.2-2.9
	c-9.3,0-17.9,1.6-25.8,4.9l0.2-1l3.5-15.1l3.5-15.4c0.4-1.8-1-3.5-2.8-3.5h-15.7h-95.7h-9.9c-1.3,0-2.5,1-2.8,2.2l-0.5,2.1
	c-0.2,0.8-1.1,1.2-1.7,0.9c-0.8-0.4-1.6-0.8-2.5-1.2c-2.6-1.2-5.7-2.3-9-3.4c-3.5-1.1-7.3-1.9-11.2-2.6c-4.1-0.7-8.5-1.1-13.1-1.1
	c-9.4,0-18,1.2-25.5,3.5c-8.1,2.4-15,6-20.7,10.6c-0.4,0.3-0.7,0.6-1,0.9c-0.9-4.3-3-9.2-7.5-13.3C530.9,7.3,524.8,5,518.1,5
	c-7,0-13.4,2.6-18.8,7.5c-3.9,3.6-8.6,10.2-8.6,20.6c0,2.8-3.9,5.5-3.1-3.3l1.3-13.7c0.2-1.7-1.2-3.2-2.9-3.2h-13.8H455h-6.2
	c-0.9,0-1.7,0.4-2.3,1.2l-3.7,5c-4.2,5.6-8.9,12.2-14.2,19.7c-5.2,7.4-10.6,15.3-16,23.5c-2.7,4-5.5,8.1-8.2,12.1
	c-0.6,0.9-2,0.6-2.2-0.5c-0.4-2-0.8-4-1.2-6c-1.7-8.2-3.4-16.1-5.1-23.6c-1.7-7.7-3.4-14.4-4.9-20.1l-2.5-9.2
	c-0.4-1.2-1.4-2.1-2.8-2.1h-9.5h-17.9h-8.8c-1.2,0-2.3,0.8-2.7,1.9l-2.9,8.3c-3.3,9.3-6.6,19.4-10.1,29.8
	c-3.4,10.4-6.8,21.2-10.3,32.3c-3.5,11-6.8,22.4-10.2,33.8c-3.3,11.4-6.5,22.8-9.5,34.1l0,0c-0.4,1.2-0.5,2.6-0.5,3.9v16.6v3v1.2
	v5.4v1.1v5.9v1.7v6.6v6.4v0.6v11.9c0,1.6,1.2,2.9,2.9,2.9h12.5h416.8h4.1c1.1,0,1.6,1.2,1,2l-11.7,14.1c-1.5,1.9-0.2,4.7,2.2,4.7
	h26.7h51h6.7c0.4,0,0.7-0.2,1-0.5l4.2-5.2l40.4-49.2c0.6-0.8,1.7-0.6,2.1,0.3c0.7,1.6,1.2,3.4,1.9,5.1c1.9,5.3,4,11.1,6.2,17.4
	c2.1,6,4.5,13.3,7.2,21.5l3.2,9.8c0.2,0.5,0.7,0.9,1.2,0.9h10.3H941h17.2c1.9,0,3.4-1.9,2.8-3.7l-5.4-16.3
	c-3.3-10-6.5-19.5-9.6-28.2c-3.1-8.7-6.3-17.4-9.7-25.6c-3.4-8.3-6.8-16.6-10.4-24.8c-2.3-5.2-4.6-10.5-7-15.8
	c-0.2-0.5-0.1-1,0.2-1.3c4.1-4.7,8.3-9.7,12.7-14.8c6.7-8,13.5-16.2,20.2-24.8c6.6-8.3,13.1-16.9,19.5-25.3
	c6.3-8.4,12.3-16.7,17.8-24.6l13.9-19.7C1004.4,14.7,1003,12.1,1000.7,12.1z"/>
<g>
	<rect x="317.6" y="198.9" class="st1" width="169" height="6.4"/>
	<g>
		<polygon class="st2" points="572.2,176.9 572.2,171.1 526.7,171.1 526.7,205.3 534.6,205.3 534.6,190.5 572.2,190.5 572.2,184.6 
			534.6,184.6 534.6,176.9 		"/>
	</g>
	<g>
		<path class="st2" d="M633.7,176.6c-0.2-3.1-2.7-5.5-5.8-5.5h-39.7v34.3h8v-14.8h31.6c3.3,0,5.9-2.7,5.9-5.9V176.6L633.7,176.6z
			 M625.7,184.6h-29.5v-7.7h29.5V184.6z"/>
	</g>
	<g>
		<path class="st2" d="M689.1,184.6h-25.8v5.9h23.8v8.3h-29.5v-22h37.6c0-3.2-2.6-5.8-5.8-5.8h-34c-3.1,0-5.6,2.4-5.8,5.5l0,0v22.3
			c0,3.5,2.9,6.4,6.4,6.4h32.6c3.5,0,6.4-2.9,6.4-6.4v-8.3l0,0C695.2,187.3,692.5,184.6,689.1,184.6z"/>
	</g>
	<rect x="317.6" y="184.6" class="st1" width="148.1" height="5.9"/>
	<rect x="317.6" y="171.1" class="st1" width="169" height="5.8"/>
	<g>
		<path class="st2" d="M750.8,171.1h-34c-3.2,0-5.8,2.6-5.8,5.8v28.4h8v-14.8h29.5v14.8h8v-28.4C756.6,173.7,754,171.1,750.8,171.1z
			 M719,184.6v-7.7h29.5v7.7H719z"/>
	</g>
	<path class="st3" d="M451.4,56.2c-2,2.7-4.5,6.2-7.5,10.6s-6.2,9.1-9.7,14.3c-3.5,5.2-7.1,10.6-10.7,16.3
		c-3.7,5.7-7.3,11.1-10.7,16.4c-3.5,5.3-6.7,10.2-9.7,14.7c-3,4.5-5.4,8.3-7.3,11h-14.5c-0.5-3-1.2-6.7-1.9-11.2
		c-0.8-4.5-1.7-9.4-2.7-14.7c-1-5.3-2-10.7-3.1-16.4c-1.1-5.7-2.1-11-3.2-16.3c-1.1-5.2-2-10-2.9-14.2c-0.9-4.3-1.6-7.8-2.2-10.6
		c-5.2,16-10.3,32.5-15.3,49.5c-5,17-9.8,34.3-14.5,51.7h-17.9c3-11.1,6.1-22.5,9.4-33.8c3.3-11.3,6.6-22.5,10.1-33.5
		c3.5-10.9,6.8-21.7,10.3-32c3.5-10.5,6.7-20.2,10-29.5H375c1.5,5.5,3.1,11.9,4.7,19.4s3.4,15.3,5,23.3c1.6,8.2,3.3,16.2,4.6,24.3
		c1.4,8.1,2.6,15.4,3.6,22c4.5-6.7,9.4-14.1,14.8-22.2c5.4-8.1,10.8-16.1,16.3-24.3s10.7-15.8,15.9-23.2s9.8-13.8,13.8-19.3H471
		c-2.1,20.9-4.9,42.2-8.4,63.9s-7.4,43.3-11.6,65h-18c3.7-17.8,7.1-35.2,10.3-52C446.3,88.6,449,72.2,451.4,56.2z"/>
	<path class="st3" d="M494.7,157.4h-17.3l23.2-96.7h17.3L494.7,157.4z M514.8,43.2c-2.9,0-5.3-0.9-7.2-2.6c-1.9-1.7-2.9-4.1-2.9-7.3
		c0-3.9,1.2-7.1,3.7-9.4c2.5-2.3,5.3-3.5,8.3-3.5c2.9,0,5.3,0.9,7.3,2.7c2,1.8,3,4.3,3,7.6c0,3.7-1.3,6.7-3.9,9
		C520.5,42,517.8,43.2,514.8,43.2z"/>
	<path class="st3" d="M555.3,144.5c3.8,0,7.7-0.4,11.4-1.2c3.7-0.8,7.2-2.1,10.2-4c3-1.8,5.4-4.3,7.3-7.4c1.8-3.1,2.8-6.8,2.8-11.2
		c0-3.1-0.6-5.8-1.7-8.1s-2.8-4.3-4.8-6.1s-4.5-3.5-7.3-5c-2.8-1.5-5.9-3.2-9.2-4.9c-2.9-1.5-5.8-3.1-8.6-4.8
		c-2.9-1.7-5.6-3.8-7.8-6.4c-2.3-2.5-4.1-5.6-5.6-9c-1.4-3.5-2.1-7.6-2.1-12.5c0-5.6,1.1-10.7,3.3-15.4c2.2-4.7,5.4-8.7,9.6-12.2
		c4.2-3.5,9.4-6,15.5-7.9c6.1-1.8,13.1-2.8,21.1-2.8c3.7,0,7.3,0.3,10.6,0.9c3.3,0.6,6.4,1.2,9.2,2.1c2.8,0.9,5.3,1.7,7.4,2.7
		c2.1,1,3.6,1.7,4.6,2.5l-8.3,14.1c-2.1-1.7-5.5-3.4-10.2-4.7c-4.6-1.4-10.2-2.1-16.5-2.1c-3.9,0-7.7,0.4-11,1.2
		c-3.5,0.8-6.3,2.1-8.8,3.8c-2.5,1.7-4.5,3.9-5.9,6.6c-1.5,2.7-2.2,5.9-2.2,9.6c0,3.3,0.5,5.9,1.5,8.1c1,2.2,2.4,4.1,4.1,5.8
		c1.7,1.6,3.8,3.2,6.4,4.5c2.5,1.3,5.3,2.8,8.3,4.3c3.7,1.8,7.2,3.7,10.6,5.7c3.3,1.9,6.1,4.2,8.6,6.8c2.5,2.6,4.4,5.7,5.9,9.1
		s2.1,7.7,2.1,12.7c0,6.8-1.3,12.8-4,17.9c-2.7,5.2-6.3,9.4-10.9,12.9c-4.6,3.5-10.2,5.9-16.6,7.7c-6.4,1.7-13.3,2.6-20.7,2.6
		c-5,0-9.5-0.4-13.5-1.1c-4-0.7-7.6-1.5-10.6-2.5c-3.1-1-5.6-2-7.7-3.1c-2.1-1.1-3.7-2-4.8-2.9l8.3-14.7c2.4,1.6,6,3.5,11.1,5.5
		C541.1,143.5,547.5,144.5,555.3,144.5z"/>
	<path class="st3" d="M735.7,28.5l-3.5,15.1h-38.9L666,157.4h-18l27.3-113.8h-38.9l3.5-15.1H735.7z"/>
	<path class="st3" d="M753.4,159.7c-6.3,0-11.8-0.9-16.4-2.7c-4.6-1.8-8.4-4.3-11.5-7.5c-3.1-3.2-5.4-6.8-6.9-11
		c-1.5-4.2-2.2-8.6-2.2-13.4c0-8.6,1.3-17.1,3.9-25.1c2.6-8.1,6.3-15.2,11.1-21.4s10.7-11.1,17.7-14.8c6.9-3.6,14.8-5.5,23.6-5.5
		c5.1,0,9.5,0.7,13.1,1.9c3.6,1.3,6.6,3.1,8.9,5.3c2.3,2.2,4,4.8,5.1,7.7c1.2,2.9,1.6,5.9,1.6,9c0,5.9-1.1,10.7-3.2,14.8
		c-2.1,4-4.9,7.4-8.3,10.2c-3.5,2.7-7.6,4.8-12.2,6.3c-4.6,1.5-9.5,2.7-14.5,3.5c-5,0.9-10.1,1.4-15.3,1.7c-5.2,0.3-10,0.6-14.6,0.9
		c-0.1,1-0.2,1.8-0.2,2.4c0,0.6,0,1.2,0,1.5c0,2.9,0.4,5.6,1.1,8.1c0.7,2.6,1.9,4.8,3.8,6.7c1.8,1.9,4.4,3.5,7.7,4.5
		c3.3,1.2,7.6,1.6,13,1.6c2.4,0,4.8-0.2,7.4-0.7c2.5-0.5,5-1,7.3-1.6s4.3-1.3,6.1-2c1.8-0.7,3.1-1.3,3.8-1.9l1.5,14.7
		c-2.5,1.3-6.5,2.8-12,4.4C767.3,159,760.8,159.7,753.4,159.7z M735.7,106.6c7.2-0.3,13.7-0.7,19.7-1.4c5.9-0.7,11.1-1.8,15.4-3.5
		c4.3-1.6,7.7-3.9,10.2-6.8c2.4-2.9,3.6-6.5,3.6-11.1c0-1.2-0.2-2.3-0.7-3.5c-0.5-1.2-1.2-2.4-2.2-3.5c-1.1-1.1-2.5-1.9-4.4-2.6
		c-1.8-0.7-4.1-1.1-6.9-1.1c-4.3,0-8.4,1-12.2,2.8c-3.7,1.8-7.2,4.3-10.2,7.4c-3,3.1-5.6,6.6-7.6,10.6
		C738.4,97.9,736.8,102.1,735.7,106.6z"/>
	<path class="st3" d="M891.9,226.1c-2.7-8.3-5.1-15.4-7.3-21.8c-2.2-6.3-4.3-12.2-6.3-17.7c-2-5.5-4-10.6-6.1-15.4
		c-2.1-4.9-4.4-10-6.9-15.4l-57.7,70.2h-51L846.9,118l-40.4-90.7h49.3l23.8,61.4c8.6-10.4,16.9-20.8,24.9-31.4
		c8.1-10.6,15.4-20.6,22.1-29.9h49c-5.6,7.9-11.4,15.9-17.7,24.3s-12.7,16.6-19.2,24.9c-6.6,8.3-13.2,16.4-20,24.4
		c-6.7,8-13.1,15.4-19.5,22.5c4,9,7.8,17.5,11.3,25.5c3.5,8.1,6.9,16.1,10.2,24.3c3.3,8.2,6.4,16.5,9.5,25.1
		c3.1,8.6,6.2,17.8,9.5,27.8h-48V226.1z"/>
</g>
<path id="path7121-9" class="st1" d="M456.8,187.7v1.1l24.2,14v-1.1L456.8,187.7"/>
<path id="path7123-7" class="st1" d="M483.9,202.3L483.9,202.3C483.8,202.3,483.8,202.3,483.9,202.3
	C483.8,202.3,483.8,202.3,483.9,202.3C483.9,202.3,483.9,202.3,483.9,202.3L483.9,202.3L483.9,202.3L483.9,202.3L483.9,202.3
	L483.9,202.3L483.9,202.3c0-0.1,0-0.1,0-0.2l0,0l0,0c0,0,0-0.1-0.1-0.1l0,0l0,0l-0.1-0.1l0,0l0,0l-0.1-0.1c-0.1,0-0.2-0.1-0.3-0.1
	h-0.1h-0.1l0,0l0,0l0,0l0,0c0,0,0,0-0.1,0h-0.1h-0.1h-0.1c0,0,0,0-0.1,0l0,0l0,0l0,0l0,0l0,0c-0.1,0-0.1,0-0.2,0c0,0,0,0-0.1,0l0,0
	c0,0,0,0-0.1,0s-0.1,0-0.2,0c0,0,0,0-0.1,0l0,0c0,0,0,0-0.1,0s-0.1,0-0.2,0l0,0l0,0h-0.1c-0.1,0-0.1,0-0.2,0.1l0,0l0,0
	c-0.1,0-0.2,0.1-0.3,0.1v1.1c0.1,0,0.2-0.1,0.3-0.1l0,0c0.1,0,0.2-0.1,0.3-0.1l0,0c0.1,0,0.2,0,0.3,0l0,0c0.1,0,0.2,0,0.3,0l0,0
	c0.1,0,0.2,0,0.3,0c0,0,0,0,0.1,0s0.1,0,0.2,0h0.1c0.1,0,0.1,0,0.2,0.1h0.1c0.1,0,0.2,0.1,0.3,0.1l0.1,0.1l0,0
	c0.1,0,0.1,0.6,0.1,0.6l0,0c0,0,0,0,0.1,0.1l0,0c0,0,0,0,0,0.1l0,0l0,0l0,0l0,0c0,0,0,0,0,0.1l0,0c0,0,0,0,0,0.1L483.9,202.3
	L483.9,202.3C483.9,202.4,483.9,202.3,483.9,202.3"/>
<path id="path7125-3" class="st1" d="M486.7,204.9v1.1l29.8-17.3v-1.1L486.7,204.9"/>
<path id="path7127-6" class="st1" d="M483.3,203v1.1l3.4,1.8v-1.1L483.3,203"/>
<path id="path7129-1" class="st4" d="M456.8,187.7l24.2,14c0.7-0.4,1.7-0.4,2.4,0c0.7,0.4,0.7,1,0,1.3l3.3,1.9l29.8-17.3l-3.3-1.9
	c-0.7,0.4-1.7,0.4-2.4,0c-0.7-0.4-0.7-1,0-1.3l-24.2-14L456.8,187.7"/>
<path id="path7131-2" class="st1" d="M488.4,202.3l25.4-14.7l-27.2-15.7l-27.2,15.7l25.4,14.7H488.4"/>
<path id="path7143-7" class="st5" d="M508.4,185.5l-19.2-11c-1.5-0.9-3.4-0.9-4.8,0L465,185.7c-1.2,0.7-1.2,2.4,0,3.2l19.2,11.1
	c1.6,1,3.5,1,5.2,0l6-3.5c0.5-0.3,0.5-1.1,0-1.3l0,0c-0.6-0.3-0.6-1.2,0-1.5l2.5-1.4c0.7-0.4,1.6-0.4,2.3,0l0,0
	c0.8,0.5,1.8,0.5,2.6,0l5.6-3.2C509.6,188.1,509.6,186.2,508.4,185.5"/>
<path id="path7147-4" class="st3" d="M468.5,184.7l16.2-9.4c1.2-0.8,2.8-0.8,4,0l16,9.2c1.1,0.7,1.1,2.2,0,2.9l-1.3,0.8l-14.5,8.3
	c-1.3,0.8-3,0.8-4.3,0l-16.1-9.3C467.6,186.7,467.6,185.3,468.5,184.7"/>
<g>
	<path class="st0" d="M259.6,186.6v-15.1c0-5.2,3.3-9.6,8.2-11.3c11.1-3.9,19.1-14.6,19.1-27c0-12.4-7.9-23.1-19.1-27
		c-4.8-1.7-8.2-6.2-8.2-11.3v-31c0-28.7-23.2-51.9-51.9-51.9H82.8c-28.7,0-51.9,23.2-51.9,51.9v31c0,5.2-3.3,9.6-8.2,11.3
		c-11.1,3.9-19.1,14.6-19.1,27c0,12.4,7.9,23.1,19.1,27c4.8,1.7,8.2,6.2,8.2,11.3v15.1c0,4.7-3,8.8-7.4,10.3
		c-8.8,3.1-15.2,11.6-15.1,21.5c0.2,12.3,10.4,22.1,22.8,22.1h79.8c5.9,0,11.3-3.4,13.7-8.9c3.4-7.9,11.4-13.5,20.6-13.5
		s17.2,5.6,20.6,13.5c2.4,5.4,7.7,8.9,13.7,8.9h79.8c12.3,0,22.6-9.8,22.8-22.1c0.1-9.9-6.2-18.4-15.1-21.5
		C262.6,195.4,259.6,191.2,259.6,186.6z"/>
	<path class="st0" d="M278.7,88.7c-1.9-3.9-5.4-8.3-11.6-10.5c1.4-0.4,2.8-1.1,4.2-1.9c8.5-4.9,10.3-13.7,10.3-20.1V53h-3.1
		c-0.2,0-5.9,0-11.6,2.9c-5.4,2.7-11.9,8.5-11.9,20.6v3h0v0.3c0,0.4-0.4,10.1,6.1,17c4.1,4.3,9.9,6.5,17.3,6.5h3.1v-3.1
		C281.5,100,281.5,94.3,278.7,88.7z"/>
	<path class="st6" d="M240.7,56.2H49.8c-8.1,0-14.6,9.9-14.6,22l0,0c0,5.3,1.2,12,3.3,18c3,8.7,11.6,14.2,20.8,13.2l75.9-7.6
		c7.9-0.8,15.9-0.8,23.7,0l72.4,7.5c9.2,0.9,17.8-4.5,20.8-13.2c2.1-6,3.3-12.7,3.3-18l0,0C255.3,66,248.8,56.2,240.7,56.2z"/>
	<g>
		
			<ellipse transform="matrix(8.248058e-02 -0.9966 0.9966 8.248058e-02 10.06 199.4212)" class="st7" cx="113.3" cy="94.2" rx="30.5" ry="30.5"/>
		<path class="st0" d="M113.3,63.8c16.9,0,30.5,13.7,30.5,30.5s-13.7,30.5-30.5,30.5s-30.5-13.7-30.5-30.5
			C82.8,77.4,96.5,63.8,113.3,63.8 M113.3,58.9C93.8,58.9,78,74.7,78,94.2s15.9,35.4,35.4,35.4s35.4-15.9,35.4-35.4
			C148.7,74.8,132.8,58.9,113.3,58.9L113.3,58.9z"/>
		<g>
			<g>
				<circle class="st0" cx="121.4" cy="98.7" r="21.2"/>
				<path class="st2" d="M121.4,78.6c11.1,0,20.1,9,20.1,20.1s-9,20.1-20.1,20.1c-11.1,0-20.1-9-20.1-20.1
					C101.4,87.6,110.4,78.6,121.4,78.6 M121.4,76.3c-12.4,0-22.4,10-22.4,22.4s10,22.4,22.4,22.4s22.4-10,22.4-22.4
					C143.8,86.4,133.8,76.3,121.4,76.3L121.4,76.3z"/>
			</g>
			<circle class="st7" cx="118.8" cy="93" r="6.9"/>
		</g>
		<circle class="st7" cx="179.5" cy="94.2" r="30.5"/>
		<path class="st0" d="M179.5,63.8c16.9,0,30.5,13.7,30.5,30.5s-13.7,30.5-30.5,30.5S149,111.2,149,94.3
			C149,77.4,162.7,63.8,179.5,63.8 M179.5,58.9c-19.5,0-35.4,15.9-35.4,35.4s15.9,35.4,35.4,35.4c19.5,0,35.4-15.9,35.4-35.4
			C214.9,74.8,199,58.9,179.5,58.9L179.5,58.9z"/>
		<g>
			<g>
				<circle class="st0" cx="171.4" cy="98.7" r="21.2"/>
				<path class="st2" d="M171.4,78.6c11.1,0,20.1,9,20.1,20.1s-9,20.1-20.1,20.1c-11.1,0-20.1-9-20.1-20.1
					C151.3,87.6,160.3,78.6,171.4,78.6 M171.4,76.3c-12.4,0-22.4,10-22.4,22.4s10,22.4,22.4,22.4s22.4-10,22.4-22.4
					C193.8,86.4,183.8,76.3,171.4,76.3L171.4,76.3z"/>
			</g>
			<circle class="st7" cx="174" cy="93" r="6.9"/>
		</g>
	</g>
</g>
</svg>
