<?xml version="1.0" encoding="utf-8"?>
<!-- Generator: Adobe Illustrator 27.4.1, SVG Export Plug-In . SVG Version: 6.00 Build 0)  -->
<svg version="1.1" id="Layer_1" xmlns="http://www.w3.org/2000/svg" xmlns:xlink="http://www.w3.org/1999/xlink" x="0px" y="0px"
	 viewBox="0 0 1280 640" style="enable-background:new 0 0 1280 640;" xml:space="preserve">
<style type="text/css">
	.st0{fill:#071D2E;}
	.st1{fill:#969C9D;}
	.st2{fill:#F0EEEE;}
	.st3{fill:#29AAE1;}
</style>
<g>
	<path class="st0" d="M649.8,490.5v-38.4c0-13.1,8.3-24.4,20.7-28.7c28.2-10,48.5-37,48.5-68.6s-20.2-58.6-48.5-68.6
		c-12.3-4.3-20.7-15.8-20.7-28.7v-78.7c0-72.8-59-131.8-131.8-131.8H201c-72.8,0-131.8,59-131.8,131.8v78.7
		c0,13.1-8.3,24.4-20.7,28.7c-28.2,10-48.5,37-48.5,68.6s20.2,58.6,48.5,68.6c12.3,4.3,20.7,15.8,20.7,28.7v38.4
		c0,11.8-7.5,22.4-18.7,26.3c-22.4,7.8-38.6,29.3-38.3,54.6c0.4,31.3,26.5,56.2,57.8,56.2h202.5c15,0,28.7-8.8,34.7-22.5
		c8.8-20.2,28.8-34.4,52.3-34.4s43.5,14.2,52.3,34.4c6,13.8,19.7,22.5,34.7,22.5h202.5c31.3,0,57.3-24.9,57.8-56.2
		c0.3-25.2-15.8-46.7-38.3-54.6C657.3,513,649.8,502.4,649.8,490.5z"/>
	<path class="st0" d="M698.2,241.9c-4.9-9.8-13.8-21-29.5-26.6c3.5-1.1,7.1-2.7,10.6-4.7c21.6-12.6,26.3-34.7,26.3-51.1v-8h-7.9
		c-0.6,0-14.9,0.1-29.3,7.3c-13.8,6.9-30.2,21.5-30.2,52.2v7.5h0.1v0.8c-0.1,1-1.1,25.7,15.4,43.2c10.5,11,25.2,16.6,44,16.6h7.9
		v-7.9C705.5,270.6,705.4,256.3,698.2,241.9z"/>
	<path class="st1" d="M601.8,159.5H117.3c-20.5,0-37.2,25-37.2,55.9l0,0c0,13.4,3.1,30.6,8.3,45.6c7.6,22,29.4,35.9,52.7,33.6
		l192.6-19.4c20.1-2.1,40.3-2,60.2,0.1l183.8,19.1c23.3,2.4,45.2-11.4,52.8-33.6c5.3-15.1,8.3-32.2,8.3-45.6l0,0
		C639,184.5,622.3,159.5,601.8,159.5z"/>
	<g>
		<circle class="st2" cx="278.5" cy="256.1" r="77.5"/>
		<path class="st0" d="M278.5,178.7c42.8,0,77.5,34.7,77.5,77.5c0,42.8-34.7,77.5-77.5,77.5S201,299.1,201,256.2
			C201,213.4,235.7,178.7,278.5,178.7 M278.5,166.4c-49.5,0-89.8,40.3-89.8,89.8s40.3,89.8,89.8,89.8s89.8-40.3,89.8-89.8
			C368.3,206.7,328,166.4,278.5,166.4L278.5,166.4z"/>
		<g>
			<g>
				<circle class="st0" cx="299.1" cy="267.6" r="53.9"/>
				<path class="st3" d="M299.1,216.5c28.1,0,51,22.9,51,51s-22.9,51-51,51c-28.1,0-51-22.9-51-51
					C248.1,239.3,271,216.5,299.1,216.5 M299.1,210.6c-31.4,0-56.8,25.4-56.8,56.8s25.4,56.8,56.8,56.8s56.8-25.4,56.8-56.8
					C355.9,236.2,330.5,210.6,299.1,210.6L299.1,210.6z"/>
			</g>
			<circle class="st2" cx="292.4" cy="252.9" r="17.5"/>
		</g>
		<circle class="st2" cx="446.5" cy="256.1" r="77.5"/>
		<path class="st0" d="M446.5,178.7c42.8,0,77.5,34.7,77.5,77.5c0,42.8-34.7,77.5-77.5,77.5S369,299.1,369,256.2
			C369.1,213.4,403.8,178.7,446.5,178.7 M446.5,166.4c-49.5,0-89.8,40.3-89.8,89.8s40.3,89.8,89.8,89.8s89.8-40.3,89.8-89.8
			C536.3,206.7,496,166.4,446.5,166.4L446.5,166.4z"/>
		<g>
			<g>
				<circle class="st0" cx="425.9" cy="267.6" r="53.9"/>
				<path class="st3" d="M425.9,216.5c28.1,0,51,22.9,51,51s-22.9,51-51,51s-51-22.9-51-51C374.9,239.3,397.8,216.5,425.9,216.5
					 M425.9,210.6c-31.4,0-56.8,25.4-56.8,56.8s25.4,56.8,56.8,56.8s56.8-25.4,56.8-56.8C482.7,236.2,457.3,210.6,425.9,210.6
					L425.9,210.6z"/>
			</g>
			<circle class="st2" cx="432.6" cy="252.9" r="17.5"/>
		</g>
	</g>
</g>
<rect x="1151.5" y="512" class="st2" width="128" height="128"/>
<rect x="1023.4" y="512" class="st1" width="128" height="128"/>
<rect x="895.4" y="512" class="st0" width="128" height="128"/>
<rect x="767.4" y="512" class="st3" width="128" height="128"/>
<path class="st3" d="M1049.8,251.3v63.9c0,1.9-2.3,2.9-3.7,1.5l-68.4-68.4c-0.8-0.8-1.9-1.3-3.1-1.3h-7.5c-2.3,0-4.3,1.9-4.3,4.3
	v82.2c0,2.3,1.9,4.3,4.3,4.3h4.3c2.3,0,4.3-1.9,4.3-4.3v-63.9c0-1.9,2.3-2.9,3.7-1.5l68.3,68.3c0.8,0.8,1.9,1.3,3.1,1.3h7.7
	c2.3,0,4.3-1.9,4.3-4.3v-82.2c0-2.3-1.9-4.3-4.3-4.3h-4.3C1051.7,247,1049.8,248.9,1049.8,251.3z"/>
<path class="st3" d="M936.4,251.3v65.2c0,4.8-3.9,8.6-8.6,8.6h-60.5c-4.8,0-8.6-3.9-8.6-8.6v-65.2c0-2.3-1.9-4.3-4.3-4.3h-4.3
	c-2.3,0-4.3,1.9-4.3,4.3v69.3c0,9.5,7.7,17.2,17.2,17.2h69.2c9.5,0,17.2-7.7,17.2-17.2v-69.3c0-2.3-1.9-4.3-4.3-4.3h-4.3
	C938.3,247,936.4,248.9,936.4,251.3z"/>
<path class="st3" d="M832.9,279.6v-28.3c0-2.3-1.9-4.3-4.3-4.3h-4.2c-2.3,0-4.3,1.9-4.3,4.3v22.1c0,7.1-5.8,12.9-12.9,12.9h-59
	c-1.2,0-2.2-1-2.2-2.2v-32.8c0-2.3-1.9-4.3-4.3-4.3h-4.3c-2.3,0-4.3,1.9-4.3,4.3v82.2c0,2.3,1.9,4.3,4.3,4.3h4.3
	c2.3,0,4.3-1.9,4.3-4.3v-32.9c0-1.2,1-2.2,2.2-2.2h59c7.1,0,12.9,5.8,12.9,12.9v22.3c0,2.3,1.9,4.3,4.3,4.3h4.3
	c2.3,0,4.3-1.9,4.3-4.3v-28.3c0-7.1-5.8-12.9-12.9-12.9C827.1,292.5,832.9,286.7,832.9,279.6z"/>
<path class="st0" d="M825.2,139.8c-1.7,2.3-3.8,5.3-6.3,8.9c-2.5,3.7-5.3,7.7-8.2,12.1s-6,9-9.1,13.8c-3.2,4.8-6.2,9.4-9.1,13.9
	c-2.9,4.5-5.7,8.6-8.2,12.4c-2.5,3.8-4.5,7-6.2,9.3h-12.3c-0.4-2.5-1-5.7-1.6-9.5c-0.6-3.8-1.5-8-2.3-12.4
	c-0.8-4.5-1.7-9.1-2.6-13.9c-0.9-4.8-1.8-9.3-2.7-13.8c-0.9-4.4-1.7-8.4-2.4-12c-0.7-3.7-1.4-6.6-1.9-8.9
	c-4.4,13.6-8.7,27.5-12.9,41.9c-4.2,14.4-8.3,29-12.3,43.8H712c2.5-9.4,5.2-19,8-28.6c2.8-9.6,5.6-19.1,8.5-28.3s5.8-18.4,8.7-27.1
	c2.9-8.9,5.7-17.1,8.4-25h14.9c1.3,4.6,2.6,10.1,4,16.4c1.4,6.3,2.8,12.9,4.2,19.7c1.4,6.9,2.8,13.7,3.9,20.5
	c1.2,6.8,2.2,13,3.1,18.6c3.8-5.7,8-11.9,12.5-18.8c4.5-6.8,9.2-13.6,13.8-20.5c4.6-6.9,9.1-13.4,13.5-19.7
	c4.4-6.3,8.3-11.7,11.7-16.3h14.6c-1.8,17.7-4.1,35.7-7.1,54.1s-6.3,36.6-9.8,55.1h-15.3c3.2-15.1,6-29.8,8.7-44
	C820.9,167.2,823.2,153.3,825.2,139.8z"/>
<path class="st0" d="M861.9,225.4h-14.6l19.7-81.9h14.6L861.9,225.4z M878.9,128.8c-2.4,0-4.5-0.7-6.1-2.2s-2.4-3.5-2.4-6.2
	c0-3.3,1.1-6,3.2-8c2.1-1.9,4.5-2.9,7.1-2.9c2.4,0,4.5,0.7,6.2,2.3c1.7,1.5,2.5,3.7,2.5,6.4c0,3.2-1.1,5.7-3.3,7.6
	C883.8,127.8,881.4,128.8,878.9,128.8z"/>
<path class="st0" d="M913.2,214.5c3.2,0,6.5-0.3,9.7-1.1c3.2-0.6,6.1-1.8,8.6-3.4c2.5-1.5,4.5-3.7,6.2-6.3c1.5-2.6,2.4-5.8,2.4-9.5
	c0-2.6-0.5-4.9-1.5-6.8c-1-1.9-2.4-3.7-4.1-5.2c-1.7-1.5-3.8-2.9-6.2-4.2c-2.4-1.3-5-2.7-7.8-4.1c-2.4-1.3-4.9-2.6-7.3-4.1
	c-2.4-1.5-4.7-3.2-6.6-5.4c-1.9-2.1-3.5-4.7-4.7-7.6c-1.2-2.9-1.8-6.4-1.8-10.6c0-4.7,0.9-9.1,2.8-13.1c1.9-4,4.5-7.4,8.1-10.3
	c3.6-2.9,8-5.1,13.2-6.7c5.2-1.5,11.1-2.4,17.9-2.4c3.2,0,6.2,0.2,8.9,0.7c2.8,0.5,5.4,1.1,7.8,1.8c2.4,0.7,4.5,1.5,6.3,2.3
	s3.1,1.5,3.9,2.1l-7.1,11.9c-1.8-1.5-4.6-2.8-8.6-4c-3.9-1.2-8.6-1.8-14-1.8c-3.3,0-6.5,0.3-9.3,1.1c-2.9,0.6-5.4,1.8-7.5,3.2
	c-2.1,1.5-3.8,3.3-5,5.6c-1.3,2.3-1.9,5-1.9,8.1c0,2.8,0.4,5,1.3,6.8c0.8,1.9,2,3.5,3.5,4.9c1.5,1.4,3.2,2.7,5.4,3.8
	c2.1,1.1,4.5,2.4,7,3.7c3.2,1.5,6.1,3.2,8.9,4.8c2.8,1.6,5.2,3.6,7.3,5.8c2.1,2.2,3.7,4.8,5,7.7c1.2,2.9,1.8,6.5,1.8,10.7
	c0,5.8-1.1,10.8-3.4,15.2s-5.4,8-9.3,10.9c-3.9,2.9-8.6,5-14,6.5c-5.4,1.5-11.3,2.2-17.5,2.2c-4.2,0-8-0.3-11.4-0.9
	c-3.4-0.6-6.4-1.3-8.9-2.1c-2.6-0.8-4.7-1.7-6.5-2.6c-1.8-0.9-3.2-1.7-4.1-2.4l7.1-12.4c2,1.4,5.1,2.9,9.4,4.6
	C901.1,213.7,906.6,214.5,913.2,214.5z"/>
<path class="st0" d="M1065.9,116.4l-3,12.7H1030l-23.1,96.3h-15.3l23.1-96.3h-32.9l3-12.7H1065.9z"/>
<path class="st0" d="M1080.9,227.5c-5.4,0-10-0.7-13.9-2.3c-3.9-1.5-7.1-3.7-9.7-6.3s-4.5-5.8-5.8-9.3c-1.3-3.6-1.9-7.3-1.9-11.4
	c0-7.3,1.1-14.5,3.3-21.3s5.4-12.8,9.4-18.1s9.1-9.4,14.9-12.5c5.8-3.1,12.5-4.6,20-4.6c4.3,0,8,0.6,11.1,1.6
	c3.1,1.1,5.6,2.6,7.6,4.5c1.9,1.9,3.4,4.1,4.3,6.5c1,2.4,1.4,5,1.4,7.6c0,5-0.9,9.1-2.7,12.5c-1.8,3.4-4.1,6.3-7.1,8.6
	c-2.9,2.3-6.4,4.1-10.3,5.4c-3.9,1.3-8,2.3-12.3,3c-4.2,0.7-8.5,1.2-12.9,1.5c-4.4,0.2-8.4,0.5-12.3,0.7c-0.1,0.8-0.2,1.5-0.2,2
	s0,1,0,1.3c0,2.4,0.3,4.7,0.9,6.8c0.6,2.2,1.6,4.1,3.2,5.7c1.5,1.6,3.7,2.9,6.5,3.8c2.8,1,6.4,1.4,11,1.4c2,0,4.1-0.2,6.3-0.6
	c2.1-0.4,4.2-0.8,6.2-1.4s3.7-1.1,5.2-1.7c1.5-0.6,2.6-1.1,3.2-1.6l1.3,12.4c-2.1,1.1-5.5,2.4-10.2,3.7
	C1092.6,226.8,1087.1,227.5,1080.9,227.5z M1065.9,182.5c6.1-0.2,11.6-0.6,16.6-1.2c5-0.6,9.4-1.5,13.1-3c3.7-1.4,6.5-3.3,8.6-5.8
	c2-2.4,3.1-5.5,3.1-9.4c0-1-0.2-1.9-0.6-3s-1-2-1.9-2.9s-2.1-1.6-3.7-2.2c-1.5-0.6-3.5-0.9-5.8-0.9c-3.7,0-7.1,0.8-10.3,2.4
	c-3.2,1.5-6.1,3.7-8.6,6.3c-2.5,2.6-4.7,5.6-6.4,8.9C1068.2,175.1,1066.8,178.7,1065.9,182.5z"/>
<path class="st0" d="M1198.1,283.7c-2.3-7-4.3-13.1-6.2-18.4c-1.9-5.4-3.7-10.3-5.4-14.9c-1.7-4.6-3.4-9-5.2-13.1
	c-1.8-4.1-3.7-8.4-5.8-13l-48.8,59.4h-43.2l76.5-91.5l-34.2-76.7h41.7l20.1,52c7.3-8.8,14.3-17.6,21.1-26.6c6.8-9,13-17.5,18.7-25.3
	h41.5c-4.7,6.7-9.7,13.5-14.9,20.5c-5.3,7.1-10.7,14-16.2,21.1c-5.6,7.1-11.2,13.9-16.9,20.6c-5.7,6.7-11.1,13.1-16.5,19.1
	c3.4,7.6,6.6,14.8,9.6,21.6c3,6.8,5.8,13.6,8.6,20.5c2.8,6.9,5.4,14,8,21.3s5.3,15.1,8,23.5h-40.6V283.7z"/>
<g>
	<path class="st1" d="M843.6,391.3c13.2,1.5,28.5,4.9,37.9,8.6l-1.8,4.2c-8.5-3.5-24.4-7.3-37.6-8.9L843.6,391.3z M848.4,373
		c9.5,1,21.5,3.2,28.9,5.5l-1.4,4.2c-7-2.4-19.1-4.7-28.8-5.6L848.4,373z M848.7,354.5c10.2,1.1,23.2,3.5,31.5,6.4l-1.7,4.2
		c-8.3-3.1-20.9-5.4-31.1-6.6L848.7,354.5z"/>
	<path class="st1" d="M931.9,359.1c-0.1,0.3-0.4,0.5-0.8,0.7c-3.2,7.6-7.1,14.2-12,20.6c6.5,5.2,16.3,14.1,21.9,20.3l-3.7,3.2
		c-5.3-6.1-14.9-15.2-21-20.1c-5.3,6.4-14.4,15.1-23,20.1c-0.7-0.9-2.1-2.4-3.1-3.2c16.6-9.1,29.7-26.1,35-39.1H896v-4.1h31.7
		l0.8-0.3L931.9,359.1z"/>
	<path class="st1" d="M996.7,376.5h-20.2l1,0.3c-0.1,0.4-0.5,0.7-1.2,0.7c-1.6,11.1-5.7,21.1-18.5,27.3c-0.7-0.8-2.2-2.2-3.2-3
		c12.4-6,15.9-14.4,17.3-25.4h-23.3v-4h48.1V376.5z M990.8,359.6H954v-4h36.7V359.6z"/>
	<path class="st1" d="M1010.1,369c1.8,3.6,3.8,9.4,4.5,12.9l-3.4,0.9c-0.7-3.5-2.6-8.9-4.4-12.7L1010.1,369z M1045.8,369.4
		c-0.1,0.5-0.7,0.7-1.3,0.6c-4.7,17.5-13.5,28.2-27.9,34c-0.5-0.7-1.6-2.1-2.3-2.8c14.3-5.6,22.5-15.4,26.9-33.3L1045.8,369.4z
		 M1024.6,366.1c1.3,4,2.4,9.7,2.8,13.6l-3.5,0.7c-0.4-3.8-1.5-9.3-2.8-13.5L1024.6,366.1z"/>
	<path class="st1" d="M1097.6,364.3c-0.2,0.3-0.5,0.6-0.9,0.8c-6.3,19.4-16.1,31.8-32.6,40.2c-0.7-1-1.9-2.4-3-3.3
		c15.7-7.6,25.4-19.6,30.3-35.4H1070c-3.5,5.4-8.1,10.6-13.4,14.8c-0.8-0.8-2.2-2-3.4-2.8c8.1-6.3,15-15.4,19.1-26l5.7,1.6
		c-0.2,0.6-1,0.8-1.7,0.8c-1.2,2.6-2.4,5.1-3.8,7.5h21.1l0.7-0.4L1097.6,364.3z"/>
	<path class="st1" d="M1143.7,359.1c-0.1,0.3-0.4,0.5-0.8,0.7c-3.2,7.6-7.1,14.2-12,20.6c6.5,5.2,16.3,14.1,21.9,20.3l-3.7,3.2
		c-5.3-6.1-14.9-15.2-21-20.1c-5.3,6.4-14.4,15.1-23,20.1c-0.7-0.9-2.1-2.4-3.1-3.2c16.6-9.1,29.7-26.1,35-39.1h-29.4v-4.1h31.7
		l0.8-0.3L1143.7,359.1z"/>
	<path class="st1" d="M1191.3,406.4c-6-7.1-15.4-15.9-23.4-22.2c-3-2.4-4.1-4.1-4.1-6.2c0-1.7,1-3.4,3.2-5.4
		c5.4-5,15.7-14.7,21.4-20.6l5.1,3.4c-0.1,0.1-0.5,0.6-1.3,0.6c-0.2,0-0.5-0.1-0.7-0.1c-6,5.7-15.3,13.9-20.2,18.5
		c-1.4,1.4-2.6,2.6-2.6,3.5c0,1,1.1,2.2,3.2,3.8c7.9,6.1,16.3,13.8,23.6,21.7L1191.3,406.4z"/>
	<path class="st1" d="M1202.3,402.7c4.4-12.7,11.8-33.8,14.1-40.2c1.1-3.2,2.7-7.8,3.1-9.3l6.5,1.7c-0.3,0.8-1.1,1.1-2.3,1.1
		c-3.3,8.2-8.4,22.2-10.6,28.2h0.1c3.5-4.3,8.9-7.4,13.1-7.4c5.2,0,7.7,3.5,7.5,9.1l-0.2,7.1c-0.1,4.5,2.3,6.9,6.2,6.9
		c5.4,0,10.3-6.2,13.1-16.4c1.2,0.8,2.6,1.6,3.9,2.2c-3.3,11.4-9.2,18.6-17.2,18.6c-6.3,0-10.5-3.8-10.5-9.9c0-1.1,0.2-6.6,0.2-7.9
		c0-3.8-1.6-5.7-4.2-5.7c-6.9,0-13.8,10-15.3,13.9c-0.8,2.1-2.2,5.9-3.3,9.4L1202.3,402.7z"/>
</g>
</svg>
