<svg enable-background="new 0 0 1280 640" viewBox="0 0 1280 640" xmlns="http://www.w3.org/2000/svg"><path d="m649.8 490.5v-38.4c0-13.1 8.3-24.4 20.7-28.7 28.2-10 48.5-37 48.5-68.6s-20.2-58.6-48.5-68.6c-12.3-4.3-20.7-15.8-20.7-28.7v-78.7c0-72.8-59-131.8-131.8-131.8h-317c-72.8 0-131.8 59-131.8 131.8v78.7c0 13.1-8.3 24.4-20.7 28.7-28.2 10-48.5 37-48.5 68.6s20.2 58.6 48.5 68.6c12.3 4.3 20.7 15.8 20.7 28.7v38.4c0 11.8-7.5 22.4-18.7 26.3-22.4 7.8-38.6 29.3-38.3 54.6.4 31.3 26.5 56.2 57.8 56.2h202.5c15 0 28.7-8.8 34.7-22.5 8.8-20.2 28.8-34.4 52.3-34.4s43.5 14.2 52.3 34.4c6 13.8 19.7 22.5 34.7 22.5h202.5c31.3 0 57.3-24.9 57.8-56.2.3-25.2-15.8-46.7-38.3-54.6-11.2-3.8-18.7-14.4-18.7-26.3z" fill="#071d2e"/><path d="m698.2 241.9c-4.9-9.8-13.8-21-29.5-26.6 3.5-1.1 7.1-2.7 10.6-4.7 21.6-12.6 26.3-34.7 26.3-51.1v-8h-7.9c-.6 0-14.9.1-29.3 7.3-13.8 6.9-30.2 21.5-30.2 52.2v7.5h.1v.8c-.1 1-1.1 25.7 15.4 43.2 10.5 11 25.2 16.6 44 16.6h7.9v-7.9c-.1-.6-.2-14.9-7.4-29.3z" fill="#071d2e"/><path d="m601.8 159.5h-484.5c-20.5 0-37.2 25-37.2 55.9 0 13.4 3.1 30.6 8.3 45.6 7.6 22 29.4 35.9 52.7 33.6l192.6-19.4c20.1-2.1 40.3-2 60.2.1l183.8 19.1c23.3 2.4 45.2-11.4 52.8-33.6 5.3-15.1 8.3-32.2 8.3-45.6.2-30.7-16.5-55.7-37-55.7z" fill="#969c9d"/><circle cx="278.5" cy="256.1" fill="#f0eeee" r="77.5"/><path d="m278.5 178.7c42.8 0 77.5 34.7 77.5 77.5s-34.7 77.5-77.5 77.5-77.5-34.6-77.5-77.5c0-42.8 34.7-77.5 77.5-77.5m0-12.3c-49.5 0-89.8 40.3-89.8 89.8s40.3 89.8 89.8 89.8 89.8-40.3 89.8-89.8-40.3-89.8-89.8-89.8z" fill="#071d2e"/><circle cx="299.1" cy="267.6" fill="#071d2e" r="53.9"/><path d="m299.1 216.5c28.1 0 51 22.9 51 51s-22.9 51-51 51-51-22.9-51-51c-0-28.2 22.9-51 51-51m0-5.9c-31.4 0-56.8 25.4-56.8 56.8s25.4 56.8 56.8 56.8 56.8-25.4 56.8-56.8c-0-31.2-25.4-56.8-56.8-56.8z" fill="#29aae1"/><circle cx="292.4" cy="252.9" fill="#f0eeee" r="17.5"/><circle cx="446.5" cy="256.1" fill="#f0eeee" r="77.5"/><path d="m446.5 178.7c42.8 0 77.5 34.7 77.5 77.5s-34.7 77.5-77.5 77.5-77.5-34.6-77.5-77.5c.1-42.8 34.8-77.5 77.5-77.5m0-12.3c-49.5 0-89.8 40.3-89.8 89.8s40.3 89.8 89.8 89.8 89.8-40.3 89.8-89.8-40.3-89.8-89.8-89.8z" fill="#071d2e"/><circle cx="425.9" cy="267.6" fill="#071d2e" r="53.9"/><path d="m425.9 216.5c28.1 0 51 22.9 51 51s-22.9 51-51 51-51-22.9-51-51c0-28.2 22.9-51 51-51m0-5.9c-31.4 0-56.8 25.4-56.8 56.8s25.4 56.8 56.8 56.8 56.8-25.4 56.8-56.8c0-31.2-25.4-56.8-56.8-56.8z" fill="#29aae1"/><circle cx="432.6" cy="252.9" fill="#f0eeee" r="17.5"/><path d="m1151.5 512h128v128h-128z" fill="#f0eeee"/><path d="m1023.4 512h128v128h-128z" fill="#969c9d"/><path d="m895.4 512h128v128h-128z" fill="#071d2e"/><path d="m767.4 512h128v128h-128z" fill="#29aae1"/><path d="m1049.8 251.3v63.9c0 1.9-2.3 2.9-3.7 1.5l-68.4-68.4c-.8-.8-1.9-1.3-3.1-1.3h-7.5c-2.3 0-4.3 1.9-4.3 4.3v82.2c0 2.3 1.9 4.3 4.3 4.3h4.3c2.3 0 4.3-1.9 4.3-4.3v-63.9c0-1.9 2.3-2.9 3.7-1.5l68.3 68.3c.8.8 1.9 1.3 3.1 1.3h7.7c2.3 0 4.3-1.9 4.3-4.3v-82.2c0-2.3-1.9-4.3-4.3-4.3h-4.3c-2.5.1-4.4 2-4.4 4.4z" fill="#29aae1"/><path d="m936.4 251.3v65.2c0 4.8-3.9 8.6-8.6 8.6h-60.5c-4.8 0-8.6-3.9-8.6-8.6v-65.2c0-2.3-1.9-4.3-4.3-4.3h-4.3c-2.3 0-4.3 1.9-4.3 4.3v69.3c0 9.5 7.7 17.2 17.2 17.2h69.2c9.5 0 17.2-7.7 17.2-17.2v-69.3c0-2.3-1.9-4.3-4.3-4.3h-4.3c-2.5 0-4.4 1.9-4.4 4.3z" fill="#29aae1"/><path d="m832.9 279.6v-28.3c0-2.3-1.9-4.3-4.3-4.3h-4.2c-2.3 0-4.3 1.9-4.3 4.3v22.1c0 7.1-5.8 12.9-12.9 12.9h-59c-1.2 0-2.2-1-2.2-2.2v-32.8c0-2.3-1.9-4.3-4.3-4.3h-4.3c-2.3 0-4.3 1.9-4.3 4.3v82.2c0 2.3 1.9 4.3 4.3 4.3h4.3c2.3 0 4.3-1.9 4.3-4.3v-32.9c0-1.2 1-2.2 2.2-2.2h59c7.1 0 12.9 5.8 12.9 12.9v22.3c0 2.3 1.9 4.3 4.3 4.3h4.3c2.3 0 4.3-1.9 4.3-4.3v-28.3c0-7.1-5.8-12.9-12.9-12.9 7 .1 12.8-5.7 12.8-12.8z" fill="#29aae1"/><path d="m825.2 139.8c-1.7 2.3-3.8 5.3-6.3 8.9-2.5 3.7-5.3 7.7-8.2 12.1s-6 9-9.1 13.8c-3.2 4.8-6.2 9.4-9.1 13.9s-5.7 8.6-8.2 12.4-4.5 7-6.2 9.3h-12.3c-.4-2.5-1-5.7-1.6-9.5s-1.5-8-2.3-12.4c-.8-4.5-1.7-9.1-2.6-13.9s-1.8-9.3-2.7-13.8c-.9-4.4-1.7-8.4-2.4-12-.7-3.7-1.4-6.6-1.9-8.9-4.4 13.6-8.7 27.5-12.9 41.9s-8.3 29-12.3 43.8h-15.1c2.5-9.4 5.2-19 8-28.6s5.6-19.1 8.5-28.3 5.8-18.4 8.7-27.1c2.9-8.9 5.7-17.1 8.4-25h14.9c1.3 4.6 2.6 10.1 4 16.4s2.8 12.9 4.2 19.7c1.4 6.9 2.8 13.7 3.9 20.5 1.2 6.8 2.2 13 3.1 18.6 3.8-5.7 8-11.9 12.5-18.8 4.5-6.8 9.2-13.6 13.8-20.5s9.1-13.4 13.5-19.7 8.3-11.7 11.7-16.3h14.6c-1.8 17.7-4.1 35.7-7.1 54.1s-6.3 36.6-9.8 55.1h-15.3c3.2-15.1 6-29.8 8.7-44 2.6-14.3 4.9-28.2 6.9-41.7z" fill="#071d2e"/><path d="m861.9 225.4h-14.6l19.7-81.9h14.6zm17-96.6c-2.4 0-4.5-.7-6.1-2.2s-2.4-3.5-2.4-6.2c0-3.3 1.1-6 3.2-8 2.1-1.9 4.5-2.9 7.1-2.9 2.4 0 4.5.7 6.2 2.3 1.7 1.5 2.5 3.7 2.5 6.4 0 3.2-1.1 5.7-3.3 7.6-2.3 2-4.7 3-7.2 3z" fill="#071d2e"/><path d="m913.2 214.5c3.2 0 6.5-.3 9.7-1.1 3.2-.6 6.1-1.8 8.6-3.4 2.5-1.5 4.5-3.7 6.2-6.3 1.5-2.6 2.4-5.8 2.4-9.5 0-2.6-.5-4.9-1.5-6.8s-2.4-3.7-4.1-5.2-3.8-2.9-6.2-4.2-5-2.7-7.8-4.1c-2.4-1.3-4.9-2.6-7.3-4.1s-4.7-3.2-6.6-5.4c-1.9-2.1-3.5-4.7-4.7-7.6s-1.8-6.4-1.8-10.6c0-4.7.9-9.1 2.8-13.1s4.5-7.4 8.1-10.3 8-5.1 13.2-6.7c5.2-1.5 11.1-2.4 17.9-2.4 3.2 0 6.2.2 8.9.7 2.8.5 5.4 1.1 7.8 1.8s4.5 1.5 6.3 2.3 3.1 1.5 3.9 2.1l-7.1 11.9c-1.8-1.5-4.6-2.8-8.6-4-3.9-1.2-8.6-1.8-14-1.8-3.3 0-6.5.3-9.3 1.1-2.9.6-5.4 1.8-7.5 3.2-2.1 1.5-3.8 3.3-5 5.6-1.3 2.3-1.9 5-1.9 8.1 0 2.8.4 5 1.3 6.8.8 1.9 2 3.5 3.5 4.9s3.2 2.7 5.4 3.8c2.1 1.1 4.5 2.4 7 3.7 3.2 1.5 6.1 3.2 8.9 4.8s5.2 3.6 7.3 5.8 3.7 4.8 5 7.7c1.2 2.9 1.8 6.5 1.8 10.7 0 5.8-1.1 10.8-3.4 15.2s-5.4 8-9.3 10.9-8.6 5-14 6.5-11.3 2.2-17.5 2.2c-4.2 0-8-.3-11.4-.9s-6.4-1.3-8.9-2.1c-2.6-.8-4.7-1.7-6.5-2.6s-3.2-1.7-4.1-2.4l7.1-12.4c2 1.4 5.1 2.9 9.4 4.6 3.9 1.8 9.4 2.6 16 2.6z" fill="#071d2e"/><path d="m1065.9 116.4-3 12.7h-32.9l-23.1 96.3h-15.3l23.1-96.3h-32.9l3-12.7z" fill="#071d2e"/><path d="m1080.9 227.5c-5.4 0-10-.7-13.9-2.3-3.9-1.5-7.1-3.7-9.7-6.3s-4.5-5.8-5.8-9.3c-1.3-3.6-1.9-7.3-1.9-11.4 0-7.3 1.1-14.5 3.3-21.3s5.4-12.8 9.4-18.1 9.1-9.4 14.9-12.5 12.5-4.6 20-4.6c4.3 0 8 .6 11.1 1.6 3.1 1.1 5.6 2.6 7.6 4.5 1.9 1.9 3.4 4.1 4.3 6.5 1 2.4 1.4 5 1.4 7.6 0 5-.9 9.1-2.7 12.5s-4.1 6.3-7.1 8.6c-2.9 2.3-6.4 4.1-10.3 5.4s-8 2.3-12.3 3c-4.2.7-8.5 1.2-12.9 1.5-4.4.2-8.4.5-12.3.7-.1.8-.2 1.5-.2 2s0 1 0 1.3c0 2.4.3 4.7.9 6.8.6 2.2 1.6 4.1 3.2 5.7 1.5 1.6 3.7 2.9 6.5 3.8 2.8 1 6.4 1.4 11 1.4 2 0 4.1-.2 6.3-.6 2.1-.4 4.2-.8 6.2-1.4s3.7-1.1 5.2-1.7 2.6-1.1 3.2-1.6l1.3 12.4c-2.1 1.1-5.5 2.4-10.2 3.7-4.8 1.4-10.3 2.1-16.5 2.1zm-15-45c6.1-.2 11.6-.6 16.6-1.2s9.4-1.5 13.1-3c3.7-1.4 6.5-3.3 8.6-5.8 2-2.4 3.1-5.5 3.1-9.4 0-1-.2-1.9-.6-3s-1-2-1.9-2.9-2.1-1.6-3.7-2.2c-1.5-.6-3.5-.9-5.8-.9-3.7 0-7.1.8-10.3 2.4-3.2 1.5-6.1 3.7-8.6 6.3s-4.7 5.6-6.4 8.9c-1.8 3.4-3.2 7-4.1 10.8z" fill="#071d2e"/><path d="m1198.1 283.7c-2.3-7-4.3-13.1-6.2-18.4-1.9-5.4-3.7-10.3-5.4-14.9s-3.4-9-5.2-13.1-3.7-8.4-5.8-13l-48.8 59.4h-43.2l76.5-91.5-34.2-76.7h41.7l20.1 52c7.3-8.8 14.3-17.6 21.1-26.6s13-17.5 18.7-25.3h41.5c-4.7 6.7-9.7 13.5-14.9 20.5-5.3 7.1-10.7 14-16.2 21.1-5.6 7.1-11.2 13.9-16.9 20.6s-11.1 13.1-16.5 19.1c3.4 7.6 6.6 14.8 9.6 21.6s5.8 13.6 8.6 20.5 5.4 14 8 21.3 5.3 15.1 8 23.5h-40.6v-.1z" fill="#071d2e"/><g fill="#969c9d"><path d="m879.1 391.9c13.1 1.5 28.5 4.9 37.8 8.6l-1.8 4.2c-8.5-3.5-24.3-7.3-37.5-8.8zm4.8-18.2c9.5 1 21.4 3.2 28.8 5.5l-1.4 4.2c-7-2.4-19-4.7-28.7-5.6zm.2-18.4c10.1 1.1 23.1 3.5 31.4 6.4l-1.7 4.2c-8.2-3.1-20.9-5.4-31-6.6z"/><path d="m967.1 359.8c-.1.3-.4.5-.8.7-3.2 7.6-7 14.1-11.9 20.5 6.5 5.2 16.3 14.1 21.8 20.2l-3.6 3.2c-5.3-6.1-14.9-15.2-20.9-20-5.3 6.4-14.3 15.1-23 20-.7-.9-2.1-2.4-3.1-3.2 16.5-9.1 29.6-26 35-39h-29.3v-4.1h31.6l.8-.3z"/><path d="m1031.7 377.2h-20.2l1 .3c-.1.4-.5.7-1.2.7-1.6 11.1-5.7 21-18.4 27.3-.7-.8-2.2-2.2-3.2-3 12.4-6 15.9-14.3 17.2-25.3h-23.2v-4h48zm-5.9-16.9h-36.6v-4h36.6z"/><path d="m1045 369.7c1.8 3.6 3.8 9.4 4.5 12.8l-3.3.9c-.7-3.5-2.6-8.9-4.4-12.7zm35.6.4c-.1.5-.7.7-1.3.6-4.7 17.4-13.4 28.1-27.9 33.9-.5-.7-1.6-2.1-2.3-2.7 14.3-5.6 22.4-15.4 26.8-33.2zm-21.1-3.3c1.3 4 2.4 9.7 2.8 13.5l-3.5.7c-.4-3.8-1.5-9.3-2.8-13.4z"/><path d="m1132.3 365c-.2.3-.5.6-.9.8-6.3 19.3-16.1 31.7-32.5 40.1-.7-1-1.8-2.4-3-3.3 15.6-7.6 25.3-19.5 30.3-35.3h-21.3c-3.5 5.4-8.1 10.6-13.4 14.7-.8-.8-2.2-2-3.4-2.7 8.1-6.3 15-15.4 19-25.9l5.7 1.6c-.2.6-1 .8-1.7.8-1.2 2.6-2.4 5.1-3.8 7.5h21l.7-.4z"/><path d="m1178.3 359.8c-.1.3-.4.5-.8.7-3.2 7.6-7 14.1-11.9 20.5 6.5 5.2 16.3 14.1 21.8 20.2l-3.6 3.2c-5.3-6.1-14.9-15.2-20.9-20-5.3 6.4-14.3 15.1-23 20-.7-.9-2.1-2.4-3.1-3.2 16.5-9.1 29.6-26 35-39h-29.3v-4.1h31.6l.8-.3z"/><path d="m1239.4 379.8h-26.4c-1.1 2-2.2 3.9-3.5 5.7h33.3v22h-4.1v-2.6h-27.8v2.6h-3.9v-19c-3.2 3.8-7.1 7-11.8 9.7-.6-1-1.8-2.4-2.6-3.2 7-3.8 12.1-9.1 15.8-15.3h-8.6v-3.5h10.5c1.1-2.3 2.1-4.7 2.9-7.2h-19.8v-3.6h20.9c.6-2.2 1.1-4.5 1.6-6.7h-15.5v-3.5h39v10.3h8.5v3.6h-8.5zm-.7 9.3h-27.8v12.2h27.8zm-3.3-20h-17.9c-.8 2.4-1.7 4.8-2.7 7.2h20.6zm0-10.4h-15.2c-.5 2.3-1 4.5-1.6 6.7h16.8z"/></g></svg>