<?xml version="1.0" encoding="utf-8"?>
<!-- Generator: Adobe Illustrator 27.4.1, SVG Export Plug-In . SVG Version: 6.00 Build 0)  -->
<svg version="1.1" id="Layer_1" xmlns="http://www.w3.org/2000/svg" xmlns:xlink="http://www.w3.org/1999/xlink" x="0px" y="0px"
	 viewBox="0 0 1000 337.5" style="enable-background:new 0 0 1000 337.5;" xml:space="preserve">
<style type="text/css">
	.st0{fill:#001C2F;}
	.st1{fill:#296483;}
	.st2{fill:#00AEEF;}
	.st3{fill:#E9EAE9;}
	.st4{fill:#3689AF;}
	.st5{fill:#BBBAB8;}
</style>
<path class="st0" d="M995.9,9.9h-34.4h-70h-10.4c-0.6,0-1.1,0.3-1.4,0.7l-6,8.4c-9.4,13.2-19.9,27.4-31.2,42.3
	c-3.1,4.1-6.3,8.3-9.5,12.4c-0.8,1.1-2.5,0.8-3-0.4l-19.2-49.4l-5-12.9c-0.3-0.7-0.9-1.1-1.6-1.1h-13.8h-70.4h-27.4
	c-3,0-5,3.1-3.8,5.8l11.2,25.1l8.4,18.7c0.7,1.5-0.9,3-2.4,2.3c-2.5-1.3-5.2-2.5-8.1-3.5c-7.6-2.7-16.3-4.1-26.1-4.1
	c-13.3,0-25.6,2.4-36.9,7l0.3-1.4l5-21.5l5.1-21.9c0.6-2.6-1.4-5-4-5h-22.5H482.1H468c-1.9,0-3.6,1.3-4,3.2l-0.7,3
	c-0.3,1.1-1.5,1.7-2.5,1.2c-1.1-0.6-2.3-1.1-3.6-1.7c-3.8-1.7-8.1-3.3-12.8-4.7c-4.9-1.5-10.3-2.8-16.1-3.7c-6-1-12.3-1.5-18.7-1.5
	c-13.4,0-25.7,1.7-36.5,4.9c-11.4,3.5-21.4,8.6-29.6,15.2c-0.5,0.4-1,0.8-1.4,1.2c-1.2-6.2-4.2-13.1-10.7-19
	C324.5,3.3,315.8,0,306.3,0c-10,0-19.2,3.7-26.8,10.7c-5.6,5.2-12.3,14.6-12.3,29.5c0,4-5.6,7.8-4.3-4.7l2-19.6
	c0.2-2.4-1.7-4.5-4.1-4.5H241h-24.7h-8.9c-1.3,0-2.5,0.6-3.3,1.6l-5.3,7.1c-6,8-12.8,17.4-20.2,28.1c-7.4,10.5-15.1,21.8-22.9,33.5
	c-3.9,5.8-7.7,11.5-11.6,17.3c-0.9,1.3-2.9,0.9-3.2-0.6c-0.6-2.9-1.1-5.7-1.7-8.6c-2.4-11.6-4.8-23-7.3-33.7
	c-2.5-10.9-4.8-20.5-7-28.6l-3.6-13.1c-0.5-1.8-2.1-3-4-3h-13.6H78.5H65.8c-1.8,0-3.3,1.1-3.9,2.8l-4.2,12
	c-4.6,13.3-9.4,27.6-14.3,42.6c-4.8,14.8-9.8,30.3-14.7,46.1c-4.9,15.7-9.8,32-14.5,48.2C9.6,179.3,5,195.7,0.7,211.7h0
	c-0.5,1.8-0.7,3.7-0.7,5.6V241v4.2v1.8v7.7v1.5v8.5v2.4v9.5v9.2v0.8v17c0,2.3,1.8,4.1,4.1,4.1h17.8l595,0h5.9c1.5,0,2.3,1.7,1.3,2.9
	l-16.8,20.1c-2.2,2.7-0.3,6.7,3.2,6.7h38.1h72.9h9.5c0.5,0,1-0.2,1.4-0.6l6.1-7.4l57.7-70.3c0.8-1,2.5-0.8,3,0.5
	c0.9,2.4,1.8,4.8,2.7,7.2c2.8,7.5,5.8,15.9,8.9,24.8c3,8.7,6.5,19,10.3,30.7l4.5,13.9c0.2,0.7,0.9,1.2,1.7,1.2h14.6h68.4h24.6
	c2.8,0,4.8-2.7,3.9-5.4l-7.6-23.3c-4.7-14.3-9.3-27.8-13.7-40.2c-4.4-12.4-9.1-24.7-13.8-36.6c-4.7-11.8-9.7-23.7-14.8-35.3
	c-3.3-7.4-6.6-14.9-10-22.6c-0.3-0.6-0.2-1.4,0.3-1.9c5.9-6.7,11.9-13.8,18.1-21.1c9.6-11.3,19.3-23.2,28.9-35.3
	c9.4-11.9,18.8-24.1,27.8-36.1c9-12.1,17.6-23.9,25.5-35.1l19.9-28.1C1001.2,13.6,999.2,9.9,995.9,9.9z"/>
<g>
	<rect x="20.6" y="276.7" class="st1" width="241.3" height="9.2"/>
	<g>
		<polygon class="st2" points="384.1,245.3 384.1,237 319.1,237 319.1,285.9 330.4,285.9 330.4,264.8 384.1,264.8 384.1,256.2 
			330.4,256.2 330.4,245.3 		"/>
	</g>
	<g>
		<path class="st2" d="M471.8,244.9c-0.2-4.4-3.8-7.9-8.2-7.9h-56.7v48.9h11.4v-21.1h45.1c4.7,0,8.5-3.8,8.5-8.5L471.8,244.9
			L471.8,244.9z M460.4,256.2h-42.3v-11h42.3V256.2z"/>
	</g>
	<g>
		<path class="st2" d="M551,256.2h-36.9v8.5h34v11.9h-42.3v-31.4h53.6c0-4.6-3.7-8.3-8.3-8.3h-48.5c-4.4,0-8,3.5-8.2,7.9h0v31.8
			c0,5.1,4.1,9.2,9.2,9.2h46.6c5.1,0,9.2-4.1,9.2-9.2v-11.9v0C559.6,260,555.8,256.2,551,256.2z"/>
	</g>
	<rect x="20.6" y="256.2" class="st1" width="211.5" height="8.5"/>
	<rect x="20.6" y="237" class="st1" width="241.3" height="8.3"/>
	<g>
		<path class="st2" d="M639.1,237h-48.5c-4.6,0-8.3,3.7-8.3,8.3v40.6h11.4v-21.1H636v21.1h11.4v-40.6
			C647.3,240.7,643.6,237,639.1,237z M593.7,256.2v-11H636v11H593.7z"/>
	</g>
	<path class="st3" d="M211.5,72.9c-2.8,3.9-6.4,8.9-10.6,15.1c-4.3,6.2-8.9,13-13.8,20.4c-5,7.4-10.1,15.2-15.4,23.2
		c-5.3,8.1-10.4,15.8-15.4,23.4c-5,7.5-9.6,14.5-13.8,21c-4.3,6.5-7.7,11.7-10.4,15.8h-20.7c-0.7-4.3-1.6-9.6-2.8-16.1
		c-1.2-6.5-2.4-13.4-3.8-21c-1.4-7.5-2.9-15.3-4.4-23.4c-1.5-8.1-3-15.8-4.5-23.2c-1.5-7.4-2.9-14.2-4.1-20.3
		c-1.2-6.1-2.3-11.1-3.2-15c-7.4,22.8-14.7,46.4-21.8,70.6c-7.1,24.3-14,48.9-20.7,73.8H20.6c4.2-15.9,8.7-32,13.4-48.2
		c4.7-16.2,9.5-32.1,14.3-47.8c4.9-15.7,9.7-30.9,14.6-45.8c4.9-14.9,9.6-28.9,14.2-42.2h25.2c2.1,7.8,4.4,17,6.8,27.6
		c2.4,10.6,4.8,21.7,7.2,33.3c2.4,11.6,4.6,23.1,6.6,34.7c2,11.5,3.8,22,5.2,31.3c6.4-9.6,13.4-20.1,21.1-31.6
		c7.7-11.5,15.4-23.1,23.2-34.7c7.8-11.6,15.4-22.7,22.7-33.2c7.3-10.5,13.9-19.7,19.8-27.5h24.7c-3,29.9-7,60.3-12.1,91.2
		c-5,30.9-10.6,61.8-16.6,92.8h-25.8c5.3-25.5,10.2-50.2,14.6-74.2C204.3,119.2,208.2,95.7,211.5,72.9z"/>
	<path class="st3" d="M273.4,217.4h-24.7l33.2-138.1h24.7L273.4,217.4z M302.1,54.3c-4.1,0-7.5-1.2-10.2-3.7
		c-2.7-2.5-4.1-5.9-4.1-10.4c0-5.7,1.8-10.1,5.3-13.4c3.5-3.3,7.5-4.9,11.9-4.9c4.1,0,7.5,1.3,10.4,3.8c2.8,2.6,4.3,6.2,4.3,10.8
		c0,5.3-1.9,9.6-5.6,12.9C310.3,52.7,306.3,54.3,302.1,54.3z"/>
	<path class="st3" d="M360,199c5.5,0,10.9-0.6,16.3-1.7c5.4-1.1,10.2-3.1,14.5-5.7c4.3-2.7,7.7-6.1,10.4-10.5c2.7-4.3,4-9.7,4-16.1
		c0-4.4-0.8-8.3-2.5-11.5c-1.7-3.3-4-6.2-6.9-8.8c-2.9-2.6-6.4-5-10.4-7.2c-4-2.2-8.4-4.6-13.1-7c-4.1-2.1-8.2-4.4-12.3-6.9
		c-4.2-2.5-7.9-5.5-11.2-9.2c-3.3-3.6-5.9-7.9-8-12.9c-2-5-3.1-10.9-3.1-17.8c0-8,1.5-15.3,4.6-22c3.1-6.7,7.7-12.5,13.7-17.4
		c6-4.9,13.4-8.6,22.2-11.3c8.8-2.7,18.8-4,30.1-4c5.3,0,10.4,0.4,15.1,1.2c4.8,0.8,9.2,1.8,13.1,3.1c4,1.2,7.5,2.5,10.5,3.8
		c3,1.3,5.2,2.5,6.6,3.6l-12,20.2c-3-2.5-7.8-4.7-14.5-6.8c-6.6-2-14.5-3.1-23.5-3.1c-5.7,0-10.9,0.6-15.8,1.7
		c-4.9,1.2-9.1,3-12.6,5.4c-3.5,2.5-6.4,5.6-8.5,9.4c-2.1,3.8-3.2,8.4-3.2,13.7c0,4.6,0.7,8.5,2.1,11.6c1.4,3.1,3.4,5.8,5.8,8.2
		c2.5,2.4,5.5,4.6,9.2,6.5c3.6,2,7.6,4,11.8,6.1c5.3,2.7,10.3,5.4,15,8.1c4.7,2.7,8.8,6,12.3,9.7c3.5,3.7,6.3,8.1,8.4,13
		c2,5,3.1,11,3.1,18.1c0,9.7-1.9,18.3-5.7,25.6c-3.8,7.3-9,13.5-15.7,18.3c-6.6,4.9-14.5,8.5-23.6,11c-9.1,2.5-19,3.7-29.6,3.7
		c-7.1,0-13.5-0.5-19.3-1.5c-5.8-1-10.8-2.2-15.1-3.6c-4.3-1.4-8-2.9-11-4.4c-3-1.5-5.3-2.9-6.9-4.1l11.9-21
		c3.4,2.3,8.7,4.9,15.9,7.8C339.6,197.6,348.8,199,360,199z"/>
	<path class="st3" d="M617.6,33.3l-5,21.5H557l-39,162.5h-25.8l39-162.5h-55.5l5-21.5H617.6z"/>
	<path class="st3" d="M642.8,220.8c-9,0-16.8-1.3-23.4-3.8c-6.6-2.6-12-6.1-16.5-10.6c-4.4-4.5-7.7-9.8-9.8-15.8
		c-2.1-6-3.2-12.4-3.2-19.1c0-12.4,1.9-24.3,5.6-35.8c3.7-11.5,9-21.7,15.9-30.5c6.9-8.8,15.3-15.9,25.2-21.1
		c9.9-5.2,21.2-7.8,33.7-7.8c7.3,0,13.5,0.9,18.7,2.8c5.2,1.9,9.5,4.4,12.7,7.6c3.3,3.2,5.7,6.9,7.3,11c1.6,4.2,2.4,8.5,2.4,12.9
		c0,8.3-1.5,15.4-4.5,21.1c-3,5.8-7,10.6-11.9,14.5c-5,3.9-10.8,6.9-17.4,9c-6.6,2.1-13.5,3.8-20.7,5c-7.2,1.2-14.4,2.1-21.8,2.5
		c-7.3,0.4-14.3,0.8-20.8,1.2c-0.2,1.4-0.3,2.6-0.3,3.5c0,0.9,0,1.6,0,2.1c0,4.1,0.5,7.9,1.5,11.5c1,3.6,2.8,6.8,5.4,9.6
		c2.7,2.7,6.3,4.9,11,6.5c4.7,1.6,10.8,2.4,18.5,2.4c3.4,0,6.9-0.3,10.5-0.9c3.6-0.6,7.1-1.4,10.4-2.4c3.3-1,6.2-1.9,8.8-2.9
		c2.6-1,4.4-1.9,5.4-2.8l2.1,21c-3.5,1.9-9.3,4-17.1,6.2C662.6,219.7,653.4,220.8,642.8,220.8z M617.6,144.9c10.3-0.4,19.6-1,28.1-2
		c8.5-1,15.8-2.7,22-5c6.2-2.4,11-5.6,14.5-9.7c3.5-4.1,5.2-9.4,5.2-15.9c0-1.6-0.3-3.3-0.9-5c-0.6-1.8-1.7-3.4-3.2-4.9
		c-1.5-1.5-3.6-2.7-6.2-3.7c-2.7-1-5.9-1.5-9.8-1.5c-6.2,0-12,1.3-17.4,4c-5.4,2.7-10.2,6.2-14.5,10.5c-4.3,4.3-7.9,9.4-10.9,15.1
		C621.4,132.4,619.1,138.5,617.6,144.9z"/>
	<path class="st3" d="M840.6,315.6c-3.8-11.7-7.3-22.1-10.4-31.1c-3.1-9-6.1-17.4-9-25.2c-2.9-7.8-5.8-15.2-8.8-22.1
		c-3-7-6.3-14.3-9.8-21.9l-82.3,100.3h-72.9l129-154.4L718.6,31.8H789l34,87.6c12.3-14.7,24.2-29.7,35.6-44.8
		c11.5-15.2,22-29.4,31.5-42.8h70C952.2,43,943.9,54.5,935,66.4c-8.9,11.9-18,23.7-27.4,35.6c-9.4,11.9-18.9,23.5-28.5,34.8
		c-9.6,11.3-18.8,22-27.8,32.1c5.7,12.8,11.1,25,16.2,36.4c5,11.5,9.9,23,14.5,34.6c4.6,11.6,9.1,23.5,13.5,35.8
		c4.4,12.3,8.9,25.5,13.5,39.7H840.6z"/>
</g>
<path id="path7121-9" class="st1" d="M219.3,260.7v1.6l34.5,20l0.1-1.5L219.3,260.7"/>
<path id="path7123-7" class="st1" d="M257.9,281.6C257.9,281.6,257.9,281.6,257.9,281.6c0-0.1,0-0.1,0-0.1c0,0,0,0,0,0
	c0,0,0,0,0-0.1c0,0,0,0,0-0.1c0,0,0,0,0,0c0,0,0,0,0-0.1c0,0,0,0,0-0.1c0,0,0,0,0,0c0,0,0,0,0,0c0,0,0-0.1-0.1-0.1c0,0,0,0,0,0
	c0,0,0,0,0,0c0,0-0.1-0.1-0.1-0.1c0,0,0,0,0,0c0,0,0,0,0,0c-0.1-0.1-0.1-0.1-0.2-0.2c0,0,0,0,0,0c0,0,0,0,0,0
	c-0.1,0-0.1-0.1-0.2-0.1c-0.1-0.1-0.2-0.1-0.3-0.2c0,0-0.1,0-0.1,0c-0.1,0-0.1,0-0.2-0.1l0,0v0l0,0v0c0,0-0.1,0-0.1,0
	c0,0-0.1,0-0.2,0c0,0-0.1,0-0.1,0c-0.1,0-0.1,0-0.2,0c0,0-0.1,0-0.1,0c0,0,0,0,0,0l0,0v0l0,0v0c-0.1,0-0.2,0-0.3,0c0,0-0.1,0-0.1,0
	c0,0,0,0-0.1,0c0,0-0.1,0-0.1,0c-0.1,0-0.2,0-0.2,0c0,0-0.1,0-0.1,0c0,0,0,0-0.1,0c0,0-0.1,0-0.1,0c-0.1,0-0.2,0-0.2,0
	c0,0,0,0-0.1,0c0,0,0,0-0.1,0c0,0-0.1,0-0.1,0c-0.1,0-0.2,0-0.2,0.1c0,0,0,0,0,0c0,0,0,0,0,0c-0.1,0-0.2,0.1-0.4,0.2l-0.1,1.5
	c0.1-0.1,0.2-0.1,0.4-0.2c0,0,0,0,0,0c0.1,0,0.2-0.1,0.3-0.1c0,0,0,0,0.1,0c0.1,0,0.3,0,0.4-0.1c0,0,0,0,0.1,0c0.1,0,0.3,0,0.4,0
	c0,0,0,0,0.1,0c0.1,0,0.3,0,0.4,0c0,0,0.1,0,0.1,0c0.1,0,0.2,0,0.3,0c0.1,0,0.1,0,0.2,0c0.1,0,0.2,0,0.3,0.1c0,0,0.1,0,0.1,0
	c0.1,0,0.2,0.1,0.3,0.2c0.1,0,0.1,0.1,0.2,0.1c0,0,0,0,0,0c0.1,0,0.1,0.8,0.2,0.9c0,0,0,0,0,0c0,0,0.1,0.1,0.1,0.1c0,0,0,0,0,0
	c0,0,0,0.1,0.1,0.1c0,0,0,0,0,0c0,0,0,0,0,0.1c0,0,0,0,0,0.1c0,0,0,0,0,0.1c0,0,0,0,0,0.1c0,0,0,0,0,0.1c0,0,0,0,0,0.1L257.9,281.6
	L257.9,281.6C257.9,281.7,257.9,281.7,257.9,281.6"/>
<path id="path7125-3" class="st1" d="M261.9,285.3v1.5l42.6-24.6v-1.5L261.9,285.3"/>
<path id="path7127-6" class="st1" d="M257.2,282.6l-0.1,1.5l4.8,2.7v-1.5L257.2,282.6"/>
<path id="path7129-1" class="st4" d="M219.3,260.7l34.6,20c0.9-0.5,2.4-0.5,3.4,0c0.9,0.5,0.9,1.4,0,1.9l4.7,2.7l42.6-24.6l-4.7-2.7
	c-0.9,0.5-2.4,0.5-3.4,0c-0.9-0.5-0.9-1.4,0-1.9l-34.6-20L219.3,260.7"/>
<path id="path7131-2" class="st1" d="M264.4,281.6l36.3-21l-38.8-22.4l-38.8,22.4l36.3,21H264.4"/>
<path id="path7143-7" class="st5" d="M292.9,257.5l-27.4-15.8c-2.1-1.2-4.8-1.2-6.9,0l-27.7,16c-1.7,1-1.7,3.5,0,4.5l27.5,15.9
	c2.3,1.3,5.1,1.3,7.4,0l8.7-5c0.7-0.4,0.7-1.5,0-1.9l0,0c-0.8-0.5-0.8-1.7,0-2.1l3.5-2c1-0.6,2.3-0.6,3.3,0l0,0
	c1.1,0.7,2.6,0.7,3.7,0l7.9-4.6C294.8,261.3,294.8,258.6,292.9,257.5"/>
<path id="path7147-4" class="st3" d="M236.1,256.4l23.2-13.4c1.8-1,4-1,5.8,0l22.9,13.2c1.6,0.9,1.6,3.2,0,4.1l-2,1.1l-20.7,11.9
	c-1.9,1.1-4.3,1.1-6.2,0l-23-13.3C234.6,259.3,234.6,257.2,236.1,256.4"/>
</svg>
