<svg enable-background="new 0 0 772.2 1000" viewBox="0 0 772.2 1000" xmlns="http://www.w3.org/2000/svg"><path d="m749.9 683.4h-25.1-51.1-7.6c-.4 0-.8.2-1 .5l-4.4 6.2c-6.9 9.6-14.5 20-22.8 30.9-2.3 3-4.6 6-6.9 9-.6.8-1.9.6-2.2-.3l-14-36.1-3.6-9.4c-.2-.5-.7-.8-1.2-.8h-10.1-51.4-20c-2.2 0-3.6 2.2-2.7 4.2l8.2 18.3 6.1 13.7c.5 1.1-.7 2.2-1.7 1.7-1.9-1-3.8-1.8-5.9-2.6-5.5-2-11.9-3-19-3-9.7 0-18.7 1.7-26.9 5.1l.2-1 3.7-15.7 3.7-16c.4-1.9-1-3.7-2.9-3.7h-16.4-99.8-10.3c-1.4 0-2.6 1-2.9 2.3l-.5 2.2c-.2.8-1.1 1.2-1.8.9-.8-.4-1.7-.8-2.6-1.2-2.7-1.2-5.9-2.4-9.4-3.5-3.6-1.1-7.6-2-11.7-2.7-4.3-.7-8.9-1.1-13.7-1.1-9.8 0-18.8 1.2-26.6 3.6-8.4 2.5-15.6 6.3-21.6 11.1-.4.3-.7.6-1 .9-.9-4.5-3.1-9.6-7.8-13.9-5-4.6-11.4-7-18.3-7-7.3 0-14 2.7-19.6 7.8-4.1 3.8-9 10.6-9 21.5 0 2.9-4.1 5.7-3.2-3.4l1.4-14.3c.2-1.8-1.2-3.3-3-3.3h-14.4-18-6.5c-.9 0-1.8.4-2.4 1.2l-3.9 5.2c-4.4 5.8-9.3 12.7-14.8 20.5-5.4 7.7-11 15.9-16.7 24.5-2.8 4.2-5.7 8.4-8.5 12.6-.6.9-2.1.6-2.3-.5-.4-2.1-.8-4.2-1.3-6.3-1.8-8.5-3.5-16.8-5.3-24.6-1.8-8-3.5-15-5.1-20.9l-2.6-9.6c-.4-1.3-1.5-2.2-2.9-2.2h-9.9-18.7-9.2c-1.3 0-2.4.8-2.8 2l-3 8.7c-3.4 9.7-6.9 20.2-10.5 31.1-3.5 10.8-7.1 22.1-10.7 33.7-3.6 11.5-7.1 23.3-10.6 35.2-3.4 11.9-6.8 23.8-9.9 35.5-.4 1.3-.5 2.7-.5 4.1v17.3 3.1 1.3 5.6 1.1 6.2 1.8 6.9 6.7.6 12.4c0 1.7 1.3 3 3 3h13 434.4 4.3c1.1 0 1.7 1.3 1 2.1l-12.2 14.7c-1.6 2-.2 4.9 2.3 4.9h27.8 53.2 7c.4 0 .7-.2 1-.5l4.4-5.4 42.1-51.3c.6-.8 1.8-.6 2.2.3.7 1.7 1.3 3.5 2 5.3 2 5.5 4.2 11.6 6.5 18.1 2.2 6.3 4.7 13.9 7.5 22.4l3.3 10.2c.2.5.7.9 1.2.9h10.7 49.9 17.9c2 0 3.5-2 2.9-3.9l-5.6-17c-3.4-10.4-6.8-20.3-10-29.4s-6.6-18.1-10.1-26.7-7.1-17.3-10.8-25.8c-2.4-5.4-4.8-10.9-7.3-16.5-.2-.5-.1-1 .2-1.4 4.3-4.9 8.7-10.1 13.2-15.4 7-8.3 14.1-16.9 21.1-25.8 6.9-8.7 13.7-17.6 20.3-26.4s12.8-17.4 18.6-25.6l14.5-20.5c1.2-1.7-.2-4.4-2.6-4.4z" fill="#001c2f"/><path d="m37.9 878.1h176.2v6.7h-176.2z" fill="#296483"/><path d="m303.2 855.2v-6.1h-47.4v35.7h8.3v-15.4h39.1v-6.2h-39.1v-8z" fill="#00aeef"/><path d="m367.3 854.9c-.2-3.2-2.8-5.7-6-5.7h-41.4v35.7h8.3v-15.4h32.9c3.4 0 6.2-2.8 6.2-6.2zm-8.3 8.3h-30.8v-8h30.8z" fill="#00aeef"/><path d="m425.1 863.2h-26.9v6.2h24.8v8.7h-30.8v-22.9h39.2c0-3.3-2.7-6-6-6h-35.4c-3.2 0-5.8 2.5-6 5.7v23.2c0 3.7 3 6.7 6.7 6.7h34c3.7 0 6.7-3 6.7-6.7v-8.7c-0-3.4-2.8-6.2-6.3-6.2z" fill="#00aeef"/><path d="m37.9 863.2h154.4v6.2h-154.4z" fill="#296483"/><path d="m37.9 849.1h176.2v6h-176.2z" fill="#296483"/><path d="m489.4 849.1h-35.4c-3.3 0-6 2.7-6 6v29.6h8.3v-15.4h30.8v15.4h8.3v-29.6c-0-3.3-2.7-6-6-6zm-33.1 14.1v-8h30.8v8z" fill="#00aeef"/><g fill="#e9eae9"><path d="m177.3 729.4c-2.1 2.8-4.7 6.5-7.8 11s-6.5 9.5-10.1 14.9-7.4 11.1-11.2 17c-3.9 5.9-7.6 11.6-11.2 17.1s-7 10.6-10.1 15.3-5.6 8.6-7.6 11.5h-15.1c-.5-3.1-1.2-7-2-11.7s-1.8-9.8-2.8-15.3-2.1-11.2-3.2-17.1-2.2-11.5-3.3-17c-1.1-5.4-2.1-10.4-3-14.8-.9-4.5-1.7-8.1-2.3-11-5.4 16.7-10.7 33.9-15.9 51.6s-10.2 35.7-15.1 53.9h-18.7c3.1-11.6 6.4-23.4 9.8-35.2s6.9-23.5 10.5-34.9 7.1-22.6 10.7-33.4c3.6-10.9 7-21.1 10.4-30.8h18.4c1.6 5.7 3.2 12.4 4.9 20.2s3.5 15.9 5.2 24.3c1.7 8.5 3.4 16.9 4.8 25.3 1.5 8.4 2.7 16 3.8 22.9 4.7-7 9.8-14.7 15.4-23.1s11.3-16.8 17-25.3 11.2-16.5 16.6-24.2 10.2-14.4 14.4-20.1h18c-2.2 21.8-5.1 44-8.8 66.6s-7.7 45.1-12.1 67.8h-18.8c3.9-18.6 7.4-36.7 10.7-54.2 3.2-17.6 6-34.7 8.5-51.3z"/><path d="m222.5 834.8h-18l24.2-100.8h18zm20.9-119c-3 0-5.5-.9-7.5-2.7s-3-4.3-3-7.6c0-4.1 1.3-7.4 3.9-9.8s5.5-3.6 8.7-3.6c3 0 5.5.9 7.6 2.8s3.1 4.5 3.1 7.9c0 3.9-1.4 7-4.1 9.4s-5.6 3.6-8.7 3.6z"/><path d="m285.6 821.4c4 0 8-.4 11.9-1.3 3.9-.8 7.5-2.2 10.6-4.2 3.1-1.9 5.6-4.5 7.6-7.7 1.9-3.2 2.9-7.1 2.9-11.7 0-3.2-.6-6-1.8-8.4s-2.9-4.5-5-6.4-4.7-3.6-7.6-5.2-6.1-3.3-9.6-5.1c-3-1.6-6-3.2-9-5s-5.8-4-8.1-6.7c-2.4-2.6-4.3-5.8-5.8-9.4s-2.2-7.9-2.2-13c0-5.8 1.1-11.2 3.4-16.1s5.6-9.1 10-12.7 9.8-6.3 16.2-8.2 13.7-2.9 22-2.9c3.9 0 7.6.3 11 .9s6.7 1.3 9.6 2.2 5.5 1.8 7.7 2.8 3.8 1.8 4.8 2.6l-8.7 14.7c-2.2-1.8-5.7-3.5-10.6-4.9-4.8-1.5-10.6-2.2-17.2-2.2-4.1 0-8 .4-11.5 1.3-3.6.8-6.6 2.2-9.2 4s-4.7 4.1-6.2 6.9c-1.6 2.8-2.3 6.1-2.3 10 0 3.4.5 6.2 1.6 8.4 1 2.3 2.5 4.3 4.3 6s4 3.3 6.7 4.7c2.6 1.4 5.5 2.9 8.6 4.5 3.9 1.9 7.5 3.9 11 5.9 3.4 2 6.4 4.4 9 7.1s4.6 5.9 6.1 9.5 2.2 8 2.2 13.2c0 7.1-1.4 13.3-4.2 18.7s-6.6 9.8-11.4 13.4-10.6 6.2-17.3 8-13.9 2.7-21.6 2.7c-5.2 0-9.9-.4-14.1-1.1s-7.9-1.6-11-2.6c-3.2-1-5.8-2.1-8-3.2s-3.9-2.1-5-3l8.7-15.3c2.5 1.7 6.3 3.6 11.6 5.7 5.1 2.1 11.8 3.1 19.9 3.1z"/><path d="m473.7 700.5-3.7 15.7h-40.5l-28.5 118.6h-18.8l28.5-118.6h-40.5l3.7-15.7z"/><path d="m492.1 837.3c-6.6 0-12.3-.9-17.1-2.8s-8.8-4.5-12-7.8-5.6-7.1-7.2-11.5-2.3-9-2.3-14c0-9 1.4-17.8 4.1-26.2s6.6-15.8 11.6-22.3 11.2-11.6 18.4-15.4 15.4-5.7 24.6-5.7c5.3 0 9.9.7 13.7 2 3.8 1.4 6.9 3.2 9.3 5.5s4.2 5 5.3 8c1.2 3 1.7 6.2 1.7 9.4 0 6.1-1.1 11.2-3.3 15.4s-5.1 7.7-8.7 10.6c-3.6 2.8-7.9 5-12.7 6.6s-9.9 2.8-15.1 3.7-10.5 1.5-15.9 1.8-10.4.6-15.2.9c-.1 1-.2 1.9-.2 2.5v1.6c0 3 .4 5.8 1.1 8.4.7 2.7 2 5 4 7 1.9 2 4.6 3.6 8 4.7 3.4 1.2 7.9 1.7 13.5 1.7 2.5 0 5-.2 7.7-.7 2.6-.5 5.2-1 7.6-1.7s4.5-1.4 6.4-2.1 3.2-1.4 4-2l1.6 15.3c-2.6 1.4-6.8 2.9-12.5 4.6-5.9 1.7-12.7 2.5-20.4 2.5zm-18.4-55.4c7.5-.3 14.3-.7 20.5-1.5 6.2-.7 11.6-1.9 16.1-3.7 4.5-1.7 8-4.1 10.6-7.1 2.5-3 3.8-6.8 3.8-11.6 0-1.2-.2-2.4-.7-3.7s-1.2-2.5-2.3-3.6-2.6-2-4.6-2.7c-1.9-.7-4.3-1.1-7.2-1.1-4.5 0-8.8 1-12.7 2.9s-7.5 4.5-10.6 7.7-5.8 6.9-7.9 11c-2.2 4.3-3.9 8.7-5 13.4z"/><path d="m636.5 906.5c-2.8-8.6-5.3-16.1-7.6-22.7s-4.5-12.7-6.6-18.4-4.2-11.1-6.4-16.1c-2.2-5.1-4.6-10.4-7.2-16l-60.1 73.2h-53.2l94.2-112.7-42.1-94.5h51.4l24.8 64c9-10.8 17.6-21.7 26-32.7 8.4-11.1 16-21.5 23-31.2h51.1c-5.8 8.2-11.9 16.6-18.4 25.3s-13.2 17.3-20 26c-6.9 8.7-13.8 17.1-20.8 25.4s-13.7 16.1-20.3 23.5c4.2 9.4 8.1 18.2 11.8 26.6s7.2 16.8 10.6 25.3 6.7 17.2 9.9 26.2 6.5 18.6 9.9 29h-50z"/></g><path d="m665.2 508.3v-37.3c0-12.7 8.1-23.7 20.1-27.9 27.4-9.7 47.1-35.9 47.1-66.6s-19.6-56.9-47.1-66.6c-11.9-4.2-20.1-15.3-20.1-27.9v-76.4c0-70.7-57.3-128-128-128h-308c-70.7 0-128 57.3-128 128v76.4c0 12.7-8.1 23.7-20.1 27.9-27.4 9.7-47.1 35.9-47.1 66.6s19.6 56.9 47.1 66.6c11.9 4.2 20.1 15.3 20.1 27.9v37.3c0 11.5-7.3 21.8-18.2 25.5-21.8 7.6-37.5 28.5-37.2 53 .4 30.4 25.7 54.6 56.1 54.6h196.7c14.6 0 27.9-8.5 33.7-21.9 8.5-19.6 28-33.4 50.8-33.4s42.3 13.8 50.8 33.4c5.8 13.4 19.1 21.9 33.7 21.9h196.7c30.4 0 55.7-24.2 56.1-54.6.3-24.5-15.3-45.4-37.2-53-10.7-3.7-18-14-18-25.5z" fill="#001c2f"/><path d="m712.2 266.8c-4.8-9.5-13.4-20.4-28.7-25.8 3.4-1.1 6.9-2.6 10.3-4.6 21-12.2 25.5-33.7 25.5-49.6v-7.8h-7.7c-.6 0-14.5.1-28.5 7.1-13.4 6.7-29.3 20.9-29.3 50.7v7.3h.1v.8c-.1 1-1.1 25 15 42 10.2 10.7 24.5 16.1 42.7 16.1h7.7v-7.7c-0-.6-.1-14.5-7.1-28.5z" fill="#001c2f"/><path d="m618.6 186.7h-470.7c-19.9 0-36.1 24.3-36.1 54.3 0 13 3 29.7 8.1 44.3 7.4 21.4 28.6 34.9 51.2 32.6l187.1-18.8c19.5-2 39.1-1.9 58.5.1l178.5 18.6c22.6 2.3 43.9-11.1 51.3-32.6 5.1-14.7 8.1-31.3 8.1-44.3.1-29.9-16.1-54.2-36-54.2z" fill="#989e9e"/><circle cx="304.5" cy="280.6" fill="#f0efef" r="75.3"/><path d="m304.5 205.4c41.6 0 75.3 33.7 75.3 75.3s-33.7 75.3-75.3 75.3-75.3-33.7-75.3-75.3 33.7-75.3 75.3-75.3m0-12c-48.1 0-87.2 39.1-87.2 87.2s39.1 87.2 87.2 87.2 87.2-39.1 87.2-87.2c0-48-39.1-87.2-87.2-87.2z" fill="#001c2f"/><circle cx="324.5" cy="291.7" fill="#001c2f" r="52.4"/><path d="m324.5 242.1c27.3 0 49.5 22.2 49.5 49.5s-22.2 49.5-49.5 49.5-49.5-22.2-49.5-49.5 22.2-49.5 49.5-49.5m0-5.7c-30.5 0-55.2 24.7-55.2 55.2s24.7 55.2 55.2 55.2 55.2-24.7 55.2-55.2c0-30.4-24.7-55.2-55.2-55.2z" fill="#00aeef"/><circle cx="318" cy="277.5" fill="#f0efef" r="17"/><circle cx="467.7" cy="280.6" fill="#f0efef" r="75.3"/><path d="m467.7 205.4c41.6 0 75.3 33.7 75.3 75.3s-33.7 75.3-75.3 75.3-75.3-33.7-75.3-75.3c.1-41.6 33.8-75.3 75.3-75.3m0-12c-48.1 0-87.2 39.1-87.2 87.2s39.1 87.2 87.2 87.2 87.2-39.1 87.2-87.2c0-48-39.1-87.2-87.2-87.2z" fill="#001c2f"/><circle cx="447.7" cy="291.7" fill="#001c2f" r="52.4"/><path d="m447.7 242.1c27.3 0 49.5 22.2 49.5 49.5s-22.2 49.5-49.5 49.5-49.5-22.2-49.5-49.5 22.2-49.5 49.5-49.5m0-5.7c-30.5 0-55.2 24.7-55.2 55.2s24.7 55.2 55.2 55.2 55.2-24.7 55.2-55.2c0-30.4-24.7-55.2-55.2-55.2z" fill="#00aeef"/><circle cx="454.2" cy="277.5" fill="#f0efef" r="17"/><path d="m183 866.4v1.1l25.2 14.6v-1.1z" fill="#296483"/><path d="m211.2 881.7c-.1 0-.1 0 0 0-.1-.1-.1-.1 0 0 0-.1 0-.1 0-.1s0 0 0-.1 0-.1-.1-.1-.1-.1-.1-.1-.1-.1-.1-.1c-.1 0-.2-.1-.3-.1h-.1-.1s0 0-.1 0h-.1-.1-.1s0 0-.1 0c-.1 0-.1 0-.2 0 0 0 0 0-.1 0s0 0-.1 0-.1 0-.2 0c0 0 0 0-.1 0s0 0-.1 0-.1 0-.2 0h-.1c-.1 0-.1 0-.2.1-.1 0-.2.1-.3.1v1.1c.1 0 .2-.1.3-.1.1 0 .2-.1.3-.1h.3.3.3.1.2.1c.1 0 .1 0 .2.1h.1c.1 0 .2.1.3.1 0 0 .1.1.1.1.1 0 .1.6.1.6s0 0 .1.1v.1.1.1z" fill="#296483"/><path d="m214.1 884.4v1.1l31.1-18v-1.1z" fill="#296483"/><path d="m210.6 882.4v1.1l3.5 1.9v-1.1z" fill="#296483"/><path d="m183 866.4 25.2 14.6c.7-.4 1.8-.4 2.5 0s.7 1 0 1.4l3.4 2 31.1-18-3.4-2c-.7.4-1.8.4-2.5 0s-.7-1 0-1.4l-25.2-14.6z" fill="#3689af"/><path d="m215.9 881.7 26.5-15.3-28.3-16.4-28.3 16.4 26.5 15.3z" fill="#296483"/><path d="m236.7 864.1-20-11.5c-1.6-.9-3.5-.9-5 0l-20.2 11.7c-1.3.7-1.3 2.5 0 3.3l20 11.6c1.7 1 3.7 1 5.4 0l6.3-3.6c.5-.3.5-1.1 0-1.4-.6-.3-.6-1.2 0-1.6l2.6-1.5c.7-.4 1.7-.4 2.4 0 .8.5 1.9.5 2.7 0l5.8-3.3c1.3-.9 1.3-2.9-0-3.7" fill="#bbbab8"/><path d="m195.2 863.3 16.9-9.8c1.3-.8 2.9-.8 4.2 0l16.7 9.6c1.1.7 1.1 2.3 0 3l-1.4.8-15.1 8.7c-1.4.8-3.1.8-4.5 0l-16.8-9.7c-1-.5-1-2 0-2.6" fill="#e9eae9"/></svg>