<svg enable-background="new 0 0 1000 1000" viewBox="0 0 1000 1000" xmlns="http://www.w3.org/2000/svg"><path d="m929.6 749.6c-15.3-5.3-25.8-20-25.8-36.5v-53.4c0-18.2 11.6-33.9 28.8-39.9 39.2-13.9 67.4-51.4 67.4-95.4s-28.1-81.5-67.4-95.4c-16.8-5.9-28.4-21.5-28.8-39.2 1.6 2.1 3.3 4.3 5.3 6.3 14.6 15.3 35.1 23.1 61.1 23.1h11v-11c0-.9-.1-20.8-10.2-40.8-6.9-13.6-19.2-29.2-41.1-36.9 4.9-1.6 9.9-3.7 14.7-6.6 30.1-17.5 36.5-48.3 36.5-71v-11.2h-11c-.9 0-20.8.1-40.8 10.2-8.7 4.3-18.1 10.9-25.8 20.7-3.8-97.9-84.3-176-183.1-176h-441c-101.2 0-183.3 82-183.3 183.3v109.1c0 18.2-11.6 33.9-28.8 39.9-39.1 14-67.3 51.5-67.3 95.4s28.1 81.5 67.4 95.4c17 6 28.8 21.9 28.8 39.9v53.4c0 16.5-10.5 31.2-26.1 36.5-31.2 10.9-53.7 40.8-53.3 75.9.6 43.5 36.8 78.2 80.3 78.2h281.6c20.9 0 39.9-12.2 48.3-31.4 12.2-28.1 40.1-47.8 72.7-47.8s60.6 19.8 72.7 47.8c8.3 19.2 27.3 31.4 48.3 31.4h281.6c43.5 0 79.8-34.7 80.3-78.2.6-35-21.7-64.9-53-75.8zm-434.5-362.4c0 1.7-.1 3.4-.1 5.1v.5c-.1 1.2-.2 2.4-.3 3.6-3.3-40.5-37.3-72.6-78.8-72.6-43.7 0-79 35.4-79 79s35.4 79 79 79c13.2 0 25.7-3.3 36.6-9-18.1 13.8-40.7 22-65.2 22-43.8 0-81.5-26.2-98.4-63.7h-.1c-.3-.7-.6-1.3-.8-2 0-.1-.1-.2-.1-.3-.6-1.5-1.2-2.9-1.8-4.4-.1-.2-.2-.5-.3-.7-.5-1.4-1-2.8-1.4-4.3-.1-.3-.2-.6-.3-.9-.4-1.4-.8-2.8-1.2-4.2-.1-.3-.2-.7-.3-1.1-.3-1.4-.7-2.8-1-4.2-.1-.4-.1-.8-.2-1.1-.3-1.4-.5-2.8-.8-4.2-.1-.4-.1-.8-.2-1.2-.2-1.4-.4-2.8-.5-4.2 0-.5-.1-.9-.1-1.4-.1-1.4-.2-2.7-.3-4.1-.1-1-.1-2.1-.1-3.1 0-.8-.1-1.6-.1-2.4 0 0 0 0 0-.1 0 0 0 0 0-.1 0-59.5 48.3-107.8 107.8-107.8s108 48.2 108 107.7v.2c0-.1 0-.1 0 0zm-64.1-4.6c0 13.4-10.9 24.3-24.3 24.3s-24.3-10.9-24.3-24.3 10.9-24.3 24.3-24.3c13.4-.1 24.3 10.8 24.3 24.3zm297.8 4.6c0 .7 0 1.4-.1 2.1 0 1.2 0 2.3-.1 3.5-.1 1.3-.2 2.5-.3 3.8-.1.6-.1 1.2-.1 1.7-.1 1.3-.3 2.7-.5 4-.1.5-.1 1-.2 1.5-.2 1.3-.5 2.7-.7 4-.1.5-.2.9-.3 1.4-.3 1.3-.6 2.7-.9 4-.1.4-.2.9-.3 1.3-.4 1.3-.7 2.7-1.1 4-.1.4-.2.8-.3 1.1-.4 1.4-.9 2.7-1.4 4.1-.1.3-.2.6-.3.9-.5 1.4-1.1 2.9-1.7 4.3-.1.2-.1.3-.2.5-.3.8-.6 1.5-1 2.3h-.1c-16.9 37.3-54.5 63.3-98.2 63.3-24.5 0-47.1-8.2-65.2-22 10.9 5.7 23.4 9 36.6 9 43.7 0 79-35.4 79-79 0-43.5-35.4-79-79-79-41.5 0-75.5 31.9-78.8 72.6-.1-1.2-.2-2.4-.3-3.6 0-.2 0-.3 0-.5-.1-1.7-.1-3.4-.1-5.1 0 0 0 0 0-.1 0 0 0 0 0-.1 0-59.5 48.3-107.8 107.8-107.8s107.8 48.3 107.8 107.8c0-.1 0-.1 0 0zm-151.5-4.6c0-13.4 10.9-24.3 24.3-24.3s24.3 10.9 24.3 24.3-10.9 24.3-24.3 24.3-24.3-10.9-24.3-24.3zm299.7 11c-10.6 30.8-41.1 50-73.5 46.7l-66.6-6.9c5.7-14.3 8.9-30 8.9-46.3 0-68.7-56-124.9-124.9-124.9-53.4 0-99 33.6-116.8 80.9-17.8-47.1-63.5-80.9-116.8-80.9-68.9 0-124.9 56-124.9 124.9 0 16.2 3.1 31.7 8.7 45.9l-74.9 7.5c-32.4 3.3-62.7-16-73.3-46.7-7.3-20.9-11.6-44.8-11.6-63.4 0-43 23.2-77.7 51.7-77.7h674c28.5 0 51.7 34.8 51.5 77.6.1 18.5-4.2 42.3-11.5 63.3z"/></svg>