<svg enable-background="new 0 0 1008 246.2" viewBox="0 0 1008 246.2" xmlns="http://www.w3.org/2000/svg"><path d="m725.1 8.3h-24.9-50.7-7.5c-.4 0-.8.2-1 .5l-4.4 6.2c-6.8 9.5-14.4 19.8-22.6 30.7-2.3 3-4.6 6-6.8 8.9-.6.8-1.9.6-2.2-.3l-13.9-35.8-3.6-9.3c-.2-.5-.7-.8-1.2-.8h-10-51-19.8c-2.2 0-3.6 2.2-2.7 4.2l8.1 18.2 6.1 13.6c.5 1.1-.7 2.2-1.7 1.7-1.9-1-3.8-1.8-5.9-2.6-5.5-2-11.8-3-18.8-3-9.6 0-18.6 1.7-26.7 5.1l.2-1 3.7-15.6 3.7-15.9c.4-1.9-1-3.7-2.9-3.7h-16.3-99-10.2c-1.4 0-2.6 1-2.9 2.3l-.5 2.2c-.2.8-1.1 1.2-1.8.9-.8-.4-1.7-.8-2.6-1.2-2.7-1.2-5.9-2.4-9.3-3.5-3.6-1.1-7.5-2-11.6-2.7-4.3-.7-8.8-1.1-13.6-1.1-9.7 0-18.7 1.2-26.4 3.6-8.3 2.5-15.5 6.2-21.4 11-.4.3-.7.6-1 .9-.9-4.5-3.1-9.5-7.7-13.8-5-4.6-11.3-7-18.2-7-7.2 0-13.9 2.7-19.4 7.7-4.1 3.8-8.9 10.5-8.9 21.3 0 2.9-4.1 5.7-3.2-3.4l1.4-14.2c.2-1.8-1.2-3.3-3-3.3h-14.3-17.9-6.4c-.9 0-1.8.4-2.4 1.2l-3.9 5.2c-4.4 5.8-9.2 12.6-14.7 20.3-5.4 7.6-10.9 15.8-16.6 24.3-2.8 4.2-5.7 8.3-8.4 12.5-.6.9-2.1.6-2.3-.5-.4-2.1-.8-4.2-1.3-6.2-1.8-8.4-3.5-16.7-5.3-24.4-1.8-7.9-3.5-14.9-5.1-20.7l-2.4-9.5c-.4-1.3-1.5-2.2-2.9-2.2h-9.8-18.5-9.1c-1.3 0-2.4.8-2.8 2l-3 8.6c-3.4 9.6-6.8 20-10.4 30.9-3.5 10.7-7.1 21.9-10.7 33.4-3.6 11.4-7 23.1-10.5 34.9-3.4 11.8-6.7 23.6-9.8 35.2-.4 1.3-.5 2.7-.5 4.1v17.2 3.1 1.3 5.6 1.1 6.2 1.8 6.8 6.6.6 12.3c0 1.7 1.3 3 3 3h12.9 430.9 4.3c1.1 0 1.7 1.3 1 2.1l-12.1 14.5c-1.6 2-.2 4.9 2.3 4.9h27.6 52.8 6.9c.4 0 .7-.2 1-.5l4.4-5.4 41.8-50.9c.6-.8 1.8-.6 2.2.3.7 1.7 1.3 3.5 2 5.3 2 5.5 4.2 11.5 6.4 18 2.2 6.2 4.7 13.8 7.4 22.2l3.3 10.1c.2.5.7.9 1.2.9h10.6 49.5 17.8c2 0 3.5-2 2.9-3.9l-5.6-16.9c-3.4-10.3-6.7-20.1-9.9-29.2-3.2-9-6.5-18-10-26.5s-7-17.2-10.7-25.6c-2.4-5.4-4.8-10.8-7.2-16.4-.2-.5-.1-1 .2-1.4 4.3-4.9 8.6-10 13.1-15.3 6.9-8.2 14-16.8 20.9-25.6 6.8-8.6 13.6-17.5 20.1-26.2s12.7-17.3 18.5-25.4l14.4-20.3c1-1.6-.4-4.3-2.8-4.3z" fill="#001c2f"/><path d="m18.8 201.5h174.8v6.6h-174.8z" fill="#296483"/><path d="m282 178.8v-6.1h-47v35.4h8.2v-15.3h38.8v-6.1h-38.8v-7.9z" fill="#00aeef"/><path d="m345.6 178.5c-.2-3.2-2.8-5.7-6-5.7h-41.1v35.4h8.2v-15.3h32.6c3.4 0 6.2-2.8 6.2-6.2v-8.2zm-8.3 8.2h-30.6v-7.9h30.6z" fill="#00aeef"/><path d="m402.9 186.7h-26.7v6.2h24.6v8.6h-30.6v-22.7h38.9c0-3.3-2.7-6-6-6h-35.1c-3.2 0-5.8 2.5-6 5.7v23c0 3.7 3 6.6 6.6 6.6h33.7c3.7 0 6.6-3 6.6-6.6v-8.6c.3-3.4-2.5-6.2-6-6.2z" fill="#00aeef"/><path d="m18.8 186.7h153.2v6.2h-153.2z" fill="#296483"/><path d="m18.8 172.7h174.8v6h-174.8z" fill="#296483"/><path d="m466.7 172.7h-35.1c-3.3 0-6 2.7-6 6v29.3h8.2v-15.3h30.6v15.3h8.2v-29.4c.1-3.2-2.6-5.9-5.9-5.9zm-32.8 14v-7.9h30.6v7.9z" fill="#00aeef"/><g fill="#e9eae9"><path d="m157.1 54c-2.1 2.8-4.7 6.4-7.7 10.9-3.1 4.5-6.4 9.4-10 14.8s-7.3 11-11.1 16.9c-3.9 5.9-7.5 11.5-11.1 17s-6.9 10.5-10 15.2-5.6 8.5-7.5 11.4h-15c-.5-3.1-1.2-6.9-2-11.6s-1.8-9.7-2.8-15.2-2.1-11.1-3.2-17-2.2-11.4-3.3-16.9c-1.1-5.4-2.1-10.3-3-14.7-.9-4.5-1.7-8-2.3-10.9-5.4 16.5-10.6 33.6-15.8 51.1-5.2 17.6-10.1 35.4-15 53.5h-18.5c3.1-11.5 6.3-23.2 9.7-34.9s6.8-23.3 10.4-34.6 7-22.4 10.6-33.1c3.6-10.8 6.9-20.9 10.3-30.6h18.3c1.6 5.7 3.2 12.3 4.9 20s3.5 15.8 5.2 24.1c1.7 8.4 3.4 16.8 4.8 25.1 1.5 8.3 2.7 15.9 3.8 22.7 4.7-6.9 9.7-14.6 15.3-22.9s11.2-16.7 16.9-25.1 11.1-16.4 16.5-24 10.1-14.3 14.3-19.9h17.9c-2.2 21.6-5.1 43.7-8.7 66.1s-7.6 44.7-12 67.3h-19c3.9-18.5 7.3-36.4 10.6-53.8 3.2-17.5 6-34.5 8.5-50.9z"/><path d="m201.9 158.5h-17.9l24-100h17.9zm20.8-118c-3 0-5.5-.9-7.4-2.7-2-1.8-3-4.3-3-7.5 0-4.1 1.3-7.3 3.9-9.7s5.5-3.6 8.6-3.6c3 0 5.5.9 7.5 2.8 2.1 1.9 3.1 4.5 3.1 7.8 0 3.9-1.4 6.9-4.1 9.3s-5.6 3.6-8.6 3.6z"/><path d="m264.5 145.2c4 0 7.9-.4 11.8-1.3 3.9-.8 7.4-2.2 10.5-4.2 3.1-1.9 5.6-4.5 7.5-7.6 1.9-3.2 2.9-7 2.9-11.6 0-3.2-.6-6-1.8-8.3-1.2-2.4-2.9-4.5-5-6.3s-4.7-3.6-7.5-5.2c-2.9-1.6-6.1-3.3-9.5-5.1-3-1.6-6-3.2-8.9-5-3-1.8-5.8-4-8-6.6-2.4-2.6-4.3-5.8-5.8-9.3-1.5-3.6-2.2-7.8-2.2-12.9 0-5.8 1.1-11.1 3.4-16s5.6-9 9.9-12.6c4.4-3.6 9.7-6.2 16.1-8.1 6.3-1.9 13.6-2.9 21.8-2.9 3.9 0 7.5.3 10.9.9s6.6 1.3 9.5 2.2 5.5 1.8 7.6 2.8 3.8 1.8 4.8 2.6l-8.6 14.6c-2.2-1.8-5.7-3.5-10.5-4.9-4.8-1.5-10.5-2.2-17.1-2.2-4.1 0-7.9.4-11.4 1.3-3.6.8-6.5 2.2-9.1 4s-4.7 4.1-6.2 6.8c-1.6 2.8-2.3 6.1-2.3 9.9 0 3.4.5 6.2 1.6 8.3 1 2.3 2.5 4.3 4.3 6s4 3.3 6.6 4.7 5.5 2.9 8.5 4.5c3.9 1.9 7.4 3.9 10.9 5.9 3.4 2 6.3 4.4 8.9 7 2.6 2.7 4.6 5.9 6.1 9.4 1.5 3.6 2.2 7.9 2.2 13.1 0 7-1.4 13.2-4.2 18.6s-6.5 9.7-11.3 13.3-10.5 6.2-17.2 7.9-13.8 2.7-21.4 2.7c-5.2 0-9.8-.4-14-1.1s-7.8-1.6-10.9-2.6c-3.2-1-5.8-2.1-7.9-3.2-2.2-1.1-3.9-2.1-5-3l8.6-15.2c2.5 1.7 6.2 3.6 11.5 5.7 5.2 2 11.9 3 19.9 3z"/><path d="m451.1 25.3-3.7 15.6h-40.2l-28.2 117.6h-18.7l28.3-117.7h-40.2l3.7-15.6h99z"/><path d="m469.4 161c-6.5 0-12.2-.9-17-2.8s-8.7-4.5-11.9-7.7c-3.2-3.3-5.6-7-7.1-11.4s-2.3-8.9-2.3-13.9c0-8.9 1.4-17.7 4.1-26s6.5-15.7 11.5-22.1 11.1-11.5 18.3-15.3c7.1-3.8 15.3-5.7 24.4-5.7 5.3 0 9.8.7 13.6 2 3.8 1.4 6.8 3.2 9.2 5.5s4.2 5 5.3 7.9c1.2 3 1.7 6.2 1.7 9.3 0 6.1-1.1 11.1-3.3 15.3s-5.1 7.6-8.6 10.5c-3.6 2.8-7.8 5-12.6 6.5s-9.8 2.8-15 3.7-10.4 1.5-15.8 1.8-10.3.6-15.1.9c-.1 1-.2 1.9-.2 2.5s0 1.2 0 1.6c0 3 .4 5.8 1.1 8.3.7 2.7 2 5 4 6.9 1.9 2 4.6 3.6 7.9 4.7 3.4 1.2 7.8 1.7 13.4 1.7 2.5 0 5-.2 7.6-.7s5.2-1 7.5-1.7c2.4-.7 4.5-1.4 6.3-2.1 1.9-.7 3.2-1.4 4-2l1.6 15.3c-2.6 1.4-6.7 2.9-12.4 4.6-5.8 1.6-12.6 2.4-20.2 2.4zm-18.3-55c7.4-.3 14.2-.7 20.3-1.5 6.2-.7 11.5-1.9 16-3.7 4.5-1.7 7.9-4.1 10.5-7 2.5-3 3.8-6.7 3.8-11.5 0-1.2-.2-2.4-.7-3.7s-1.2-2.5-2.3-3.6-2.6-2-4.6-2.7c-1.9-.7-4.3-1.1-7.1-1.1-4.5 0-8.7 1-12.6 2.9s-7.4 4.5-10.5 7.6c-3.1 3.2-5.8 6.8-7.8 10.9-2.2 4.4-3.9 8.8-5 13.4z"/><path d="m612.6 229.6c-2.8-8.5-5.3-16-7.5-22.5-2.3-6.5-4.5-12.6-6.5-18.3-2.1-5.7-4.2-11-6.3-16-2.2-5.1-4.6-10.3-7.1-15.9l-59.6 72.6h-52.8l93.5-111.8-41.8-93.7h51l24.6 63.5c8.9-10.7 17.5-21.5 25.8-32.4 8.3-11 15.9-21.3 22.8-31h50.7c-5.8 8.1-11.8 16.5-18.3 25.1-6.4 8.6-13.1 17.2-19.8 25.8-6.8 8.6-13.7 17-20.6 25.2s-13.6 16-20.1 23.3c4.2 9.3 8 18.1 11.7 26.4s7.1 16.7 10.5 25.1 6.6 17.1 9.8 26 6.4 18.5 9.8 28.8h-49.6v-.2z"/></g><path d="m162.7 189.9v1.1l25 14.5v-1.1z" fill="#296483"/><path d="m190.7 205c-.1 0-.1 0 0 0-.1-.1-.1-.1 0 0 0-.1 0-.1 0 0 0-.1 0-.1 0-.2s0-.1-.1-.1l-.1-.1-.1-.1c-.1 0-.2-.1-.3-.1h-.1-.1s0 0-.1 0h-.1-.1-.1s0 0-.1 0c-.1 0-.1 0-.2 0 0 0 0 0-.1 0s0 0-.1 0-.1 0-.2 0c0 0 0 0-.1 0s0 0-.1 0-.1 0-.2 0h-.1c-.1 0-.1 0-.2.1-.1 0-.2.1-.3.1v1.1c.1 0 .2-.1.3-.1.1 0 .2-.1.3-.1h.3.3.3.1s.1 0 .2 0h.1c.1 0 .1 0 .2.1h.1c.1 0 .2.1.3.1l.1.1c.1 0 .1.6.1.6s0 0 .1.1v.1.1.1z" fill="#296483"/><path d="m193.6 207.7v1.1l30.9-17.9v-1.1z" fill="#296483"/><path d="m190.1 205.7v1.1l3.5 1.9v-1.1z" fill="#296483"/><path d="m162.7 189.9 25 14.5c.7-.4 1.8-.4 2.5 0s.7 1 0 1.4l3.4 2 30.9-17.9-3.4-2c-.7.4-1.8.4-2.5 0s-.7-1 0-1.4l-25-14.5z" fill="#3689af"/><path d="m195.4 205 26.3-15.2-28.1-16.3-28.1 16.3 26.3 15.2z" fill="#296483"/><path d="m216 187.6-19.8-11.4c-1.6-.9-3.5-.9-5 0l-20 11.6c-1.3.7-1.3 2.5 0 3.3l19.8 11.5c1.7 1 3.7 1 5.4 0l6.2-3.6c.5-.3.5-1.1 0-1.4-.6-.3-.6-1.2 0-1.6l2.6-1.5c.7-.4 1.7-.4 2.4 0 .8.5 1.9.5 2.7 0l5.8-3.3c1.2-.8 1.2-2.8-.1-3.6" fill="#bbbab8"/><path d="m174.8 186.8 16.8-9.7c1.3-.8 2.9-.8 4.2 0l16.6 9.5c1.1.7 1.1 2.3 0 3l-1.4.8-15 8.6c-1.4.8-3.1.8-4.5 0l-16.7-9.6c-1-.5-1-2 0-2.6" fill="#e9eae9"/><path d="m975.8 188.7v-15.6c0-5.3 3.4-9.9 8.4-11.7 11.5-4.1 19.8-15.1 19.8-27.9s-8.2-23.9-19.8-27.9c-5-1.8-8.4-6.4-8.4-11.7v-32c0-29.6-24-53.7-53.7-53.7h-129.1c-29.6 0-53.7 24-53.7 53.7v32c0 5.3-3.4 9.9-8.4 11.7-11.5 4.1-19.8 15.1-19.8 27.9s8.2 23.9 19.8 27.9c5 1.8 8.4 6.4 8.4 11.7v15.6c0 4.8-3.1 9.1-7.6 10.7-9.1 3.2-15.7 12-15.6 22.2.2 12.7 10.8 22.9 23.5 22.9h82.5c6.1 0 11.7-3.6 14.1-9.2 3.6-8.2 11.7-14 21.3-14s17.7 5.8 21.3 14c2.4 5.6 8 9.2 14.1 9.2h82.5c12.7 0 23.4-10.1 23.5-22.9.1-10.3-6.4-19-15.6-22.2-4.4-1.5-7.5-5.8-7.5-10.7z" fill="#001c2f"/><path d="m995.5 87.5c-2-4-5.6-8.6-12-10.8 1.4-.5 2.9-1.1 4.3-1.9 8.8-5.1 10.7-14.1 10.7-20.8v-3.3h-3.2c-.3 0-6.1 0-12 3-5.6 2.8-12.3 8.8-12.3 21.3v3 .3c0 .4-.5 10.5 6.3 17.6 4.3 4.5 10.3 6.8 17.9 6.8h3.2v-3.2c.1-.3.1-6.2-2.9-12z" fill="#001c2f"/><path d="m956.3 53.9h-197.4c-8.3 0-15.1 10.2-15.1 22.8 0 5.5 1.3 12.5 3.4 18.6 3.1 9 12 14.6 21.5 13.7l78.5-7.9c8.2-.8 16.4-.8 24.5 0l74.8 7.8c9.5 1 18.4-4.7 21.5-13.7 2.1-6.2 3.4-13.1 3.4-18.6 0-12.5-6.8-22.7-15.1-22.7z" fill="#989e9e"/><ellipse cx="824.6" cy="93.3" fill="#f0efef" rx="31.6" ry="31.6" transform="matrix(.08248056 -.9966 .9966 .08248056 663.6177 907.3403)"/><path d="m824.6 61.7c17.4 0 31.6 14.1 31.6 31.6s-14.1 31.6-31.6 31.6-31.6-14.1-31.6-31.6 14.1-31.6 31.6-31.6m0-5c-20.2 0-36.6 16.4-36.6 36.6s16.4 36.6 36.6 36.6 36.6-16.4 36.6-36.6c-.1-20.2-16.5-36.6-36.6-36.6z" fill="#001c2f"/><circle cx="833" cy="97.9" fill="#001c2f" r="22"/><path d="m833 77.1c11.4 0 20.8 9.3 20.8 20.8s-9.3 20.8-20.8 20.8c-11.4 0-20.8-9.3-20.8-20.8s9.3-20.8 20.8-20.8m0-2.4c-12.8 0-23.1 10.4-23.1 23.1s10.3 23.2 23.1 23.2 23.1-10.4 23.1-23.1c0-12.8-10.3-23.2-23.1-23.2z" fill="#00aeef"/><circle cx="830.2" cy="92" fill="#f0efef" r="7.1"/><circle cx="893" cy="93.3" fill="#f0efef" r="31.6"/><path d="m893 61.7c17.4 0 31.6 14.1 31.6 31.6s-14.1 31.6-31.6 31.6c-17.4 0-31.6-14.1-31.6-31.6.1-17.4 14.2-31.6 31.6-31.6m0-5c-20.2 0-36.6 16.4-36.6 36.6s16.4 36.6 36.6 36.6 36.6-16.4 36.6-36.6-16.4-36.6-36.6-36.6z" fill="#001c2f"/><circle cx="884.6" cy="97.9" fill="#001c2f" r="22"/><path d="m884.6 77.1c11.4 0 20.8 9.3 20.8 20.8s-9.3 20.8-20.8 20.8c-11.4 0-20.8-9.3-20.8-20.8.1-11.5 9.4-20.8 20.8-20.8m0-2.4c-12.8 0-23.1 10.4-23.1 23.1s10.4 23.1 23.1 23.1 23.1-10.4 23.1-23.1c.1-12.7-10.3-23.1-23.1-23.1z" fill="#00aeef"/><circle cx="887.3" cy="92" fill="#f0efef" r="7.1"/></svg>