<?xml version="1.0" encoding="utf-8"?>
<!-- Generator: Adobe Illustrator 27.4.1, SVG Export Plug-In . SVG Version: 6.00 Build 0)  -->
<svg version="1.1" id="Layer_1" xmlns="http://www.w3.org/2000/svg" xmlns:xlink="http://www.w3.org/1999/xlink" x="0px" y="0px"
	 viewBox="0 0 1000 1000" style="enable-background:new 0 0 1000 1000;" xml:space="preserve">
<path d="M929.6,749.6c-15.3-5.3-25.8-20-25.8-36.5v-53.4c0-18.2,11.6-33.9,28.8-39.9c39.2-13.9,67.4-51.4,67.4-95.4
	s-28.1-81.5-67.4-95.4c-16.8-5.9-28.4-21.5-28.8-39.2c1.6,2.1,3.3,4.3,5.3,6.3c14.6,15.3,35.1,23.1,61.1,23.1h11v-11
	c0-0.9-0.1-20.8-10.2-40.8c-6.9-13.6-19.2-29.2-41.1-36.9c4.9-1.6,9.9-3.7,14.7-6.6c30.1-17.5,36.5-48.3,36.5-71v-11.2h-11
	c-0.9,0-20.8,0.1-40.8,10.2c-8.7,4.3-18.1,10.9-25.8,20.7c-3.8-97.9-84.3-176-183.1-176h-441c-101.2,0-183.3,82-183.3,183.3V389
	c0,18.2-11.6,33.9-28.8,39.9C28.2,442.9,0,480.4,0,524.3s28.1,81.5,67.4,95.4c17,6,28.8,21.9,28.8,39.9v53.4
	c0,16.5-10.5,31.2-26.1,36.5c-31.2,10.9-53.7,40.8-53.3,75.9c0.6,43.5,36.8,78.2,80.3,78.2h281.6c20.9,0,39.9-12.2,48.3-31.4
	c12.2-28.1,40.1-47.8,72.7-47.8s60.6,19.8,72.7,47.8c8.3,19.2,27.3,31.4,48.3,31.4h281.6c43.5,0,79.8-34.7,80.3-78.2
	C983.2,790.4,960.9,760.5,929.6,749.6z M495.1,387.2c0,1.7-0.1,3.4-0.1,5.1c0,0.2,0,0.3,0,0.5c-0.1,1.2-0.2,2.4-0.3,3.6
	c-3.3-40.5-37.3-72.6-78.8-72.6c-43.7,0-79,35.4-79,79s35.4,79,79,79c13.2,0,25.7-3.3,36.6-9c-18.1,13.8-40.7,22-65.2,22
	c-43.8,0-81.5-26.2-98.4-63.7l-0.1,0c-0.3-0.7-0.6-1.3-0.8-2c0-0.1-0.1-0.2-0.1-0.3c-0.6-1.5-1.2-2.9-1.8-4.4
	c-0.1-0.2-0.2-0.5-0.3-0.7c-0.5-1.4-1-2.8-1.4-4.3c-0.1-0.3-0.2-0.6-0.3-0.9c-0.4-1.4-0.8-2.8-1.2-4.2c-0.1-0.3-0.2-0.7-0.3-1.1
	c-0.3-1.4-0.7-2.8-1-4.2c-0.1-0.4-0.1-0.8-0.2-1.1c-0.3-1.4-0.5-2.8-0.8-4.2c-0.1-0.4-0.1-0.8-0.2-1.2c-0.2-1.4-0.4-2.8-0.5-4.2
	c0-0.5-0.1-0.9-0.1-1.4c-0.1-1.4-0.2-2.7-0.3-4.1c-0.1-1-0.1-2.1-0.1-3.1c0-0.8-0.1-1.6-0.1-2.4c0,0,0,0,0-0.1c0,0,0,0,0-0.1
	c0-59.5,48.3-107.8,107.8-107.8S495.1,327.5,495.1,387C495.1,387.1,495.1,387.1,495.1,387.2C495.1,387.1,495.1,387.1,495.1,387.2z
	 M431,382.6c0,13.4-10.9,24.3-24.3,24.3c-13.4,0-24.3-10.9-24.3-24.3c0-13.4,10.9-24.3,24.3-24.3C420.1,358.2,431,369.1,431,382.6z
	 M728.8,387.2c0,0.7,0,1.4-0.1,2.1c0,1.2,0,2.3-0.1,3.5c-0.1,1.3-0.2,2.5-0.3,3.8c-0.1,0.6-0.1,1.2-0.1,1.7c-0.1,1.3-0.3,2.7-0.5,4
	c-0.1,0.5-0.1,1-0.2,1.5c-0.2,1.3-0.5,2.7-0.7,4c-0.1,0.5-0.2,0.9-0.3,1.4c-0.3,1.3-0.6,2.7-0.9,4c-0.1,0.4-0.2,0.9-0.3,1.3
	c-0.4,1.3-0.7,2.7-1.1,4c-0.1,0.4-0.2,0.8-0.3,1.1c-0.4,1.4-0.9,2.7-1.4,4.1c-0.1,0.3-0.2,0.6-0.3,0.9c-0.5,1.4-1.1,2.9-1.7,4.3
	c-0.1,0.2-0.1,0.3-0.2,0.5c-0.3,0.8-0.6,1.5-1,2.3l-0.1,0c-16.9,37.3-54.5,63.3-98.2,63.3c-24.5,0-47.1-8.2-65.2-22
	c10.9,5.7,23.4,9,36.6,9c43.7,0,79-35.4,79-79c0-43.5-35.4-79-79-79c-41.5,0-75.5,31.9-78.8,72.6c-0.1-1.2-0.2-2.4-0.3-3.6
	c0-0.2,0-0.3,0-0.5c-0.1-1.7-0.1-3.4-0.1-5.1c0,0,0,0,0-0.1c0,0,0,0,0-0.1c0-59.5,48.3-107.8,107.8-107.8
	c59.5,0,107.8,48.3,107.8,107.8C728.8,387.1,728.8,387.1,728.8,387.2C728.8,387.1,728.8,387.1,728.8,387.2z M577.3,382.6
	c0-13.4,10.9-24.3,24.3-24.3c13.4,0,24.3,10.9,24.3,24.3c0,13.4-10.9,24.3-24.3,24.3C588.2,406.9,577.3,396,577.3,382.6z M877,393.6
	c-10.6,30.8-41.1,50-73.5,46.7l-66.6-6.9c5.7-14.3,8.9-30,8.9-46.3c0-68.7-56-124.9-124.9-124.9c-53.4,0-99,33.6-116.8,80.9
	c-17.8-47.1-63.5-80.9-116.8-80.9c-68.9,0-124.9,56-124.9,124.9c0,16.2,3.1,31.7,8.7,45.9l-74.9,7.5c-32.4,3.3-62.7-16-73.3-46.7
	c-7.3-20.9-11.6-44.8-11.6-63.4c0-43,23.2-77.7,51.7-77.7h674c28.5,0,51.7,34.8,51.5,77.6C888.6,348.8,884.3,372.6,877,393.6z"/>
</svg>
