<?xml version="1.0" encoding="utf-8"?>
<!-- Generator: Adobe Illustrator 27.4.1, SVG Export Plug-In . SVG Version: 6.00 Build 0)  -->
<svg version="1.1" id="Layer_1" xmlns="http://www.w3.org/2000/svg" xmlns:xlink="http://www.w3.org/1999/xlink" x="0px" y="0px"
	 viewBox="0 0 772.2 1000" style="enable-background:new 0 0 772.2 1000;" xml:space="preserve">
<path d="M683.2,533.8c-10.7-3.7-18-14-18-25.5V471c0-12.7,8.1-23.7,20.1-27.9c27.4-9.7,47.1-35.9,47.1-66.6s-19.6-56.9-47.1-66.6
	c-11.7-4.1-19.9-15-20.1-27.4c1.1,1.5,2.3,3,3.7,4.4c10.2,10.7,24.5,16.1,42.7,16.1h7.7v-7.7c0-0.6-0.1-14.5-7.1-28.5
	c-4.8-9.5-13.4-20.4-28.7-25.8c3.4-1.1,6.9-2.6,10.3-4.6c21-12.2,25.5-33.7,25.5-49.6V179h-7.7c-0.6,0-14.5,0.1-28.5,7.1
	c-6.1,3-12.6,7.6-18,14.4c-2.7-68.4-58.9-122.9-127.9-122.9h-308c-70.7,0-128,57.3-128,128V282c0,12.7-8.1,23.7-20.1,27.9
	C53.7,319.6,34,345.8,34,376.5s19.6,56.9,47.1,66.6c11.9,4.2,20.1,15.3,20.1,27.9v37.3c0,11.5-7.3,21.8-18.2,25.5
	c-21.8,7.6-37.5,28.5-37.2,53c0.4,30.4,25.7,54.6,56.1,54.6h196.7c14.6,0,27.9-8.5,33.7-21.9c8.5-19.6,28-33.4,50.8-33.4
	s42.3,13.8,50.8,33.4c5.8,13.4,19.1,21.9,33.7,21.9h196.7c30.4,0,55.7-24.2,56.1-54.6C720.7,562.3,705.1,541.4,683.2,533.8z
	 M379.8,280.7c0,1.2,0,2.4-0.1,3.6c0,0.1,0,0.2,0,0.3c0,0.8-0.1,1.7-0.2,2.5c-2.3-28.3-26-50.7-55-50.7c-30.5,0-55.2,24.7-55.2,55.2
	s24.7,55.2,55.2,55.2c9.2,0,17.9-2.3,25.6-6.3c-12.6,9.6-28.4,15.4-45.6,15.4c-30.6,0-56.9-18.3-68.7-44.5l0,0
	c-0.2-0.5-0.4-0.9-0.6-1.4c0-0.1-0.1-0.2-0.1-0.2c-0.4-1-0.8-2.1-1.2-3.1c-0.1-0.2-0.1-0.3-0.2-0.5c-0.4-1-0.7-2-1-3
	c-0.1-0.2-0.1-0.4-0.2-0.6c-0.3-1-0.6-1.9-0.8-2.9c-0.1-0.2-0.1-0.5-0.2-0.7c-0.2-1-0.5-1.9-0.7-2.9c-0.1-0.3-0.1-0.5-0.1-0.8
	c-0.2-1-0.4-2-0.5-3c0-0.3-0.1-0.6-0.1-0.8c-0.1-1-0.3-2-0.4-3c0-0.3-0.1-0.7-0.1-1c-0.1-0.9-0.2-1.9-0.2-2.9c0-0.7,0-1.4-0.1-2.2
	c0-0.6,0-1.1,0-1.7c0,0,0,0,0-0.1s0,0,0,0c0-41.6,33.7-75.3,75.3-75.3s75.3,33.7,75.3,75.3C379.8,280.6,379.8,280.6,379.8,280.7
	C379.8,280.7,379.8,280.7,379.8,280.7z M335,277.5c0,9.4-7.6,17-17,17s-17-7.6-17-17s7.6-17,17-17S335,268.1,335,277.5z M543,280.7
	c0,0.5,0,1,0,1.4c0,0.8,0,1.6-0.1,2.4c0,0.9-0.1,1.8-0.2,2.6c0,0.4-0.1,0.8-0.1,1.2c-0.1,0.9-0.2,1.9-0.4,2.8c0,0.3-0.1,0.7-0.1,1
	c-0.1,0.9-0.3,1.9-0.5,2.8c-0.1,0.3-0.1,0.6-0.2,1c-0.2,0.9-0.4,1.9-0.6,2.8c-0.1,0.3-0.1,0.6-0.2,0.9c-0.2,0.9-0.5,1.9-0.8,2.8
	c-0.1,0.3-0.2,0.5-0.2,0.8c-0.3,1-0.6,1.9-1,2.9c-0.1,0.2-0.1,0.4-0.2,0.6c-0.4,1-0.8,2-1.2,3c0,0.1-0.1,0.2-0.1,0.3
	c-0.2,0.5-0.4,1.1-0.7,1.6l0,0c-11.8,26.1-38.1,44.2-68.6,44.2c-17.1,0-32.9-5.7-45.6-15.4c7.6,4,16.3,6.3,25.6,6.3
	c30.5,0,55.2-24.7,55.2-55.2c0-30.4-24.7-55.2-55.2-55.2c-29,0-52.7,22.3-55,50.7c-0.1-0.8-0.1-1.7-0.2-2.5c0-0.1,0-0.2,0-0.3
	c-0.1-1.2-0.1-2.4-0.1-3.6c0,0,0,0,0,0c0,0,0,0,0-0.1c0-41.6,33.7-75.3,75.3-75.3S543,239,543,280.6C543,280.6,543,280.6,543,280.7
	C543,280.7,543,280.7,543,280.7z M437.2,277.5c0-9.4,7.6-17,17-17s17,7.6,17,17s-7.6,17-17,17S437.2,286.9,437.2,277.5z
	 M646.5,285.2c-7.4,21.5-28.7,34.9-51.3,32.6l-46.5-4.8c4-10,6.2-20.9,6.2-32.4c0-48-39.1-87.2-87.2-87.2
	c-37.3,0-69.2,23.5-81.6,56.5c-12.5-32.9-44.3-56.5-81.6-56.5c-48.1,0-87.2,39.1-87.2,87.2c0,11.3,2.2,22.1,6.1,32l-52.3,5.3
	c-22.6,2.3-43.8-11.2-51.2-32.6c-5.1-14.6-8.1-31.3-8.1-44.3c0-30,16.2-54.3,36.1-54.3h470.7c19.9,0,36.1,24.3,36,54.2
	C654.6,253.9,651.6,270.5,646.5,285.2z"/>
<path d="M487.2,863h-30.9v-8h30.9V863z M328.2,863H359v-8h-30.9V863z M510.3,776.7c4.5-1.8,8-4.1,10.6-7.1c2.6-3,3.8-6.9,3.8-11.6
	c0-1.2-0.2-2.4-0.7-3.6c-0.4-1.3-1.2-2.5-2.3-3.6c-1.1-1.1-2.6-2-4.5-2.7c-2-0.7-4.3-1.1-7.2-1.1c-4.5,0-8.8,0.9-12.7,2.9
	c-3.9,2-7.4,4.5-10.6,7.7c-3.1,3.1-5.8,6.9-8,11c-2.3,4.1-3.9,8.5-5,13.2c7.5-0.3,14.3-0.7,20.5-1.5
	C500.5,779.6,505.8,778.3,510.3,776.7z M752.4,688l-14.5,20.5c-5.8,8.2-12,16.8-18.6,25.6c-6.6,8.8-13.4,17.7-20.3,26.3
	c-7,8.8-14.1,17.5-21.1,25.8c-4.5,5.3-8.9,10.5-13.2,15.4c-0.4,0.4-0.4,0.9-0.2,1.4c2.5,5.6,4.9,11.1,7.3,16.5
	c3.7,8.5,7.4,17.2,10.8,25.8c3.4,8.7,6.9,17.7,10.1,26.7c3.2,9.1,6.6,18.9,10,29.3l5.5,17c0.7,2-0.8,3.9-2.8,3.9h-18h-49.9h-10.7
	c-0.6,0-1.1-0.4-1.2-0.9l-3.3-10.1c-2.8-8.5-5.3-16.1-7.5-22.4c-2.3-6.5-4.5-12.6-6.5-18.1c-0.7-1.8-1.3-3.5-2-5.3
	c-0.4-0.9-1.6-1.1-2.2-0.4L562,916.4l-4.5,5.4c-0.3,0.3-0.7,0.4-1,0.4h-6.9h-53.2h-27.8c-2.6,0-3.9-2.9-2.3-4.9l12.3-14.7
	c0.7-0.9,0.1-2.1-0.9-2.1h-4.3H39H26c-1.7,0-3-1.3-3-3v-12.4v-0.6v-6.7V871v-1.8V863v-1.1v-5.6V855v-3.1v-17.3
	c0-1.4,0.1-2.8,0.5-4.1c3.1-11.7,6.5-23.6,9.9-35.5c3.4-11.8,7-23.7,10.6-35.2c3.6-11.5,7.2-22.8,10.7-33.6
	c3.6-10.9,7.1-21.4,10.4-31.1l3.1-8.8c0.4-1.2,1.5-2,2.8-2h9.3h18.4h9.9c1.4,0,2.6,0.9,2.9,2.2l2.6,9.6c1.6,5.9,3.3,12.9,5.1,20.9
	c1.8,7.8,3.6,16.1,5.3,24.6c0.4,2.1,0.8,4.2,1.2,6.3c0.2,1.1,1.7,1.4,2.3,0.4c2.8-4.2,5.6-8.4,8.5-12.6c5.7-8.5,11.3-16.8,16.7-24.5
	c5.4-7.8,10.4-14.7,14.7-20.5l3.9-5.2c0.6-0.7,1.5-1.2,2.4-1.2h6.5h18h14.5c1.8,0,3.1,1.5,3,3.3l-1.5,14.3c-0.9,9.1,3.1,6.3,3.1,3.4
	c0-10.9,4.9-17.7,9-21.5c5.5-5.1,12.3-7.8,19.6-7.8c6.9,0,13.3,2.4,18.3,6.9c4.7,4.3,6.9,9.3,7.8,13.9c0.3-0.3,0.7-0.6,1-0.9
	c6-4.8,13.3-8.5,21.6-11.1c7.9-2.3,16.9-3.6,26.6-3.6c4.7,0,9.3,0.4,13.6,1.1c4.2,0.7,8.2,1.6,11.8,2.7c3.4,1,6.6,2.2,9.3,3.4
	c0.9,0.4,1.8,0.8,2.6,1.2c0.7,0.4,1.6-0.1,1.8-0.9l0.5-2.2c0.3-1.4,1.5-2.3,2.9-2.3h10.3h99.8h16.4c1.9,0,3.4,1.8,2.9,3.6l-3.7,16
	l-3.6,15.7l-0.2,1c8.2-3.4,17.2-5.1,26.9-5.1c7.2,0,13.5,1,19,3c2.1,0.7,4.1,1.6,5.9,2.6c1.1,0.5,2.3-0.6,1.8-1.7l-6.1-13.6
	l-8.2-18.3c-0.9-2,0.6-4.2,2.8-4.2h20h51.4H610c0.5,0,0.9,0.3,1.2,0.8l3.6,9.4l14,36.1c0.4,0.9,1.6,1.1,2.2,0.3
	c2.3-3,4.7-6.1,6.9-9.1c8.2-10.9,15.9-21.2,22.8-30.9l4.4-6.1c0.2-0.3,0.6-0.5,1-0.5h7.6h51.1h25.1
	C752.3,683.2,753.8,685.9,752.4,688z M469.2,752.8c-5,6.4-8.9,13.9-11.6,22.3c-2.7,8.4-4.1,17.1-4.1,26.1c0,4.9,0.8,9.6,2.3,13.9
	c1.5,4.4,3.9,8.2,7.2,11.5c3.3,3.3,7.2,5.8,12,7.7c4.8,1.8,10.5,2.8,17.1,2.8c7.7,0,14.5-0.8,20.2-2.3c5.7-1.6,9.9-3.1,12.5-4.5
	l-1.5-15.3c-0.7,0.7-2,1.3-3.9,2c-1.9,0.7-4,1.4-6.4,2.1c-2.4,0.7-5,1.3-7.6,1.8c-2.6,0.4-5.2,0.7-7.7,0.7c-5.6,0-10.1-0.6-13.5-1.8
	c-3.4-1.2-6.1-2.8-8-4.7c-1.9-2-3.2-4.4-3.9-7c-0.7-2.6-1.1-5.4-1.1-8.4c0-0.4,0-0.9,0-1.5c0-0.7,0.1-1.5,0.2-2.6
	c4.7-0.3,9.9-0.6,15.2-0.9c5.4-0.3,10.7-0.9,15.9-1.8c5.3-0.9,10.3-2.1,15.1-3.6c4.8-1.5,9.1-3.7,12.7-6.6c3.6-2.8,6.5-6.3,8.7-10.6
	c2.2-4.2,3.3-9.3,3.3-15.4c0-3.2-0.6-6.3-1.8-9.4c-1.2-3-2.9-5.7-5.3-8c-2.3-2.3-5.5-4.2-9.3-5.5c-3.8-1.4-8.3-2-13.6-2
	c-9.1,0-17.4,1.9-24.6,5.7C480.4,741.2,474.3,746.4,469.2,752.8z M233.1,705.3c0,3.3,1,5.8,3,7.6s4.5,2.7,7.4,2.7
	c3.1,0,6-1.2,8.8-3.6c2.7-2.4,4.1-5.5,4.1-9.4c0-3.4-1.1-6-3.1-7.9c-2.1-1.8-4.6-2.8-7.6-2.8c-3.2,0-6.1,1.2-8.7,3.6
	C234.4,698,233.1,701.2,233.1,705.3z M204.5,834.7h18l24.2-100.8h-18L204.5,834.7z M38,834.5h18.6c4.9-18.2,9.9-36.1,15.1-53.9
	c5.2-17.7,10.5-34.9,15.9-51.5c0.7,2.8,1.5,6.5,2.3,10.9c0.9,4.5,1.9,9.4,3,14.8c1.1,5.4,2.2,11,3.3,16.9c1.1,5.9,2.2,11.6,3.2,17.1
	c1,5.5,1.9,10.6,2.8,15.3c0.9,4.7,1.5,8.6,2,11.8h15.1c2-3,4.5-6.8,7.6-11.5c3.1-4.7,6.4-9.9,10.1-15.3c3.6-5.5,7.4-11.2,11.2-17.1
	c3.9-5.8,7.6-11.5,11.2-16.9c3.6-5.4,6.9-10.4,10.1-14.9c3.1-4.5,5.7-8.2,7.7-11c-2.4,16.6-5.3,33.8-8.6,51.1
	c-3.2,17.5-6.8,35.5-10.7,54.2h18.8c4.4-22.6,8.5-45.2,12.1-67.7c3.7-22.6,6.6-44.7,8.8-66.6h-18c-4.3,5.7-9.1,12.4-14.5,20.1
	c-5.3,7.7-10.9,15.8-16.6,24.2c-5.7,8.5-11.3,16.9-16.9,25.3c-5.6,8.4-10.7,16.1-15.4,23.1c-1-6.8-2.3-14.5-3.8-22.8
	c-1.5-8.5-3.1-16.9-4.8-25.3c-1.8-8.5-3.5-16.6-5.3-24.3c-1.8-7.7-3.4-14.5-5-20.1H79.3c-3.4,9.7-6.8,19.9-10.4,30.8
	c-3.6,10.9-7.1,22-10.7,33.4c-3.5,11.5-7,23.1-10.4,34.9C44.4,811.2,41.1,822.9,38,834.5z M245.3,866.3l-3.4-2
	c-0.7,0.4-1.8,0.4-2.5,0c-0.7-0.4-0.7-1,0-1.4l-25.3-14.6L213,849H38v6.1h164.5l-13.8,8H38v6.2h148l-3-1.8v-1.2l5,2.9h0l15.2,8.8
	h-0.1l5.1,2.9l0-0.1l0.1,0c0.7-0.4,1.8-0.4,2.5,0c0.2,0.1,0.4,0.3,0.4,0.5c0,0,0,0.1,0,0.1c0,0.1,0,0.1,0,0.1s0,0,0,0.1l0,0.3
	c-0.1,0.1-0.1,0.2-0.3,0.3c0-0.1,0-0.3-0.1-0.3c-0.1,0-0.1-0.1-0.1-0.1c-0.1-0.1-0.1-0.1-0.2-0.1h-0.1c-0.1-0.1-0.1-0.1-0.2-0.1
	c-0.1,0-0.1,0-0.1,0c-0.1,0-0.1,0-0.2,0h-0.1c-0.1,0-0.2,0-0.3,0c-0.1,0-0.1,0-0.1,0c-0.1,0-0.2,0-0.3,0c-0.1,0-0.1,0-0.1,0
	c-0.1,0.1-0.2,0.1-0.3,0.1c-0.1,0-0.1,0-0.1,0c-0.1,0-0.1,0.1-0.2,0.1c-0.1,0-0.2,0.1-0.2,0.1l0,0.2l-7.1-4.1H38v6.7h175l-2.3-1.3
	l0.1-1.1l0.2,0.1c0,0,0,0,0,0l0.2,0.1l0,0l3,1.7v0l0.1,0L245.3,866.3z M303.3,849h-47.4v35.7h8.2v-15.4h39.2V863h-39.2v-8h39.2V849z
	 M304.9,834.7c6.6-1.8,12.4-4.5,17.2-8c4.9-3.5,8.7-8,11.5-13.4c2.8-5.3,4.2-11.6,4.2-18.7c0-5.2-0.8-9.6-2.3-13.2
	c-1.5-3.6-3.6-6.8-6.1-9.5c-2.6-2.7-5.5-5.1-9-7.1c-3.4-2-7.1-3.9-10.9-5.9c-3.1-1.5-6-3-8.6-4.5c-2.7-1.4-4.9-3-6.7-4.7
	c-1.8-1.8-3.2-3.7-4.2-6c-1-2.3-1.5-5.1-1.5-8.5c0-3.9,0.8-7.2,2.3-10c1.5-2.8,3.6-5,6.2-6.9c2.6-1.8,5.6-3.1,9.2-3.9
	c3.6-0.8,7.4-1.2,11.5-1.2c6.6,0,12.3,0.8,17.2,2.3c4.9,1.5,8.4,3.1,10.6,5l8.8-14.7c-1-0.8-2.6-1.7-4.8-2.6s-4.7-1.9-7.7-2.8
	c-2.8-0.9-6.1-1.7-9.6-2.3c-3.4-0.6-7.2-0.9-11-0.9c-8.2,0-15.5,0.9-22,2.9s-11.8,4.7-16.2,8.2c-4.4,3.6-7.7,7.8-10,12.7
	c-2.3,4.9-3.4,10.2-3.4,16.1c0,5,0.8,9.3,2.3,13c1.5,3.6,3.4,6.8,5.8,9.4c2.4,2.7,5.1,4.9,8.2,6.7c3,1.8,6,3.5,9,5
	c3.4,1.8,6.6,3.5,9.6,5.1c2.9,1.6,5.5,3.4,7.6,5.3c2.1,1.9,3.8,4,5,6.4c1.2,2.3,1.8,5.2,1.8,8.4c0,4.7-0.9,8.6-2.9,11.8
	c-2,3.2-4.5,5.7-7.6,7.7c-3.1,1.9-6.6,3.4-10.6,4.2c-3.9,0.8-7.9,1.2-11.9,1.2c-8.2,0-14.9-1-20.4-3.4c-5.3-2.1-9.1-4-11.6-5.7
	l-8.7,15.3c1.2,0.9,2.8,1.9,5,3c2.2,1.1,4.9,2.2,8,3.2c3.1,1,6.8,1.9,11,2.6c4.2,0.7,8.9,1.1,14.1,1.1
	C291,837.4,298.2,836.5,304.9,834.7z M367.4,863.1l-0.1-8.3c-0.1-3.2-2.8-5.8-6-5.8H320v35.7h8.3v-15.4h32.9
	C364.7,869.3,367.4,866.5,367.4,863.1z M410.7,716l-28.5,118.6h18.8L429.5,716h40.6l3.6-15.7h-99.9l-3.6,15.7H410.7z M392.2,877.9
	V855h39.1c0-3.4-2.7-6.1-6.1-6.1h-35.4c-3.2,0-5.8,2.6-6,5.8v23.2c0,3.7,3,6.7,6.7,6.7h34c3.7,0,6.7-3,6.7-6.7v-8.7
	c0.1-3.4-2.6-6.2-6.1-6.2h-26.9v6.2H423v8.7H392.2z M487.2,869.3v15.4h8.3V855c-0.1-3.4-2.8-6.1-6.1-6.1h-35.4
	c-3.4,0-6.1,2.7-6.1,6.1v29.6h8.3v-15.4H487.2z M723.8,699.2h-51.1c-6.9,9.8-14.6,20.1-23,31.2c-8.3,11-17,22-26,32.7l-24.8-63.9
	h-51.4l42.2,94.4l-94.2,112.7h53.2l60.1-73.2c2.6,5.5,5,10.9,7.2,16c2.2,5,4.3,10.4,6.4,16.1c2.1,5.7,4.3,11.8,6.6,18.4
	s4.8,14.2,7.6,22.7v-0.1h49.9c-3.4-10.4-6.6-20-9.9-29s-6.5-17.7-9.9-26.1c-3.4-8.5-6.9-16.9-10.6-25.3c-3.7-8.3-7.7-17.2-11.8-26.6
	c6.6-7.4,13.3-15.2,20.3-23.4c7-8.2,13.9-16.7,20.8-25.4c6.9-8.7,13.5-17.3,20-26C711.9,715.8,718,707.4,723.8,699.2z M242.5,866.2
	L216,881.5h-3.6l-26.5-15.3l28.3-16.3L242.5,866.2z M236.8,863.9l-20-11.5c-1.5-0.9-3.5-0.9-5,0l-20.2,11.7c-1.2,0.7-1.2,2.6,0,3.3
	l20.1,11.6c1.7,0.9,3.7,0.9,5.4,0l6.3-3.6c0.5-0.3,0.5-1.1,0-1.4c-0.6-0.4-0.6-1.2,0-1.5l2.6-1.5c0.7-0.4,1.7-0.4,2.4,0
	c0.8,0.5,1.9,0.5,2.7,0l5.8-3.4C238.2,866.7,238.2,864.7,236.8,863.9z M214.4,854.3c-0.5,0-1,0.1-1.4,0.4l-16.9,9.8l0,0l0,0
	c0,0,0,0,0,0l0,0l0.1,0l16.8,9.7c0.5,0.3,1,0.4,1.5,0.4c0.5,0,1.1-0.1,1.5-0.4l15.1-8.7l1.5-0.8c0.1,0,0.1-0.1,0.1-0.2
	s0-0.2-0.1-0.2l-16.7-9.6C215.4,854.4,214.9,854.3,214.4,854.3 M214.4,852.8c0.7,0,1.5,0.2,2.1,0.5l16.7,9.6c1.2,0.7,1.2,2.3,0,3
	l-1.5,0.8l-15.1,8.7c-0.7,0.4-1.5,0.6-2.3,0.6c-0.8,0-1.6-0.2-2.3-0.6l-16.8-9.7c-1.1-0.5-1.1-2,0-2.6l16.9-9.8
	C212.9,853,213.6,852.8,214.4,852.8L214.4,852.8z"/>
</svg>
