<?xml version="1.0" encoding="utf-8"?>
<!-- Generator: Adobe Illustrator 27.4.1, SVG Export Plug-In . SVG Version: 6.00 Build 0)  -->
<svg version="1.1" id="Layer_1" xmlns="http://www.w3.org/2000/svg" xmlns:xlink="http://www.w3.org/1999/xlink" x="0px" y="0px"
	 viewBox="0 0 1000 1000" style="enable-background:new 0 0 1000 1000;" xml:space="preserve">
<style type="text/css">
	.st0{fill:#081E2E;}
	.st1{fill:#989E9E;}
	.st2{fill:#F1EFEF;}
	.st3{fill:#2BACE2;}
</style>
<g>
	<path class="st0" d="M903.8,713.1v-53.4c0-18.2,11.6-33.9,28.8-39.9c39.2-13.9,67.4-51.4,67.4-95.4s-28.1-81.5-67.4-95.4
		c-17-6-28.8-21.9-28.8-39.9V279.6c0-101.2-82-183.3-183.3-183.3h-441c-101.2,0-183.3,82-183.3,183.3V389
		c0,18.2-11.6,33.9-28.8,39.9C28.2,442.9,0,480.4,0,524.3s28.1,81.5,67.4,95.4c17,6,28.8,21.9,28.8,39.9v53.4
		c0,16.5-10.5,31.2-26.1,36.5c-31.2,10.9-53.7,40.8-53.3,75.9c0.6,43.5,36.8,78.2,80.3,78.2h281.6c20.9,0,39.9-12.2,48.3-31.4
		c12.2-28.1,40.1-47.8,72.7-47.8s60.6,19.8,72.7,47.8c8.3,19.2,27.3,31.4,48.3,31.4h281.6c43.5,0,79.8-34.7,80.3-78.2
		c0.4-35.1-21.9-65-53.3-75.9C914.2,744.3,903.8,729.5,903.8,713.1z"/>
	<path class="st0" d="M971.1,367.3c-6.9-13.6-19.2-29.2-41.1-36.9c4.9-1.6,9.9-3.7,14.7-6.6c30.1-17.5,36.5-48.3,36.5-71v-11.2h-11
		c-0.9,0-20.8,0.1-40.8,10.2c-19.2,9.6-42,29.9-42,72.6v10.5h0.1v1.1c-0.1,1.4-1.6,35.8,21.5,60.1c14.6,15.3,35.1,23.1,61.1,23.1h11
		v-11C981.2,407.2,981.1,387.3,971.1,367.3z"/>
	<path class="st1" d="M837.1,252.6h-674c-28.5,0-51.7,34.8-51.7,77.7l0,0c0,18.6,4.3,42.5,11.6,63.4c10.6,30.6,41,50,73.3,46.7
		l267.9-26.9c27.9-2.9,56-2.7,83.8,0.1l255.6,26.6c32.4,3.3,62.9-15.9,73.5-46.7c7.3-21,11.6-44.8,11.6-63.4l0,0
		C888.7,287.4,865.5,252.6,837.1,252.6z"/>
	<g>
		<circle class="st2" cx="387.3" cy="387" r="107.8"/>
		<path class="st0" d="M387.3,279.4c59.6,0,107.8,48.3,107.8,107.8S446.9,495,387.3,495s-107.8-48.3-107.8-107.8
			C279.5,327.6,327.7,279.4,387.3,279.4 M387.3,262.2c-68.9,0-124.9,56-124.9,124.9s56,124.9,124.9,124.9s124.9-56,124.9-124.9
			C512.2,318.3,456.2,262.2,387.3,262.2L387.3,262.2z"/>
		<g>
			<g>
				<circle class="st0" cx="416" cy="402.9" r="75"/>
				<path class="st3" d="M416,331.9c39.1,0,70.9,31.8,70.9,70.9S455,473.7,416,473.7s-70.9-31.8-70.9-70.9
					C345.1,363.7,376.9,331.9,416,331.9 M416,323.7c-43.7,0-79,35.4-79,79s35.4,79,79,79s79-35.4,79-79
					C495,359.2,459.6,323.7,416,323.7L416,323.7z"/>
			</g>
			<circle class="st2" cx="406.6" cy="382.6" r="24.3"/>
		</g>
		<circle class="st2" cx="621" cy="387" r="107.8"/>
		<path class="st0" d="M621,279.4c59.6,0,107.8,48.3,107.8,107.8S680.6,495,621,495c-59.6,0-107.8-48.3-107.8-107.8
			C513.3,327.6,561.6,279.4,621,279.4 M621,262.2c-68.9,0-124.9,56-124.9,124.9s56,124.9,124.9,124.9s124.9-56,124.9-124.9
			C745.8,318.3,689.9,262.2,621,262.2L621,262.2z"/>
		<g>
			<g>
				<circle class="st0" cx="592.4" cy="402.9" r="75"/>
				<path class="st3" d="M592.4,331.9c39.1,0,70.9,31.8,70.9,70.9s-31.8,70.9-70.9,70.9c-39.1,0-70.9-31.8-70.9-70.9
					C521.5,363.7,553.3,331.9,592.4,331.9 M592.4,323.7c-43.7,0-79,35.4-79,79s35.4,79,79,79s79-35.4,79-79
					C671.4,359.2,636,323.7,592.4,323.7L592.4,323.7z"/>
			</g>
			<circle class="st2" cx="601.7" cy="382.6" r="24.3"/>
		</g>
	</g>
</g>
</svg>
