<svg enable-background="new 0 0 1008 246.2" viewBox="0 0 1008 246.2" xmlns="http://www.w3.org/2000/svg"><path d="m1000.7 12.1h-24.1-49-7.3c-.4 0-.8.2-1 .5l-4.2 5.9c-6.6 9.2-13.9 19.2-21.9 29.6-2.2 2.9-4.4 5.8-6.6 8.6-.6.8-1.8.6-2.1-.3l-13.4-34.6-3.5-9c-.2-.5-.7-.8-1.2-.8h-9.7-49.3-19.2c-2.1 0-3.5 2.1-2.6 4l7.9 17.6 5.9 13.1c.5 1.1-.7 2.1-1.6 1.6-1.8-1-3.6-1.7-5.7-2.5-5.3-1.9-11.4-2.9-18.2-2.9-9.3 0-17.9 1.6-25.8 4.9l.2-1 3.5-15.1 3.5-15.4c.4-1.8-1-3.5-2.8-3.5h-15.7-95.7-9.9c-1.3 0-2.5 1-2.8 2.2l-.5 2.1c-.2.8-1.1 1.2-1.7.9-.8-.4-1.6-.8-2.5-1.2-2.6-1.2-5.7-2.3-9-3.4-3.5-1.1-7.3-1.9-11.2-2.6-4.1-.7-8.5-1.1-13.1-1.1-9.4 0-18 1.2-25.5 3.5-8.1 2.4-15 6-20.7 10.6-.4.3-.7.6-1 .9-.9-4.3-3-9.2-7.5-13.3-4.8-4.1-10.9-6.4-17.6-6.4-7 0-13.4 2.6-18.8 7.5-3.9 3.6-8.6 10.2-8.6 20.6 0 2.8-3.9 5.5-3.1-3.3l1.3-13.7c.2-1.7-1.2-3.2-2.9-3.2h-13.8-17.2-6.2c-.9 0-1.7.4-2.3 1.2l-3.7 5c-4.2 5.6-8.9 12.2-14.2 19.7-5.2 7.4-10.6 15.3-16 23.5-2.7 4-5.5 8.1-8.2 12.1-.6.9-2 .6-2.2-.5-.4-2-.8-4-1.2-6-1.7-8.2-3.4-16.1-5.1-23.6-1.7-7.7-3.4-14.4-4.9-20.1l-2.5-9.2c-.4-1.2-1.4-2.1-2.8-2.1h-9.5-17.9-8.8c-1.2 0-2.3.8-2.7 1.9l-2.9 8.3c-3.3 9.3-6.6 19.4-10.1 29.8-3.4 10.4-6.8 21.2-10.3 32.3-3.5 11-6.8 22.4-10.2 33.8-3.3 11.4-6.5 22.8-9.5 34.1-.4 1.2-.5 2.6-.5 3.9v16.6 3 1.2 5.4 1.1 5.9 1.7 6.6 6.4.6 11.9c0 1.6 1.2 2.9 2.9 2.9h12.5 416.8 4.1c1.1 0 1.6 1.2 1 2l-11.7 14.1c-1.5 1.9-.2 4.7 2.2 4.7h26.7 51 6.7c.4 0 .7-.2 1-.5l4.2-5.2 40.4-49.2c.6-.8 1.7-.6 2.1.3.7 1.6 1.2 3.4 1.9 5.1 1.9 5.3 4 11.1 6.2 17.4 2.1 6 4.5 13.3 7.2 21.5l3.2 9.8c.2.5.7.9 1.2.9h10.3 47.8 17.2c1.9 0 3.4-1.9 2.8-3.7l-5.4-16.3c-3.3-10-6.5-19.5-9.6-28.2s-6.3-17.4-9.7-25.6c-3.4-8.3-6.8-16.6-10.4-24.8-2.3-5.2-4.6-10.5-7-15.8-.2-.5-.1-1 .2-1.3 4.1-4.7 8.3-9.7 12.7-14.8 6.7-8 13.5-16.2 20.2-24.8 6.6-8.3 13.1-16.9 19.5-25.3 6.3-8.4 12.3-16.7 17.8-24.6l13.9-19.7c1.2-1.6-.2-4.2-2.5-4.2z" fill="#001c2f"/><path d="m317.6 198.9h169v6.4h-169z" fill="#296483"/><path d="m572.2 176.9v-5.8h-45.5v34.2h7.9v-14.8h37.6v-5.9h-37.6v-7.7z" fill="#00aeef"/><path d="m633.7 176.6c-.2-3.1-2.7-5.5-5.8-5.5h-39.7v34.3h8v-14.8h31.6c3.3 0 5.9-2.7 5.9-5.9zm-8 8h-29.5v-7.7h29.5z" fill="#00aeef"/><path d="m689.1 184.6h-25.8v5.9h23.8v8.3h-29.5v-22h37.6c0-3.2-2.6-5.8-5.8-5.8h-34c-3.1 0-5.6 2.4-5.8 5.5v22.3c0 3.5 2.9 6.4 6.4 6.4h32.6c3.5 0 6.4-2.9 6.4-6.4v-8.3c.2-3.2-2.5-5.9-5.9-5.9z" fill="#00aeef"/><path d="m317.6 184.6h148.1v5.9h-148.1z" fill="#296483"/><path d="m317.6 171.1h169v5.8h-169z" fill="#296483"/><path d="m750.8 171.1h-34c-3.2 0-5.8 2.6-5.8 5.8v28.4h8v-14.8h29.5v14.8h8v-28.4c.1-3.2-2.5-5.8-5.7-5.8zm-31.8 13.5v-7.7h29.5v7.7z" fill="#00aeef"/><g fill="#e9eae9"><path d="m451.4 56.2c-2 2.7-4.5 6.2-7.5 10.6s-6.2 9.1-9.7 14.3-7.1 10.6-10.7 16.3c-3.7 5.7-7.3 11.1-10.7 16.4-3.5 5.3-6.7 10.2-9.7 14.7s-5.4 8.3-7.3 11h-14.5c-.5-3-1.2-6.7-1.9-11.2-.8-4.5-1.7-9.4-2.7-14.7s-2-10.7-3.1-16.4-2.1-11-3.2-16.3c-1.1-5.2-2-10-2.9-14.2-.9-4.3-1.6-7.8-2.2-10.6-5.2 16-10.3 32.5-15.3 49.5s-9.8 34.3-14.5 51.7h-17.9c3-11.1 6.1-22.5 9.4-33.8s6.6-22.5 10.1-33.5c3.5-10.9 6.8-21.7 10.3-32 3.5-10.5 6.7-20.2 10-29.5h17.6c1.5 5.5 3.1 11.9 4.7 19.4s3.4 15.3 5 23.3c1.6 8.2 3.3 16.2 4.6 24.3 1.4 8.1 2.6 15.4 3.6 22 4.5-6.7 9.4-14.1 14.8-22.2s10.8-16.1 16.3-24.3 10.7-15.8 15.9-23.2 9.8-13.8 13.8-19.3h17.3c-2.1 20.9-4.9 42.2-8.4 63.9s-7.4 43.3-11.6 65h-18c3.7-17.8 7.1-35.2 10.3-52 3-16.8 5.7-33.2 8.1-49.2z"/><path d="m494.7 157.4h-17.3l23.2-96.7h17.3zm20.1-114.2c-2.9 0-5.3-.9-7.2-2.6s-2.9-4.1-2.9-7.3c0-3.9 1.2-7.1 3.7-9.4s5.3-3.5 8.3-3.5c2.9 0 5.3.9 7.3 2.7s3 4.3 3 7.6c0 3.7-1.3 6.7-3.9 9s-5.3 3.5-8.3 3.5z"/><path d="m555.3 144.5c3.8 0 7.7-.4 11.4-1.2s7.2-2.1 10.2-4c3-1.8 5.4-4.3 7.3-7.4 1.8-3.1 2.8-6.8 2.8-11.2 0-3.1-.6-5.8-1.7-8.1s-2.8-4.3-4.8-6.1-4.5-3.5-7.3-5-5.9-3.2-9.2-4.9c-2.9-1.5-5.8-3.1-8.6-4.8-2.9-1.7-5.6-3.8-7.8-6.4-2.3-2.5-4.1-5.6-5.6-9-1.4-3.5-2.1-7.6-2.1-12.5 0-5.6 1.1-10.7 3.3-15.4s5.4-8.7 9.6-12.2 9.4-6 15.5-7.9c6.1-1.8 13.1-2.8 21.1-2.8 3.7 0 7.3.3 10.6.9s6.4 1.2 9.2 2.1 5.3 1.7 7.4 2.7 3.6 1.7 4.6 2.5l-8.3 14.1c-2.1-1.7-5.5-3.4-10.2-4.7-4.6-1.4-10.2-2.1-16.5-2.1-3.9 0-7.7.4-11 1.2-3.5.8-6.3 2.1-8.8 3.8s-4.5 3.9-5.9 6.6c-1.5 2.7-2.2 5.9-2.2 9.6 0 3.3.5 5.9 1.5 8.1s2.4 4.1 4.1 5.8c1.7 1.6 3.8 3.2 6.4 4.5 2.5 1.3 5.3 2.8 8.3 4.3 3.7 1.8 7.2 3.7 10.6 5.7 3.3 1.9 6.1 4.2 8.6 6.8s4.4 5.7 5.9 9.1 2.1 7.7 2.1 12.7c0 6.8-1.3 12.8-4 17.9-2.7 5.2-6.3 9.4-10.9 12.9s-10.2 5.9-16.6 7.7c-6.4 1.7-13.3 2.6-20.7 2.6-5 0-9.5-.4-13.5-1.1s-7.6-1.5-10.6-2.5c-3.1-1-5.6-2-7.7-3.1s-3.7-2-4.8-2.9l8.3-14.7c2.4 1.6 6 3.5 11.1 5.5 4.7 1.9 11.1 2.9 18.9 2.9z"/><path d="m735.7 28.5-3.5 15.1h-38.9l-27.3 113.8h-18l27.3-113.8h-38.9l3.5-15.1z"/><path d="m753.4 159.7c-6.3 0-11.8-.9-16.4-2.7s-8.4-4.3-11.5-7.5-5.4-6.8-6.9-11-2.2-8.6-2.2-13.4c0-8.6 1.3-17.1 3.9-25.1 2.6-8.1 6.3-15.2 11.1-21.4s10.7-11.1 17.7-14.8c6.9-3.6 14.8-5.5 23.6-5.5 5.1 0 9.5.7 13.1 1.9 3.6 1.3 6.6 3.1 8.9 5.3s4 4.8 5.1 7.7c1.2 2.9 1.6 5.9 1.6 9 0 5.9-1.1 10.7-3.2 14.8-2.1 4-4.9 7.4-8.3 10.2-3.5 2.7-7.6 4.8-12.2 6.3s-9.5 2.7-14.5 3.5c-5 .9-10.1 1.4-15.3 1.7s-10 .6-14.6.9c-.1 1-.2 1.8-.2 2.4v1.5c0 2.9.4 5.6 1.1 8.1.7 2.6 1.9 4.8 3.8 6.7 1.8 1.9 4.4 3.5 7.7 4.5 3.3 1.2 7.6 1.6 13 1.6 2.4 0 4.8-.2 7.4-.7 2.5-.5 5-1 7.3-1.6s4.3-1.3 6.1-2 3.1-1.3 3.8-1.9l1.5 14.7c-2.5 1.3-6.5 2.8-12 4.4-5.5 1.7-12 2.4-19.4 2.4zm-17.7-53.1c7.2-.3 13.7-.7 19.7-1.4 5.9-.7 11.1-1.8 15.4-3.5 4.3-1.6 7.7-3.9 10.2-6.8 2.4-2.9 3.6-6.5 3.6-11.1 0-1.2-.2-2.3-.7-3.5s-1.2-2.4-2.2-3.5c-1.1-1.1-2.5-1.9-4.4-2.6-1.8-.7-4.1-1.1-6.9-1.1-4.3 0-8.4 1-12.2 2.8-3.7 1.8-7.2 4.3-10.2 7.4s-5.6 6.6-7.6 10.6-3.6 8.2-4.7 12.7z"/><path d="m891.9 226.1c-2.7-8.3-5.1-15.4-7.3-21.8-2.2-6.3-4.3-12.2-6.3-17.7s-4-10.6-6.1-15.4c-2.1-4.9-4.4-10-6.9-15.4l-57.7 70.2h-51l90.3-108-40.4-90.7h49.3l23.8 61.4c8.6-10.4 16.9-20.8 24.9-31.4 8.1-10.6 15.4-20.6 22.1-29.9h49c-5.6 7.9-11.4 15.9-17.7 24.3s-12.7 16.6-19.2 24.9c-6.6 8.3-13.2 16.4-20 24.4-6.7 8-13.1 15.4-19.5 22.5 4 9 7.8 17.5 11.3 25.5 3.5 8.1 6.9 16.1 10.2 24.3s6.4 16.5 9.5 25.1 6.2 17.8 9.5 27.8h-48v-.1z"/></g><path d="m456.8 187.7v1.1l24.2 14v-1.1z" fill="#296483"/><path d="m483.9 202.3c-.1 0-.1 0 0 0 0-.1 0-.1 0-.2s0-.1-.1-.1l-.1-.1-.1-.1c-.1 0-.2-.1-.3-.1h-.1-.1s0 0-.1 0h-.1-.1-.1s0 0-.1 0c-.1 0-.1 0-.2 0 0 0 0 0-.1 0s0 0-.1 0-.1 0-.2 0c0 0 0 0-.1 0s0 0-.1 0-.1 0-.2 0h-.1c-.1 0-.1 0-.2.1-.1 0-.2.1-.3.1v1.1c.1 0 .2-.1.3-.1.1 0 .2-.1.3-.1h.3.3.3.1s.1 0 .2 0h.1c.1 0 .1 0 .2.1h.1c.1 0 .2.1.3.1l.1.1c.1 0 .1.6.1.6s0 0 .1.1v.1.1.1z" fill="#296483"/><path d="m486.7 204.9v1.1l29.8-17.3v-1.1z" fill="#296483"/><path d="m483.3 203v1.1l3.4 1.8v-1.1z" fill="#296483"/><path d="m456.8 187.7 24.2 14c.7-.4 1.7-.4 2.4 0s.7 1 0 1.3l3.3 1.9 29.8-17.3-3.3-1.9c-.7.4-1.7.4-2.4 0s-.7-1 0-1.3l-24.2-14z" fill="#3689af"/><path d="m488.4 202.3 25.4-14.7-27.2-15.7-27.2 15.7 25.4 14.7z" fill="#296483"/><path d="m508.4 185.5-19.2-11c-1.5-.9-3.4-.9-4.8 0l-19.4 11.2c-1.2.7-1.2 2.4 0 3.2l19.2 11.1c1.6 1 3.5 1 5.2 0l6-3.5c.5-.3.5-1.1 0-1.3-.6-.3-.6-1.2 0-1.5l2.5-1.4c.7-.4 1.6-.4 2.3 0 .8.5 1.8.5 2.6 0l5.6-3.2c1.2-1 1.2-2.9-0-3.6" fill="#bbbab8"/><path d="m468.5 184.7 16.2-9.4c1.2-.8 2.8-.8 4 0l16 9.2c1.1.7 1.1 2.2 0 2.9l-1.3.8-14.5 8.3c-1.3.8-3 .8-4.3 0l-16.1-9.3c-.9-.5-.9-1.9 0-2.5" fill="#e9eae9"/><path d="m259.6 186.6v-15.1c0-5.2 3.3-9.6 8.2-11.3 11.1-3.9 19.1-14.6 19.1-27s-7.9-23.1-19.1-27c-4.8-1.7-8.2-6.2-8.2-11.3v-31c0-28.7-23.2-51.9-51.9-51.9h-124.9c-28.7 0-51.9 23.2-51.9 51.9v31c0 5.2-3.3 9.6-8.2 11.3-11.1 3.9-19.1 14.6-19.1 27s7.9 23.1 19.1 27c4.8 1.7 8.2 6.2 8.2 11.3v15.1c0 4.7-3 8.8-7.4 10.3-8.8 3.1-15.2 11.6-15.1 21.5.2 12.3 10.4 22.1 22.8 22.1h79.8c5.9 0 11.3-3.4 13.7-8.9 3.4-7.9 11.4-13.5 20.6-13.5s17.2 5.6 20.6 13.5c2.4 5.4 7.7 8.9 13.7 8.9h79.8c12.3 0 22.6-9.8 22.8-22.1.1-9.9-6.2-18.4-15.1-21.5-4.5-1.5-7.5-5.7-7.5-10.3z" fill="#001c2f"/><path d="m278.7 88.7c-1.9-3.9-5.4-8.3-11.6-10.5 1.4-.4 2.8-1.1 4.2-1.9 8.5-4.9 10.3-13.7 10.3-20.1v-3.2h-3.1c-.2 0-5.9 0-11.6 2.9-5.4 2.7-11.9 8.5-11.9 20.6v3 .3c0 .4-.4 10.1 6.1 17 4.1 4.3 9.9 6.5 17.3 6.5h3.1v-3.1c0-.2 0-5.9-2.8-11.5z" fill="#001c2f"/><path d="m240.7 56.2h-190.9c-8.1 0-14.6 9.9-14.6 22 0 5.3 1.2 12 3.3 18 3 8.7 11.6 14.2 20.8 13.2l75.9-7.6c7.9-.8 15.9-.8 23.7 0l72.4 7.5c9.2.9 17.8-4.5 20.8-13.2 2.1-6 3.3-12.7 3.3-18-.1-12.1-6.6-21.9-14.7-21.9z" fill="#989e9e"/><ellipse cx="113.3" cy="94.2" fill="#f0efef" rx="30.5" ry="30.5" transform="matrix(.08248058 -.9966 .9966 .08248058 10.06 199.4212)"/><path d="m113.3 63.8c16.9 0 30.5 13.7 30.5 30.5s-13.7 30.5-30.5 30.5-30.5-13.7-30.5-30.5c-0-16.9 13.7-30.5 30.5-30.5m0-4.9c-19.5 0-35.3 15.8-35.3 35.3s15.9 35.4 35.4 35.4 35.4-15.9 35.4-35.4c-.1-19.4-16-35.3-35.5-35.3z" fill="#001c2f"/><circle cx="121.4" cy="98.7" fill="#001c2f" r="21.2"/><path d="m121.4 78.6c11.1 0 20.1 9 20.1 20.1s-9 20.1-20.1 20.1-20.1-9-20.1-20.1c.1-11.1 9.1-20.1 20.1-20.1m0-2.3c-12.4 0-22.4 10-22.4 22.4s10 22.4 22.4 22.4 22.4-10 22.4-22.4c0-12.3-10-22.4-22.4-22.4z" fill="#00aeef"/><circle cx="118.8" cy="93" fill="#f0efef" r="6.9"/><circle cx="179.5" cy="94.2" fill="#f0efef" r="30.5"/><path d="m179.5 63.8c16.9 0 30.5 13.7 30.5 30.5s-13.7 30.5-30.5 30.5-30.5-13.6-30.5-30.5 13.7-30.5 30.5-30.5m0-4.9c-19.5 0-35.4 15.9-35.4 35.4s15.9 35.4 35.4 35.4 35.4-15.9 35.4-35.4-15.9-35.4-35.4-35.4z" fill="#001c2f"/><circle cx="171.4" cy="98.7" fill="#001c2f" r="21.2"/><path d="m171.4 78.6c11.1 0 20.1 9 20.1 20.1s-9 20.1-20.1 20.1-20.1-9-20.1-20.1 9-20.1 20.1-20.1m0-2.3c-12.4 0-22.4 10-22.4 22.4s10 22.4 22.4 22.4 22.4-10 22.4-22.4c0-12.3-10-22.4-22.4-22.4z" fill="#00aeef"/><circle cx="174" cy="93" fill="#f0efef" r="6.9"/></svg>