<?xml version="1.0" encoding="utf-8"?>
<!-- Generator: Adobe Illustrator 27.4.1, SVG Export Plug-In . SVG Version: 6.00 Build 0)  -->
<svg version="1.1" id="Layer_1" xmlns="http://www.w3.org/2000/svg" xmlns:xlink="http://www.w3.org/1999/xlink" x="0px" y="0px"
	 viewBox="0 0 1008 246.2" style="enable-background:new 0 0 1008 246.2;" xml:space="preserve">
<style type="text/css">
	.st0{fill:#001C2F;}
	.st1{fill:#296483;}
	.st2{fill:#00AEEF;}
	.st3{fill:#E9EAE9;}
	.st4{fill:#3689AF;}
	.st5{fill:#BBBAB8;}
	.st6{fill:#989E9E;}
	.st7{fill:#F0EFEF;}
</style>
<path class="st0" d="M725.1,8.3h-24.9h-50.7H642c-0.4,0-0.8,0.2-1,0.5l-4.4,6.2c-6.8,9.5-14.4,19.8-22.6,30.7c-2.3,3-4.6,6-6.8,8.9
	c-0.6,0.8-1.9,0.6-2.2-0.3l-13.9-35.8l-3.6-9.3c-0.2-0.5-0.7-0.8-1.2-0.8h-10h-51h-19.8c-2.2,0-3.6,2.2-2.7,4.2l8.1,18.2l6.1,13.6
	c0.5,1.1-0.7,2.2-1.7,1.7c-1.9-1-3.8-1.8-5.9-2.6c-5.5-2-11.8-3-18.8-3c-9.6,0-18.6,1.7-26.7,5.1l0.2-1l3.7-15.6l3.7-15.9
	c0.4-1.9-1-3.7-2.9-3.7h-16.3h-99h-10.2c-1.4,0-2.6,1-2.9,2.3l-0.5,2.2c-0.2,0.8-1.1,1.2-1.8,0.9c-0.8-0.4-1.7-0.8-2.6-1.2
	c-2.7-1.2-5.9-2.4-9.3-3.5c-3.6-1.1-7.5-2-11.6-2.7c-4.3-0.7-8.8-1.1-13.6-1.1c-9.7,0-18.7,1.2-26.4,3.6c-8.3,2.5-15.5,6.2-21.4,11
	c-0.4,0.3-0.7,0.6-1,0.9c-0.9-4.5-3.1-9.5-7.7-13.8C239.3,3.4,233,1,226.1,1c-7.2,0-13.9,2.7-19.4,7.7c-4.1,3.8-8.9,10.5-8.9,21.3
	c0,2.9-4.1,5.7-3.2-3.4l1.4-14.2c0.2-1.8-1.2-3.3-3-3.3h-14.3h-17.9h-6.4c-0.9,0-1.8,0.4-2.4,1.2l-3.9,5.2
	c-4.4,5.8-9.2,12.6-14.7,20.3c-5.4,7.6-10.9,15.8-16.6,24.3c-2.8,4.2-5.7,8.3-8.4,12.5c-0.6,0.9-2.1,0.6-2.3-0.5
	c-0.4-2.1-0.8-4.2-1.3-6.2c-1.8-8.4-3.5-16.7-5.3-24.4c-1.8-7.9-3.5-14.9-5.1-20.7L92,11.3c-0.4-1.3-1.5-2.2-2.9-2.2h-9.8H60.8h-9.1
	c-1.3,0-2.4,0.8-2.8,2l-3,8.6c-3.4,9.6-6.8,20-10.4,30.9C32,61.3,28.4,72.5,24.8,84c-3.6,11.4-7,23.1-10.5,34.9
	c-3.4,11.8-6.7,23.6-9.8,35.2l0,0c-0.4,1.3-0.5,2.7-0.5,4.1v17.2v3.1v1.3v5.6v1.1v6.2v1.8v6.8v6.6v0.6v12.3c0,1.7,1.3,3,3,3h12.9
	h430.9h4.3c1.1,0,1.7,1.3,1,2.1L444,240.4c-1.6,2-0.2,4.9,2.3,4.9h27.6h52.8h6.9c0.4,0,0.7-0.2,1-0.5l4.4-5.4l41.8-50.9
	c0.6-0.8,1.8-0.6,2.2,0.3c0.7,1.7,1.3,3.5,2,5.3c2,5.5,4.2,11.5,6.4,18c2.2,6.2,4.7,13.8,7.4,22.2l3.3,10.1c0.2,0.5,0.7,0.9,1.2,0.9
	h10.6h49.5h17.8c2,0,3.5-2,2.9-3.9l-5.6-16.9c-3.4-10.3-6.7-20.1-9.9-29.2c-3.2-9-6.5-18-10-26.5c-3.5-8.5-7-17.2-10.7-25.6
	c-2.4-5.4-4.8-10.8-7.2-16.4c-0.2-0.5-0.1-1,0.2-1.4c4.3-4.9,8.6-10,13.1-15.3c6.9-8.2,14-16.8,20.9-25.6
	c6.8-8.6,13.6-17.5,20.1-26.2c6.5-8.7,12.7-17.3,18.5-25.4l14.4-20.3C728.9,11,727.5,8.3,725.1,8.3z"/>
<g>
	<rect x="18.8" y="201.5" class="st1" width="174.8" height="6.6"/>
	<g>
		<polygon class="st2" points="282,178.8 282,172.7 235,172.7 235,208.1 243.2,208.1 243.2,192.8 282,192.8 282,186.7 243.2,186.7 
			243.2,178.8 		"/>
	</g>
	<g>
		<path class="st2" d="M345.6,178.5c-0.2-3.2-2.8-5.7-6-5.7h-41.1v35.4h8.2v-15.3h32.6c3.4,0,6.2-2.8,6.2-6.2V178.5L345.6,178.5z
			 M337.3,186.7h-30.6v-7.9h30.6V186.7z"/>
	</g>
	<g>
		<path class="st2" d="M402.9,186.7h-26.7v6.2h24.6v8.6h-30.6v-22.7h38.9c0-3.3-2.7-6-6-6h-35.1c-3.2,0-5.8,2.5-6,5.7l0,0v23
			c0,3.7,3,6.6,6.6,6.6h33.7c3.7,0,6.6-3,6.6-6.6v-8.6l0,0C409.2,189.5,406.4,186.7,402.9,186.7z"/>
	</g>
	<rect x="18.8" y="186.7" class="st1" width="153.2" height="6.2"/>
	<rect x="18.8" y="172.7" class="st1" width="174.8" height="6"/>
	<g>
		<path class="st2" d="M466.7,172.7h-35.1c-3.3,0-6,2.7-6,6V208h8.2v-15.3h30.6V208h8.2v-29.4C472.7,175.4,470,172.7,466.7,172.7z
			 M433.9,186.7v-7.9h30.6v7.9H433.9z"/>
	</g>
	<path class="st3" d="M157.1,54c-2.1,2.8-4.7,6.4-7.7,10.9c-3.1,4.5-6.4,9.4-10,14.8c-3.6,5.4-7.3,11-11.1,16.9
		c-3.9,5.9-7.5,11.5-11.1,17c-3.6,5.5-6.9,10.5-10,15.2c-3.1,4.7-5.6,8.5-7.5,11.4h-15c-0.5-3.1-1.2-6.9-2-11.6
		c-0.8-4.7-1.8-9.7-2.8-15.2c-1-5.5-2.1-11.1-3.2-17c-1.1-5.9-2.2-11.4-3.3-16.9c-1.1-5.4-2.1-10.3-3-14.7c-0.9-4.5-1.7-8-2.3-10.9
		C62.7,70.4,57.5,87.5,52.3,105c-5.2,17.6-10.1,35.4-15,53.5H18.8c3.1-11.5,6.3-23.2,9.7-34.9s6.8-23.3,10.4-34.6
		c3.6-11.3,7-22.4,10.6-33.1c3.6-10.8,6.9-20.9,10.3-30.6h18.3c1.6,5.7,3.2,12.3,4.9,20s3.5,15.8,5.2,24.1
		c1.7,8.4,3.4,16.8,4.8,25.1c1.5,8.3,2.7,15.9,3.8,22.7c4.7-6.9,9.7-14.6,15.3-22.9c5.6-8.3,11.2-16.7,16.9-25.1
		c5.7-8.4,11.1-16.4,16.5-24c5.4-7.6,10.1-14.3,14.3-19.9h17.9c-2.2,21.6-5.1,43.7-8.7,66.1s-7.6,44.7-12,67.3H138
		c3.9-18.5,7.3-36.4,10.6-53.8C151.8,87.4,154.6,70.4,157.1,54z"/>
	<path class="st3" d="M201.9,158.5h-17.9l24-100h17.9L201.9,158.5z M222.7,40.5c-3,0-5.5-0.9-7.4-2.7c-2-1.8-3-4.3-3-7.5
		c0-4.1,1.3-7.3,3.9-9.7c2.6-2.4,5.5-3.6,8.6-3.6c3,0,5.5,0.9,7.5,2.8c2.1,1.9,3.1,4.5,3.1,7.8c0,3.9-1.4,6.9-4.1,9.3
		C228.6,39.3,225.7,40.5,222.7,40.5z"/>
	<path class="st3" d="M264.5,145.2c4,0,7.9-0.4,11.8-1.3c3.9-0.8,7.4-2.2,10.5-4.2c3.1-1.9,5.6-4.5,7.5-7.6c1.9-3.2,2.9-7,2.9-11.6
		c0-3.2-0.6-6-1.8-8.3c-1.2-2.4-2.9-4.5-5-6.3s-4.7-3.6-7.5-5.2c-2.9-1.6-6.1-3.3-9.5-5.1c-3-1.6-6-3.2-8.9-5c-3-1.8-5.8-4-8-6.6
		c-2.4-2.6-4.3-5.8-5.8-9.3c-1.5-3.6-2.2-7.8-2.2-12.9c0-5.8,1.1-11.1,3.4-16c2.3-4.9,5.6-9,9.9-12.6c4.4-3.6,9.7-6.2,16.1-8.1
		c6.3-1.9,13.6-2.9,21.8-2.9c3.9,0,7.5,0.3,10.9,0.9c3.4,0.6,6.6,1.3,9.5,2.2c2.9,0.9,5.5,1.8,7.6,2.8s3.8,1.8,4.8,2.6l-8.6,14.6
		c-2.2-1.8-5.7-3.5-10.5-4.9c-4.8-1.5-10.5-2.2-17.1-2.2c-4.1,0-7.9,0.4-11.4,1.3c-3.6,0.8-6.5,2.2-9.1,4s-4.7,4.1-6.2,6.8
		c-1.6,2.8-2.3,6.1-2.3,9.9c0,3.4,0.5,6.2,1.6,8.3c1,2.3,2.5,4.3,4.3,6c1.8,1.7,4,3.3,6.6,4.7c2.6,1.4,5.5,2.9,8.5,4.5
		c3.9,1.9,7.4,3.9,10.9,5.9c3.4,2,6.3,4.4,8.9,7c2.6,2.7,4.6,5.9,6.1,9.4c1.5,3.6,2.2,7.9,2.2,13.1c0,7-1.4,13.2-4.2,18.6
		c-2.8,5.4-6.5,9.7-11.3,13.3c-4.8,3.6-10.5,6.2-17.2,7.9s-13.8,2.7-21.4,2.7c-5.2,0-9.8-0.4-14-1.1c-4.2-0.7-7.8-1.6-10.9-2.6
		c-3.2-1-5.8-2.1-7.9-3.2c-2.2-1.1-3.9-2.1-5-3l8.6-15.2c2.5,1.7,6.2,3.6,11.5,5.7C249.8,144.2,256.5,145.2,264.5,145.2z"/>
	<path class="st3" d="M451.1,25.3l-3.7,15.6h-40.2L379,158.5h-18.7l28.3-117.7h-40.2l3.7-15.6H451.1z"/>
	<path class="st3" d="M469.4,161c-6.5,0-12.2-0.9-17-2.8c-4.8-1.9-8.7-4.5-11.9-7.7c-3.2-3.3-5.6-7-7.1-11.4s-2.3-8.9-2.3-13.9
		c0-8.9,1.4-17.7,4.1-26s6.5-15.7,11.5-22.1c5-6.4,11.1-11.5,18.3-15.3c7.1-3.8,15.3-5.7,24.4-5.7c5.3,0,9.8,0.7,13.6,2
		c3.8,1.4,6.8,3.2,9.2,5.5c2.4,2.3,4.2,5,5.3,7.9c1.2,3,1.7,6.2,1.7,9.3c0,6.1-1.1,11.1-3.3,15.3c-2.2,4.2-5.1,7.6-8.6,10.5
		c-3.6,2.8-7.8,5-12.6,6.5s-9.8,2.8-15,3.7c-5.2,0.9-10.4,1.5-15.8,1.8c-5.4,0.3-10.3,0.6-15.1,0.9c-0.1,1-0.2,1.9-0.2,2.5
		s0,1.2,0,1.6c0,3,0.4,5.8,1.1,8.3c0.7,2.7,2,5,4,6.9c1.9,2,4.6,3.6,7.9,4.7c3.4,1.2,7.8,1.7,13.4,1.7c2.5,0,5-0.2,7.6-0.7
		c2.6-0.5,5.2-1,7.5-1.7c2.4-0.7,4.5-1.4,6.3-2.1c1.9-0.7,3.2-1.4,4-2L502,154c-2.6,1.4-6.7,2.9-12.4,4.6
		C483.8,160.2,477,161,469.4,161z M451.1,106c7.4-0.3,14.2-0.7,20.3-1.5c6.2-0.7,11.5-1.9,16-3.7c4.5-1.7,7.9-4.1,10.5-7
		c2.5-3,3.8-6.7,3.8-11.5c0-1.2-0.2-2.4-0.7-3.7c-0.5-1.3-1.2-2.5-2.3-3.6c-1.1-1.1-2.6-2-4.6-2.7c-1.9-0.7-4.3-1.1-7.1-1.1
		c-4.5,0-8.7,1-12.6,2.9c-3.9,1.9-7.4,4.5-10.5,7.6c-3.1,3.2-5.8,6.8-7.8,10.9C453.9,97,452.2,101.4,451.1,106z"/>
	<path class="st3" d="M612.6,229.6c-2.8-8.5-5.3-16-7.5-22.5c-2.3-6.5-4.5-12.6-6.5-18.3c-2.1-5.7-4.2-11-6.3-16
		c-2.2-5.1-4.6-10.3-7.1-15.9l-59.6,72.6h-52.8l93.5-111.8l-41.8-93.7h51l24.6,63.5c8.9-10.7,17.5-21.5,25.8-32.4
		c8.3-11,15.9-21.3,22.8-31h50.7c-5.8,8.1-11.8,16.5-18.3,25.1c-6.4,8.6-13.1,17.2-19.8,25.8c-6.8,8.6-13.7,17-20.6,25.2
		c-6.9,8.2-13.6,16-20.1,23.3c4.2,9.3,8,18.1,11.7,26.4c3.7,8.3,7.1,16.7,10.5,25.1s6.6,17.1,9.8,26c3.2,8.9,6.4,18.5,9.8,28.8
		h-49.6V229.6z"/>
</g>
<path id="path7121-9" class="st1" d="M162.7,189.9v1.1l25,14.5v-1.1L162.7,189.9"/>
<path id="path7123-7" class="st1" d="M190.7,205L190.7,205C190.6,205,190.6,205,190.7,205C190.6,204.9,190.6,204.9,190.7,205
	C190.7,204.9,190.7,204.9,190.7,205L190.7,205L190.7,205L190.7,205L190.7,205L190.7,205L190.7,205c0-0.1,0-0.1,0-0.2l0,0l0,0
	c0,0,0-0.1-0.1-0.1l0,0l0,0l-0.1-0.1l0,0l0,0l-0.1-0.1c-0.1,0-0.2-0.1-0.3-0.1H190h-0.1l0,0l0,0l0,0l0,0c0,0,0,0-0.1,0h-0.1h-0.1
	h-0.1c0,0,0,0-0.1,0l0,0l0,0l0,0l0,0l0,0c-0.1,0-0.1,0-0.2,0c0,0,0,0-0.1,0l0,0c0,0,0,0-0.1,0s-0.1,0-0.2,0c0,0,0,0-0.1,0l0,0
	c0,0,0,0-0.1,0s-0.1,0-0.2,0l0,0l0,0h-0.1c-0.1,0-0.1,0-0.2,0.1l0,0l0,0c-0.1,0-0.2,0.1-0.3,0.1v1.1c0.1,0,0.2-0.1,0.3-0.1l0,0
	c0.1,0,0.2-0.1,0.3-0.1l0,0c0.1,0,0.2,0,0.3,0l0,0c0.1,0,0.2,0,0.3,0l0,0c0.1,0,0.2,0,0.3,0c0,0,0,0,0.1,0s0.1,0,0.2,0h0.1
	c0.1,0,0.1,0,0.2,0.1h0.1c0.1,0,0.2,0.1,0.3,0.1l0.1,0.1l0,0c0.1,0,0.1,0.6,0.1,0.6l0,0c0,0,0,0,0.1,0.1l0,0c0,0,0,0,0,0.1l0,0l0,0
	l0,0l0,0c0,0,0,0,0,0.1l0,0c0,0,0,0,0,0.1L190.7,205L190.7,205C190.7,205.1,190.7,205,190.7,205"/>
<path id="path7125-3" class="st1" d="M193.6,207.7v1.1l30.9-17.9v-1.1L193.6,207.7"/>
<path id="path7127-6" class="st1" d="M190.1,205.7v1.1l3.5,1.9v-1.1L190.1,205.7"/>
<path id="path7129-1" class="st4" d="M162.7,189.9l25,14.5c0.7-0.4,1.8-0.4,2.5,0s0.7,1,0,1.4l3.4,2l30.9-17.9l-3.4-2
	c-0.7,0.4-1.8,0.4-2.5,0c-0.7-0.4-0.7-1,0-1.4l-25-14.5L162.7,189.9"/>
<path id="path7131-2" class="st1" d="M195.4,205l26.3-15.2l-28.1-16.3l-28.1,16.3l26.3,15.2H195.4"/>
<path id="path7143-7" class="st5" d="M216,187.6l-19.8-11.4c-1.6-0.9-3.5-0.9-5,0l-20,11.6c-1.3,0.7-1.3,2.5,0,3.3l19.8,11.5
	c1.7,1,3.7,1,5.4,0l6.2-3.6c0.5-0.3,0.5-1.1,0-1.4l0,0c-0.6-0.3-0.6-1.2,0-1.6l2.6-1.5c0.7-0.4,1.7-0.4,2.4,0l0,0
	c0.8,0.5,1.9,0.5,2.7,0l5.8-3.3C217.3,190.4,217.3,188.4,216,187.6"/>
<path id="path7147-4" class="st3" d="M174.8,186.8l16.8-9.7c1.3-0.8,2.9-0.8,4.2,0l16.6,9.5c1.1,0.7,1.1,2.3,0,3l-1.4,0.8l-15,8.6
	c-1.4,0.8-3.1,0.8-4.5,0l-16.7-9.6C173.8,188.9,173.8,187.4,174.8,186.8"/>
<g>
	<path class="st0" d="M975.8,188.7v-15.6c0-5.3,3.4-9.9,8.4-11.7c11.5-4.1,19.8-15.1,19.8-27.9s-8.2-23.9-19.8-27.9
		c-5-1.8-8.4-6.4-8.4-11.7v-32c0-29.6-24-53.7-53.7-53.7H793c-29.6,0-53.7,24-53.7,53.7v32c0,5.3-3.4,9.9-8.4,11.7
		c-11.5,4.1-19.8,15.1-19.8,27.9s8.2,23.9,19.8,27.9c5,1.8,8.4,6.4,8.4,11.7v15.6c0,4.8-3.1,9.1-7.6,10.7
		c-9.1,3.2-15.7,12-15.6,22.2c0.2,12.7,10.8,22.9,23.5,22.9h82.5c6.1,0,11.7-3.6,14.1-9.2c3.6-8.2,11.7-14,21.3-14
		c9.6,0,17.7,5.8,21.3,14c2.4,5.6,8,9.2,14.1,9.2h82.5c12.7,0,23.4-10.1,23.5-22.9c0.1-10.3-6.4-19-15.6-22.2
		C978.9,197.9,975.8,193.6,975.8,188.7z"/>
	<path class="st0" d="M995.5,87.5c-2-4-5.6-8.6-12-10.8c1.4-0.5,2.9-1.1,4.3-1.9c8.8-5.1,10.7-14.1,10.7-20.8v-3.3h-3.2
		c-0.3,0-6.1,0-12,3c-5.6,2.8-12.3,8.8-12.3,21.3V78h0v0.3c0,0.4-0.5,10.5,6.3,17.6c4.3,4.5,10.3,6.8,17.9,6.8h3.2v-3.2
		C998.5,99.2,998.5,93.3,995.5,87.5z"/>
	<path class="st6" d="M956.3,53.9H758.9c-8.3,0-15.1,10.2-15.1,22.8l0,0c0,5.5,1.3,12.5,3.4,18.6c3.1,9,12,14.6,21.5,13.7l78.5-7.9
		c8.2-0.8,16.4-0.8,24.5,0l74.8,7.8c9.5,1,18.4-4.7,21.5-13.7c2.1-6.2,3.4-13.1,3.4-18.6l0,0C971.4,64.1,964.6,53.9,956.3,53.9z"/>
	<g>
		
			<ellipse transform="matrix(8.248056e-02 -0.9966 0.9966 8.248056e-02 663.6177 907.3403)" class="st7" cx="824.6" cy="93.3" rx="31.6" ry="31.6"/>
		<path class="st0" d="M824.6,61.7c17.4,0,31.6,14.1,31.6,31.6s-14.1,31.6-31.6,31.6S793,110.8,793,93.3S807.1,61.7,824.6,61.7
			 M824.6,56.7c-20.2,0-36.6,16.4-36.6,36.6s16.4,36.6,36.6,36.6s36.6-16.4,36.6-36.6C861.1,73.1,844.7,56.7,824.6,56.7L824.6,56.7z
			"/>
		<g>
			<g>
				<circle class="st0" cx="833" cy="97.9" r="22"/>
				<path class="st2" d="M833,77.1c11.4,0,20.8,9.3,20.8,20.8s-9.3,20.8-20.8,20.8c-11.4,0-20.8-9.3-20.8-20.8
					C812.2,86.4,821.5,77.1,833,77.1 M833,74.7c-12.8,0-23.1,10.4-23.1,23.1S820.2,121,833,121c12.8,0,23.1-10.4,23.1-23.1
					C856.1,85.1,845.8,74.7,833,74.7L833,74.7z"/>
			</g>
			<circle class="st7" cx="830.2" cy="92" r="7.1"/>
		</g>
		<circle class="st7" cx="893" cy="93.3" r="31.6"/>
		<path class="st0" d="M893,61.7c17.4,0,31.6,14.1,31.6,31.6s-14.1,31.6-31.6,31.6c-17.4,0-31.6-14.1-31.6-31.6
			C861.5,75.9,875.6,61.7,893,61.7 M893,56.7c-20.2,0-36.6,16.4-36.6,36.6s16.4,36.6,36.6,36.6c20.2,0,36.6-16.4,36.6-36.6
			C929.6,73.1,913.2,56.7,893,56.7L893,56.7z"/>
		<g>
			<g>
				<circle class="st0" cx="884.6" cy="97.9" r="22"/>
				<path class="st2" d="M884.6,77.1c11.4,0,20.8,9.3,20.8,20.8s-9.3,20.8-20.8,20.8c-11.4,0-20.8-9.3-20.8-20.8
					C863.9,86.4,873.2,77.1,884.6,77.1 M884.6,74.7c-12.8,0-23.1,10.4-23.1,23.1s10.4,23.1,23.1,23.1s23.1-10.4,23.1-23.1
					C907.8,85.1,897.4,74.7,884.6,74.7L884.6,74.7z"/>
			</g>
			<circle class="st7" cx="887.3" cy="92" r="7.1"/>
		</g>
	</g>
</g>
</svg>
