<svg enable-background="new 0 0 1000 337.5" viewBox="0 0 1000 337.5" xmlns="http://www.w3.org/2000/svg"><path d="m995.9 9.9h-34.4-70-10.4c-.6 0-1.1.3-1.4.7l-6 8.4c-9.4 13.2-19.9 27.4-31.2 42.3-3.1 4.1-6.3 8.3-9.5 12.4-.8 1.1-2.5.8-3-.4l-19.2-49.4-5-12.9c-.3-.7-.9-1.1-1.6-1.1h-13.8-70.4-27.4c-3 0-5 3.1-3.8 5.8l11.2 25.1 8.4 18.7c.7 1.5-.9 3-2.4 2.3-2.5-1.3-5.2-2.5-8.1-3.5-7.6-2.7-16.3-4.1-26.1-4.1-13.3 0-25.6 2.4-36.9 7l.3-1.4 5-21.5 5.1-21.9c.6-2.6-1.4-5-4-5h-22.5-136.7-14.1c-1.9 0-3.6 1.3-4 3.2l-.7 3c-.3 1.1-1.5 1.7-2.5 1.2-1.1-.6-2.3-1.1-3.6-1.7-3.8-1.7-8.1-3.3-12.8-4.7-4.9-1.5-10.3-2.8-16.1-3.7-6-1-12.3-1.5-18.7-1.5-13.4 0-25.7 1.7-36.5 4.9-11.4 3.5-21.4 8.6-29.6 15.2-.5.4-1 .8-1.4 1.2-1.2-6.2-4.2-13.1-10.7-19-6.9-6.2-15.6-9.5-25.1-9.5-10 0-19.2 3.7-26.8 10.7-5.6 5.2-12.3 14.6-12.3 29.5 0 4-5.6 7.8-4.3-4.7l2-19.6c.2-2.4-1.7-4.5-4.1-4.5h-19.8-24.7-8.9c-1.3 0-2.5.6-3.3 1.6l-5.3 7.1c-6 8-12.8 17.4-20.2 28.1-7.4 10.5-15.1 21.8-22.9 33.5-3.9 5.8-7.7 11.5-11.6 17.3-.9 1.3-2.9.9-3.2-.6-.6-2.9-1.1-5.7-1.7-8.6-2.4-11.6-4.8-23-7.3-33.7-2.5-10.9-4.8-20.5-7-28.6l-3.6-13.1c-.5-1.8-2.1-3-4-3h-13.6-25.2-12.7c-1.8 0-3.3 1.1-3.9 2.8l-4.2 12c-4.6 13.3-9.4 27.6-14.3 42.6-4.8 14.8-9.8 30.3-14.7 46.1-4.9 15.7-9.8 32-14.5 48.2-4.6 16.2-9.2 32.6-13.5 48.6-.5 1.8-.7 3.7-.7 5.6v23.7 4.2 1.8 7.7 1.5 8.5 2.4 9.5 9.2.8 17c0 2.3 1.8 4.1 4.1 4.1h17.8 595 5.9c1.5 0 2.3 1.7 1.3 2.9l-16.8 20.1c-2.2 2.7-.3 6.7 3.2 6.7h38.1 72.9 9.5c.5 0 1-.2 1.4-.6l6.1-7.4 57.7-70.3c.8-1 2.5-.8 3 .5.9 2.4 1.8 4.8 2.7 7.2 2.8 7.5 5.8 15.9 8.9 24.8 3 8.7 6.5 19 10.3 30.7l4.5 13.9c.2.7.9 1.2 1.7 1.2h14.6 68.4 24.6c2.8 0 4.8-2.7 3.9-5.4l-7.6-23.3c-4.7-14.3-9.3-27.8-13.7-40.2s-9.1-24.7-13.8-36.6c-4.7-11.8-9.7-23.7-14.8-35.3-3.3-7.4-6.6-14.9-10-22.6-.3-.6-.2-1.4.3-1.9 5.9-6.7 11.9-13.8 18.1-21.1 9.6-11.3 19.3-23.2 28.9-35.3 9.4-11.9 18.8-24.1 27.8-36.1 9-12.1 17.6-23.9 25.5-35.1l19.9-28.1c1.8-2.8-.2-6.5-3.5-6.5z" fill="#001c2f"/><path d="m20.6 276.7h241.3v9.2h-241.3z" fill="#296483"/><path d="m384.1 245.3v-8.3h-65v48.9h11.3v-21.1h53.7v-8.6h-53.7v-10.9z" fill="#00aeef"/><path d="m471.8 244.9c-.2-4.4-3.8-7.9-8.2-7.9h-56.7v48.9h11.4v-21.1h45.1c4.7 0 8.5-3.8 8.5-8.5zm-11.4 11.3h-42.3v-11h42.3z" fill="#00aeef"/><path d="m551 256.2h-36.9v8.5h34v11.9h-42.3v-31.4h53.6c0-4.6-3.7-8.3-8.3-8.3h-48.5c-4.4 0-8 3.5-8.2 7.9v31.8c0 5.1 4.1 9.2 9.2 9.2h46.6c5.1 0 9.2-4.1 9.2-9.2v-11.9c.2-4.7-3.6-8.5-8.4-8.5z" fill="#00aeef"/><path d="m20.6 256.2h211.5v8.5h-211.5z" fill="#296483"/><path d="m20.6 237h241.3v8.3h-241.3z" fill="#296483"/><path d="m639.1 237h-48.5c-4.6 0-8.3 3.7-8.3 8.3v40.6h11.4v-21.1h42.3v21.1h11.4v-40.6c-.1-4.6-3.8-8.3-8.3-8.3zm-45.4 19.2v-11h42.3v11z" fill="#00aeef"/><g fill="#e9eae9"><path d="m211.5 72.9c-2.8 3.9-6.4 8.9-10.6 15.1-4.3 6.2-8.9 13-13.8 20.4-5 7.4-10.1 15.2-15.4 23.2-5.3 8.1-10.4 15.8-15.4 23.4-5 7.5-9.6 14.5-13.8 21-4.3 6.5-7.7 11.7-10.4 15.8h-20.7c-.7-4.3-1.6-9.6-2.8-16.1s-2.4-13.4-3.8-21c-1.4-7.5-2.9-15.3-4.4-23.4s-3-15.8-4.5-23.2-2.9-14.2-4.1-20.3-2.3-11.1-3.2-15c-7.4 22.8-14.7 46.4-21.8 70.6-7.1 24.3-14 48.9-20.7 73.8h-25.5c4.2-15.9 8.7-32 13.4-48.2s9.5-32.1 14.3-47.8c4.9-15.7 9.7-30.9 14.6-45.8s9.6-28.9 14.2-42.2h25.2c2.1 7.8 4.4 17 6.8 27.6s4.8 21.7 7.2 33.3 4.6 23.1 6.6 34.7c2 11.5 3.8 22 5.2 31.3 6.4-9.6 13.4-20.1 21.1-31.6s15.4-23.1 23.2-34.7 15.4-22.7 22.7-33.2 13.9-19.7 19.8-27.5h24.7c-3 29.9-7 60.3-12.1 91.2-5 30.9-10.6 61.8-16.6 92.8h-25.8c5.3-25.5 10.2-50.2 14.6-74.2 4.6-23.7 8.5-47.2 11.8-70z"/><path d="m273.4 217.4h-24.7l33.2-138.1h24.7zm28.7-163.1c-4.1 0-7.5-1.2-10.2-3.7s-4.1-5.9-4.1-10.4c0-5.7 1.8-10.1 5.3-13.4s7.5-4.9 11.9-4.9c4.1 0 7.5 1.3 10.4 3.8 2.8 2.6 4.3 6.2 4.3 10.8 0 5.3-1.9 9.6-5.6 12.9-3.8 3.3-7.8 4.9-12 4.9z"/><path d="m360 199c5.5 0 10.9-.6 16.3-1.7s10.2-3.1 14.5-5.7c4.3-2.7 7.7-6.1 10.4-10.5 2.7-4.3 4-9.7 4-16.1 0-4.4-.8-8.3-2.5-11.5-1.7-3.3-4-6.2-6.9-8.8s-6.4-5-10.4-7.2-8.4-4.6-13.1-7c-4.1-2.1-8.2-4.4-12.3-6.9-4.2-2.5-7.9-5.5-11.2-9.2-3.3-3.6-5.9-7.9-8-12.9-2-5-3.1-10.9-3.1-17.8 0-8 1.5-15.3 4.6-22s7.7-12.5 13.7-17.4 13.4-8.6 22.2-11.3 18.8-4 30.1-4c5.3 0 10.4.4 15.1 1.2 4.8.8 9.2 1.8 13.1 3.1 4 1.2 7.5 2.5 10.5 3.8s5.2 2.5 6.6 3.6l-12 20.2c-3-2.5-7.8-4.7-14.5-6.8-6.6-2-14.5-3.1-23.5-3.1-5.7 0-10.9.6-15.8 1.7-4.9 1.2-9.1 3-12.6 5.4-3.5 2.5-6.4 5.6-8.5 9.4s-3.2 8.4-3.2 13.7c0 4.6.7 8.5 2.1 11.6s3.4 5.8 5.8 8.2c2.5 2.4 5.5 4.6 9.2 6.5 3.6 2 7.6 4 11.8 6.1 5.3 2.7 10.3 5.4 15 8.1s8.8 6 12.3 9.7 6.3 8.1 8.4 13c2 5 3.1 11 3.1 18.1 0 9.7-1.9 18.3-5.7 25.6s-9 13.5-15.7 18.3c-6.6 4.9-14.5 8.5-23.6 11s-19 3.7-29.6 3.7c-7.1 0-13.5-.5-19.3-1.5s-10.8-2.2-15.1-3.6-8-2.9-11-4.4-5.3-2.9-6.9-4.1l11.9-21c3.4 2.3 8.7 4.9 15.9 7.8 7.5 3.3 16.7 4.7 27.9 4.7z"/><path d="m617.6 33.3-5 21.5h-55.6l-39 162.5h-25.8l39-162.5h-55.5l5-21.5z"/><path d="m642.8 220.8c-9 0-16.8-1.3-23.4-3.8-6.6-2.6-12-6.1-16.5-10.6-4.4-4.5-7.7-9.8-9.8-15.8s-3.2-12.4-3.2-19.1c0-12.4 1.9-24.3 5.6-35.8s9-21.7 15.9-30.5 15.3-15.9 25.2-21.1 21.2-7.8 33.7-7.8c7.3 0 13.5.9 18.7 2.8s9.5 4.4 12.7 7.6c3.3 3.2 5.7 6.9 7.3 11 1.6 4.2 2.4 8.5 2.4 12.9 0 8.3-1.5 15.4-4.5 21.1-3 5.8-7 10.6-11.9 14.5-5 3.9-10.8 6.9-17.4 9s-13.5 3.8-20.7 5-14.4 2.1-21.8 2.5c-7.3.4-14.3.8-20.8 1.2-.2 1.4-.3 2.6-.3 3.5v2.1c0 4.1.5 7.9 1.5 11.5s2.8 6.8 5.4 9.6c2.7 2.7 6.3 4.9 11 6.5s10.8 2.4 18.5 2.4c3.4 0 6.9-.3 10.5-.9s7.1-1.4 10.4-2.4 6.2-1.9 8.8-2.9 4.4-1.9 5.4-2.8l2.1 21c-3.5 1.9-9.3 4-17.1 6.2-7.9 2-17.1 3.1-27.7 3.1zm-25.2-75.9c10.3-.4 19.6-1 28.1-2s15.8-2.7 22-5c6.2-2.4 11-5.6 14.5-9.7s5.2-9.4 5.2-15.9c0-1.6-.3-3.3-.9-5-.6-1.8-1.7-3.4-3.2-4.9s-3.6-2.7-6.2-3.7c-2.7-1-5.9-1.5-9.8-1.5-6.2 0-12 1.3-17.4 4s-10.2 6.2-14.5 10.5-7.9 9.4-10.9 15.1c-3.1 5.6-5.4 11.7-6.9 18.1z"/><path d="m840.6 315.6c-3.8-11.7-7.3-22.1-10.4-31.1s-6.1-17.4-9-25.2-5.8-15.2-8.8-22.1c-3-7-6.3-14.3-9.8-21.9l-82.3 100.3h-72.9l129-154.4-57.8-129.4h70.4l34 87.6c12.3-14.7 24.2-29.7 35.6-44.8 11.5-15.2 22-29.4 31.5-42.8h70c-7.9 11.2-16.2 22.7-25.1 34.6s-18 23.7-27.4 35.6-18.9 23.5-28.5 34.8-18.8 22-27.8 32.1c5.7 12.8 11.1 25 16.2 36.4 5 11.5 9.9 23 14.5 34.6s9.1 23.5 13.5 35.8 8.9 25.5 13.5 39.7h-68.4z"/></g><path d="m219.3 260.7v1.6l34.5 20 .1-1.5z" fill="#296483"/><path d="m257.9 281.6c0-.1 0-.1 0-.1s0 0 0-.1c0 0 0 0 0-.1s0 0 0-.1c0 0 0 0 0-.1s0-.1-.1-.1-.1-.1-.1-.1c-.1-.1-.1-.1-.2-.2-.1 0-.1-.1-.2-.1-.1-.1-.2-.1-.3-.2h-.1c-.1 0-.1 0-.2-.1h-.1s-.1 0-.2 0h-.1c-.1 0-.1 0-.2 0h-.1c-.1 0-.2 0-.3 0h-.1s0 0-.1 0h-.1c-.1 0-.2 0-.2 0h-.1s0 0-.1 0h-.1c-.1 0-.2 0-.2 0s0 0-.1 0c0 0 0 0-.1 0h-.1c-.1 0-.2 0-.2.1-.1 0-.2.1-.4.2l-.1 1.5c.1-.1.2-.1.4-.2.1 0 .2-.1.3-.1h.1c.1 0 .3 0 .4-.1h.1.4.1.4.1.3.2c.1 0 .2 0 .3.1h.1c.1 0 .2.1.3.2.1 0 .1.1.2.1.1 0 .1.8.2.9s.1.1.1.1 0 .1.1.1v.1.1.1.1.1.1l.1-2.2c0 .1 0 .1 0 0" fill="#296483"/><path d="m261.9 285.3v1.5l42.6-24.6v-1.5z" fill="#296483"/><path d="m257.2 282.6-.1 1.5 4.8 2.7v-1.5z" fill="#296483"/><path d="m219.3 260.7 34.6 20c.9-.5 2.4-.5 3.4 0 .9.5.9 1.4 0 1.9l4.7 2.7 42.6-24.6-4.7-2.7c-.9.5-2.4.5-3.4 0-.9-.5-.9-1.4 0-1.9l-34.6-20z" fill="#3689af"/><path d="m264.4 281.6 36.3-21-38.8-22.4-38.8 22.4 36.3 21z" fill="#296483"/><path d="m292.9 257.5-27.4-15.8c-2.1-1.2-4.8-1.2-6.9 0l-27.7 16c-1.7 1-1.7 3.5 0 4.5l27.5 15.9c2.3 1.3 5.1 1.3 7.4 0l8.7-5c.7-.4.7-1.5 0-1.9-.8-.5-.8-1.7 0-2.1l3.5-2c1-.6 2.3-.6 3.3 0 1.1.7 2.6.7 3.7 0l7.9-4.6c1.9-1.2 1.9-3.9 0-5" fill="#bbbab8"/><path d="m236.1 256.4 23.2-13.4c1.8-1 4-1 5.8 0l22.9 13.2c1.6.9 1.6 3.2 0 4.1l-2 1.1-20.7 11.9c-1.9 1.1-4.3 1.1-6.2 0l-23-13.3c-1.5-.7-1.5-2.8-0-3.6" fill="#e9eae9"/></svg>