<?xml version="1.0" encoding="utf-8"?>
<!-- Generator: Adobe Illustrator 27.4.1, SVG Export Plug-In . SVG Version: 6.00 Build 0)  -->
<svg version="1.1" id="Layer_1" xmlns="http://www.w3.org/2000/svg" xmlns:xlink="http://www.w3.org/1999/xlink" x="0px" y="0px"
	 viewBox="0 0 772.2 1000" style="enable-background:new 0 0 772.2 1000;" xml:space="preserve">
<style type="text/css">
	.st0{fill:#001C2F;}
	.st1{fill:#296483;}
	.st2{fill:#00AEEF;}
	.st3{fill:#E9EAE9;}
	.st4{fill:#989E9E;}
	.st5{fill:#F0EFEF;}
	.st6{fill:#3689AF;}
	.st7{fill:#BBBAB8;}
</style>
<path class="st0" d="M749.9,683.4h-25.1h-51.1h-7.6c-0.4,0-0.8,0.2-1,0.5l-4.4,6.2c-6.9,9.6-14.5,20-22.8,30.9c-2.3,3-4.6,6-6.9,9
	c-0.6,0.8-1.9,0.6-2.2-0.3l-14-36.1l-3.6-9.4c-0.2-0.5-0.7-0.8-1.2-0.8h-10.1h-51.4h-20c-2.2,0-3.6,2.2-2.7,4.2l8.2,18.3l6.1,13.7
	c0.5,1.1-0.7,2.2-1.7,1.7c-1.9-1-3.8-1.8-5.9-2.6c-5.5-2-11.9-3-19-3c-9.7,0-18.7,1.7-26.9,5.1l0.2-1l3.7-15.7l3.7-16
	c0.4-1.9-1-3.7-2.9-3.7h-16.4h-99.8h-10.3c-1.4,0-2.6,1-2.9,2.3l-0.5,2.2c-0.2,0.8-1.1,1.2-1.8,0.9c-0.8-0.4-1.7-0.8-2.6-1.2
	c-2.7-1.2-5.9-2.4-9.4-3.5c-3.6-1.1-7.6-2-11.7-2.7c-4.3-0.7-8.9-1.1-13.7-1.1c-9.8,0-18.8,1.2-26.6,3.6
	c-8.4,2.5-15.6,6.3-21.6,11.1c-0.4,0.3-0.7,0.6-1,0.9c-0.9-4.5-3.1-9.6-7.8-13.9c-5-4.6-11.4-7-18.3-7c-7.3,0-14,2.7-19.6,7.8
	c-4.1,3.8-9,10.6-9,21.5c0,2.9-4.1,5.7-3.2-3.4l1.4-14.3c0.2-1.8-1.2-3.3-3-3.3h-14.4h-18h-6.5c-0.9,0-1.8,0.4-2.4,1.2l-3.9,5.2
	c-4.4,5.8-9.3,12.7-14.8,20.5c-5.4,7.7-11,15.9-16.7,24.5c-2.8,4.2-5.7,8.4-8.5,12.6c-0.6,0.9-2.1,0.6-2.3-0.5
	c-0.4-2.1-0.8-4.2-1.3-6.3c-1.8-8.5-3.5-16.8-5.3-24.6c-1.8-8-3.5-15-5.1-20.9l-2.6-9.6c-0.4-1.3-1.5-2.2-2.9-2.2h-9.9H80.2h-9.2
	c-1.3,0-2.4,0.8-2.8,2l-3,8.7c-3.4,9.7-6.9,20.2-10.5,31.1c-3.5,10.8-7.1,22.1-10.7,33.7c-3.6,11.5-7.1,23.3-10.6,35.2
	c-3.4,11.9-6.8,23.8-9.9,35.5h0c-0.4,1.3-0.5,2.7-0.5,4.1v17.3v3.1v1.3v5.6v1.1v6.2v1.8v6.9v6.7v0.6v12.4c0,1.7,1.3,3,3,3h13
	l434.4,0h4.3c1.1,0,1.7,1.3,1,2.1l-12.2,14.7c-1.6,2-0.2,4.9,2.3,4.9h27.8h53.2h7c0.4,0,0.7-0.2,1-0.5l4.4-5.4l42.1-51.3
	c0.6-0.8,1.8-0.6,2.2,0.3c0.7,1.7,1.3,3.5,2,5.3c2,5.5,4.2,11.6,6.5,18.1c2.2,6.3,4.7,13.9,7.5,22.4l3.3,10.2
	c0.2,0.5,0.7,0.9,1.2,0.9h10.7h49.9h17.9c2,0,3.5-2,2.9-3.9l-5.6-17c-3.4-10.4-6.8-20.3-10-29.4c-3.2-9.1-6.6-18.1-10.1-26.7
	c-3.5-8.6-7.1-17.3-10.8-25.8c-2.4-5.4-4.8-10.9-7.3-16.5c-0.2-0.5-0.1-1,0.2-1.4c4.3-4.9,8.7-10.1,13.2-15.4
	c7-8.3,14.1-16.9,21.1-25.8c6.9-8.7,13.7-17.6,20.3-26.4c6.6-8.8,12.8-17.4,18.6-25.6l14.5-20.5
	C753.7,686.1,752.3,683.4,749.9,683.4z"/>
<g>
	<rect x="37.9" y="878.1" class="st1" width="176.2" height="6.7"/>
	<g>
		<polygon class="st2" points="303.2,855.2 303.2,849.1 255.8,849.1 255.8,884.8 264.1,884.8 264.1,869.4 303.2,869.4 303.2,863.2 
			264.1,863.2 264.1,855.2 		"/>
	</g>
	<g>
		<path class="st2" d="M367.3,854.9c-0.2-3.2-2.8-5.7-6-5.7h-41.4v35.7h8.3v-15.4h32.9c3.4,0,6.2-2.8,6.2-6.2L367.3,854.9
			L367.3,854.9z M359,863.2h-30.8v-8H359V863.2z"/>
	</g>
	<g>
		<path class="st2" d="M425.1,863.2h-26.9v6.2h24.8v8.7h-30.8v-22.9h39.2c0-3.3-2.7-6-6-6h-35.4c-3.2,0-5.8,2.5-6,5.7h0v23.2
			c0,3.7,3,6.7,6.7,6.7h34c3.7,0,6.7-3,6.7-6.7v-8.7v0C431.4,866,428.6,863.2,425.1,863.2z"/>
	</g>
	<rect x="37.9" y="863.2" class="st1" width="154.4" height="6.2"/>
	<rect x="37.9" y="849.1" class="st1" width="176.2" height="6"/>
	<g>
		<path class="st2" d="M489.4,849.1H454c-3.3,0-6,2.7-6,6v29.6h8.3v-15.4h30.8v15.4h8.3v-29.6C495.4,851.8,492.7,849.1,489.4,849.1z
			 M456.3,863.2v-8h30.8v8H456.3z"/>
	</g>
	<path class="st3" d="M177.3,729.4c-2.1,2.8-4.7,6.5-7.8,11c-3.1,4.5-6.5,9.5-10.1,14.9c-3.6,5.4-7.4,11.1-11.2,17
		c-3.9,5.9-7.6,11.6-11.2,17.1c-3.6,5.5-7,10.6-10.1,15.3c-3.1,4.7-5.6,8.6-7.6,11.5h-15.1c-0.5-3.1-1.2-7-2-11.7
		c-0.8-4.7-1.8-9.8-2.8-15.3c-1-5.5-2.1-11.2-3.2-17.1c-1.1-5.9-2.2-11.5-3.3-17c-1.1-5.4-2.1-10.4-3-14.8c-0.9-4.5-1.7-8.1-2.3-11
		c-5.4,16.7-10.7,33.9-15.9,51.6c-5.2,17.7-10.2,35.7-15.1,53.9H37.9c3.1-11.6,6.4-23.4,9.8-35.2c3.4-11.8,6.9-23.5,10.5-34.9
		c3.6-11.4,7.1-22.6,10.7-33.4c3.6-10.9,7-21.1,10.4-30.8h18.4c1.6,5.7,3.2,12.4,4.9,20.2c1.7,7.8,3.5,15.9,5.2,24.3
		c1.7,8.5,3.4,16.9,4.8,25.3c1.5,8.4,2.7,16,3.8,22.9c4.7-7,9.8-14.7,15.4-23.1c5.6-8.4,11.3-16.8,17-25.3
		c5.7-8.5,11.2-16.5,16.6-24.2c5.4-7.7,10.2-14.4,14.4-20.1h18c-2.2,21.8-5.1,44-8.8,66.6c-3.7,22.6-7.7,45.1-12.1,67.8h-18.8
		c3.9-18.6,7.4-36.7,10.7-54.2C172,763.1,174.8,746,177.3,729.4z"/>
	<path class="st3" d="M222.5,834.8h-18L228.7,734h18L222.5,834.8z M243.4,715.8c-3,0-5.5-0.9-7.5-2.7c-2-1.8-3-4.3-3-7.6
		c0-4.1,1.3-7.4,3.9-9.8c2.6-2.4,5.5-3.6,8.7-3.6c3,0,5.5,0.9,7.6,2.8c2.1,1.9,3.1,4.5,3.1,7.9c0,3.9-1.4,7-4.1,9.4
		C249.4,714.6,246.5,715.8,243.4,715.8z"/>
	<path class="st3" d="M285.6,821.4c4,0,8-0.4,11.9-1.3c3.9-0.8,7.5-2.2,10.6-4.2c3.1-1.9,5.6-4.5,7.6-7.7c1.9-3.2,2.9-7.1,2.9-11.7
		c0-3.2-0.6-6-1.8-8.4c-1.2-2.4-2.9-4.5-5-6.4c-2.1-1.9-4.7-3.6-7.6-5.2c-2.9-1.6-6.1-3.3-9.6-5.1c-3-1.6-6-3.2-9-5
		c-3-1.8-5.8-4-8.1-6.7c-2.4-2.6-4.3-5.8-5.8-9.4c-1.5-3.6-2.2-7.9-2.2-13c0-5.8,1.1-11.2,3.4-16.1c2.3-4.9,5.6-9.1,10-12.7
		c4.4-3.6,9.8-6.3,16.2-8.2c6.4-1.9,13.7-2.9,22-2.9c3.9,0,7.6,0.3,11,0.9s6.7,1.3,9.6,2.2c2.9,0.9,5.5,1.8,7.7,2.8
		c2.2,1,3.8,1.8,4.8,2.6l-8.7,14.7c-2.2-1.8-5.7-3.5-10.6-4.9c-4.8-1.5-10.6-2.2-17.2-2.2c-4.1,0-8,0.4-11.5,1.3
		c-3.6,0.8-6.6,2.2-9.2,4c-2.6,1.8-4.7,4.1-6.2,6.9c-1.6,2.8-2.3,6.1-2.3,10c0,3.4,0.5,6.2,1.6,8.4c1,2.3,2.5,4.3,4.3,6
		c1.8,1.7,4,3.3,6.7,4.7c2.6,1.4,5.5,2.9,8.6,4.5c3.9,1.9,7.5,3.9,11,5.9c3.4,2,6.4,4.4,9,7.1c2.6,2.7,4.6,5.9,6.1,9.5
		c1.5,3.6,2.2,8,2.2,13.2c0,7.1-1.4,13.3-4.2,18.7c-2.8,5.4-6.6,9.8-11.4,13.4c-4.8,3.6-10.6,6.2-17.3,8c-6.7,1.8-13.9,2.7-21.6,2.7
		c-5.2,0-9.9-0.4-14.1-1.1c-4.2-0.7-7.9-1.6-11-2.6c-3.2-1-5.8-2.1-8-3.2c-2.2-1.1-3.9-2.1-5-3l8.7-15.3c2.5,1.7,6.3,3.6,11.6,5.7
		C270.8,820.4,277.5,821.4,285.6,821.4z"/>
	<path class="st3" d="M473.7,700.5l-3.7,15.7h-40.5L401,834.8h-18.8l28.5-118.6h-40.5l3.7-15.7H473.7z"/>
	<path class="st3" d="M492.1,837.3c-6.6,0-12.3-0.9-17.1-2.8c-4.8-1.9-8.8-4.5-12-7.8c-3.2-3.3-5.6-7.1-7.2-11.5
		c-1.6-4.4-2.3-9-2.3-14c0-9,1.4-17.8,4.1-26.2c2.7-8.4,6.6-15.8,11.6-22.3c5-6.5,11.2-11.6,18.4-15.4c7.2-3.8,15.4-5.7,24.6-5.7
		c5.3,0,9.9,0.7,13.7,2c3.8,1.4,6.9,3.2,9.3,5.5c2.4,2.3,4.2,5,5.3,8c1.2,3,1.7,6.2,1.7,9.4c0,6.1-1.1,11.2-3.3,15.4
		c-2.2,4.2-5.1,7.7-8.7,10.6c-3.6,2.8-7.9,5-12.7,6.6c-4.8,1.6-9.9,2.8-15.1,3.7c-5.2,0.9-10.5,1.5-15.9,1.8
		c-5.4,0.3-10.4,0.6-15.2,0.9c-0.1,1-0.2,1.9-0.2,2.5c0,0.6,0,1.2,0,1.6c0,3,0.4,5.8,1.1,8.4c0.7,2.7,2,5,4,7c1.9,2,4.6,3.6,8,4.7
		c3.4,1.2,7.9,1.7,13.5,1.7c2.5,0,5-0.2,7.7-0.7c2.6-0.5,5.2-1,7.6-1.7c2.4-0.7,4.5-1.4,6.4-2.1c1.9-0.7,3.2-1.4,4-2l1.6,15.3
		c-2.6,1.4-6.8,2.9-12.5,4.6C506.6,836.5,499.8,837.3,492.1,837.3z M473.7,781.9c7.5-0.3,14.3-0.7,20.5-1.5
		c6.2-0.7,11.6-1.9,16.1-3.7c4.5-1.7,8-4.1,10.6-7.1c2.5-3,3.8-6.8,3.8-11.6c0-1.2-0.2-2.4-0.7-3.7c-0.5-1.3-1.2-2.5-2.3-3.6
		c-1.1-1.1-2.6-2-4.6-2.7c-1.9-0.7-4.3-1.1-7.2-1.1c-4.5,0-8.8,1-12.7,2.9c-3.9,1.9-7.5,4.5-10.6,7.7c-3.1,3.2-5.8,6.9-7.9,11
		C476.5,772.8,474.8,777.2,473.7,781.9z"/>
	<path class="st3" d="M636.5,906.5c-2.8-8.6-5.3-16.1-7.6-22.7c-2.3-6.6-4.5-12.7-6.6-18.4c-2.1-5.7-4.2-11.1-6.4-16.1
		c-2.2-5.1-4.6-10.4-7.2-16l-60.1,73.2h-53.2l94.2-112.7l-42.1-94.5h51.4l24.8,64c9-10.8,17.6-21.7,26-32.7
		c8.4-11.1,16-21.5,23-31.2h51.1c-5.8,8.2-11.9,16.6-18.4,25.3c-6.5,8.7-13.2,17.3-20,26c-6.9,8.7-13.8,17.1-20.8,25.4
		c-7,8.3-13.7,16.1-20.3,23.5c4.2,9.4,8.1,18.2,11.8,26.6c3.7,8.4,7.2,16.8,10.6,25.3c3.4,8.5,6.7,17.2,9.9,26.2
		c3.2,9,6.5,18.6,9.9,29H636.5z"/>
</g>
<g>
	<path class="st0" d="M665.2,508.3V471c0-12.7,8.1-23.7,20.1-27.9c27.4-9.7,47.1-35.9,47.1-66.6s-19.6-56.9-47.1-66.6
		c-11.9-4.2-20.1-15.3-20.1-27.9v-76.4c0-70.7-57.3-128-128-128h-308c-70.7,0-128,57.3-128,128v76.4c0,12.7-8.1,23.7-20.1,27.9
		c-27.4,9.7-47.1,35.9-47.1,66.6s19.6,56.9,47.1,66.6c11.9,4.2,20.1,15.3,20.1,27.9v37.3c0,11.5-7.3,21.8-18.2,25.5
		c-21.8,7.6-37.5,28.5-37.2,53c0.4,30.4,25.7,54.6,56.1,54.6h196.7c14.6,0,27.9-8.5,33.7-21.9c8.5-19.6,28-33.4,50.8-33.4
		s42.3,13.8,50.8,33.4c5.8,13.4,19.1,21.9,33.7,21.9h196.7c30.4,0,55.7-24.2,56.1-54.6c0.3-24.5-15.3-45.4-37.2-53
		C672.5,530.1,665.2,519.8,665.2,508.3z"/>
	<path class="st0" d="M712.2,266.8c-4.8-9.5-13.4-20.4-28.7-25.8c3.4-1.1,6.9-2.6,10.3-4.6c21-12.2,25.5-33.7,25.5-49.6V179h-7.7
		c-0.6,0-14.5,0.1-28.5,7.1c-13.4,6.7-29.3,20.9-29.3,50.7v7.3l0.1,0l0,0.8c-0.1,1-1.1,25,15,42c10.2,10.7,24.5,16.1,42.7,16.1h7.7
		v-7.7C719.3,294.7,719.2,280.8,712.2,266.8z"/>
	<path class="st4" d="M618.6,186.7H147.9c-19.9,0-36.1,24.3-36.1,54.3v0c0,13,3,29.7,8.1,44.3c7.4,21.4,28.6,34.9,51.2,32.6
		l187.1-18.8c19.5-2,39.1-1.9,58.5,0.1l178.5,18.6c22.6,2.3,43.9-11.1,51.3-32.6c5.1-14.7,8.1-31.3,8.1-44.3v0
		C654.7,211,638.5,186.7,618.6,186.7z"/>
	<g>
		<circle class="st5" cx="304.5" cy="280.6" r="75.3"/>
		<path class="st0" d="M304.5,205.4c41.6,0,75.3,33.7,75.3,75.3c0,41.6-33.7,75.3-75.3,75.3c-41.6,0-75.3-33.7-75.3-75.3
			C229.2,239.1,262.9,205.4,304.5,205.4 M304.5,193.4c-48.1,0-87.2,39.1-87.2,87.2c0,48.1,39.1,87.2,87.2,87.2s87.2-39.1,87.2-87.2
			C391.7,232.6,352.6,193.4,304.5,193.4L304.5,193.4z"/>
		<g>
			<g>
				<circle class="st0" cx="324.5" cy="291.7" r="52.4"/>
				<path class="st2" d="M324.5,242.1c27.3,0,49.5,22.2,49.5,49.5c0,27.3-22.2,49.5-49.5,49.5c-27.3,0-49.5-22.2-49.5-49.5
					C275,264.3,297.2,242.1,324.5,242.1 M324.5,236.4c-30.5,0-55.2,24.7-55.2,55.2c0,30.5,24.7,55.2,55.2,55.2
					c30.5,0,55.2-24.7,55.2-55.2C379.7,261.2,355,236.4,324.5,236.4L324.5,236.4z"/>
			</g>
			<circle class="st5" cx="318" cy="277.5" r="17"/>
		</g>
		<circle class="st5" cx="467.7" cy="280.6" r="75.3"/>
		<path class="st0" d="M467.7,205.4c41.6,0,75.3,33.7,75.3,75.3c0,41.6-33.7,75.3-75.3,75.3c-41.6,0-75.3-33.7-75.3-75.3
			C392.5,239.1,426.2,205.4,467.7,205.4 M467.7,193.4c-48.1,0-87.2,39.1-87.2,87.2c0,48.1,39.1,87.2,87.2,87.2s87.2-39.1,87.2-87.2
			C554.9,232.6,515.8,193.4,467.7,193.4L467.7,193.4z"/>
		<g>
			<g>
				<circle class="st0" cx="447.7" cy="291.7" r="52.4"/>
				<path class="st2" d="M447.7,242.1c27.3,0,49.5,22.2,49.5,49.5c0,27.3-22.2,49.5-49.5,49.5s-49.5-22.2-49.5-49.5
					C398.2,264.3,420.4,242.1,447.7,242.1 M447.7,236.4c-30.5,0-55.2,24.7-55.2,55.2c0,30.5,24.7,55.2,55.2,55.2
					s55.2-24.7,55.2-55.2C502.9,261.2,478.2,236.4,447.7,236.4L447.7,236.4z"/>
			</g>
			<circle class="st5" cx="454.2" cy="277.5" r="17"/>
		</g>
	</g>
</g>
<path id="path7121-9" class="st1" d="M183,866.4v1.1l25.2,14.6l0-1.1L183,866.4"/>
<path id="path7123-7" class="st1" d="M211.2,881.7C211.2,881.7,211.2,881.7,211.2,881.7C211.1,881.7,211.1,881.7,211.2,881.7
	C211.1,881.6,211.1,881.6,211.2,881.7c0-0.1,0-0.1,0-0.1c0,0,0,0,0,0c0,0,0,0,0,0c0,0,0,0,0,0c0,0,0,0,0,0c0,0,0,0,0,0c0,0,0,0,0,0
	c0,0,0,0,0-0.1c0,0,0,0,0,0c0,0,0,0,0,0c0,0,0-0.1-0.1-0.1c0,0,0,0,0,0c0,0,0,0,0,0c0,0-0.1-0.1-0.1-0.1c0,0,0,0,0,0c0,0,0,0,0,0
	c0,0-0.1-0.1-0.1-0.1c-0.1,0-0.2-0.1-0.3-0.1c0,0-0.1,0-0.1,0c0,0-0.1,0-0.1,0l0,0v0l0,0v0c0,0,0,0-0.1,0c0,0-0.1,0-0.1,0
	c0,0-0.1,0-0.1,0c0,0-0.1,0-0.1,0c0,0,0,0-0.1,0c0,0,0,0,0,0l0,0v0l0,0v0c-0.1,0-0.1,0-0.2,0c0,0,0,0-0.1,0c0,0,0,0,0,0
	c0,0,0,0-0.1,0c-0.1,0-0.1,0-0.2,0c0,0,0,0-0.1,0c0,0,0,0,0,0c0,0,0,0-0.1,0c-0.1,0-0.1,0-0.2,0c0,0,0,0,0,0c0,0,0,0,0,0
	c0,0-0.1,0-0.1,0c-0.1,0-0.1,0-0.2,0.1c0,0,0,0,0,0c0,0,0,0,0,0c-0.1,0-0.2,0.1-0.3,0.1l0,1.1c0.1,0,0.2-0.1,0.3-0.1c0,0,0,0,0,0
	c0.1,0,0.2-0.1,0.3-0.1c0,0,0,0,0,0c0.1,0,0.2,0,0.3,0c0,0,0,0,0,0c0.1,0,0.2,0,0.3,0c0,0,0,0,0,0c0.1,0,0.2,0,0.3,0c0,0,0,0,0.1,0
	c0.1,0,0.1,0,0.2,0c0,0,0.1,0,0.1,0c0.1,0,0.1,0,0.2,0.1c0,0,0.1,0,0.1,0c0.1,0,0.2,0.1,0.3,0.1c0,0,0.1,0.1,0.1,0.1c0,0,0,0,0,0
	c0.1,0,0.1,0.6,0.1,0.6c0,0,0,0,0,0c0,0,0,0,0.1,0.1c0,0,0,0,0,0c0,0,0,0,0,0.1c0,0,0,0,0,0c0,0,0,0,0,0c0,0,0,0,0,0c0,0,0,0,0,0
	c0,0,0,0,0,0.1c0,0,0,0,0,0c0,0,0,0,0,0.1L211.2,881.7L211.2,881.7C211.2,881.8,211.2,881.7,211.2,881.7"/>
<path id="path7125-3" class="st1" d="M214.1,884.4v1.1l31.1-18v-1.1L214.1,884.4"/>
<path id="path7127-6" class="st1" d="M210.6,882.4l0,1.1l3.5,1.9v-1.1L210.6,882.4"/>
<path id="path7129-1" class="st6" d="M183,866.4l25.2,14.6c0.7-0.4,1.8-0.4,2.5,0c0.7,0.4,0.7,1,0,1.4l3.4,2l31.1-18l-3.4-2
	c-0.7,0.4-1.8,0.4-2.5,0c-0.7-0.4-0.7-1,0-1.4l-25.2-14.6L183,866.4"/>
<path id="path7131-2" class="st1" d="M215.9,881.7l26.5-15.3L214.1,850l-28.3,16.4l26.5,15.3H215.9"/>
<path id="path7143-7" class="st7" d="M236.7,864.1l-20-11.5c-1.6-0.9-3.5-0.9-5,0l-20.2,11.7c-1.3,0.7-1.3,2.5,0,3.3l20,11.6
	c1.7,1,3.7,1,5.4,0l6.3-3.6c0.5-0.3,0.5-1.1,0-1.4l0,0c-0.6-0.3-0.6-1.2,0-1.6l2.6-1.5c0.7-0.4,1.7-0.4,2.4,0l0,0
	c0.8,0.5,1.9,0.5,2.7,0l5.8-3.3C238,866.9,238,864.9,236.7,864.1"/>
<path id="path7147-4" class="st3" d="M195.2,863.3l16.9-9.8c1.3-0.8,2.9-0.8,4.2,0l16.7,9.6c1.1,0.7,1.1,2.3,0,3l-1.4,0.8l-15.1,8.7
	c-1.4,0.8-3.1,0.8-4.5,0l-16.8-9.7C194.2,865.4,194.2,863.9,195.2,863.3"/>
</svg>
