<svg enable-background="new 0 0 1000 1000" viewBox="0 0 1000 1000" xmlns="http://www.w3.org/2000/svg"><path d="m903.8 713.1v-53.4c0-18.2 11.6-33.9 28.8-39.9 39.2-13.9 67.4-51.4 67.4-95.4s-28.1-81.5-67.4-95.4c-17-6-28.8-21.9-28.8-39.9v-109.5c0-101.2-82-183.3-183.3-183.3h-441c-101.2 0-183.3 82-183.3 183.3v109.4c0 18.2-11.6 33.9-28.8 39.9-39.2 14-67.4 51.5-67.4 95.4s28.1 81.5 67.4 95.4c17 6 28.8 21.9 28.8 39.9v53.4c0 16.5-10.5 31.2-26.1 36.5-31.2 10.9-53.7 40.8-53.3 75.9.6 43.5 36.8 78.2 80.3 78.2h281.6c20.9 0 39.9-12.2 48.3-31.4 12.2-28.1 40.1-47.8 72.7-47.8s60.6 19.8 72.7 47.8c8.3 19.2 27.3 31.4 48.3 31.4h281.6c43.5 0 79.8-34.7 80.3-78.2.4-35.1-21.9-65-53.3-75.9-15.1-5.2-25.5-20-25.5-36.4z" fill="#081e2e"/><path d="m971.1 367.3c-6.9-13.6-19.2-29.2-41.1-36.9 4.9-1.6 9.9-3.7 14.7-6.6 30.1-17.5 36.5-48.3 36.5-71v-11.2h-11c-.9 0-20.8.1-40.8 10.2-19.2 9.6-42 29.9-42 72.6v10.5h.1v1.1c-.1 1.4-1.6 35.8 21.5 60.1 14.6 15.3 35.1 23.1 61.1 23.1h11v-11c.1-1-0-20.9-10-40.9z" fill="#081e2e"/><path d="m837.1 252.6h-674c-28.5 0-51.7 34.8-51.7 77.7 0 18.6 4.3 42.5 11.6 63.4 10.6 30.6 41 50 73.3 46.7l267.9-26.9c27.9-2.9 56-2.7 83.8.1l255.6 26.6c32.4 3.3 62.9-15.9 73.5-46.7 7.3-21 11.6-44.8 11.6-63.4 0-42.7-23.2-77.5-51.6-77.5z" fill="#989e9e"/><circle cx="387.3" cy="387" fill="#f1efef" r="107.8"/><path d="m387.3 279.4c59.6 0 107.8 48.3 107.8 107.8s-48.2 107.8-107.8 107.8-107.8-48.3-107.8-107.8c0-59.6 48.2-107.8 107.8-107.8m0-17.2c-68.9 0-124.9 56-124.9 124.9s56 124.9 124.9 124.9 124.9-56 124.9-124.9c0-68.8-56-124.9-124.9-124.9z" fill="#081e2e"/><circle cx="416" cy="402.9" fill="#081e2e" r="75"/><path d="m416 331.9c39.1 0 70.9 31.8 70.9 70.9s-31.9 70.9-70.9 70.9-70.9-31.8-70.9-70.9 31.8-70.9 70.9-70.9m0-8.2c-43.7 0-79 35.4-79 79s35.4 79 79 79 79-35.4 79-79c0-43.5-35.4-79-79-79z" fill="#2bace2"/><circle cx="406.6" cy="382.6" fill="#f1efef" r="24.3"/><circle cx="621" cy="387" fill="#f1efef" r="107.8"/><path d="m621 279.4c59.6 0 107.8 48.3 107.8 107.8s-48.2 107.8-107.8 107.8-107.8-48.3-107.8-107.8c.1-59.6 48.4-107.8 107.8-107.8m0-17.2c-68.9 0-124.9 56-124.9 124.9s56 124.9 124.9 124.9 124.9-56 124.9-124.9c-.1-68.8-56-124.9-124.9-124.9z" fill="#081e2e"/><circle cx="592.4" cy="402.9" fill="#081e2e" r="75"/><path d="m592.4 331.9c39.1 0 70.9 31.8 70.9 70.9s-31.8 70.9-70.9 70.9-70.9-31.8-70.9-70.9 31.8-70.9 70.9-70.9m0-8.2c-43.7 0-79 35.4-79 79s35.4 79 79 79 79-35.4 79-79c0-43.5-35.4-79-79-79z" fill="#2bace2"/><circle cx="601.7" cy="382.6" fill="#f1efef" r="24.3"/></svg>