<?xml version="1.0" encoding="utf-8"?>
<!-- Generator: Adobe Illustrator 27.4.1, SVG Export Plug-In . SVG Version: 6.00 Build 0)  -->
<svg version="1.1" id="Layer_1" xmlns="http://www.w3.org/2000/svg" xmlns:xlink="http://www.w3.org/1999/xlink" x="0px" y="0px"
	 viewBox="0 0 1000 337.5" style="enable-background:new 0 0 1000 337.5;" xml:space="preserve">
<rect x="593.7" y="245.2" width="42.3" height="11"/>
<rect x="418.1" y="245.2" width="42.3" height="11"/>
<path d="M667.7,137.9c6.2-2.4,11-5.6,14.5-9.7c3.5-4.1,5.2-9.4,5.2-15.9c0-1.6-0.3-3.3-0.9-5c-0.6-1.8-1.7-3.4-3.2-4.9
	s-3.6-2.7-6.2-3.7c-2.7-1-5.9-1.5-9.8-1.5c-6.2,0-12,1.3-17.4,4c-5.4,2.7-10.2,6.2-14.5,10.5c-4.3,4.3-7.9,9.4-10.9,15.1
	c-3.1,5.6-5.4,11.7-6.9,18.1c10.3-0.4,19.6-1,28.1-2S661.5,140.2,667.7,137.9z"/>
<path d="M995.9,9.9h-34.4h-70h-10.4c-0.6,0-1.1,0.3-1.4,0.7l-6,8.4c-9.4,13.2-19.9,27.4-31.2,42.3c-3.1,4.1-6.3,8.3-9.5,12.4
	c-0.8,1.1-2.5,0.8-3-0.4l-19.2-49.4l-5-12.9c-0.3-0.7-0.9-1.1-1.6-1.1h-13.8H720h-27.4c-3,0-5,3.1-3.8,5.8L700,40.8l8.4,18.7
	c0.7,1.5-0.9,3-2.4,2.3c-2.5-1.3-5.2-2.5-8.1-3.5c-7.6-2.7-16.3-4.1-26.1-4.1c-13.3,0-25.6,2.4-36.9,7l0.3-1.4l5-21.5l5.1-21.9
	c0.6-2.6-1.4-5-4-5h-22.5H482.1H468c-1.9,0-3.6,1.3-4,3.2l-0.7,3c-0.3,1.1-1.5,1.7-2.5,1.2c-1.1-0.6-2.3-1.1-3.6-1.7
	c-3.8-1.7-8.1-3.3-12.8-4.7c-4.9-1.5-10.3-2.8-16.1-3.7c-6-1-12.3-1.5-18.7-1.5c-13.4,0-25.7,1.7-36.5,4.9
	c-11.4,3.5-21.4,8.6-29.6,15.2c-0.5,0.4-1,0.8-1.4,1.2c-1.2-6.2-4.2-13.1-10.7-19C324.5,3.3,315.8,0,306.3,0
	c-10,0-19.2,3.7-26.8,10.7c-5.6,5.2-12.3,14.6-12.3,29.5c0,4-5.6,7.8-4.3-4.7l2-19.6c0.2-2.4-1.7-4.5-4.1-4.5H241h-24.7h-8.9
	c-1.3,0-2.5,0.6-3.3,1.6l-5.3,7.1c-6,8-12.8,17.4-20.2,28.1c-7.4,10.5-15.1,21.8-22.9,33.5c-3.9,5.8-7.7,11.5-11.6,17.3
	c-0.9,1.3-2.9,0.9-3.2-0.6c-0.6-2.9-1.1-5.7-1.7-8.6c-2.4-11.6-4.8-23-7.3-33.7c-2.5-10.9-4.8-20.5-7-28.6l-3.6-13.1
	c-0.5-1.8-2.1-3-4-3h-13.6H78.5H65.8c-1.8,0-3.3,1.1-3.9,2.8l-4.2,12c-4.6,13.3-9.4,27.6-14.3,42.6c-4.8,14.8-9.8,30.3-14.7,46.1
	c-4.9,15.7-9.8,32-14.5,48.2C9.6,179.3,5,195.7,0.7,211.7c-0.5,1.8-0.7,3.7-0.7,5.6V241v4.2v1.8v7.7v1.5v8.5v2.4v9.5v9.2v0.8v17
	c0,2.3,1.8,4.1,4.1,4.1h17.8h595h5.9c1.5,0,2.3,1.7,1.3,2.9l-16.8,20.1c-2.2,2.7-0.3,6.7,3.2,6.7h38.1h72.9h9.5c0.5,0,1-0.2,1.4-0.6
	l6.1-7.4l57.7-70.3c0.8-1,2.5-0.8,3,0.5c0.9,2.4,1.8,4.8,2.7,7.2c2.8,7.5,5.8,15.9,8.9,24.8c3,8.7,6.5,19,10.3,30.7l4.5,13.9
	c0.2,0.7,0.9,1.2,1.7,1.2h14.6h68.4h24.6c2.8,0,4.8-2.7,3.9-5.4l-7.6-23.3c-4.7-14.3-9.3-27.8-13.7-40.2s-9.1-24.7-13.8-36.6
	c-4.7-11.8-9.7-23.7-14.8-35.3c-3.3-7.4-6.6-14.9-10-22.6c-0.3-0.6-0.2-1.4,0.3-1.9c5.9-6.7,11.9-13.8,18.1-21.1
	c9.6-11.3,19.3-23.2,28.9-35.3c9.4-11.9,18.8-24.1,27.8-36.1c9-12.1,17.6-23.9,25.5-35.1l19.9-28.1C1001.2,13.6,999.2,9.9,995.9,9.9
	z M636.6,84.1c9.9-5.2,21.2-7.8,33.7-7.8c7.3,0,13.5,0.9,18.7,2.8s9.5,4.4,12.7,7.6c3.3,3.2,5.7,6.9,7.3,11
	c1.6,4.2,2.4,8.5,2.4,12.9c0,8.3-1.5,15.4-4.5,21.1c-3,5.8-7,10.6-11.9,14.5c-5,3.9-10.8,6.9-17.4,9c-6.6,2.1-13.5,3.8-20.7,5
	c-7.2,1.2-14.4,2.1-21.8,2.5c-7.3,0.4-14.3,0.8-20.8,1.2c-0.2,1.4-0.3,2.6-0.3,3.5c0,0.9,0,1.6,0,2.1c0,4.1,0.5,7.9,1.5,11.5
	c1,3.6,2.8,6.8,5.4,9.6c2.7,2.7,6.3,4.9,11,6.5c4.7,1.6,10.8,2.4,18.5,2.4c3.4,0,6.9-0.3,10.5-0.9s7.1-1.4,10.4-2.4
	c3.3-1,6.2-1.9,8.8-2.9s4.4-1.9,5.4-2.8l2.1,21c-3.5,1.9-9.3,4-17.1,6.2c-7.9,2-17.1,3.1-27.7,3.1c-9,0-16.8-1.3-23.4-3.8
	c-6.6-2.6-12-6.1-16.5-10.6c-4.4-4.5-7.7-9.8-9.8-15.8s-3.2-12.4-3.2-19.1c0-12.4,1.9-24.3,5.6-35.8c3.7-11.5,9-21.7,15.9-30.5
	C618.3,96.4,626.7,89.3,636.6,84.1z M293.1,26.8c3.5-3.3,7.5-4.9,11.9-4.9c4.1,0,7.5,1.3,10.4,3.8c2.8,2.6,4.3,6.2,4.3,10.8
	c0,5.3-1.9,9.6-5.6,12.9c-3.8,3.3-7.8,4.9-12,4.9c-4.1,0-7.5-1.2-10.2-3.7s-4.1-5.9-4.1-10.4C287.8,34.5,289.6,30.1,293.1,26.8z
	 M281.9,79.3h24.7l-33.2,138.1h-24.7L281.9,79.3z M34,169c4.7-16.2,9.5-32.1,14.3-47.8c4.9-15.7,9.7-30.9,14.6-45.8
	c4.9-14.9,9.6-28.9,14.2-42.2h25.2c2.1,7.8,4.4,17,6.8,27.6c2.4,10.6,4.8,21.7,7.2,33.3c2.4,11.6,4.6,23.1,6.6,34.7
	c2,11.5,3.8,22,5.2,31.3c6.4-9.6,13.4-20.1,21.1-31.6s15.4-23.1,23.2-34.7s15.4-22.7,22.7-33.2c7.3-10.5,13.9-19.7,19.8-27.5h24.7
	c-3,29.9-7,60.3-12.1,91.2c-5,30.9-10.6,61.8-16.6,92.8h-25.8c5.3-25.5,10.2-50.2,14.6-74.2c4.6-23.7,8.5-47.2,11.8-70
	c-2.8,3.9-6.4,8.9-10.6,15.1c-4.3,6.2-8.9,13-13.8,20.4c-5,7.4-10.1,15.2-15.4,23.2c-5.3,8.1-10.4,15.8-15.4,23.4
	c-5,7.5-9.6,14.5-13.8,21c-4.3,6.5-7.7,11.7-10.4,15.8h-20.7c-0.7-4.3-1.6-9.6-2.8-16.1c-1.2-6.5-2.4-13.4-3.8-21
	c-1.4-7.5-2.9-15.3-4.4-23.4s-3-15.8-4.5-23.2c-1.5-7.4-2.9-14.2-4.1-20.3c-1.2-6.1-2.3-11.1-3.2-15c-7.4,22.8-14.7,46.4-21.8,70.6
	c-7.1,24.3-14,48.9-20.7,73.8H20.6C24.8,201.3,29.3,185.2,34,169z M262,285.3L262,285.3L262,285.3l-4.2-2.3l0-0.1l-0.3-0.2
	c0,0,0,0,0,0.1l-0.3-0.2l-0.1,1.5l3.2,1.8H20.6v-9.2h223.5l9.7,5.6l0-0.3c0.1,0,0.2-0.1,0.3-0.1c0.1,0,0.2-0.1,0.3-0.1
	c0,0,0,0,0.1,0c0.1,0,0.3,0,0.4-0.1c0,0,0,0,0.1,0c0.1,0,0.3,0,0.4,0c0,0,0,0,0.1,0c0.1,0,0.3,0,0.4,0h0.1c0.1,0,0.2,0,0.3,0
	c0.1,0,0.1,0,0.2,0c0.1,0,0.2,0,0.3,0.1h0.1c0.1,0,0.2,0.1,0.3,0.2c0.1,0,0.1,0.1,0.2,0.1c0,0,0.1,0.2,0.1,0.4
	c0.2-0.1,0.3-0.3,0.4-0.5l0-0.4c0-0.1,0-0.1,0-0.1s0,0,0-0.1c0,0,0,0,0-0.1c-0.1-0.2-0.3-0.5-0.6-0.6c-1-0.5-2.5-0.5-3.4,0l-0.1-0.1
	l0,0.1l-6.9-4h0.1l-20.8-12h0l-6.9-4v1.6l4.1,2.4H20.6v-8.5h206.5l18.9-10.9H20.6V237h239.7l1.6-0.9l34.6,20c-0.9,0.5-0.9,1.4,0,1.9
	c1,0.5,2.5,0.5,3.4,0l4.7,2.7L262,285.3z M384.1,245.3h-53.7v10.9h53.7v8.6h-53.7v21.1h-11.3V237h65V245.3z M356.6,221.1
	c-7.1,0-13.5-0.5-19.3-1.5s-10.8-2.2-15.1-3.6s-8-2.9-11-4.4s-5.3-2.9-6.9-4.1l11.9-21c3.4,2.3,8.7,4.9,15.9,7.8
	c7.5,3.3,16.7,4.7,27.9,4.7c5.5,0,10.9-0.6,16.3-1.7c5.4-1.1,10.2-3.1,14.5-5.7c4.3-2.7,7.7-6.1,10.4-10.5c2.7-4.3,4-9.7,4-16.1
	c0-4.4-0.8-8.3-2.5-11.5c-1.7-3.3-4-6.2-6.9-8.8c-2.9-2.6-6.4-5-10.4-7.2s-8.4-4.6-13.1-7c-4.1-2.1-8.2-4.4-12.3-6.9
	c-4.2-2.5-7.9-5.5-11.2-9.2c-3.3-3.6-5.9-7.9-8-12.9c-2-5-3.1-10.9-3.1-17.8c0-8,1.5-15.3,4.6-22c3.1-6.7,7.7-12.5,13.7-17.4
	s13.4-8.6,22.2-11.3s18.8-4,30.1-4c5.3,0,10.4,0.4,15.1,1.2c4.8,0.8,9.2,1.8,13.1,3.1c4,1.2,7.5,2.5,10.5,3.8s5.2,2.5,6.6,3.6
	l-12,20.2c-3-2.5-7.8-4.7-14.5-6.8c-6.6-2-14.5-3.1-23.5-3.1c-5.7,0-10.9,0.6-15.8,1.7c-4.9,1.2-9.1,3-12.6,5.4
	c-3.5,2.5-6.4,5.6-8.5,9.4c-2.1,3.8-3.2,8.4-3.2,13.7c0,4.6,0.7,8.5,2.1,11.6c1.4,3.1,3.4,5.8,5.8,8.2c2.5,2.4,5.5,4.6,9.2,6.5
	c3.6,2,7.6,4,11.8,6.1c5.3,2.7,10.3,5.4,15,8.1c4.7,2.7,8.8,6,12.3,9.7c3.5,3.7,6.3,8.1,8.4,13c2,5,3.1,11,3.1,18.1
	c0,9.7-1.9,18.3-5.7,25.6c-3.8,7.3-9,13.5-15.7,18.3c-6.6,4.9-14.5,8.5-23.6,11C377.1,219.9,367.2,221.1,356.6,221.1z M463.4,264.8
	h-45.1v21.1h-11.4V237h56.7c4.4,0,8,3.5,8.2,7.9l0.1,11.4C471.9,261,468.1,264.8,463.4,264.8z M475.7,54.8l5-21.5h136.9l-5,21.5H557
	l-39,162.5h-25.8l39-162.5H475.7z M548.1,276.6v-11.9h-34v-8.5H551c4.8,0,8.6,3.8,8.4,8.5v11.9c0,5.1-4.1,9.2-9.2,9.2h-46.6
	c-5.1,0-9.2-4.1-9.2-9.2v-31.8c0.2-4.4,3.8-7.9,8.2-7.9h48.5c4.6,0,8.3,3.7,8.3,8.3h-53.6v31.4H548.1z M593.7,264.8v21.1h-11.4
	v-40.6c0-4.6,3.7-8.3,8.3-8.3h48.5c4.5,0,8.2,3.7,8.3,8.3v40.6H636v-21.1H593.7z M935,66.4c-8.9,11.9-18,23.7-27.4,35.6
	s-18.9,23.5-28.5,34.8s-18.8,22-27.8,32.1c5.7,12.8,11.1,25,16.2,36.4c5,11.5,9.9,23,14.5,34.6c4.6,11.6,9.1,23.5,13.5,35.8
	s8.9,25.5,13.5,39.7h-68.4v0.2c-3.8-11.7-7.3-22.1-10.4-31.1c-3.1-9-6.1-17.4-9-25.2s-5.8-15.2-8.8-22.1c-3-7-6.3-14.3-9.8-21.9
	l-82.3,100.3h-72.9l129-154.4L718.6,31.8H789l34,87.6c12.3-14.7,24.2-29.7,35.6-44.8c11.5-15.2,22-29.4,31.5-42.8h70
	C952.2,43,943.9,54.5,935,66.4z"/>
<path d="M261.9,238.2l-38.8,22.4l36.3,21h5l36.3-21L261.9,238.2z M292.9,262.5l-7.9,4.6c-1.1,0.7-2.6,0.7-3.7,0
	c-1-0.6-2.3-0.6-3.3,0l-3.5,2c-0.8,0.4-0.8,1.6,0,2.1c0.7,0.4,0.7,1.5,0,1.9l-8.7,5c-2.3,1.3-5.1,1.3-7.4,0l-27.5-15.9
	c-1.7-1-1.7-3.5,0-4.5l27.7-16c2.1-1.2,4.8-1.2,6.9,0l27.4,15.8C294.8,258.6,294.8,261.3,292.9,262.5z"/>
<path id="path7147-4_00000052080586310378321900000002517982828360200123_" d="M262.2,244.2c0.7,0,1.3,0.2,1.9,0.5l22.9,13.2
	c0.1,0.1,0.2,0.2,0.2,0.3c0,0.1-0.1,0.2-0.2,0.3l-2,1.1l-20.7,11.9c-0.6,0.4-1.4,0.6-2.1,0.6c-0.7,0-1.5-0.2-2.1-0.6l-23-13.3
	l-0.1,0l0,0c0,0,0,0,0.1,0l0,0l0,0l23.2-13.4C260.9,244.4,261.5,244.2,262.2,244.2 M262.2,242.2c-1,0-2,0.2-2.9,0.8l-23.2,13.4
	c-1.5,0.8-1.5,2.9,0,3.6l23,13.3c1,0.6,2,0.8,3.1,0.8c1.1,0,2.1-0.3,3.1-0.8l20.7-11.9l2-1.1c1.6-0.9,1.6-3.2,0-4.1L265.1,243
	C264.2,242.5,263.2,242.2,262.2,242.2L262.2,242.2z"/>
</svg>
