<svg enable-background="new 0 0 775 1000" viewBox="0 0 775 1000" xmlns="http://www.w3.org/2000/svg"><path d="m742.2 0c18 0 32.8 14.7 32.8 32.7v934.6c0 18-14.8 32.7-32.8 32.7h-709.4c-18 0-32.8-14.7-32.8-32.7v-934.6c0-18 14.8-32.7 32.8-32.7"/><path d="m711 373-74.7-43.1v15.5l-248.8 143.6-248.8-143.6v-15.5l-74.7 43.1v15.5l248.8 143.6-248.8 128.2v15.5l74.7 43.1 248.8-143.6 248.8 143.6 74.7-43.1v-15.5l-248.8-128.2 248.8-143.6z" fill="#296483"/><path d="m711 373-74.7-43.1-248.8 143.6-248.8-143.6-74.7 43.1 248.8 143.7-248.8 143.6 74.7 43.1 248.8-143.6 248.8 143.6 74.7-43.1-248.8-143.6z" fill="#3689af"/><path d="m636.3 102.5-248.8 143.6-248.8-143.6-74.7-43.2v278.7l33.6-19.4 41.1-23.8v-106.1l248.8 143.6 248.8-143.6v106.1l41.1 23.8 33.6 19.4v-278.7z" fill="#bbbab8"/><path d="m44.6 912.3h200.7v6.7h-200.7z" fill="#296483"/><path d="m309.9 889.4v-6.1h-47.5v35.7h8.3v-15.4h39.2v-6.2h-39.2v-8z" fill="#3689af"/><path d="m373.9 889.1c-.2-3.2-2.8-5.7-6-5.7h-41.4v35.6h8.3v-15.4h32.9c3.4 0 6.2-2.8 6.2-6.2zm-8.3 8.3h-30.8v-8h30.8z" fill="#3689af"/><path d="m431.8 897.4h-26.9v6.2h24.8v8.7h-30.8v-22.9h39.1c0-3.3-2.7-6-6-6h-35.4c-3.2 0-5.8 2.5-6 5.7v23.2c0 3.7 3 6.7 6.7 6.7h34c3.7 0 6.7-3 6.7-6.7v-8.7c0-3.4-2.8-6.2-6.2-6.2z" fill="#3689af"/><path d="m44.6 897.4h200.7v6.2h-200.7z" fill="#296483"/><path d="m44.6 883.3h200.7v6h-200.7z" fill="#296483"/><path d="m496 883.3h-35.4c-3.3 0-6 2.7-6 6v29.7h8.3v-15.4h30.8v15.4h8.3v-29.6c.1-3.4-2.6-6.1-6-6.1zm-33.1 14.1v-8h30.8v8z" fill="#3689af"/><g fill="#e9eae9"><path d="m183.9 763.5c-2.1 2.8-4.7 6.5-7.8 11s-6.5 9.5-10.1 14.9-7.4 11.1-11.2 17c-3.9 5.9-7.6 11.6-11.2 17.1s-7 10.6-10.1 15.3-5.6 8.6-7.6 11.5h-15.1c-.5-3.1-1.2-7-2-11.7s-1.8-9.8-2.8-15.3-2.1-11.2-3.2-17.1-2.2-11.5-3.3-17c-1.1-5.4-2.1-10.4-3-14.8-.9-4.5-1.7-8.1-2.3-11-5.4 16.7-10.7 33.9-15.9 51.6s-10.2 35.7-15.1 53.9h-18.6c3.1-11.6 6.4-23.4 9.8-35.2s6.9-23.5 10.5-34.9 7.1-22.6 10.7-33.4c3.6-10.9 7-21.1 10.4-30.8h18.4c1.6 5.7 3.2 12.4 4.9 20.2s3.5 15.9 5.2 24.3c1.7 8.5 3.4 16.9 4.8 25.3 1.5 8.4 2.7 16 3.8 22.9 4.7-7 9.8-14.7 15.4-23.1s11.3-16.8 17-25.3 11.2-16.5 16.6-24.2 10.2-14.4 14.4-20.1h18c-2.2 21.8-5.1 44-8.8 66.6s-7.7 45.1-12.1 67.8h-18.8c3.9-18.6 7.4-36.7 10.7-54.2 3.1-17.5 6-34.6 8.4-51.3z"/><path d="m229.1 869h-18l24.2-100.8h18zm20.9-119c-3 0-5.5-.9-7.5-2.7s-3-4.3-3-7.6c0-4.1 1.3-7.4 3.9-9.8s5.5-3.6 8.7-3.6c3 0 5.5.9 7.6 2.8s3.1 4.5 3.1 7.9c0 3.9-1.4 7-4.1 9.4s-5.6 3.6-8.7 3.6z"/><path d="m292.3 855.6c4 0 8-.4 11.9-1.3 3.9-.8 7.5-2.2 10.6-4.2 3.1-1.9 5.6-4.5 7.6-7.7 1.9-3.2 2.9-7.1 2.9-11.7 0-3.2-.6-6-1.8-8.4s-2.9-4.5-5-6.4-4.7-3.6-7.6-5.2-6.1-3.3-9.6-5.1c-3-1.6-6-3.2-9-5s-5.8-4-8.1-6.7c-2.4-2.6-4.3-5.8-5.8-9.4s-2.2-7.9-2.2-13c0-5.8 1.1-11.2 3.4-16.1s5.6-9.1 10-12.7 9.8-6.3 16.2-8.2 13.7-2.9 22-2.9c3.9 0 7.6.3 11 .9s6.7 1.3 9.6 2.2 5.5 1.8 7.7 2.8 3.8 1.8 4.8 2.6l-8.7 14.7c-2.2-1.8-5.7-3.5-10.6-4.9-4.8-1.5-10.6-2.2-17.2-2.2-4.1 0-8 .4-11.5 1.3-3.6.8-6.6 2.2-9.2 4s-4.7 4.1-6.2 6.9c-1.6 2.8-2.3 6.1-2.3 10 0 3.4.5 6.2 1.6 8.4 1 2.3 2.5 4.3 4.3 6s4 3.3 6.7 4.7c2.6 1.4 5.5 2.9 8.6 4.5 3.9 1.9 7.5 3.9 11 5.9 3.4 2 6.4 4.4 9 7.1s4.6 5.9 6.1 9.5 2.2 8 2.2 13.2c0 7.1-1.4 13.3-4.2 18.7s-6.6 9.8-11.4 13.4-10.6 6.2-17.3 8-13.9 2.7-21.6 2.7c-5.2 0-9.9-.4-14.1-1.1s-7.9-1.6-11-2.6c-3.2-1-5.8-2.1-8-3.2s-3.9-2.1-5-3l8.7-15.3c2.5 1.7 6.3 3.6 11.6 5.7 5 2.1 11.8 3.1 19.9 3.1z"/><path d="m480.3 734.7-3.7 15.7h-40.5l-28.5 118.6h-18.8l28.5-118.6h-40.5l3.7-15.7z"/><path d="m498.7 871.5c-6.6 0-12.3-.9-17.1-2.8s-8.8-4.5-12-7.8-5.6-7.1-7.2-11.5-2.3-9-2.3-14c0-9 1.4-17.8 4.1-26.2s6.6-15.8 11.6-22.3 11.2-11.6 18.4-15.4 15.4-5.7 24.6-5.7c5.3 0 9.9.7 13.7 2 3.8 1.4 6.9 3.2 9.3 5.5s4.2 5 5.3 8c1.2 3 1.7 6.2 1.7 9.4 0 6.1-1.1 11.2-3.3 15.4s-5.1 7.7-8.7 10.6c-3.6 2.8-7.9 5-12.7 6.6s-9.9 2.8-15.1 3.7-10.5 1.5-15.9 1.8-10.4.6-15.2.9c-.1 1-.2 1.9-.2 2.5s0 1.2 0 1.6c0 3 .4 5.8 1.1 8.4.7 2.7 2 5 4 7 1.9 2 4.6 3.6 8 4.7 3.4 1.2 7.9 1.7 13.5 1.7 2.5 0 5-.2 7.7-.7 2.6-.5 5.2-1 7.6-1.7s4.5-1.4 6.4-2.1 3.2-1.4 4-2l1.6 15.3c-2.6 1.4-6.8 2.9-12.5 4.6-5.9 1.7-12.6 2.5-20.4 2.5zm-18.4-55.4c7.5-.3 14.3-.7 20.5-1.5 6.2-.7 11.6-1.9 16.1-3.7 4.5-1.7 8-4.1 10.6-7.1 2.5-3 3.8-6.8 3.8-11.6 0-1.2-.2-2.4-.7-3.7s-1.2-2.5-2.3-3.6-2.6-2-4.6-2.7c-1.9-.7-4.3-1.1-7.2-1.1-4.5 0-8.8 1-12.7 2.9s-7.5 4.5-10.6 7.7-5.8 6.9-7.9 11c-2.1 4.3-3.8 8.7-5 13.4z"/><path d="m643.2 940.7c-2.8-8.6-5.3-16.1-7.6-22.7s-4.5-12.7-6.6-18.4-4.2-11.1-6.4-16.1c-2.2-5.1-4.6-10.4-7.2-16l-60.1 73.2h-53.2l94.1-112.7-42.1-94.5h51.4l24.8 64c9-10.8 17.6-21.7 26-32.7 8.4-11.1 16-21.5 23-31.2h51.1c-5.8 8.2-11.9 16.6-18.4 25.3s-13.2 17.3-20 26c-6.9 8.7-13.8 17.1-20.8 25.4s-13.7 16.1-20.3 23.5c4.2 9.4 8.1 18.2 11.8 26.6s7.2 16.8 10.6 25.3 6.7 17.2 9.9 26.2 6.5 18.6 9.9 29h-49.9z"/></g><path d="m392.1 555.2 66.9-38.7-71.6-41.3-71.6 41.3 66.9 38.7z" fill="#296483"/><path d="m387.5 558.1 4.9-2.8h-9.7z" fill="#e9eae9"/><path d="m444.6 510.8-50.5-29.2c-3.9-2.3-8.8-2.3-12.7 0l-51.1 29.5c-3.2 1.8-3.2 6.4 0 8.3l50.7 29.2c4.2 2.4 9.5 2.4 13.7 0l16-9.2c1.4-.8 1.4-2.7 0-3.5-1.5-.9-1.5-3.1 0-3.9l6.5-3.7c1.9-1.1 4.2-1.1 6.1 0 2.1 1.2 4.7 1.2 6.8 0l14.7-8.5c3.2-2 3.2-7-.2-9" fill="#bbbab8"/><path d="m339.6 508.8 42.7-24.7c3.3-1.9 7.4-1.9 10.7 0l42.2 24.4c2.9 1.7 2.9 5.8 0 7.5l-3.6 2.1-38.2 22c-3.5 2-7.9 2-11.4 0l-42.3-24.4c-2.7-1.6-2.7-5.4-.1-6.9" fill="#e9eae9"/></svg>