<svg enable-background="new 0 0 775 1000" viewBox="0 0 775 1000" xmlns="http://www.w3.org/2000/svg"><path d="m742.2 0c18 0 32.8 14.7 32.8 32.7v934.6c0 18-14.8 32.7-32.8 32.7h-709.4c-18 0-32.8-14.7-32.8-32.7v-934.6c0-18 14.8-32.7 32.8-32.7"/><path d="m656.4 494.9-62.1-35.9v12.9l-206.9 119.4-206.9-119.4v-12.9l-62.1 35.9v12.9l206.9 119.4-206.9 106.5v12.9l62.1 35.9 206.9-119.4 206.9 119.4 62.1-35.9v-12.9l-206.8-106.5 206.8-119.4z" fill="#296483"/><path d="m656.4 494.9-62.1-35.9-206.9 119.4-206.9-119.4-62.1 35.9 206.9 119.4-206.9 119.4 62.1 35.9 206.9-119.4 206.9 119.4 62.1-35.9-206.8-119.4z" fill="#3689af"/><path d="m594.3 269.9-206.9 119.4-206.9-119.4-62.1-35.9v231.7l28-16.1 34.1-19.8v-88.2l206.9 119.4 206.9-119.4v88.2l34.2 19.8 27.9 16.1v-231.7z" fill="#bbbab8"/><path d="m118.6 188.4v9.8l217.8 126.1.3-9.7z" fill="#296483"/><path d="m362.3 320.7c0-.1 0-.3 0-.4s0-.3 0-.4c0-.1-.1-.3-.1-.4s-.1-.2-.1-.3c0-.1-.1-.3-.2-.4s-.1-.3-.2-.4c0-.1-.1-.2-.1-.2-.1-.2-.2-.4-.3-.6 0 0 0 0 0-.1s-.1-.1-.1-.2c-.2-.2-.4-.4-.6-.6 0 0-.1-.1-.1-.1-.1-.1-.1-.1-.1-.1-.4-.3-.7-.7-1.2-1 0 0 0 0-.1-.1-.3-.3-.7-.5-1.1-.7-.7-.4-1.4-.7-2.2-1-.3-.1-.5-.2-.8-.3-.4-.1-.8-.3-1.2-.4-.1-.1-.3-.1-.5-.1-.3-.1-.6-.1-1-.2-.3-.1-.6-.1-.9-.2s-.7-.1-1-.1c-.2 0-.3-.1-.5-.1-.1 0-.2 0-.3 0-.5-.1-1.1-.1-1.6-.1-.2 0-.4 0-.6 0-.1 0-.3 0-.4 0-.2 0-.3 0-.5 0-.5 0-1 0-1.4.1-.2 0-.4.1-.5.1s-.2 0-.4 0-.4 0-.5.1c-.5.1-1 .1-1.5.3-.1 0-.3.1-.4.1s-.3.1-.4.1c-.2.1-.5.1-.7.2-.5.1-1 .3-1.5.5-.1 0-.1.1-.2.1h-.1c-.8.3-1.5.7-2.2 1.1l-.3 9.7c.7-.4 1.5-.8 2.3-1.1.1 0 .1-.1.2-.1.7-.3 1.4-.5 2.2-.7.1 0 .3-.1.4-.1.8-.2 1.6-.3 2.4-.4h.4c.8-.1 1.7-.1 2.5-.1h.4c.8 0 1.7.1 2.5.1.2 0 .3 0 .5.1.6.1 1.3.2 1.9.3.3.1.6.1 1 .2.6.1 1.1.3 1.6.5.3.1.5.2.8.3.8.3 1.5.6 2.2 1 .4.2.7.4 1.1.7 0 0 .1 0 .1.1.4.3.8 5.2 1.2 5.6.1.1.2.1.2.2.2.2.4.4.6.7l.2.2c.1.2.2.4.3.6.1.1.1.2.1.3.1.1.1.3.2.4s.1.3.2.4c0 .1.1.3.1.3 0 .1.1.3.1.5v.4.5l.3-14.3c-.1-.4-.1-.4-.1-.5" fill="#296483"/><path d="m387.6 343.7v9.5l269-155.3v-9.5z" fill="#296483"/><path d="m357.9 326.7-.3 9.7 30 16.8v-9.5z" fill="#296483"/><path d="m118.6 188.4 218.1 126.2c5.8-3.3 15.4-3.3 21.2 0 5.9 3.4 5.8 8.8 0 12.1l29.7 17 269-155.3-29.7-17c-5.8 3.3-15.3 3.4-21.2 0-5.8-3.3-5.8-8.8 0-12.1l-218.1-126.2z" fill="#3689af"/><path d="m403.4 320.4 229-132.2-244.8-141.4-244.8 141.3 229 132.2h31.6" fill="#296483"/><path d="m387.6 330 16.6-9.6h-33.2z" fill="#e9eae9"/><path d="m626.2 190.7c2-1.1 2-4 0-5.1-2-1.2-4.5-1.2-6.5 0-2 1.1-2 4 0 5.1 2 1.1 4.5 1.1 6.5 0" fill="#e9eae9"/><path d="m390.9 54.8c2-1.1 2-4 0-5.1-2-1.2-4.5-1.2-6.5 0-2 1.1-2 4 0 5.1 1.9 1.1 4.4 1.1 6.5 0" fill="#e9eae9"/><path d="m155.5 191c2-1.1 2-4 0-5.1-2-1.2-4.5-1.2-6.5 0-2 1.1-2 4 0 5.1 2 1.1 4.5 1.1 6.5 0" fill="#e9eae9"/><path d="m582.8 173.1-172.7-99.7c-13.5-7.8-30.1-7.8-43.6 0l-174.9 101c-10.9 6.3-10.9 22 0 28.3l173.3 100c14.5 8.4 32.3 8.4 46.8 0l54.6-31.5c4.6-2.7 4.6-9.4 0-12-5.2-3-5.2-10.5 0-13.5l22.1-12.8c6.5-3.7 14.4-3.7 20.9 0 7.2 4.2 16.1 4.2 23.4 0l50.1-29c11.9-6.8 11.9-23.9-0-30.8" fill="#989e9e"/><path d="m582.8 168.3-172.7-99.8c-13.5-7.8-30.1-7.8-43.6 0l-174.9 101c-10.9 6.3-10.9 22 0 28.3l173.3 100c14.5 8.4 32.3 8.4 46.8 0l54.6-31.5c4.6-2.7 4.6-9.4 0-12-5.2-3-5.2-10.5 0-13.5l22.1-12.8c6.5-3.7 14.4-3.7 20.9 0 7.2 4.2 16.1 4.2 23.4 0l50.1-28.9c11.9-6.9 11.9-24-0-30.8" fill="#bbbab8"/><path d="m224.5 166.2 146.2-84.4c11.3-6.5 25.2-6.5 36.4 0l144.4 83.4c9.9 5.7 9.9 20 0 25.7l-143 82.6c-12.1 7-27 7-39.1 0l-144.8-83.6c-9.2-5.3-9.2-18.5-.1-23.7" fill="#afb2b0"/><path d="m224.5 161.3 146.2-84.4c11.3-6.5 25.2-6.5 36.4 0l144.4 83.4c9.9 5.7 9.9 20 0 25.7l-12.5 7.2-130.6 75.4c-12.1 7-27 7-39.1 0l-144.8-83.6c-9.1-5.3-9.1-18.4 0-23.7" fill="#e9eae9"/><g fill="#989e9e"><path d="m397.8 208.7-11.8 6.8-9.6-5.6 11.7-6.7z"/><path d="m415.5 198.6-11.7 6.7-9.7-5.6 11.8-6.7z"/><path d="m412.3 217-11.7 6.7-9.7-5.6 11.7-6.8z"/><path d="m430 206.9-11.8 6.7-9.7-5.6 11.8-6.8z"/><path d="m426.8 225.3-11.7 6.8-9.7-5.6 11.8-6.7z"/><path d="m444.5 215.2-11.7 6.8-9.7-5.6 11.7-6.7z"/><path d="m434.3 187.8-11.8 6.8-9.7-5.6 11.8-6.8z"/><path d="m448.8 196.1-11.7 6.7-9.7-5.6 11.7-6.7z"/><path d="m463.3 204.4-11.7 6.7-9.7-5.6 11.8-6.7z"/><path d="m453.1 177-11.7 6.8-9.7-5.6 11.7-6.8z"/><path d="m470.7 166.8-11.7 6.7-9.7-5.5 11.7-6.7z"/><path d="m467.6 185.3-11.8 6.7-9.7-5.6 11.8-6.8z"/><path d="m485.2 175.2-11.7 6.8-9.7-5.6 11.7-6.7z"/><path d="m482.1 193.6-11.7 6.7-9.7-5.6 11.7-6.7z"/><path d="m499.8 183.5-11.8 6.8-9.7-5.6 11.8-6.8z"/><path d="m414.2 237.9 95.2-54.6-47.9-27.5-95.2 54.6zm97.4-54.6-97.4 55.8-50.2-28.8 97.4-55.9z"/><path d="m393.4 164.3-11.7 6.7-9.7-5.6 11.8-6.7z"/><path d="m407.9 172.6-11.7 6.7-9.7-5.6 11.7-6.7z"/><path d="m412.2 153.5-11.7 6.7-9.7-5.5 11.7-6.7z"/><path d="m429.8 143.4-11.7 6.7-9.7-5.5 11.8-6.7z"/><path d="m426.7 161.8-11.8 6.8-9.6-5.5 11.7-6.7z"/><path d="m444.4 151.7-11.7 6.7-9.7-5.6 11.7-6.7z"/><path d="m393.9 186 60.1-34.4-32.6-18.7-60.1 34.4zm62.3-34.5-62.3 35.7-34.9-20 62.3-35.7z"/><path d="m300.8 154-11.8 6.8-9.6-5.6 11.7-6.7z"/><path d="m318.5 143.9-11.7 6.7-9.7-5.6 11.8-6.7z"/><path d="m315.3 162.4-11.7 6.7-9.7-5.6 11.7-6.8z"/><path d="m333 152.3-11.8 6.7-9.7-5.6 11.8-6.8z"/><path d="m329.9 170.7-11.7 6.8-9.7-5.6 11.8-6.7z"/><path d="m347.5 160.6-11.7 6.8-9.7-5.6 11.7-6.7z"/><path d="m337.3 133.1-11.8 6.8-9.7-5.6 11.8-6.8z"/><path d="m351.8 141.5-11.7 6.7-9.7-5.6 11.7-6.7z"/><path d="m366.3 149.8-11.7 6.7-9.7-5.6 11.8-6.7z"/><path d="m356.1 122.3-11.7 6.8-9.7-5.6 11.7-6.8z"/><path d="m373.7 112.2-11.7 6.8-9.7-5.5 11.7-6.7z"/><path d="m370.6 130.7-11.8 6.7-9.7-5.6 11.8-6.8z"/><path d="m388.3 120.5-11.7 6.8-9.7-5.6 11.7-6.7z"/><path d="m385.1 139-11.7 6.7-9.7-5.6 11.7-6.7z"/><path d="m402.8 128.9-11.8 6.8-9.7-5.6 11.8-6.8z"/><path d="m317.2 183.2 95.2-54.6-47.9-27.5-95.2 54.6zm97.4-54.5-97.4 55.8-50.2-28.8 97.4-55.9z"/></g><path d="m102.3 943.3h166.9v5.6h-166.9z" fill="#296483"/><path d="m322.9 924.2v-5h-39.4v29.7h6.9v-12.8h32.5v-5.2h-32.5v-6.7z" fill="#3689af"/><path d="m376.2 924c-.1-2.7-2.3-4.8-5-4.8h-34.4v29.7h6.9v-12.8h27.3c2.9 0 5.2-2.3 5.2-5.2zm-6.9 6.9h-25.7v-6.7h25.7z" fill="#3689af"/><path d="m424.3 930.9h-22.4v5.2h20.7v7.2h-25.7v-19.1h32.6c0-2.8-2.2-5-5-5h-29.4c-2.7 0-4.9 2.1-5 4.8v19.3c0 3.1 2.5 5.6 5.6 5.6h28.3c3.1 0 5.6-2.5 5.6-5.6v-7.2c-.1-2.9-2.4-5.2-5.3-5.2z" fill="#3689af"/><path d="m102.3 930.9h166.9v5.2h-166.9z" fill="#296483"/><path d="m102.3 919.2h166.9v5h-166.9z" fill="#296483"/><path d="m477.8 919.2h-29.4c-2.8 0-5 2.2-5 5v24.7h6.9v-12.8h25.7v12.8h6.9v-24.7c-.1-2.7-2.4-5-5.1-5zm-27.6 11.7v-6.7h25.7v6.7z" fill="#3689af"/><path d="m218.2 819.6c-1.7 2.4-3.9 5.4-6.4 9.2-2.6 3.8-5.4 7.9-8.4 12.4s-6.1 9.2-9.4 14.1c-3.2 4.9-6.3 9.6-9.4 14.2-3 4.6-5.8 8.8-8.4 12.7s-4.7 7.1-6.3 9.6h-12.6c-.4-2.6-1-5.8-1.7-9.8-.7-3.9-1.5-8.2-2.3-12.7-.9-4.6-1.7-9.3-2.7-14.2-.9-4.9-1.8-9.6-2.7-14.1s-1.7-8.6-2.5-12.3-1.4-6.7-1.9-9.1c-4.5 13.9-8.9 28.2-13.2 42.9s-8.5 29.7-12.6 44.8h-15.5c2.6-9.7 5.3-19.4 8.1-29.3 2.8-9.8 5.7-19.5 8.7-29s5.9-18.8 8.9-27.8 5.8-17.6 8.6-25.6h15.5c1.3 4.7 2.7 10.3 4.1 16.8 1.5 6.4 2.9 13.2 4.4 20.2s2.8 14.1 4 21c1.2 7 2.3 13.3 3.1 19 3.9-5.8 8.1-12.2 12.8-19.2s9.4-14 14.1-21 9.3-13.8 13.8-20.2 8.5-12 12-16.7h15c-1.8 18.2-4.3 36.6-7.3 55.4-3.1 18.8-6.4 37.5-10.1 56.3h-15.6c3.2-15.5 6.2-30.5 8.9-45.1 2.6-14.4 5-28.6 7-42.5z" fill="#e9eae9"/><path d="m255.8 907.3h-15l20.2-83.8h15zm17.4-99c-2.5 0-4.5-.8-6.2-2.3s-2.5-3.6-2.5-6.3c0-3.4 1.1-6.2 3.2-8.1 2.1-2 4.6-3 7.3-3 2.5 0 4.6.8 6.3 2.3 1.7 1.6 2.6 3.7 2.6 6.5 0 3.2-1.1 5.8-3.4 7.8-2.3 2.1-4.7 3.1-7.3 3.1z" fill="#e9eae9"/><path d="m308.3 896.2c3.3 0 6.6-.3 9.9-1s6.2-1.9 8.8-3.5 4.7-3.7 6.3-6.4c1.6-2.6 2.4-5.9 2.4-9.8 0-2.7-.5-5-1.5-7s-2.4-3.8-4.2-5.3c-1.8-1.6-3.9-3-6.3-4.4-2.4-1.3-5.1-2.8-8-4.3-2.5-1.3-5-2.7-7.5-4.2s-4.8-3.4-6.8-5.6-3.6-4.8-4.8-7.8-1.9-6.6-1.9-10.8c0-4.8.9-9.3 2.8-13.4s4.6-7.6 8.3-10.6 8.1-5.2 13.5-6.9c5.3-1.6 11.4-2.4 18.3-2.4 3.2 0 6.3.2 9.2.7s5.6 1.1 8 1.9 4.5 1.5 6.4 2.3c1.8.8 3.2 1.5 4 2.2l-7.3 12.3c-1.8-1.5-4.8-2.9-8.8-4.1s-8.8-1.9-14.3-1.9c-3.4 0-6.6.3-9.6 1s-5.5 1.8-7.7 3.3-3.9 3.4-5.2 5.7-1.9 5.1-1.9 8.3c0 2.8.4 5.1 1.3 7s2 3.5 3.5 5 3.4 2.8 5.6 3.9c2.2 1.2 4.6 2.4 7.2 3.7 3.2 1.6 6.3 3.3 9.1 4.9 2.8 1.7 5.3 3.6 7.5 5.9 2.1 2.3 3.8 4.9 5.1 7.9 1.2 3 1.9 6.7 1.9 11 0 5.9-1.2 11.1-3.5 15.6s-5.5 8.2-9.5 11.1c-4 3-8.8 5.2-14.3 6.7s-11.5 2.3-18 2.3c-4.3 0-8.2-.3-11.7-.9s-6.6-1.3-9.2-2.2-4.9-1.7-6.7-2.7c-1.8-.9-3.2-1.7-4.2-2.5l7.3-12.7c2 1.4 5.3 3 9.7 4.8 4.5 2 10.1 2.9 16.8 2.9z" fill="#e9eae9"/><path d="m464.7 795.6-3.1 13.1h-33.7l-23.7 98.7h-15.6l23.7-98.7h-33.7l3.1-13.1z" fill="#e9eae9"/><path d="m480 909.4c-5.5 0-10.2-.8-14.2-2.3-4-1.6-7.3-3.7-10-6.4s-4.7-5.9-6-9.6-1.9-7.5-1.9-11.6c0-7.5 1.1-14.8 3.4-21.8s5.5-13.2 9.7-18.5c4.2-5.4 9.3-9.6 15.3-12.8s12.8-4.8 20.5-4.8c4.4 0 8.2.6 11.4 1.7s5.7 2.7 7.7 4.6 3.5 4.2 4.4 6.7c1 2.5 1.5 5.1 1.5 7.8 0 5.1-.9 9.3-2.7 12.8s-4.2 6.4-7.3 8.8c-3 2.4-6.5 4.2-10.6 5.5-4 1.3-8.2 2.3-12.6 3.1s-8.8 1.3-13.2 1.5c-4.5.3-8.7.5-12.7.7-.1.9-.2 1.6-.2 2.1v1.3c0 2.5.3 4.8.9 7s1.7 4.1 3.3 5.8 3.8 3 6.7 3.9c2.8 1 6.6 1.5 11.2 1.5 2 0 4.2-.2 6.4-.6s4.3-.9 6.3-1.5 3.8-1.2 5.3-1.8c1.6-.6 2.7-1.2 3.3-1.7l1.3 12.7c-2.1 1.2-5.6 2.4-10.4 3.8-4.7 1.4-10.3 2.1-16.8 2.1zm-15.3-46.1c6.2-.2 11.9-.6 17.1-1.2s9.6-1.6 13.4-3.1 6.7-3.4 8.8-5.9 3.1-5.7 3.1-9.7c0-1-.2-2-.6-3.1s-1-2.1-1.9-3-2.2-1.7-3.8-2.3-3.6-.9-6-.9c-3.8 0-7.3.8-10.6 2.4s-6.2 3.7-8.8 6.4c-2.6 2.6-4.8 5.7-6.6 9.2-1.7 3.7-3.1 7.3-4.1 11.2z" fill="#e9eae9"/><path d="m600.1 966.9c-2.3-7.1-4.4-13.4-6.3-18.9s-3.7-10.6-5.5-15.3c-1.7-4.7-3.5-9.2-5.3-13.4s-3.8-8.7-6-13.3l-50 60.9h-44.2l78.3-93.7-35-78.5h42.8l20.6 53.2c7.5-8.9 14.7-18 21.6-27.2 7-9.2 13.3-17.9 19.1-26h42.5c-4.8 6.8-9.9 13.8-15.3 21s-10.9 14.4-16.7 21.6c-5.7 7.2-11.5 14.3-17.3 21.1-5.8 6.9-11.4 13.4-16.9 19.5 3.5 7.8 6.8 15.2 9.8 22.1 3.1 7 6 14 8.8 21s5.6 14.3 8.2 21.7c2.6 7.5 5.4 15.5 8.2 24.1h-41.4z" fill="#e9eae9"/></svg>