<?xml version="1.0" encoding="utf-8"?>
<!-- Generator: Adobe Illustrator 27.4.1, SVG Export Plug-In . SVG Version: 6.00 Build 0)  -->
<svg version="1.1" id="Layer_1" xmlns="http://www.w3.org/2000/svg" xmlns:xlink="http://www.w3.org/1999/xlink" x="0px" y="0px"
	 viewBox="0 0 775 1000" style="enable-background:new 0 0 775 1000;" xml:space="preserve">
<style type="text/css">
	.st0{fill:#296483;}
	.st1{fill:#3689AF;}
	.st2{fill:#BBBAB8;}
	.st3{fill:#E9EAE9;}
</style>
<path d="M742.2,0c18,0,32.8,14.7,32.8,32.7v934.6c0,18-14.8,32.7-32.8,32.7H32.8c-18,0-32.8-14.7-32.8-32.7V32.7
	C0,14.7,14.8,0,32.8,0"/>
<g>
	<polygon class="st0" points="711,373 636.3,329.9 636.3,345.4 387.5,489 387.5,489 387.5,489 138.7,345.4 138.7,329.9 64,373 
		64,388.5 312.8,532.1 64,660.3 64,675.8 138.7,718.9 387.5,575.3 387.5,575.3 387.5,575.3 636.3,718.9 711,675.8 711,660.3 
		462.2,532.1 711,388.5 	"/>
	<polygon class="st1" points="711,373 636.3,329.9 387.5,473.5 387.5,473.5 387.5,473.5 138.7,329.9 64,373 312.8,516.7 64,660.3 
		138.7,703.4 387.5,559.8 387.5,559.8 387.5,559.8 636.3,703.4 711,660.3 462.2,516.7 	"/>
	<polygon class="st2" points="636.3,102.5 387.5,246.1 138.7,102.5 64,59.3 64,338 97.6,318.6 138.7,294.8 138.7,188.7 387.5,332.3 
		636.3,188.7 636.3,294.8 677.4,318.6 711,338 711,59.3 	"/>
</g>
<g>
	<rect x="44.6" y="912.3" class="st0" width="200.7" height="6.7"/>
	<polygon class="st1" points="309.9,889.4 309.9,883.3 262.4,883.3 262.4,919 270.7,919 270.7,903.6 309.9,903.6 309.9,897.4 
		270.7,897.4 270.7,889.4 	"/>
	<path class="st1" d="M373.9,889.1c-0.2-3.2-2.8-5.7-6-5.7h-41.4V919h8.3v-15.4h32.9c3.4,0,6.2-2.8,6.2-6.2V889.1L373.9,889.1z
		 M365.6,897.4h-30.8v-8h30.8V897.4z"/>
	<path class="st1" d="M431.8,897.4h-26.9v6.2h24.8v8.7h-30.8v-22.9H438c0-3.3-2.7-6-6-6h-35.4c-3.2,0-5.8,2.5-6,5.7l0,0v23.2
		c0,3.7,3,6.7,6.7,6.7h34c3.7,0,6.7-3,6.7-6.7v-8.7l0,0C438,900.2,435.2,897.4,431.8,897.4z"/>
	<rect x="44.6" y="897.4" class="st0" width="200.7" height="6.2"/>
	<rect x="44.6" y="883.3" class="st0" width="200.7" height="6"/>
	<path class="st1" d="M496,883.3h-35.4c-3.3,0-6,2.7-6,6V919h8.3v-15.4h30.8V919h8.3v-29.6C502.1,886,499.4,883.3,496,883.3z
		 M462.9,897.4v-8h30.8v8H462.9z"/>
	<path class="st3" d="M183.9,763.5c-2.1,2.8-4.7,6.5-7.8,11s-6.5,9.5-10.1,14.9s-7.4,11.1-11.2,17c-3.9,5.9-7.6,11.6-11.2,17.1
		c-3.6,5.5-7,10.6-10.1,15.3s-5.6,8.6-7.6,11.5h-15.1c-0.5-3.1-1.2-7-2-11.7s-1.8-9.8-2.8-15.3s-2.1-11.2-3.2-17.1
		c-1.1-5.9-2.2-11.5-3.3-17c-1.1-5.4-2.1-10.4-3-14.8c-0.9-4.5-1.7-8.1-2.3-11c-5.4,16.7-10.7,33.9-15.9,51.6
		c-5.2,17.7-10.2,35.7-15.1,53.9H44.6c3.1-11.6,6.4-23.4,9.8-35.2c3.4-11.8,6.9-23.5,10.5-34.9c3.6-11.4,7.1-22.6,10.7-33.4
		c3.6-10.9,7-21.1,10.4-30.8h18.4c1.6,5.7,3.2,12.4,4.9,20.2c1.7,7.8,3.5,15.9,5.2,24.3c1.7,8.5,3.4,16.9,4.8,25.3
		c1.5,8.4,2.7,16,3.8,22.9c4.7-7,9.8-14.7,15.4-23.1c5.6-8.4,11.3-16.8,17-25.3s11.2-16.5,16.6-24.2c5.4-7.7,10.2-14.4,14.4-20.1h18
		c-2.2,21.8-5.1,44-8.8,66.6s-7.7,45.1-12.1,67.8h-18.8c3.9-18.6,7.4-36.7,10.7-54.2C178.6,797.3,181.5,780.2,183.9,763.5z"/>
	<path class="st3" d="M229.1,869h-18l24.2-100.8h18L229.1,869z M250,750c-3,0-5.5-0.9-7.5-2.7s-3-4.3-3-7.6c0-4.1,1.3-7.4,3.9-9.8
		c2.6-2.4,5.5-3.6,8.7-3.6c3,0,5.5,0.9,7.6,2.8c2.1,1.9,3.1,4.5,3.1,7.9c0,3.9-1.4,7-4.1,9.4C256,748.8,253.1,750,250,750z"/>
	<path class="st3" d="M292.3,855.6c4,0,8-0.4,11.9-1.3c3.9-0.8,7.5-2.2,10.6-4.2c3.1-1.9,5.6-4.5,7.6-7.7c1.9-3.2,2.9-7.1,2.9-11.7
		c0-3.2-0.6-6-1.8-8.4c-1.2-2.4-2.9-4.5-5-6.4s-4.7-3.6-7.6-5.2c-2.9-1.6-6.1-3.3-9.6-5.1c-3-1.6-6-3.2-9-5s-5.8-4-8.1-6.7
		c-2.4-2.6-4.3-5.8-5.8-9.4c-1.5-3.6-2.2-7.9-2.2-13c0-5.8,1.1-11.2,3.4-16.1c2.3-4.9,5.6-9.1,10-12.7c4.4-3.6,9.8-6.3,16.2-8.2
		c6.4-1.9,13.7-2.9,22-2.9c3.9,0,7.6,0.3,11,0.9s6.7,1.3,9.6,2.2s5.5,1.8,7.7,2.8s3.8,1.8,4.8,2.6l-8.7,14.7
		c-2.2-1.8-5.7-3.5-10.6-4.9c-4.8-1.5-10.6-2.2-17.2-2.2c-4.1,0-8,0.4-11.5,1.3c-3.6,0.8-6.6,2.2-9.2,4s-4.7,4.1-6.2,6.9
		c-1.6,2.8-2.3,6.1-2.3,10c0,3.4,0.5,6.2,1.6,8.4c1,2.3,2.5,4.3,4.3,6s4,3.3,6.7,4.7c2.6,1.4,5.5,2.9,8.6,4.5
		c3.9,1.9,7.5,3.9,11,5.9c3.4,2,6.4,4.4,9,7.1c2.6,2.7,4.6,5.9,6.1,9.5s2.2,8,2.2,13.2c0,7.1-1.4,13.3-4.2,18.7
		c-2.8,5.4-6.6,9.8-11.4,13.4c-4.8,3.6-10.6,6.2-17.3,8c-6.7,1.8-13.9,2.7-21.6,2.7c-5.2,0-9.9-0.4-14.1-1.1
		c-4.2-0.7-7.9-1.6-11-2.6c-3.2-1-5.8-2.1-8-3.2c-2.2-1.1-3.9-2.1-5-3l8.7-15.3c2.5,1.7,6.3,3.6,11.6,5.7
		C277.4,854.6,284.2,855.6,292.3,855.6z"/>
	<path class="st3" d="M480.3,734.7l-3.7,15.7h-40.5L407.6,869h-18.8l28.5-118.6h-40.5l3.7-15.7H480.3z"/>
	<path class="st3" d="M498.7,871.5c-6.6,0-12.3-0.9-17.1-2.8c-4.8-1.9-8.8-4.5-12-7.8s-5.6-7.1-7.2-11.5s-2.3-9-2.3-14
		c0-9,1.4-17.8,4.1-26.2s6.6-15.8,11.6-22.3s11.2-11.6,18.4-15.4c7.2-3.8,15.4-5.7,24.6-5.7c5.3,0,9.9,0.7,13.7,2
		c3.8,1.4,6.9,3.2,9.3,5.5c2.4,2.3,4.2,5,5.3,8c1.2,3,1.7,6.2,1.7,9.4c0,6.1-1.1,11.2-3.3,15.4s-5.1,7.7-8.7,10.6
		c-3.6,2.8-7.9,5-12.7,6.6s-9.9,2.8-15.1,3.7c-5.2,0.9-10.5,1.5-15.9,1.8s-10.4,0.6-15.2,0.9c-0.1,1-0.2,1.9-0.2,2.5s0,1.2,0,1.6
		c0,3,0.4,5.8,1.1,8.4c0.7,2.7,2,5,4,7c1.9,2,4.6,3.6,8,4.7c3.4,1.2,7.9,1.7,13.5,1.7c2.5,0,5-0.2,7.7-0.7c2.6-0.5,5.2-1,7.6-1.7
		s4.5-1.4,6.4-2.1c1.9-0.7,3.2-1.4,4-2l1.6,15.3c-2.6,1.4-6.8,2.9-12.5,4.6C513.2,870.7,506.5,871.5,498.7,871.5z M480.3,816.1
		c7.5-0.3,14.3-0.7,20.5-1.5c6.2-0.7,11.6-1.9,16.1-3.7c4.5-1.7,8-4.1,10.6-7.1c2.5-3,3.8-6.8,3.8-11.6c0-1.2-0.2-2.4-0.7-3.7
		s-1.2-2.5-2.3-3.6s-2.6-2-4.6-2.7c-1.9-0.7-4.3-1.1-7.2-1.1c-4.5,0-8.8,1-12.7,2.9c-3.9,1.9-7.5,4.5-10.6,7.7s-5.8,6.9-7.9,11
		C483.2,807,481.5,811.4,480.3,816.1z"/>
	<path class="st3" d="M643.2,940.7c-2.8-8.6-5.3-16.1-7.6-22.7c-2.3-6.6-4.5-12.7-6.6-18.4s-4.2-11.1-6.4-16.1
		c-2.2-5.1-4.6-10.4-7.2-16l-60.1,73.2h-53.2L596.2,828l-42.1-94.5h51.4l24.8,64c9-10.8,17.6-21.7,26-32.7c8.4-11.1,16-21.5,23-31.2
		h51.1c-5.8,8.2-11.9,16.6-18.4,25.3s-13.2,17.3-20,26c-6.9,8.7-13.8,17.1-20.8,25.4c-7,8.3-13.7,16.1-20.3,23.5
		c4.2,9.4,8.1,18.2,11.8,26.6c3.7,8.4,7.2,16.8,10.6,25.3c3.4,8.5,6.7,17.2,9.9,26.2s6.5,18.6,9.9,29h-49.9V940.7z"/>
</g>
<path id="path7131-2_00000150825108290067192460000001916300739825037963_" class="st0" d="M392.1,555.2l66.9-38.7l-71.6-41.3
	l-71.6,41.3l66.9,38.7H392.1"/>
<path id="path7133-9_00000006690759922728456580000015176054566669377959_" class="st3" d="M387.5,558.1l4.9-2.8h-9.7L387.5,558.1z"
	/>
<path id="path7143-7_00000124133943069403001440000017015159534741911702_" class="st2" d="M444.6,510.8l-50.5-29.2
	c-3.9-2.3-8.8-2.3-12.7,0l-51.1,29.5c-3.2,1.8-3.2,6.4,0,8.3l50.7,29.2c4.2,2.4,9.5,2.4,13.7,0l16-9.2c1.4-0.8,1.4-2.7,0-3.5l0,0
	c-1.5-0.9-1.5-3.1,0-3.9l6.5-3.7c1.9-1.1,4.2-1.1,6.1,0l0,0c2.1,1.2,4.7,1.2,6.8,0l14.7-8.5C448,517.8,448,512.8,444.6,510.8"/>
<path id="path7147-4_00000084509670644560279300000017252893373736203178_" class="st3" d="M339.6,508.8l42.7-24.7
	c3.3-1.9,7.4-1.9,10.7,0l42.2,24.4c2.9,1.7,2.9,5.8,0,7.5l-3.6,2.1l-38.2,22c-3.5,2-7.9,2-11.4,0l-42.3-24.4
	C337,514.1,337,510.3,339.6,508.8"/>
</svg>
