<?xml version="1.0" encoding="utf-8"?>
<!-- Generator: Adobe Illustrator 27.4.1, SVG Export Plug-In . SVG Version: 6.00 Build 0)  -->
<svg version="1.1" id="Layer_1" xmlns="http://www.w3.org/2000/svg" xmlns:xlink="http://www.w3.org/1999/xlink" x="0px" y="0px"
	 viewBox="0 0 775 1000" style="enable-background:new 0 0 775 1000;" xml:space="preserve">
<style type="text/css">
	.st0{fill:#296483;}
	.st1{fill:#3689AF;}
	.st2{fill:#BBBAB8;}
	.st3{fill:#E9EAE9;}
	.st4{fill:#989E9E;}
	.st5{fill:#AFB2B0;}
</style>
<path d="M742.2,0c18,0,32.8,14.7,32.8,32.7v934.6c0,18-14.8,32.7-32.8,32.7H32.8c-18,0-32.8-14.7-32.8-32.7V32.7
	C0,14.7,14.8,0,32.8,0"/>
<g>
	<polygon class="st0" points="656.4,494.9 594.3,459 594.3,471.9 387.4,591.3 387.4,591.3 387.4,591.3 180.5,471.9 180.5,459 
		118.4,494.9 118.4,507.8 325.3,627.2 118.4,733.7 118.4,746.6 180.5,782.5 387.4,663.1 387.4,663.1 387.4,663.1 594.3,782.5 
		656.4,746.6 656.4,733.7 449.6,627.2 656.4,507.8 	"/>
	<polygon class="st1" points="656.4,494.9 594.3,459 387.4,578.4 387.4,578.4 387.4,578.4 180.5,459 118.4,494.9 325.3,614.3 
		118.4,733.7 180.5,769.6 387.4,650.2 387.4,650.2 387.4,650.2 594.3,769.6 656.4,733.7 449.6,614.3 	"/>
	<polygon class="st2" points="594.3,269.9 387.4,389.3 180.5,269.9 118.4,234 118.4,465.7 146.4,449.6 180.5,429.8 180.5,341.6 
		387.4,461 594.3,341.6 594.3,429.8 628.5,449.6 656.4,465.7 656.4,234 	"/>
	<g>
		<path id="path7121-9" class="st0" d="M118.6,188.4v9.8l217.8,126.1l0.3-9.7L118.6,188.4"/>
		<path id="path7123-7" class="st0" d="M362.3,320.7c0-0.1,0-0.3,0-0.4c0-0.1,0-0.3,0-0.4c0,0,0,0,0,0c0-0.1-0.1-0.3-0.1-0.4
			c0-0.1-0.1-0.2-0.1-0.3c0,0,0,0,0,0c0-0.1-0.1-0.3-0.2-0.4c-0.1-0.1-0.1-0.3-0.2-0.4c0,0,0,0,0,0c0-0.1-0.1-0.2-0.1-0.2
			c-0.1-0.2-0.2-0.4-0.3-0.6c0,0,0,0,0-0.1c0-0.1-0.1-0.1-0.1-0.2c-0.2-0.2-0.4-0.4-0.6-0.6c0,0-0.1-0.1-0.1-0.1
			c-0.1-0.1-0.1-0.1-0.1-0.1c-0.4-0.3-0.7-0.7-1.2-1c0,0,0,0-0.1-0.1c0,0,0,0,0,0c-0.3-0.3-0.7-0.5-1.1-0.7c-0.7-0.4-1.4-0.7-2.2-1
			c-0.3-0.1-0.5-0.2-0.8-0.3c-0.4-0.1-0.8-0.3-1.2-0.4l0,0v0l0,0v0c-0.1-0.1-0.3-0.1-0.5-0.1c-0.3-0.1-0.6-0.1-1-0.2
			c-0.3-0.1-0.6-0.1-0.9-0.2c-0.3-0.1-0.7-0.1-1-0.1c-0.2,0-0.3-0.1-0.5-0.1c-0.1,0-0.2,0-0.3,0l0,0v0l0,0v0
			c-0.5-0.1-1.1-0.1-1.6-0.1c-0.2,0-0.4,0-0.6,0c-0.1,0-0.3,0-0.4,0c-0.2,0-0.3,0-0.5,0c-0.5,0-1,0-1.4,0.1c-0.2,0-0.4,0.1-0.5,0.1
			c-0.1,0-0.2,0-0.4,0c-0.2,0-0.4,0-0.5,0.1c-0.5,0.1-1,0.1-1.5,0.3c-0.1,0-0.3,0.1-0.4,0.1c-0.1,0-0.3,0.1-0.4,0.1
			c-0.2,0.1-0.5,0.1-0.7,0.2c-0.5,0.1-1,0.3-1.5,0.5c-0.1,0-0.1,0.1-0.2,0.1c0,0-0.1,0-0.1,0c-0.8,0.3-1.5,0.7-2.2,1.1l-0.3,9.7
			c0.7-0.4,1.5-0.8,2.3-1.1c0.1,0,0.1-0.1,0.2-0.1c0.7-0.3,1.4-0.5,2.2-0.7c0.1,0,0.3-0.1,0.4-0.1c0.8-0.2,1.6-0.3,2.4-0.4
			c0.1,0,0.2,0,0.4,0c0.8-0.1,1.7-0.1,2.5-0.1c0.1,0,0.3,0,0.4,0c0.8,0,1.7,0.1,2.5,0.1c0.2,0,0.3,0,0.5,0.1
			c0.6,0.1,1.3,0.2,1.9,0.3c0.3,0.1,0.6,0.1,1,0.2c0.6,0.1,1.1,0.3,1.6,0.5c0.3,0.1,0.5,0.2,0.8,0.3c0.8,0.3,1.5,0.6,2.2,1
			c0.4,0.2,0.7,0.4,1.1,0.7c0,0,0.1,0,0.1,0.1c0.4,0.3,0.8,5.2,1.2,5.6c0.1,0.1,0.2,0.1,0.2,0.2c0.2,0.2,0.4,0.4,0.6,0.7
			c0.1,0.1,0.1,0.1,0.2,0.2c0.1,0.2,0.2,0.4,0.3,0.6c0.1,0.1,0.1,0.2,0.1,0.3c0.1,0.1,0.1,0.3,0.2,0.4c0.1,0.1,0.1,0.3,0.2,0.4
			c0,0.1,0.1,0.3,0.1,0.3c0,0.1,0.1,0.3,0.1,0.5c0,0.1,0,0.3,0,0.4c0,0.1,0,0.3,0,0.5l0.3-14.3v0
			C362.3,320.8,362.3,320.8,362.3,320.7"/>
		<path id="path7125-3" class="st0" d="M387.6,343.7v9.5l269-155.3v-9.5L387.6,343.7"/>
		<path id="path7127-6" class="st0" d="M357.9,326.7l-0.3,9.7l30,16.8v-9.5L357.9,326.7"/>
		<path id="path7129-1" class="st1" d="M118.6,188.4l218.1,126.2c5.8-3.3,15.4-3.3,21.2,0c5.9,3.4,5.8,8.8,0,12.1l29.7,17l269-155.3
			l-29.7-17c-5.8,3.3-15.3,3.4-21.2,0c-5.8-3.3-5.8-8.8,0-12.1L387.6,33.1L118.6,188.4"/>
		<path id="path7131-2" class="st0" d="M403.4,320.4l229-132.2L387.6,46.8L142.8,188.1l229,132.2H403.4"/>
		<path id="path7133-9" class="st3" d="M387.6,330l16.6-9.6H371L387.6,330z"/>
		<path id="path7135-3" class="st3" d="M626.2,190.7L626.2,190.7c2-1.1,2-4,0-5.1l0,0c-2-1.2-4.5-1.2-6.5,0l0,0c-2,1.1-2,4,0,5.1
			l0,0C621.7,191.8,624.2,191.8,626.2,190.7"/>
		<path id="path7137-1" class="st3" d="M390.9,54.8L390.9,54.8c2-1.1,2-4,0-5.1l0,0c-2-1.2-4.5-1.2-6.5,0l0,0c-2,1.1-2,4,0,5.1l0,0
			C386.3,55.9,388.8,55.9,390.9,54.8"/>
		<path id="path7139-9" class="st3" d="M155.5,191L155.5,191c2-1.1,2-4,0-5.1l0,0c-2-1.2-4.5-1.2-6.5,0l0,0c-2,1.1-2,4,0,5.1l0,0
			C151,192.1,153.5,192.1,155.5,191"/>
		<path id="path7141-4" class="st4" d="M582.8,173.1L410.1,73.4c-13.5-7.8-30.1-7.8-43.6,0l-174.9,101c-10.9,6.3-10.9,22,0,28.3
			l173.3,100c14.5,8.4,32.3,8.4,46.8,0l54.6-31.5c4.6-2.7,4.6-9.4,0-12l0,0c-5.2-3-5.2-10.5,0-13.5l22.1-12.8
			c6.5-3.7,14.4-3.7,20.9,0l0,0c7.2,4.2,16.1,4.2,23.4,0l50.1-29C594.7,197.1,594.7,180,582.8,173.1"/>
		<path id="path7143-7" class="st2" d="M582.8,168.3L410.1,68.5c-13.5-7.8-30.1-7.8-43.6,0l-174.9,101c-10.9,6.3-10.9,22,0,28.3
			l173.3,100c14.5,8.4,32.3,8.4,46.8,0l54.6-31.5c4.6-2.7,4.6-9.4,0-12l0,0c-5.2-3-5.2-10.5,0-13.5l22.1-12.8
			c6.5-3.7,14.4-3.7,20.9,0l0,0c7.2,4.2,16.1,4.2,23.4,0l50.1-28.9C594.7,192.2,594.7,175.1,582.8,168.3"/>
		<path id="path7145-8" class="st5" d="M224.5,166.2l146.2-84.4c11.3-6.5,25.2-6.5,36.4,0l144.4,83.4c9.9,5.7,9.9,20,0,25.7
			l-143,82.6c-12.1,7-27,7-39.1,0l-144.8-83.6C215.4,184.6,215.4,171.4,224.5,166.2"/>
		<path id="path7147-4" class="st3" d="M224.5,161.3l146.2-84.4c11.3-6.5,25.2-6.5,36.4,0l144.4,83.4c9.9,5.7,9.9,20,0,25.7
			l-12.5,7.2l-130.6,75.4c-12.1,7-27,7-39.1,0L224.5,185C215.4,179.7,215.4,166.6,224.5,161.3"/>
		<path id="path3050-6-1" class="st4" d="M397.8,208.7l-11.8,6.8l-9.6-5.6l11.7-6.7L397.8,208.7"/>
		<path id="path3052-1-2" class="st4" d="M415.5,198.6l-11.7,6.7l-9.7-5.6l11.8-6.7L415.5,198.6"/>
		<path id="path3054-5-9" class="st4" d="M412.3,217l-11.7,6.7l-9.7-5.6l11.7-6.8L412.3,217"/>
		<path id="path3056-5-3" class="st4" d="M430,206.9l-11.8,6.7l-9.7-5.6l11.8-6.8L430,206.9"/>
		<path id="path3058-4-9" class="st4" d="M426.8,225.3l-11.7,6.8l-9.7-5.6l11.8-6.7L426.8,225.3"/>
		<path id="path3060-7-0" class="st4" d="M444.5,215.2l-11.7,6.8l-9.7-5.6l11.7-6.7L444.5,215.2"/>
		<path id="path3062-6-8" class="st4" d="M434.3,187.8l-11.8,6.8l-9.7-5.6l11.8-6.8L434.3,187.8"/>
		<path id="path3064-5-8" class="st4" d="M448.8,196.1l-11.7,6.7l-9.7-5.6l11.7-6.7L448.8,196.1"/>
		<path id="path3066-6-5" class="st4" d="M463.3,204.4l-11.7,6.7l-9.7-5.6l11.8-6.7L463.3,204.4"/>
		<path id="path3068-9-0" class="st4" d="M453.1,177l-11.7,6.8l-9.7-5.6l11.7-6.8L453.1,177"/>
		<path id="path3070-3-9" class="st4" d="M470.7,166.8l-11.7,6.7l-9.7-5.5l11.7-6.7L470.7,166.8"/>
		<path id="path3072-7-63" class="st4" d="M467.6,185.3l-11.8,6.7l-9.7-5.6l11.8-6.8L467.6,185.3"/>
		<path id="path3074-4-85" class="st4" d="M485.2,175.2l-11.7,6.8l-9.7-5.6l11.7-6.7L485.2,175.2"/>
		<path id="path3076-5-6" class="st4" d="M482.1,193.6l-11.7,6.7l-9.7-5.6l11.7-6.7L482.1,193.6"/>
		<path id="path3078-2-1" class="st4" d="M499.8,183.5l-11.8,6.8l-9.7-5.6l11.8-6.8L499.8,183.5"/>
		<path id="path3080-5-1" class="st4" d="M414.2,237.9l95.2-54.6l-47.9-27.5l-95.2,54.6L414.2,237.9z M511.6,183.3l-97.4,55.8
			l-50.2-28.8l97.4-55.9L511.6,183.3"/>
		<path id="path3082-4-5" class="st4" d="M393.4,164.3l-11.7,6.7l-9.7-5.6l11.8-6.7L393.4,164.3"/>
		<path id="path3084-7-9" class="st4" d="M407.9,172.6l-11.7,6.7l-9.7-5.6l11.7-6.7L407.9,172.6"/>
		<path id="path3086-4-8" class="st4" d="M412.2,153.5l-11.7,6.7l-9.7-5.5l11.7-6.7L412.2,153.5"/>
		<path id="path3088-4-4" class="st4" d="M429.8,143.4l-11.7,6.7l-9.7-5.5l11.8-6.7L429.8,143.4"/>
		<path id="path3090-3-8" class="st4" d="M426.7,161.8l-11.8,6.8l-9.6-5.5l11.7-6.7L426.7,161.8"/>
		<path id="path3092-0-1" class="st4" d="M444.4,151.7l-11.7,6.7l-9.7-5.6l11.7-6.7L444.4,151.7"/>
		<path id="path3094-7-0" class="st4" d="M393.9,186l60.1-34.4l-32.6-18.7l-60.1,34.4L393.9,186z M456.2,151.5l-62.3,35.7l-34.9-20
			l62.3-35.7L456.2,151.5"/>
		<path id="path3050-6-8-3" class="st4" d="M300.8,154l-11.8,6.8l-9.6-5.6l11.7-6.7L300.8,154"/>
		<path id="path3052-1-6-0" class="st4" d="M318.5,143.9l-11.7,6.7l-9.7-5.6l11.8-6.7L318.5,143.9"/>
		<path id="path3054-5-8-4" class="st4" d="M315.3,162.4l-11.7,6.7l-9.7-5.6l11.7-6.8L315.3,162.4"/>
		<path id="path3056-5-8-4" class="st4" d="M333,152.3l-11.8,6.7l-9.7-5.6l11.8-6.8L333,152.3"/>
		<path id="path3058-4-4-4" class="st4" d="M329.9,170.7l-11.7,6.8l-9.7-5.6l11.8-6.7L329.9,170.7"/>
		<path id="path3060-7-3-4" class="st4" d="M347.5,160.6l-11.7,6.8l-9.7-5.6l11.7-6.7L347.5,160.6"/>
		<path id="path3062-6-1-7" class="st4" d="M337.3,133.1l-11.8,6.8l-9.7-5.6l11.8-6.8L337.3,133.1"/>
		<path id="path3064-5-4-6" class="st4" d="M351.8,141.5l-11.7,6.7l-9.7-5.6l11.7-6.7L351.8,141.5"/>
		<path id="path3066-6-9-3" class="st4" d="M366.3,149.8l-11.7,6.7l-9.7-5.6l11.8-6.7L366.3,149.8"/>
		<path id="path3068-9-2-1" class="st4" d="M356.1,122.3l-11.7,6.8l-9.7-5.6l11.7-6.8L356.1,122.3"/>
		<path id="path3070-3-0-7" class="st4" d="M373.7,112.2L362,119l-9.7-5.5l11.7-6.7L373.7,112.2"/>
		<path id="path3072-7-6-5" class="st4" d="M370.6,130.7l-11.8,6.7l-9.7-5.6l11.8-6.8L370.6,130.7"/>
		<path id="path3074-4-8-9" class="st4" d="M388.3,120.5l-11.7,6.8l-9.7-5.6l11.7-6.7L388.3,120.5"/>
		<path id="path3076-5-9-6" class="st4" d="M385.1,139l-11.7,6.7l-9.7-5.6l11.7-6.7L385.1,139"/>
		<path id="path3078-2-2-2" class="st4" d="M402.8,128.9l-11.8,6.8l-9.7-5.6l11.8-6.8L402.8,128.9"/>
		<path id="path3080-5-6-1" class="st4" d="M317.2,183.2l95.2-54.6l-47.9-27.5l-95.2,54.6L317.2,183.2z M414.6,128.7l-97.4,55.8
			l-50.2-28.8l97.4-55.9L414.6,128.7"/>
	</g>
</g>
<g>
	<rect x="102.3" y="943.3" class="st0" width="166.9" height="5.6"/>
	<polygon class="st1" points="322.9,924.2 322.9,919.2 283.5,919.2 283.5,948.9 290.4,948.9 290.4,936.1 322.9,936.1 322.9,930.9 
		290.4,930.9 290.4,924.2 	"/>
	<path class="st1" d="M376.2,924c-0.1-2.7-2.3-4.8-5-4.8h-34.4v29.7h6.9v-12.8H371c2.9,0,5.2-2.3,5.2-5.2L376.2,924L376.2,924z
		 M369.3,930.9h-25.7v-6.7h25.7V930.9z"/>
	<path class="st1" d="M424.3,930.9h-22.4v5.2h20.7v7.2h-25.7v-19.1h32.6c0-2.8-2.2-5-5-5h-29.4c-2.7,0-4.9,2.1-5,4.8h0v19.3
		c0,3.1,2.5,5.6,5.6,5.6h28.3c3.1,0,5.6-2.5,5.6-5.6v-7.2v0C429.5,933.2,427.2,930.9,424.3,930.9z"/>
	<rect x="102.3" y="930.9" class="st0" width="166.9" height="5.2"/>
	<rect x="102.3" y="919.2" class="st0" width="166.9" height="5"/>
	<path class="st1" d="M477.8,919.2h-29.4c-2.8,0-5,2.2-5,5v24.7h6.9v-12.8h25.7v12.8h6.9v-24.7C482.8,921.5,480.5,919.2,477.8,919.2
		z M450.2,930.9v-6.7h25.7v6.7H450.2z"/>
	<path class="st3" d="M218.2,819.6c-1.7,2.4-3.9,5.4-6.4,9.2c-2.6,3.8-5.4,7.9-8.4,12.4c-3,4.5-6.1,9.2-9.4,14.1
		c-3.2,4.9-6.3,9.6-9.4,14.2c-3,4.6-5.8,8.8-8.4,12.7c-2.6,3.9-4.7,7.1-6.3,9.6h-12.6c-0.4-2.6-1-5.8-1.7-9.8
		c-0.7-3.9-1.5-8.2-2.3-12.7c-0.9-4.6-1.7-9.3-2.7-14.2c-0.9-4.9-1.8-9.6-2.7-14.1c-0.9-4.5-1.7-8.6-2.5-12.3
		c-0.8-3.7-1.4-6.7-1.9-9.1c-4.5,13.9-8.9,28.2-13.2,42.9c-4.3,14.7-8.5,29.7-12.6,44.8h-15.5c2.6-9.7,5.3-19.4,8.1-29.3
		c2.8-9.8,5.7-19.5,8.7-29c3-9.5,5.9-18.8,8.9-27.8c3-9,5.8-17.6,8.6-25.6H152c1.3,4.7,2.7,10.3,4.1,16.8c1.5,6.4,2.9,13.2,4.4,20.2
		c1.5,7,2.8,14.1,4,21c1.2,7,2.3,13.3,3.1,19c3.9-5.8,8.1-12.2,12.8-19.2c4.7-7,9.4-14,14.1-21c4.7-7,9.3-13.8,13.8-20.2
		c4.5-6.4,8.5-12,12-16.7h15c-1.8,18.2-4.3,36.6-7.3,55.4c-3.1,18.8-6.4,37.5-10.1,56.3h-15.6c3.2-15.5,6.2-30.5,8.9-45.1
		C213.8,847.7,216.2,833.5,218.2,819.6z"/>
	<path class="st3" d="M255.8,907.3h-15l20.2-83.8h15L255.8,907.3z M273.2,808.3c-2.5,0-4.5-0.8-6.2-2.3c-1.7-1.5-2.5-3.6-2.5-6.3
		c0-3.4,1.1-6.2,3.2-8.1c2.1-2,4.6-3,7.3-3c2.5,0,4.6,0.8,6.3,2.3c1.7,1.6,2.6,3.7,2.6,6.5c0,3.2-1.1,5.8-3.4,7.8
		C278.2,807.3,275.8,808.3,273.2,808.3z"/>
	<path class="st3" d="M308.3,896.2c3.3,0,6.6-0.3,9.9-1c3.3-0.7,6.2-1.9,8.8-3.5c2.6-1.6,4.7-3.7,6.3-6.4c1.6-2.6,2.4-5.9,2.4-9.8
		c0-2.7-0.5-5-1.5-7c-1-2-2.4-3.8-4.2-5.3c-1.8-1.6-3.9-3-6.3-4.4c-2.4-1.3-5.1-2.8-8-4.3c-2.5-1.3-5-2.7-7.5-4.2
		c-2.5-1.5-4.8-3.4-6.8-5.6c-2-2.2-3.6-4.8-4.8-7.8c-1.2-3-1.9-6.6-1.9-10.8c0-4.8,0.9-9.3,2.8-13.4c1.9-4.1,4.6-7.6,8.3-10.6
		c3.7-3,8.1-5.2,13.5-6.9c5.3-1.6,11.4-2.4,18.3-2.4c3.2,0,6.3,0.2,9.2,0.7c2.9,0.5,5.6,1.1,8,1.9c2.4,0.8,4.5,1.5,6.4,2.3
		c1.8,0.8,3.2,1.5,4,2.2l-7.3,12.3c-1.8-1.5-4.8-2.9-8.8-4.1c-4-1.2-8.8-1.9-14.3-1.9c-3.4,0-6.6,0.3-9.6,1c-3,0.7-5.5,1.8-7.7,3.3
		c-2.2,1.5-3.9,3.4-5.2,5.7c-1.3,2.3-1.9,5.1-1.9,8.3c0,2.8,0.4,5.1,1.3,7c0.9,1.9,2,3.5,3.5,5c1.5,1.5,3.4,2.8,5.6,3.9
		c2.2,1.2,4.6,2.4,7.2,3.7c3.2,1.6,6.3,3.3,9.1,4.9c2.8,1.7,5.3,3.6,7.5,5.9c2.1,2.3,3.8,4.9,5.1,7.9c1.2,3,1.9,6.7,1.9,11
		c0,5.9-1.2,11.1-3.5,15.6c-2.3,4.5-5.5,8.2-9.5,11.1c-4,3-8.8,5.2-14.3,6.7c-5.5,1.5-11.5,2.3-18,2.3c-4.3,0-8.2-0.3-11.7-0.9
		c-3.5-0.6-6.6-1.3-9.2-2.2c-2.6-0.9-4.9-1.7-6.7-2.7c-1.8-0.9-3.2-1.7-4.2-2.5l7.3-12.7c2,1.4,5.3,3,9.7,4.8
		C296,895.3,301.6,896.2,308.3,896.2z"/>
	<path class="st3" d="M464.7,795.6l-3.1,13.1h-33.7l-23.7,98.7h-15.6l23.7-98.7h-33.7l3.1-13.1H464.7z"/>
	<path class="st3" d="M480,909.4c-5.5,0-10.2-0.8-14.2-2.3c-4-1.6-7.3-3.7-10-6.4c-2.7-2.7-4.7-5.9-6-9.6c-1.3-3.7-1.9-7.5-1.9-11.6
		c0-7.5,1.1-14.8,3.4-21.8c2.3-7,5.5-13.2,9.7-18.5c4.2-5.4,9.3-9.6,15.3-12.8c6-3.2,12.8-4.8,20.5-4.8c4.4,0,8.2,0.6,11.4,1.7
		c3.2,1.1,5.7,2.7,7.7,4.6c2,1.9,3.5,4.2,4.4,6.7c1,2.5,1.5,5.1,1.5,7.8c0,5.1-0.9,9.3-2.7,12.8c-1.8,3.5-4.2,6.4-7.3,8.8
		c-3,2.4-6.5,4.2-10.6,5.5c-4,1.3-8.2,2.3-12.6,3.1c-4.4,0.8-8.8,1.3-13.2,1.5c-4.5,0.3-8.7,0.5-12.7,0.7c-0.1,0.9-0.2,1.6-0.2,2.1
		c0,0.5,0,1,0,1.3c0,2.5,0.3,4.8,0.9,7c0.6,2.2,1.7,4.1,3.3,5.8c1.6,1.7,3.8,3,6.7,3.9c2.8,1,6.6,1.5,11.2,1.5c2,0,4.2-0.2,6.4-0.6
		c2.2-0.4,4.3-0.9,6.3-1.5c2-0.6,3.8-1.2,5.3-1.8c1.6-0.6,2.7-1.2,3.3-1.7l1.3,12.7c-2.1,1.2-5.6,2.4-10.4,3.8
		C492.1,908.7,486.5,909.4,480,909.4z M464.7,863.3c6.2-0.2,11.9-0.6,17.1-1.2c5.2-0.6,9.6-1.6,13.4-3.1c3.8-1.5,6.7-3.4,8.8-5.9
		c2.1-2.5,3.1-5.7,3.1-9.7c0-1-0.2-2-0.6-3.1c-0.4-1.1-1-2.1-1.9-3c-0.9-0.9-2.2-1.7-3.8-2.3c-1.6-0.6-3.6-0.9-6-0.9
		c-3.8,0-7.3,0.8-10.6,2.4c-3.3,1.6-6.2,3.7-8.8,6.4c-2.6,2.6-4.8,5.7-6.6,9.2C467.1,855.8,465.7,859.4,464.7,863.3z"/>
	<path class="st3" d="M600.1,966.9c-2.3-7.1-4.4-13.4-6.3-18.9c-1.9-5.5-3.7-10.6-5.5-15.3c-1.7-4.7-3.5-9.2-5.3-13.4
		c-1.8-4.2-3.8-8.7-6-13.3l-50,60.9h-44.2l78.3-93.7l-35-78.5h42.8l20.6,53.2c7.5-8.9,14.7-18,21.6-27.2c7-9.2,13.3-17.9,19.1-26
		h42.5c-4.8,6.8-9.9,13.8-15.3,21c-5.4,7.2-10.9,14.4-16.7,21.6c-5.7,7.2-11.5,14.3-17.3,21.1c-5.8,6.9-11.4,13.4-16.9,19.5
		c3.5,7.8,6.8,15.2,9.8,22.1c3.1,7,6,14,8.8,21c2.8,7,5.6,14.3,8.2,21.7c2.6,7.5,5.4,15.5,8.2,24.1H600.1z"/>
</g>
</svg>
