<?xml version="1.0" encoding="utf-8"?>
<!-- Generator: Adobe Illustrator 28.3.0, SVG Export Plug-In . SVG Version: 6.00 Build 0)  -->
<svg version="1.1" id="Layer_1" xmlns="http://www.w3.org/2000/svg" xmlns:xlink="http://www.w3.org/1999/xlink" x="0px" y="0px"
	 viewBox="0 0 1000 1000" style="enable-background:new 0 0 1000 1000;" xml:space="preserve">
<style type="text/css">
	.st0{fill:#001C2F;}
	.st1{fill:#296483;}
	.st2{fill:#F0EFEF;}
	.st3{fill:#00AEEF;}
	.st4{fill:#E9EAE9;}
	.st5{fill:#3689AF;}
	.st6{fill:#BBBAB8;}
</style>
<rect class="st0" width="1000" height="1000"/>
<path class="st1" d="M940.1,879.5c11,0,19.9,8.7,20.4,19.6c0.9-1.1,1.9-1.8,2.9-2.3c2.2-1.1,4.4-1.1,4.5-1.1h1.2v1.2
	c0,2.5-0.7,6-4.1,7.9c-0.6,0.3-1.1,0.6-1.6,0.7c2.4,0.9,3.8,2.6,4.6,4.1c1.1,2.2,1.1,4.4,1.1,4.5v1.2h-1.2c-2.9,0-5.2-0.9-6.8-2.6
	c-0.2-0.2-0.4-0.4-0.6-0.7c0,2,1.3,3.7,3.2,4.3c4.4,1.5,7.5,5.7,7.5,10.6c0,4.9-3.1,9.1-7.5,10.6c-1.9,0.7-3.2,2.4-3.2,4.4v5.9
	c0,1.8,1.2,3.5,2.9,4.1c3.5,1.2,6,4.5,5.9,8.4c-0.1,4.8-4.1,8.7-8.9,8.7H929c-2.3,0-4.4-1.4-5.4-3.5c-1.4-3.1-4.5-5.3-8.1-5.3
	c-3.6,0-6.7,2.2-8.1,5.3c-0.9,2.1-3,3.5-5.4,3.5h-31.3c-4.8,0-8.9-3.8-8.9-8.7c-0.1-3.9,2.4-7.2,5.9-8.4c1.7-0.6,2.9-2.2,2.9-4.1
	v-5.9c0-2-1.3-3.8-3.2-4.4c-4.4-1.5-7.5-5.7-7.5-10.6s3.1-9.1,7.5-10.6c1.9-0.7,3.2-2.4,3.2-4.4v-12.2c0-11.3,9.1-20.4,20.4-20.4
	H940.1 M940.1,878.1h-49c-5.8,0-11.3,2.3-15.4,6.4c-4.1,4.1-6.4,9.6-6.4,15.4V912c0,1.4-0.9,2.6-2.2,3.1c-5.1,1.8-8.4,6.6-8.4,12
	c0,5.4,3.4,10.2,8.4,12c1.3,0.5,2.2,1.7,2.2,3.1v5.9c0,1.2-0.8,2.3-1.9,2.7c-4.2,1.4-6.9,5.4-6.9,9.8c0,2.7,1.1,5.3,3.1,7.2
	c2,1.9,4.5,2.9,7.3,2.9h31.3c2.9,0,5.5-1.7,6.7-4.4c1.2-2.7,3.8-4.5,6.8-4.5c2.9,0,5.6,1.7,6.8,4.5c1.1,2.6,3.8,4.4,6.7,4.4h31.3
	c2.7,0,5.3-1,7.3-2.9c2-1.9,3.1-4.5,3.1-7.2c0.1-4.4-2.7-8.4-6.9-9.8c-1.2-0.4-1.9-1.5-1.9-2.7v-5.9c0-1.4,0.9-2.6,2.2-3.1
	c5.1-1.8,8.4-6.6,8.4-12c0-4.1-2-7.9-5.2-10.3c0.2,0,0.3,0,0.5,0h1.2h1.4v-1.4v-1.2c0-0.3,0-2.7-1.3-5.2c-0.7-1.4-1.6-2.5-2.8-3.4
	c1.4-1,2.5-2.3,3.2-4c0.6-1.4,0.9-3,0.9-4.7v-1.2v-1.4h-1.4h-1.2c-0.3,0-2.7,0-5.2,1.3c-0.4,0.2-0.7,0.4-1.1,0.6
	c-0.8-4.5-3-8.7-6.4-12C951.2,880.2,945.8,878.1,940.1,878.1L940.1,878.1z"/>
<path class="st1" d="M953.1,896.9h-74.9c-3.2,0-5.7,3.9-5.7,8.6l0,0c0,2.1,0.5,4.7,1.3,7.1c1.2,3.4,4.6,5.6,8.1,5.2l29.8-3
	c3.1-0.3,6.2-0.3,9.3,0l28.4,3c3.6,0.4,7-1.8,8.2-5.2c0.8-2.3,1.3-5,1.3-7l0,0C958.8,900.7,956.2,896.9,953.1,896.9z"/>
<g>
	<circle class="st2" cx="903.1" cy="911.8" r="12"/>
	<path class="st0" d="M903.1,899.8c6.6,0,12,5.4,12,12s-5.4,12-12,12c-6.6,0-12-5.4-12-12S896.4,899.8,903.1,899.8 M903.1,897.9
		c-7.7,0-13.9,6.2-13.9,13.9s6.2,13.9,13.9,13.9s13.9-6.2,13.9-13.9S910.7,897.9,903.1,897.9L903.1,897.9z"/>
	<g>
		<g>
			<circle class="st0" cx="906.2" cy="913.6" r="8.8"/>
			<path class="st3" d="M906.2,905.7c4.3,0,7.9,3.5,7.9,7.9c0,4.3-3.5,7.9-7.9,7.9s-7.9-3.5-7.9-7.9
				C898.4,909.2,901.9,905.7,906.2,905.7 M906.2,904.8c-4.9,0-8.8,3.9-8.8,8.8c0,4.9,3.9,8.8,8.8,8.8c4.9,0,8.8-3.9,8.8-8.8
				C915,908.7,911.1,904.8,906.2,904.8L906.2,904.8z"/>
		</g>
		<circle class="st2" cx="905.2" cy="911.3" r="2.7"/>
	</g>
	<circle class="st2" cx="929" cy="911.8" r="12"/>
	<path class="st0" d="M929,899.8c6.6,0,12,5.4,12,12s-5.4,12-12,12c-6.6,0-12-5.4-12-12S922.4,899.8,929,899.8 M929,897.9
		c-7.7,0-13.9,6.2-13.9,13.9s6.2,13.9,13.9,13.9s13.9-6.2,13.9-13.9S936.7,897.9,929,897.9L929,897.9z"/>
	<g>
		<g>
			<circle class="st0" cx="925.9" cy="913.6" r="8.8"/>
			<path class="st3" d="M925.9,905.7c4.3,0,7.9,3.5,7.9,7.9c0,4.3-3.5,7.9-7.9,7.9s-7.9-3.5-7.9-7.9
				C918,909.2,921.5,905.7,925.9,905.7 M925.9,904.8c-4.9,0-8.8,3.9-8.8,8.8c0,4.9,3.9,8.8,8.8,8.8c4.9,0,8.8-3.9,8.8-8.8
				C934.6,908.7,930.7,904.8,925.9,904.8L925.9,904.8z"/>
		</g>
		<circle class="st2" cx="926.9" cy="911.3" r="2.7"/>
	</g>
</g>
<rect x="-141.3" y="414.2" class="st1" width="789.3" height="30.1"/>
<g>
	<rect x="-25.8" y="347.3" class="st3" width="691.7" height="27.9"/>
</g>
<rect x="-141.3" y="284.4" class="st1" width="789.3" height="27"/>
<path class="st4" d="M715,548.5c-4.7-14.3-8.9-27-12.7-38c-3.8-11-7.5-21.2-11-30.7c-3.5-9.5-7.1-18.5-10.7-27
	c-3.7-8.5-7.7-17.4-12-26.7L568.1,548.5h-89l157.5-188.5l-70.5-158h86l41.5,107c15-18,29.5-36.2,43.5-54.7
	c14-18.5,26.8-35.9,38.5-52.2H861c-9.7,13.7-19.9,27.7-30.7,42.2c-10.8,14.5-22,29-33.5,43.5c-11.5,14.5-23.1,28.7-34.7,42.5
	c-11.7,13.8-23,26.9-34,39.2c7,15.7,13.6,30.5,19.7,44.5c6.2,14,12.1,28.1,17.7,42.2c5.7,14.2,11.2,28.7,16.5,43.7
	c5.3,15,10.8,31.2,16.5,48.5H715z"/>
<polygon class="st4" points="193.5,350.7 193.5,350.7 193.4,350.7 184.3,359.8 175.2,350.7 175.2,350.7 175.2,350.7 170.2,350.7 
	170.2,371.8 175.2,371.8 175.2,355.9 184.3,365.1 193.5,355.9 193.5,371.8 198.4,371.8 198.4,350.7 "/>
<path class="st4" d="M210.6,350.7c-1.3,0-2.4,1.1-2.4,2.4v18.8h4.9v-9.1h18.3v9.1h4.9v-18.8c0-1.3-1.1-2.4-2.4-2.4H210.6z
	 M213.2,359v-4.6h18.3v4.6H213.2z"/>
<path class="st4" d="M269.5,371.8h4.9l-3.8-9.1h1.2h0.1c1.3,0,2.4-1.1,2.4-2.4v-7.3c0-1.3-1.1-2.4-2.4-2.4h-25.8v21.2h4.9v-9.1h14.6
	L269.5,371.8z M251.1,354.4h18.3v4.6h-18.3V354.4z"/>
<path class="st4" d="M312.3,356.9v-6.2h-4.9v8.3h-18.3v-8.3h-4.9v21.2h4.9v-9.1h18.3v9.1h4.9v-7c0-2.2-1.8-4-4-4
	C310.6,360.9,312.3,359.1,312.3,356.9z"/>
<path class="st4" d="M327.1,359v-4.6h23.1v-3.7h-25.6c-1.3,0-2.4,1.1-2.4,2.4v7.3c0,1.3,1.1,2.4,2.4,2.4h20.8v5.4h-23.2v3.7H348
	c1.3,0,2.4-1.1,2.4-2.4v-8.1c0-1.3-1.1-2.4-2.4-2.4H327.1z"/>
<path class="st4" d="M479,359v-4.6h23.1v-3.7h-25.6c-1.3,0-2.4,1.1-2.4,2.4v7.3c0,1.3,1.1,2.4,2.4,2.4h20.8v5.4h-23.2v3.7h25.8
	c1.3,0,2.4-1.1,2.4-2.4v-8.1c0-1.3-1.1-2.4-2.4-2.4H479z"/>
<polygon class="st0" points="388.2,350.7 360.2,350.7 360.2,354.4 371.7,354.4 371.7,371.8 376.6,371.8 376.6,354.4 388.2,354.4 "/>
<polygon class="st0" points="421.4,350.7 421.4,359 403.1,359 403.1,350.7 398.2,350.7 398.2,371.8 403.1,371.8 403.1,362.7 
	421.4,362.7 421.4,371.8 426.3,371.8 426.3,350.7 "/>
<polygon class="st0" points="464.2,354.4 464.2,350.7 441.1,350.7 436.2,350.7 436.2,354.4 436.2,368.1 436.2,371.8 441.1,371.8 
	464.2,371.8 464.2,368.1 441.1,368.1 441.1,362.7 461.8,362.7 461.8,359 441.1,359 441.1,354.4 "/>
<path class="st4" d="M512.1,350.7v21.2h4.9v-9.1h20.8c1.3,0,2.4-1.1,2.4-2.4v-7.3c0-1.3-1.1-2.4-2.4-2.4H512.1z M517.1,359v-4.6
	h18.3v4.6H517.1z"/>
<path class="st4" d="M550.1,353.1v16.4c0,1.3,1.1,2.4,2.4,2.4h23.4c1.3,0,2.4-1.1,2.4-2.4v-16.4c0-1.3-1.1-2.4-2.4-2.4h-23.4
	C551.2,350.7,550.1,351.7,550.1,353.1z M555.1,368.1v-13.7h18.3v13.7H555.1z"/>
<rect x="599.7" y="350.7" class="st4" width="4.9" height="21.2"/>
<rect x="588.1" y="350.7" class="st4" width="28" height="3.7"/>
<path class="st4" d="M246.2,350.7"/>
<g>
	<rect x="-2.1" y="964.4" class="st1" width="73.6" height="2.1"/>
	<g>
		<polygon class="st3" points="99.8,957.1 99.8,955.2 84.7,955.2 84.7,966.5 87.3,966.5 87.3,961.6 99.8,961.6 99.8,959.6 
			87.3,959.6 87.3,957.1 		"/>
	</g>
	<g>
		<path class="st3" d="M120.1,957c0-1-0.9-1.8-1.9-1.8H105v11.3h2.6v-4.9h10.5c1.1,0,2-0.9,2-2L120.1,957L120.1,957z M117.5,959.6
			h-9.8v-2.5h9.8V959.6z"/>
	</g>
	<g>
		<path class="st3" d="M138.5,959.6h-8.5v2h7.9v2.8H128v-7.3h12.4c0-1.1-0.9-1.9-1.9-1.9h-11.2c-1,0-1.9,0.8-1.9,1.8h0v7.4
			c0,1.2,1,2.1,2.1,2.1h10.8c1.2,0,2.1-1,2.1-2.1v-2.8v0C140.4,960.5,139.6,959.6,138.5,959.6z"/>
	</g>
	<g>
		<rect x="-2.1" y="959.6" class="st3" width="67.6" height="2"/>
	</g>
	<rect x="-2.1" y="955.2" class="st1" width="73.6" height="1.9"/>
	<g>
		<path class="st3" d="M158.9,955.2h-11.2c-1.1,0-1.9,0.9-1.9,1.9v9.4h2.6v-4.9h9.8v4.9h2.6v-9.4C160.8,956,159.9,955.2,158.9,955.2
			z M148.4,959.6v-2.5h9.8v2.5H148.4z"/>
	</g>
	<path class="st4" d="M59.8,917.1c-0.7,0.9-1.5,2.1-2.5,3.5c-1,1.4-2.1,3-3.2,4.7c-1.1,1.7-2.3,3.5-3.6,5.4
		c-1.2,1.9-2.4,3.7-3.6,5.4c-1.1,1.7-2.2,3.4-3.2,4.9c-1,1.5-1.8,2.7-2.4,3.7h-4.8c-0.2-1-0.4-2.2-0.6-3.7c-0.3-1.5-0.6-3.1-0.9-4.9
		c-0.3-1.7-0.7-3.5-1-5.4c-0.3-1.9-0.7-3.7-1-5.4c-0.3-1.7-0.7-3.3-1-4.7c-0.3-1.4-0.5-2.6-0.7-3.5c-1.7,5.3-3.4,10.8-5,16.4
		c-1.6,5.6-3.2,11.3-4.8,17.1h-5.9c1-3.7,2-7.4,3.1-11.2c1.1-3.8,2.2-7.4,3.3-11.1c1.1-3.6,2.3-7.2,3.4-10.6
		c1.1-3.4,2.2-6.7,3.3-9.8h5.8c0.5,1.8,1,3.9,1.6,6.4c0.6,2.5,1.1,5,1.7,7.7c0.6,2.7,1.1,5.4,1.5,8c0.5,2.7,0.9,5.1,1.2,7.3
		c1.5-2.2,3.1-4.7,4.9-7.3c1.8-2.7,3.6-5.3,5.4-8c1.8-2.7,3.6-5.3,5.3-7.7c1.7-2.4,3.2-4.6,4.6-6.4h5.7c-0.7,6.9-1.6,14-2.8,21.1
		c-1.2,7.2-2.5,14.3-3.8,21.5h-6c1.2-5.9,2.4-11.6,3.4-17.2C58.1,927.9,59,922.4,59.8,917.1z"/>
	<path class="st4" d="M74.1,950.6h-5.7l7.7-32h5.7L74.1,950.6z M80.8,912.8c-0.9,0-1.7-0.3-2.4-0.9c-0.6-0.6-1-1.4-1-2.4
		c0-1.3,0.4-2.3,1.2-3.1c0.8-0.8,1.7-1.1,2.8-1.1c0.9,0,1.7,0.3,2.4,0.9c0.7,0.6,1,1.4,1,2.5c0,1.2-0.4,2.2-1.3,3
		C82.7,912.5,81.7,912.8,80.8,912.8z"/>
	<path class="st4" d="M94.2,946.4c1.3,0,2.5-0.1,3.8-0.4c1.3-0.3,2.4-0.7,3.4-1.3c1-0.6,1.8-1.4,2.4-2.4c0.6-1,0.9-2.2,0.9-3.7
		c0-1-0.2-1.9-0.6-2.7c-0.4-0.8-0.9-1.4-1.6-2c-0.7-0.6-1.5-1.1-2.4-1.7c-0.9-0.5-1.9-1.1-3-1.6c-0.9-0.5-1.9-1-2.9-1.6
		c-1-0.6-1.8-1.3-2.6-2.1c-0.8-0.8-1.4-1.8-1.8-3c-0.5-1.1-0.7-2.5-0.7-4.1c0-1.8,0.4-3.5,1.1-5.1c0.7-1.6,1.8-2.9,3.2-4
		c1.4-1.1,3.1-2,5.1-2.6c2-0.6,4.4-0.9,7-0.9c1.2,0,2.4,0.1,3.5,0.3c1.1,0.2,2.1,0.4,3,0.7c0.9,0.3,1.7,0.6,2.4,0.9
		c0.7,0.3,1.2,0.6,1.5,0.8l-2.8,4.7c-0.7-0.6-1.8-1.1-3.4-1.6c-1.5-0.5-3.4-0.7-5.4-0.7c-1.3,0-2.5,0.1-3.7,0.4
		c-1.1,0.3-2.1,0.7-2.9,1.3c-0.8,0.6-1.5,1.3-2,2.2c-0.5,0.9-0.7,1.9-0.7,3.2c0,1.1,0.2,2,0.5,2.7c0.3,0.7,0.8,1.4,1.4,1.9
		c0.6,0.6,1.3,1.1,2.1,1.5c0.8,0.5,1.8,0.9,2.7,1.4c1.2,0.6,2.4,1.2,3.5,1.9c1.1,0.6,2,1.4,2.9,2.2c0.8,0.9,1.5,1.9,1.9,3
		c0.5,1.1,0.7,2.5,0.7,4.2c0,2.3-0.4,4.2-1.3,5.9c-0.9,1.7-2.1,3.1-3.6,4.2c-1.5,1.1-3.4,2-5.5,2.6c-2.1,0.6-4.4,0.9-6.9,0.9
		c-1.6,0-3.1-0.1-4.5-0.3c-1.3-0.2-2.5-0.5-3.5-0.8c-1-0.3-1.9-0.7-2.6-1c-0.7-0.3-1.2-0.7-1.6-1l2.8-4.9c0.8,0.5,2,1.1,3.7,1.8
		C89.5,946,91.6,946.4,94.2,946.4z"/>
	<path class="st4" d="M153.9,908l-1.2,5h-12.9l-9,37.7h-6l9-37.7H121l1.2-5H153.9z"/>
	<path class="st4" d="M159.7,951.4c-2.1,0-3.9-0.3-5.4-0.9c-1.5-0.6-2.8-1.4-3.8-2.5c-1-1-1.8-2.3-2.3-3.7c-0.5-1.4-0.7-2.9-0.7-4.4
		c0-2.9,0.4-5.6,1.3-8.3c0.9-2.7,2.1-5,3.7-7.1c1.6-2.1,3.5-3.7,5.8-4.9c2.3-1.2,4.9-1.8,7.8-1.8c1.7,0,3.1,0.2,4.3,0.6
		c1.2,0.4,2.2,1,3,1.8c0.8,0.7,1.3,1.6,1.7,2.6c0.4,1,0.6,2,0.6,3c0,1.9-0.3,3.6-1,4.9c-0.7,1.3-1.6,2.5-2.8,3.4
		c-1.1,0.9-2.5,1.6-4,2.1c-1.5,0.5-3.1,0.9-4.8,1.2c-1.7,0.3-3.3,0.5-5,0.6c-1.7,0.1-3.3,0.2-4.8,0.3c0,0.3-0.1,0.6-0.1,0.8
		c0,0.2,0,0.4,0,0.5c0,0.9,0.1,1.8,0.3,2.7c0.2,0.8,0.6,1.6,1.3,2.2c0.6,0.6,1.5,1.1,2.6,1.5c1.1,0.4,2.5,0.6,4.3,0.6
		c0.8,0,1.6-0.1,2.4-0.2c0.8-0.1,1.6-0.3,2.4-0.6c0.8-0.2,1.4-0.5,2-0.7c0.6-0.2,1-0.4,1.3-0.6l0.5,4.9c-0.8,0.5-2.1,0.9-4,1.4
		C164.3,951.2,162.2,951.4,159.7,951.4z M153.9,933.8c2.4-0.1,4.6-0.2,6.5-0.5c2-0.2,3.7-0.6,5.1-1.2c1.4-0.6,2.6-1.3,3.4-2.2
		c0.8-0.9,1.2-2.2,1.2-3.7c0-0.4-0.1-0.8-0.2-1.2c-0.1-0.4-0.4-0.8-0.7-1.1c-0.3-0.3-0.8-0.6-1.4-0.9c-0.6-0.2-1.4-0.3-2.3-0.3
		c-1.4,0-2.8,0.3-4,0.9c-1.3,0.6-2.4,1.4-3.4,2.4c-1,1-1.8,2.2-2.5,3.5C154.8,930.9,154.2,932.4,153.9,933.8z"/>
	<path class="st4" d="M205.6,973.4c-0.9-2.7-1.7-5.1-2.4-7.2c-0.7-2.1-1.4-4-2.1-5.8c-0.7-1.8-1.3-3.5-2-5.1
		c-0.7-1.6-1.5-3.3-2.3-5.1l-19.1,23.3h-16.9l29.9-35.8l-13.4-30h16.3l7.9,20.3c2.8-3.4,5.6-6.9,8.3-10.4c2.7-3.5,5.1-6.8,7.3-9.9
		h16.2c-1.8,2.6-3.8,5.3-5.8,8c-2.1,2.8-4.2,5.5-6.4,8.3c-2.2,2.8-4.4,5.4-6.6,8.1c-2.2,2.6-4.4,5.1-6.5,7.4c1.3,3,2.6,5.8,3.7,8.4
		c1.2,2.7,2.3,5.3,3.4,8c1.1,2.7,2.1,5.5,3.1,8.3c1,2.8,2.1,5.9,3.1,9.2H205.6z"/>
</g>
<path id="path7121-9" class="st1" d="M61.6,960.7v0.4l8,4.6l0-0.4L61.6,960.7"/>
<path id="path7123-7" class="st1" d="M70.5,965.5C70.5,965.5,70.5,965.5,70.5,965.5C70.5,965.5,70.5,965.5,70.5,965.5
	C70.5,965.5,70.5,965.5,70.5,965.5C70.5,965.5,70.5,965.5,70.5,965.5C70.5,965.5,70.5,965.5,70.5,965.5
	C70.5,965.5,70.5,965.5,70.5,965.5C70.5,965.5,70.5,965.5,70.5,965.5C70.5,965.5,70.5,965.4,70.5,965.5
	C70.5,965.4,70.5,965.4,70.5,965.5C70.5,965.4,70.5,965.4,70.5,965.5c0-0.1,0-0.1,0-0.1c0,0,0,0,0,0c0,0,0,0,0,0c0,0,0,0,0,0
	c0,0,0,0,0,0c0,0,0,0,0,0c0,0,0,0,0,0c0,0,0,0,0,0c0,0,0,0,0,0c0,0,0,0,0,0c0,0-0.1,0-0.1,0c0,0,0,0,0,0c0,0,0,0,0,0l0,0v0l0,0v0
	c0,0,0,0,0,0c0,0,0,0,0,0c0,0,0,0,0,0c0,0,0,0,0,0c0,0,0,0,0,0c0,0,0,0,0,0l0,0v0l0,0v0c0,0,0,0-0.1,0c0,0,0,0,0,0c0,0,0,0,0,0
	c0,0,0,0,0,0c0,0,0,0-0.1,0c0,0,0,0,0,0c0,0,0,0,0,0c0,0,0,0,0,0c0,0,0,0-0.1,0c0,0,0,0,0,0c0,0,0,0,0,0c0,0,0,0,0,0c0,0,0,0-0.1,0
	c0,0,0,0,0,0c0,0,0,0,0,0c0,0-0.1,0-0.1,0l0,0.4c0,0,0.1,0,0.1,0c0,0,0,0,0,0c0,0,0.1,0,0.1,0c0,0,0,0,0,0c0,0,0.1,0,0.1,0
	c0,0,0,0,0,0c0,0,0.1,0,0.1,0c0,0,0,0,0,0c0,0,0.1,0,0.1,0c0,0,0,0,0,0c0,0,0,0,0.1,0c0,0,0,0,0,0c0,0,0,0,0.1,0c0,0,0,0,0,0
	c0,0,0.1,0,0.1,0c0,0,0,0,0,0c0,0,0,0,0,0c0,0,0,0.2,0,0.2c0,0,0,0,0,0c0,0,0,0,0,0c0,0,0,0,0,0c0,0,0,0,0,0c0,0,0,0,0,0
	c0,0,0,0,0,0c0,0,0,0,0,0c0,0,0,0,0,0c0,0,0,0,0,0c0,0,0,0,0,0c0,0,0,0,0,0L70.5,965.5L70.5,965.5C70.5,965.5,70.5,965.5,70.5,965.5
	"/>
<path id="path7125-3" class="st1" d="M71.5,966.4v0.4l9.9-5.7v-0.4L71.5,966.4"/>
<path id="path7127-6" class="st1" d="M70.4,965.8l0,0.4l1.1,0.6v-0.4L70.4,965.8"/>
<path id="path7129-1" class="st5" d="M61.6,960.7l8,4.6c0.2-0.1,0.6-0.1,0.8,0c0.2,0.1,0.2,0.3,0,0.4l1.1,0.6l9.9-5.7l-1.1-0.6
	c-0.2,0.1-0.6,0.1-0.8,0c-0.2-0.1-0.2-0.3,0-0.4l-8-4.6L61.6,960.7"/>
<path id="path7131-2" class="st1" d="M72,965.5l8.4-4.9l-9-5.2l-9,5.2l8.4,4.9H72"/>
<path id="path7143-7" class="st6" d="M78.6,959.9l-6.3-3.7c-0.5-0.3-1.1-0.3-1.6,0l-6.4,3.7c-0.4,0.2-0.4,0.8,0,1l6.4,3.7
	c0.5,0.3,1.2,0.3,1.7,0l2-1.2c0.2-0.1,0.2-0.3,0-0.4l0,0c-0.2-0.1-0.2-0.4,0-0.5l0.8-0.5c0.2-0.1,0.5-0.1,0.8,0l0,0
	c0.3,0.2,0.6,0.2,0.9,0l1.8-1.1C79.1,960.8,79.1,960.2,78.6,959.9"/>
<path id="path7147-4" class="st4" d="M65.5,959.7l5.4-3.1c0.4-0.2,0.9-0.2,1.3,0l5.3,3.1c0.4,0.2,0.4,0.7,0,0.9l-0.5,0.3l-4.8,2.8
	c-0.4,0.3-1,0.3-1.4,0l-5.3-3.1C65.1,960.4,65.1,959.9,65.5,959.7"/>
</svg>
