<svg enable-background="new 0 0 1000 1000" viewBox="0 0 1000 1000" xmlns="http://www.w3.org/2000/svg"><path d="m0 0h1000v1000h-1000z" fill="#001c2f"/><path d="m940.1 879.5c11 0 19.9 8.7 20.4 19.6.9-1.1 1.9-1.8 2.9-2.3 2.2-1.1 4.4-1.1 4.5-1.1h1.2v1.2c0 2.5-.7 6-4.1 7.9-.6.3-1.1.6-1.6.7 2.4.9 3.8 2.6 4.6 4.1 1.1 2.2 1.1 4.4 1.1 4.5v1.2h-1.2c-2.9 0-5.2-.9-6.8-2.6-.2-.2-.4-.4-.6-.7 0 2 1.3 3.7 3.2 4.3 4.4 1.5 7.5 5.7 7.5 10.6s-3.1 9.1-7.5 10.6c-1.9.7-3.2 2.4-3.2 4.4v5.9c0 1.8 1.2 3.5 2.9 4.1 3.5 1.2 6 4.5 5.9 8.4-.1 4.8-4.1 8.7-8.9 8.7h-31.4c-2.3 0-4.4-1.4-5.4-3.5-1.4-3.1-4.5-5.3-8.1-5.3s-6.7 2.2-8.1 5.3c-.9 2.1-3 3.5-5.4 3.5h-31.3c-4.8 0-8.9-3.8-8.9-8.7-.1-3.9 2.4-7.2 5.9-8.4 1.7-.6 2.9-2.2 2.9-4.1v-5.9c0-2-1.3-3.8-3.2-4.4-4.4-1.5-7.5-5.7-7.5-10.6s3.1-9.1 7.5-10.6c1.9-.7 3.2-2.4 3.2-4.4v-12.2c0-11.3 9.1-20.4 20.4-20.4h49.1m0-1.2h-49c-5.8 0-11.3 2.3-15.4 6.4s-6.4 9.6-6.4 15.4v12.1c0 1.4-.9 2.6-2.2 3.1-5.1 1.8-8.4 6.6-8.4 12s3.4 10.2 8.4 12c1.3.5 2.2 1.7 2.2 3.1v5.9c0 1.2-.8 2.3-1.9 2.7-4.2 1.4-6.9 5.4-6.9 9.8 0 2.7 1.1 5.3 3.1 7.2s4.5 2.9 7.3 2.9h31.3c2.9 0 5.5-1.7 6.7-4.4s3.8-4.5 6.8-4.5c2.9 0 5.6 1.7 6.8 4.5 1.1 2.6 3.8 4.4 6.7 4.4h31.3c2.7 0 5.3-1 7.3-2.9s3.1-4.5 3.1-7.2c.1-4.4-2.7-8.4-6.9-9.8-1.2-.4-1.9-1.5-1.9-2.7v-5.9c0-1.4.9-2.6 2.2-3.1 5.1-1.8 8.4-6.6 8.4-12 0-4.1-2-7.9-5.2-10.3h.5 1.2 1.4v-1.4-1.2c0-.3 0-2.7-1.3-5.2-.7-1.4-1.6-2.5-2.8-3.4 1.4-1 2.5-2.3 3.2-4 .6-1.4.9-3 .9-4.7v-1.2-1.4h-1.4-1.2c-.3 0-2.7 0-5.2 1.3-.4.2-.7.4-1.1.6-.8-4.5-3-8.7-6.4-12-4.1-4-9.5-6.1-15.2-6.1z" fill="#296483"/><path d="m953.1 896.9h-74.9c-3.2 0-5.7 3.9-5.7 8.6 0 2.1.5 4.7 1.3 7.1 1.2 3.4 4.6 5.6 8.1 5.2l29.8-3c3.1-.3 6.2-.3 9.3 0l28.4 3c3.6.4 7-1.8 8.2-5.2.8-2.3 1.3-5 1.3-7-.1-4.9-2.7-8.7-5.8-8.7z" fill="#296483"/><circle cx="903.1" cy="911.8" fill="#f0efef" r="12"/><path d="m903.1 899.8c6.6 0 12 5.4 12 12s-5.4 12-12 12-12-5.4-12-12 5.3-12 12-12m0-1.9c-7.7 0-13.9 6.2-13.9 13.9s6.2 13.9 13.9 13.9 13.9-6.2 13.9-13.9-6.3-13.9-13.9-13.9z" fill="#001c2f"/><circle cx="906.2" cy="913.6" fill="#001c2f" r="8.8"/><path d="m906.2 905.7c4.3 0 7.9 3.5 7.9 7.9 0 4.3-3.5 7.9-7.9 7.9s-7.9-3.5-7.9-7.9c.1-4.4 3.6-7.9 7.9-7.9m0-.9c-4.9 0-8.8 3.9-8.8 8.8s3.9 8.8 8.8 8.8 8.8-3.9 8.8-8.8-3.9-8.8-8.8-8.8z" fill="#00aeef"/><circle cx="905.2" cy="911.3" fill="#f0efef" r="2.7"/><circle cx="929" cy="911.8" fill="#f0efef" r="12"/><path d="m929 899.8c6.6 0 12 5.4 12 12s-5.4 12-12 12-12-5.4-12-12 5.4-12 12-12m0-1.9c-7.7 0-13.9 6.2-13.9 13.9s6.2 13.9 13.9 13.9 13.9-6.2 13.9-13.9-6.2-13.9-13.9-13.9z" fill="#001c2f"/><circle cx="925.9" cy="913.6" fill="#001c2f" r="8.8"/><path d="m925.9 905.7c4.3 0 7.9 3.5 7.9 7.9 0 4.3-3.5 7.9-7.9 7.9s-7.9-3.5-7.9-7.9 3.5-7.9 7.9-7.9m0-.9c-4.9 0-8.8 3.9-8.8 8.8s3.9 8.8 8.8 8.8 8.8-3.9 8.8-8.8c-.1-4.9-4-8.8-8.8-8.8z" fill="#00aeef"/><circle cx="926.9" cy="911.3" fill="#f0efef" r="2.7"/><path d="m329.9 414.2h789.3v30.1h-789.3z" fill="#296483"/><path d="m306.7 347.3h715.4v27.9h-715.4z" fill="#00aeef"/><path d="m329.9 284.4h789.3v27h-789.3z" fill="#296483"/><g fill="#e9eae9"><path d="m304.2 548.5c-4.7-14.3-8.9-27-12.7-38s-7.5-21.2-11-30.7-7.1-18.5-10.7-27c-3.7-8.5-7.7-17.4-12-26.7l-100.6 122.4h-89l157.5-188.5-70.5-158h86l41.5 107c15-18 29.5-36.2 43.5-54.7s26.8-35.9 38.5-52.2h85.5c-9.7 13.7-19.9 27.7-30.7 42.2s-22 29-33.5 43.5-23.1 28.7-34.7 42.5c-11.7 13.8-23 26.9-34 39.2 7 15.7 13.6 30.5 19.7 44.5 6.2 14 12.1 28.1 17.7 42.2 5.7 14.2 11.2 28.7 16.5 43.7s10.8 31.2 16.5 48.5h-83.5z"/><path d="m388.5 350.7h-.1l-9.1 9.1-9.1-9.1h-5v21.1h5v-15.9l9.1 9.2 9.2-9.2v15.9h4.9v-21.1z"/><path d="m405.6 350.7c-1.3 0-2.4 1.1-2.4 2.4v18.8h4.9v-9.1h18.3v9.1h4.9v-18.8c0-1.3-1.1-2.4-2.4-2.4zm2.6 8.3v-4.6h18.3v4.6z"/><path d="m464.5 371.8h4.9l-3.8-9.1h1.2.1c1.3 0 2.4-1.1 2.4-2.4v-7.3c0-1.3-1.1-2.4-2.4-2.4h-25.8v21.2h4.9v-9.1h14.6zm-18.4-17.4h18.3v4.6h-18.3z"/><path d="m507.3 356.9v-6.2h-4.9v8.3h-18.3v-8.3h-4.9v21.2h4.9v-9.1h18.3v9.1h4.9v-7c0-2.2-1.8-4-4-4 2.3 0 4-1.8 4-4z"/><path d="m522.1 359v-4.6h23.1v-3.7h-25.6c-1.3 0-2.4 1.1-2.4 2.4v7.3c0 1.3 1.1 2.4 2.4 2.4h20.8v5.4h-23.2v3.7h25.8c1.3 0 2.4-1.1 2.4-2.4v-8.1c0-1.3-1.1-2.4-2.4-2.4z"/><path d="m674 359v-4.6h23.1v-3.7h-25.6c-1.3 0-2.4 1.1-2.4 2.4v7.3c0 1.3 1.1 2.4 2.4 2.4h20.8v5.4h-23.2v3.7h25.8c1.3 0 2.4-1.1 2.4-2.4v-8.1c0-1.3-1.1-2.4-2.4-2.4z"/></g><path d="m583.2 350.7h-28v3.7h11.5v17.4h4.9v-17.4h11.6z" fill="#001c2f"/><path d="m616.4 350.7v8.3h-18.3v-8.3h-4.9v21.1h4.9v-9.1h18.3v9.1h4.9v-21.1z" fill="#001c2f"/><path d="m659.2 354.4v-3.7h-23.1-4.9v3.7 13.7 3.7h4.9 23.1v-3.7h-23.1v-5.4h20.7v-3.7h-20.7v-4.6z" fill="#001c2f"/><path d="m707.1 350.7v21.2h4.9v-9.1h20.8c1.3 0 2.4-1.1 2.4-2.4v-7.3c0-1.3-1.1-2.4-2.4-2.4zm5 8.3v-4.6h18.3v4.6z" fill="#e9eae9"/><path d="m745.1 353.1v16.4c0 1.3 1.1 2.4 2.4 2.4h23.4c1.3 0 2.4-1.1 2.4-2.4v-16.4c0-1.3-1.1-2.4-2.4-2.4h-23.4c-1.3-0-2.4 1-2.4 2.4zm4.9 15v-13.7h18.3v13.7z" fill="#e9eae9"/><path d="m794.7 350.7h4.9v21.2h-4.9z" fill="#e9eae9"/><path d="m783.1 350.7h28v3.7h-28z" fill="#e9eae9"/><path d="m-2.1 964.4h73.6v2.1h-73.6z" fill="#296483"/><path d="m99.8 957.1v-1.9h-15.1v11.3h2.6v-4.9h12.5v-2h-12.5v-2.5z" fill="#00aeef"/><path d="m120.1 957c0-1-.9-1.8-1.9-1.8h-13.2v11.3h2.6v-4.9h10.5c1.1 0 2-.9 2-2zm-2.6 2.6h-9.8v-2.5h9.8z" fill="#00aeef"/><path d="m138.5 959.6h-8.5v2h7.9v2.8h-9.9v-7.3h12.4c0-1.1-.9-1.9-1.9-1.9h-11.2c-1 0-1.9.8-1.9 1.8v7.4c0 1.2 1 2.1 2.1 2.1h10.8c1.2 0 2.1-1 2.1-2.1v-2.8c0-1.1-.8-2-1.9-2z" fill="#00aeef"/><path d="m-2.1 959.6h67.6v2h-67.6z" fill="#00aeef"/><path d="m-2.1 955.2h73.6v1.9h-73.6z" fill="#296483"/><path d="m158.9 955.2h-11.2c-1.1 0-1.9.9-1.9 1.9v9.4h2.6v-4.9h9.8v4.9h2.6v-9.4c0-1.1-.9-1.9-1.9-1.9zm-10.5 4.4v-2.5h9.8v2.5z" fill="#00aeef"/><path d="m59.8 917.1c-.7.9-1.5 2.1-2.5 3.5s-2.1 3-3.2 4.7-2.3 3.5-3.6 5.4c-1.2 1.9-2.4 3.7-3.6 5.4-1.1 1.7-2.2 3.4-3.2 4.9s-1.8 2.7-2.4 3.7h-4.8c-.2-1-.4-2.2-.6-3.7-.3-1.5-.6-3.1-.9-4.9-.3-1.7-.7-3.5-1-5.4s-.7-3.7-1-5.4-.7-3.3-1-4.7-.5-2.6-.7-3.5c-1.7 5.3-3.4 10.8-5 16.4s-3.2 11.3-4.8 17.1h-5.9c1-3.7 2-7.4 3.1-11.2s2.2-7.4 3.3-11.1c1.1-3.6 2.3-7.2 3.4-10.6s2.2-6.7 3.3-9.8h5.8c.5 1.8 1 3.9 1.6 6.4s1.1 5 1.7 7.7 1.1 5.4 1.5 8c.5 2.7.9 5.1 1.2 7.3 1.5-2.2 3.1-4.7 4.9-7.3 1.8-2.7 3.6-5.3 5.4-8s3.6-5.3 5.3-7.7 3.2-4.6 4.6-6.4h5.7c-.7 6.9-1.6 14-2.8 21.1-1.2 7.2-2.5 14.3-3.8 21.5h-6c1.2-5.9 2.4-11.6 3.4-17.2.9-5.4 1.8-10.9 2.6-16.2z" fill="#e9eae9"/><path d="m74.1 950.6h-5.7l7.7-32h5.7zm6.7-37.8c-.9 0-1.7-.3-2.4-.9-.6-.6-1-1.4-1-2.4 0-1.3.4-2.3 1.2-3.1s1.7-1.1 2.8-1.1c.9 0 1.7.3 2.4.9s1 1.4 1 2.5c0 1.2-.4 2.2-1.3 3-.8.8-1.8 1.1-2.7 1.1z" fill="#e9eae9"/><path d="m94.2 946.4c1.3 0 2.5-.1 3.8-.4s2.4-.7 3.4-1.3 1.8-1.4 2.4-2.4.9-2.2.9-3.7c0-1-.2-1.9-.6-2.7s-.9-1.4-1.6-2-1.5-1.1-2.4-1.7c-.9-.5-1.9-1.1-3-1.6-.9-.5-1.9-1-2.9-1.6s-1.8-1.3-2.6-2.1-1.4-1.8-1.8-3c-.5-1.1-.7-2.5-.7-4.1 0-1.8.4-3.5 1.1-5.1s1.8-2.9 3.2-4 3.1-2 5.1-2.6 4.4-.9 7-.9c1.2 0 2.4.1 3.5.3s2.1.4 3 .7 1.7.6 2.4.9 1.2.6 1.5.8l-2.8 4.7c-.7-.6-1.8-1.1-3.4-1.6-1.5-.5-3.4-.7-5.4-.7-1.3 0-2.5.1-3.7.4-1.1.3-2.1.7-2.9 1.3s-1.5 1.3-2 2.2-.7 1.9-.7 3.2c0 1.1.2 2 .5 2.7s.8 1.4 1.4 1.9c.6.6 1.3 1.1 2.1 1.5.8.5 1.8.9 2.7 1.4 1.2.6 2.4 1.2 3.5 1.9 1.1.6 2 1.4 2.9 2.2.8.9 1.5 1.9 1.9 3 .5 1.1.7 2.5.7 4.2 0 2.3-.4 4.2-1.3 5.9s-2.1 3.1-3.6 4.2-3.4 2-5.5 2.6-4.4.9-6.9.9c-1.6 0-3.1-.1-4.5-.3-1.3-.2-2.5-.5-3.5-.8s-1.9-.7-2.6-1-1.2-.7-1.6-1l2.8-4.9c.8.5 2 1.1 3.7 1.8 1.8.4 3.9.8 6.5.8z" fill="#e9eae9"/><path d="m153.9 908-1.2 5h-12.9l-9 37.7h-6l9-37.7h-12.8l1.2-5z" fill="#e9eae9"/><path d="m159.7 951.4c-2.1 0-3.9-.3-5.4-.9s-2.8-1.4-3.8-2.5c-1-1-1.8-2.3-2.3-3.7s-.7-2.9-.7-4.4c0-2.9.4-5.6 1.3-8.3s2.1-5 3.7-7.1 3.5-3.7 5.8-4.9 4.9-1.8 7.8-1.8c1.7 0 3.1.2 4.3.6s2.2 1 3 1.8c.8.7 1.3 1.6 1.7 2.6s.6 2 .6 3c0 1.9-.3 3.6-1 4.9s-1.6 2.5-2.8 3.4c-1.1.9-2.5 1.6-4 2.1s-3.1.9-4.8 1.2-3.3.5-5 .6-3.3.2-4.8.3c0 .3-.1.6-.1.8v.5c0 .9.1 1.8.3 2.7.2.8.6 1.6 1.3 2.2.6.6 1.5 1.1 2.6 1.5s2.5.6 4.3.6c.8 0 1.6-.1 2.4-.2s1.6-.3 2.4-.6c.8-.2 1.4-.5 2-.7s1-.4 1.3-.6l.5 4.9c-.8.5-2.1.9-4 1.4-2 .4-4.1.6-6.6.6zm-5.8-17.6c2.4-.1 4.6-.2 6.5-.5 2-.2 3.7-.6 5.1-1.2s2.6-1.3 3.4-2.2 1.2-2.2 1.2-3.7c0-.4-.1-.8-.2-1.2s-.4-.8-.7-1.1-.8-.6-1.4-.9c-.6-.2-1.4-.3-2.3-.3-1.4 0-2.8.3-4 .9-1.3.6-2.4 1.4-3.4 2.4s-1.8 2.2-2.5 3.5c-.8 1.4-1.4 2.9-1.7 4.3z" fill="#e9eae9"/><path d="m205.6 973.4c-.9-2.7-1.7-5.1-2.4-7.2s-1.4-4-2.1-5.8-1.3-3.5-2-5.1-1.5-3.3-2.3-5.1l-19.1 23.3h-16.9l29.9-35.8-13.4-30h16.3l7.9 20.3c2.8-3.4 5.6-6.9 8.3-10.4s5.1-6.8 7.3-9.9h16.2c-1.8 2.6-3.8 5.3-5.8 8-2.1 2.8-4.2 5.5-6.4 8.3s-4.4 5.4-6.6 8.1c-2.2 2.6-4.4 5.1-6.5 7.4 1.3 3 2.6 5.8 3.7 8.4 1.2 2.7 2.3 5.3 3.4 8s2.1 5.5 3.1 8.3 2.1 5.9 3.1 9.2z" fill="#e9eae9"/><path d="m61.6 960.7v.4l8 4.6v-.4z" fill="#296483"/><path d="m70.5 965.5c0-.1 0-.1 0 0 0-.1 0-.1 0-.1h-.1s0 0-.1 0 0 0-.1 0 0 0-.1 0 0 0-.1 0h-.1v.4h.1.1.1.1.1.1.1.1v.2z" fill="#296483"/><path d="m71.5 966.4v.4l9.9-5.7v-.4z" fill="#296483"/><path d="m70.4 965.8v.4l1.1.6v-.4z" fill="#296483"/><path d="m61.6 960.7 8 4.6c.2-.1.6-.1.8 0s.2.3 0 .4l1.1.6 9.9-5.7-1.1-.6c-.2.1-.6.1-.8 0s-.2-.3 0-.4l-8-4.6z" fill="#3689af"/><path d="m72 965.5 8.4-4.9-9-5.2-9 5.2 8.4 4.9z" fill="#296483"/><path d="m78.6 959.9-6.3-3.7c-.5-.3-1.1-.3-1.6 0l-6.4 3.7c-.4.2-.4.8 0 1l6.4 3.7c.5.3 1.2.3 1.7 0l2-1.2c.2-.1.2-.3 0-.4-.2-.1-.2-.4 0-.5l.8-.5c.2-.1.5-.1.8 0 .3.2.6.2.9 0l1.8-1.1c.4-.1.4-.7-.1-1" fill="#bbbab8"/><path d="m65.5 959.7 5.4-3.1c.4-.2.9-.2 1.3 0l5.3 3.1c.4.2.4.7 0 .9l-.5.3-4.8 2.8c-.4.3-1 .3-1.4 0l-5.3-3.1c-.4-.2-.4-.7 0-.9" fill="#e9eae9"/></svg>